<?xml version="1.0" encoding="UTF-8"?>
<svg xmlns="http://www.w3.org/2000/svg" xmlns:xlink="http://www.w3.org/1999/xlink" width="16px" height="16px" viewBox="0 0 16 16" version="1.1">
<g id="surface1">
<path style=" stroke:none;fill-rule:nonzero;fill:rgb(0%,0%,0%);fill-opacity:1;" d="M 2.238281 0 C 2.019531 0 1.839844 0.179688 1.839844 0.398438 L 1.839844 11.199219 L 0 11.199219 L 0 14.71875 L 1.839844 14.71875 L 1.839844 15.601562 C 1.839844 15.820312 2.019531 16 2.238281 16 L 13.757812 16 C 13.980469 16 14.160156 15.820312 14.160156 15.601562 L 14.160156 3.460938 C 14.164062 3.28125 14.160156 3.175781 14.042969 3.046875 L 11.113281 0.117188 C 11.039062 0.0390625 10.933594 0 10.824219 0 Z M 2.640625 0.800781 L 10.464844 0.800781 L 10.664062 3.132812 C 10.679688 3.324219 10.835938 3.480469 11.027344 3.496094 L 13.359375 3.695312 L 13.359375 15.199219 L 2.640625 15.199219 L 2.640625 14.71875 L 12.800781 14.71875 L 12.800781 11.199219 L 2.640625 11.199219 Z M 11.324219 1.457031 L 12.699219 2.835938 L 11.433594 2.726562 Z M 2.542969 11.839844 C 2.835938 11.839844 3.058594 11.890625 3.207031 11.992188 C 3.355469 12.09375 3.433594 12.230469 3.441406 12.402344 L 2.96875 12.417969 C 2.945312 12.324219 2.902344 12.253906 2.835938 12.214844 C 2.769531 12.171875 2.671875 12.148438 2.535156 12.148438 C 2.398438 12.148438 2.292969 12.171875 2.214844 12.21875 C 2.164062 12.246094 2.136719 12.285156 2.136719 12.332031 C 2.136719 12.375 2.160156 12.414062 2.207031 12.445312 C 2.269531 12.484375 2.414062 12.527344 2.644531 12.570312 C 2.875 12.613281 3.046875 12.65625 3.15625 12.703125 C 3.265625 12.75 3.351562 12.8125 3.414062 12.894531 C 3.476562 12.972656 3.507812 13.070312 3.507812 13.1875 C 3.507812 13.292969 3.472656 13.394531 3.398438 13.484375 C 3.320312 13.578125 3.214844 13.648438 3.078125 13.695312 C 2.941406 13.738281 2.773438 13.761719 2.570312 13.761719 C 2.273438 13.761719 2.042969 13.707031 1.886719 13.597656 C 1.726562 13.492188 1.632812 13.332031 1.601562 13.125 L 2.0625 13.089844 C 2.089844 13.210938 2.144531 13.300781 2.230469 13.359375 C 2.316406 13.414062 2.429688 13.445312 2.574219 13.445312 C 2.726562 13.445312 2.839844 13.417969 2.917969 13.367188 C 2.996094 13.316406 3.035156 13.257812 3.035156 13.1875 C 3.035156 13.144531 3.015625 13.105469 2.984375 13.078125 C 2.953125 13.046875 2.894531 13.019531 2.816406 12.996094 C 2.761719 12.980469 2.632812 12.953125 2.4375 12.914062 C 2.183594 12.867188 2.003906 12.804688 1.902344 12.730469 C 1.757812 12.628906 1.683594 12.503906 1.683594 12.359375 C 1.683594 12.261719 1.71875 12.175781 1.785156 12.09375 C 1.855469 12.011719 1.953125 11.949219 2.078125 11.90625 C 2.207031 11.863281 2.359375 11.839844 2.542969 11.839844 Z M 3.90625 11.871094 L 4.355469 11.871094 L 4.355469 12.554688 C 4.5 12.421875 4.675781 12.351562 4.875 12.351562 C 4.980469 12.351562 5.074219 12.367188 5.15625 12.398438 C 5.238281 12.429688 5.300781 12.46875 5.34375 12.515625 C 5.386719 12.5625 5.414062 12.613281 5.429688 12.671875 C 5.445312 12.730469 5.453125 12.820312 5.453125 12.9375 L 5.453125 13.726562 L 5.003906 13.726562 L 5.003906 13.019531 C 5.003906 12.875 4.996094 12.789062 4.980469 12.75 C 4.960938 12.710938 4.929688 12.679688 4.886719 12.660156 C 4.84375 12.636719 4.789062 12.625 4.726562 12.625 C 4.65625 12.625 4.589844 12.636719 4.527344 12.667969 C 4.46875 12.695312 4.421875 12.742188 4.394531 12.796875 C 4.371094 12.855469 4.355469 12.941406 4.355469 13.054688 L 4.355469 13.726562 L 3.90625 13.726562 Z M 6.578125 12.351562 C 6.777344 12.351562 6.925781 12.371094 7.023438 12.410156 C 7.125 12.445312 7.191406 12.496094 7.230469 12.554688 C 7.273438 12.609375 7.292969 12.714844 7.292969 12.871094 L 7.289062 13.285156 C 7.289062 13.40625 7.292969 13.492188 7.308594 13.546875 C 7.328125 13.613281 7.355469 13.671875 7.390625 13.726562 L 6.945312 13.726562 C 6.929688 13.695312 6.914062 13.660156 6.902344 13.625 C 6.898438 13.609375 6.890625 13.59375 6.886719 13.582031 C 6.808594 13.640625 6.726562 13.683594 6.640625 13.714844 C 6.546875 13.746094 6.453125 13.757812 6.359375 13.757812 C 6.183594 13.757812 6.046875 13.722656 5.945312 13.644531 C 5.84375 13.570312 5.792969 13.476562 5.792969 13.359375 C 5.792969 13.285156 5.816406 13.21875 5.863281 13.160156 C 5.910156 13.097656 5.972656 13.054688 6.054688 13.023438 C 6.136719 12.988281 6.257812 12.960938 6.414062 12.9375 C 6.625 12.90625 6.769531 12.878906 6.851562 12.851562 L 6.851562 12.816406 C 6.851562 12.746094 6.828125 12.699219 6.785156 12.667969 C 6.742188 12.640625 6.664062 12.625 6.542969 12.625 C 6.464844 12.625 6.402344 12.636719 6.359375 12.664062 C 6.3125 12.6875 6.277344 12.730469 6.25 12.792969 L 5.839844 12.734375 C 5.886719 12.605469 5.964844 12.507812 6.078125 12.445312 C 6.1875 12.382812 6.355469 12.351562 6.578125 12.351562 Z M 8.675781 12.351562 C 8.871094 12.351562 9.039062 12.414062 9.175781 12.535156 C 9.316406 12.660156 9.382812 12.828125 9.382812 13.046875 C 9.382812 13.273438 9.3125 13.449219 9.175781 13.574219 C 9.035156 13.695312 8.867188 13.757812 8.671875 13.757812 C 8.582031 13.761719 8.496094 13.746094 8.414062 13.714844 C 8.339844 13.683594 8.257812 13.632812 8.175781 13.5625 L 8.175781 14.238281 L 7.726562 14.238281 L 7.726562 12.382812 L 8.144531 12.382812 L 8.144531 12.582031 C 8.199219 12.511719 8.273438 12.457031 8.367188 12.417969 C 8.460938 12.371094 8.566406 12.351562 8.675781 12.351562 Z M 10.390625 12.351562 C 10.644531 12.351562 10.84375 12.417969 10.988281 12.550781 C 11.136719 12.683594 11.207031 12.886719 11.199219 13.160156 L 10.070312 13.160156 C 10.074219 13.265625 10.113281 13.347656 10.179688 13.40625 C 10.25 13.464844 10.335938 13.492188 10.441406 13.492188 C 10.511719 13.492188 10.570312 13.476562 10.617188 13.445312 C 10.667969 13.417969 10.703125 13.367188 10.726562 13.300781 L 11.175781 13.359375 C 11.121094 13.488281 11.023438 13.59375 10.902344 13.65625 C 10.777344 13.726562 10.621094 13.757812 10.4375 13.757812 C 10.140625 13.757812 9.921875 13.683594 9.777344 13.53125 C 9.667969 13.40625 9.609375 13.253906 9.609375 13.066406 C 9.609375 12.84375 9.683594 12.667969 9.832031 12.542969 C 9.980469 12.417969 10.164062 12.351562 10.390625 12.351562 Z M 10.417969 12.625 C 10.320312 12.625 10.238281 12.652344 10.175781 12.710938 C 10.109375 12.765625 10.078125 12.84375 10.082031 12.941406 L 10.753906 12.941406 C 10.75 12.835938 10.714844 12.757812 10.652344 12.707031 C 10.589844 12.652344 10.511719 12.625 10.417969 12.625 Z M 8.554688 12.632812 C 8.441406 12.632812 8.351562 12.667969 8.277344 12.734375 C 8.207031 12.800781 8.167969 12.902344 8.167969 13.03125 C 8.167969 13.183594 8.207031 13.296875 8.285156 13.367188 C 8.359375 13.441406 8.453125 13.476562 8.558594 13.476562 C 8.664062 13.476562 8.753906 13.445312 8.820312 13.378906 C 8.890625 13.3125 8.925781 13.203125 8.925781 13.050781 C 8.925781 12.910156 8.890625 12.804688 8.820312 12.738281 C 8.746094 12.667969 8.660156 12.632812 8.554688 12.632812 Z M 6.851562 13.082031 C 6.792969 13.097656 6.703125 13.117188 6.578125 13.136719 C 6.453125 13.15625 6.371094 13.179688 6.332031 13.199219 C 6.273438 13.230469 6.242188 13.273438 6.242188 13.324219 C 6.242188 13.375 6.265625 13.417969 6.3125 13.453125 C 6.359375 13.488281 6.421875 13.507812 6.492188 13.507812 C 6.574219 13.507812 6.652344 13.488281 6.726562 13.445312 C 6.78125 13.414062 6.816406 13.375 6.832031 13.328125 C 6.84375 13.296875 6.851562 13.238281 6.851562 13.152344 Z M 6.851562 13.082031 "/>
<path style=" stroke:none;fill-rule:nonzero;fill:rgb(0%,0%,0%);fill-opacity:1;" d="M 7.980469 3.03125 C 7.648438 3.035156 7.519531 3.042969 7.328125 3.085938 C 6.289062 3.304688 5.5 3.832031 4.933594 4.683594 C 4.5 5.335938 4.320312 5.96875 4.320312 6.824219 C 4.320312 7.59375 4.496094 8.183594 4.902344 8.78125 C 5.570312 9.769531 6.417969 10.265625 7.65625 10.394531 C 7.949219 10.421875 8.527344 10.40625 8.785156 10.359375 C 9.203125 10.285156 9.714844 10.078125 10.058594 9.847656 C 10.714844 9.40625 11.292969 8.558594 11.535156 7.691406 C 11.730469 6.996094 11.726562 6.253906 11.523438 5.621094 C 11.160156 4.488281 10.210938 3.671875 8.976562 3.417969 C 8.664062 3.355469 8.089844 3.332031 7.785156 3.375 C 7.675781 3.386719 7.542969 3.40625 7.488281 3.410156 C 7.421875 3.421875 7.363281 3.4375 7.316406 3.472656 C 7.269531 3.511719 7.242188 3.570312 7.242188 3.628906 C 7.242188 3.675781 7.253906 3.734375 7.304688 3.785156 C 7.347656 3.835938 7.421875 3.894531 7.558594 4.007812 C 7.675781 4.101562 7.792969 4.207031 7.84375 4.253906 L 7.824219 4.257812 C 7.550781 4.300781 7.207031 4.386719 6.886719 4.496094 C 6.808594 4.523438 6.738281 4.546875 6.683594 4.5625 L 6.679688 4.5625 L 6.679688 4.558594 C 6.644531 4.34375 6.625 4.128906 6.613281 3.914062 L 6.601562 3.664062 L 6.660156 3.636719 C 7.03125 3.464844 7.789062 3.292969 8.207031 3.289062 C 8.300781 3.289062 8.367188 3.285156 8.421875 3.265625 C 8.445312 3.257812 8.488281 3.238281 8.5 3.191406 C 8.515625 3.144531 8.488281 3.105469 8.46875 3.082031 C 8.441406 3.058594 8.414062 3.050781 8.390625 3.046875 C 8.367188 3.042969 8.339844 3.039062 8.304688 3.039062 C 8.234375 3.03125 8.128906 3.03125 7.980469 3.03125 Z M 7.808594 3.644531 L 7.863281 3.644531 C 8.714844 3.644531 9.597656 3.957031 10.152344 4.414062 L 9.960938 4.34375 C 9.910156 4.328125 9.90625 4.335938 9.800781 4.253906 C 9.730469 4.195312 9.667969 4.152344 9.613281 4.125 C 9.589844 4.109375 9.5625 4.101562 9.535156 4.09375 C 9.507812 4.085938 9.476562 4.085938 9.449219 4.097656 C 9.425781 4.105469 9.40625 4.117188 9.390625 4.136719 C 9.371094 4.164062 9.363281 4.195312 9.371094 4.226562 C 9.375 4.242188 9.386719 4.25 9.394531 4.261719 C 9.21875 4.234375 9.035156 4.210938 8.726562 4.199219 L 8.359375 4.1875 L 8.121094 3.9375 Z M 6.292969 3.851562 C 6.296875 3.878906 6.296875 3.902344 6.296875 3.933594 C 6.300781 3.996094 6.304688 4.054688 6.308594 4.101562 C 6.3125 4.125 6.3125 4.148438 6.316406 4.164062 C 6.316406 4.179688 6.316406 4.191406 6.324219 4.207031 C 6.324219 4.207031 6.324219 4.21875 6.328125 4.234375 C 6.332031 4.25 6.335938 4.273438 6.335938 4.296875 C 6.351562 4.414062 6.363281 4.53125 6.375 4.648438 C 6.375 4.660156 6.375 4.667969 6.375 4.679688 L 6.335938 4.699219 C 6.289062 4.722656 6.226562 4.757812 6.15625 4.792969 C 5.851562 4.949219 5.535156 5.144531 5.335938 5.292969 C 5.308594 5.3125 5.285156 5.332031 5.261719 5.347656 C 5.253906 5.269531 5.246094 5.1875 5.242188 5.105469 L 5.230469 4.882812 L 5.324219 4.761719 C 5.585938 4.417969 5.921875 4.085938 6.292969 3.851562 Z M 8.769531 4.570312 C 8.84375 4.570312 8.933594 4.574219 9.023438 4.578125 C 9.207031 4.585938 9.402344 4.601562 9.519531 4.617188 L 9.695312 4.640625 L 9.773438 4.730469 C 9.976562 4.953125 10.253906 5.40625 10.390625 5.738281 C 10.394531 5.746094 10.398438 5.75 10.398438 5.753906 C 10.375 5.746094 10.359375 5.738281 10.324219 5.730469 C 10.21875 5.707031 10.109375 5.679688 10 5.660156 C 9.757812 5.613281 9.484375 5.570312 9.296875 5.550781 L 9.175781 5.542969 L 9.039062 5.257812 C 8.949219 5.074219 8.808594 4.828125 8.722656 4.691406 L 8.640625 4.574219 C 8.671875 4.570312 8.710938 4.570312 8.769531 4.570312 Z M 8.15625 4.609375 L 8.21875 4.6875 C 8.359375 4.867188 8.523438 5.128906 8.65625 5.390625 C 8.6875 5.457031 8.710938 5.507812 8.726562 5.542969 C 8.730469 5.550781 8.734375 5.558594 8.734375 5.5625 C 8.582031 5.566406 8.34375 5.605469 8.078125 5.667969 C 7.816406 5.726562 7.535156 5.808594 7.316406 5.890625 L 7.109375 5.964844 C 7.070312 5.980469 7.058594 5.984375 7.039062 5.992188 C 6.996094 5.875 6.816406 5.25 6.78125 5.085938 L 6.753906 4.957031 L 6.789062 4.945312 C 7.078125 4.820312 7.683594 4.660156 8.023438 4.625 Z M 10.261719 4.808594 L 10.460938 4.878906 C 10.664062 4.96875 10.648438 4.957031 10.761719 5.101562 C 10.945312 5.335938 11.070312 5.695312 11.15625 6.097656 C 11.144531 6.089844 11.136719 6.082031 11.125 6.070312 C 11.070312 6.035156 11 5.992188 10.914062 5.949219 C 10.890625 5.9375 10.867188 5.921875 10.84375 5.90625 C 10.835938 5.898438 10.832031 5.894531 10.824219 5.886719 L 10.820312 5.882812 C 10.808594 5.855469 10.753906 5.722656 10.691406 5.582031 C 10.566406 5.28125 10.453125 5.082031 10.261719 4.808594 Z M 6.445312 5.09375 C 6.449219 5.109375 6.449219 5.121094 6.453125 5.140625 C 6.457031 5.164062 6.460938 5.195312 6.46875 5.226562 C 6.484375 5.296875 6.503906 5.386719 6.523438 5.480469 C 6.566406 5.667969 6.621094 5.878906 6.65625 6.003906 L 6.691406 6.132812 L 6.511719 6.230469 C 6.261719 6.363281 5.957031 6.550781 5.75 6.691406 L 5.75 6.675781 L 5.621094 6.765625 C 5.597656 6.785156 5.574219 6.800781 5.554688 6.8125 C 5.535156 6.757812 5.511719 6.679688 5.484375 6.589844 C 5.429688 6.390625 5.382812 6.1875 5.339844 5.984375 C 5.328125 5.921875 5.320312 5.875 5.316406 5.847656 C 5.3125 5.820312 5.3125 5.816406 5.320312 5.804688 C 5.324219 5.800781 5.339844 5.78125 5.375 5.753906 C 5.667969 5.519531 5.980469 5.320312 6.316406 5.152344 C 6.367188 5.125 6.410156 5.109375 6.4375 5.097656 C 6.441406 5.09375 6.441406 5.09375 6.445312 5.09375 Z M 4.886719 5.550781 L 4.894531 5.644531 L 4.832031 5.722656 C 4.851562 5.660156 4.867188 5.597656 4.886719 5.550781 Z M 10.824219 5.890625 L 10.824219 5.894531 L 10.828125 5.902344 L 10.824219 5.917969 L 10.820312 5.929688 L 10.816406 5.933594 C 10.800781 5.917969 10.785156 5.902344 10.789062 5.90625 Z M 8.898438 5.949219 C 8.902344 5.964844 8.910156 5.984375 8.917969 6.007812 C 9.011719 6.253906 9.097656 6.5 9.175781 6.753906 L 9.265625 7.042969 L 9.078125 7.050781 C 8.574219 7.078125 8.078125 7.179688 7.683594 7.34375 C 7.640625 7.359375 7.597656 7.375 7.566406 7.386719 L 7.5625 7.390625 C 7.558594 7.382812 7.554688 7.382812 7.554688 7.375 C 7.527344 7.320312 7.5 7.269531 7.476562 7.210938 C 7.40625 7.042969 7.339844 6.871094 7.277344 6.699219 C 7.25 6.617188 7.21875 6.535156 7.191406 6.449219 C 7.179688 6.421875 7.175781 6.402344 7.167969 6.382812 C 7.183594 6.375 7.203125 6.367188 7.226562 6.355469 C 7.320312 6.3125 7.414062 6.277344 7.507812 6.246094 C 7.734375 6.164062 8.011719 6.085938 8.207031 6.046875 C 8.425781 6.003906 8.644531 5.972656 8.867188 5.953125 Z M 9.332031 5.953125 C 9.585938 5.957031 10.046875 6.03125 10.382812 6.132812 C 10.460938 6.160156 10.507812 6.175781 10.53125 6.1875 C 10.554688 6.203125 10.550781 6.199219 10.5625 6.214844 C 10.566406 6.230469 10.582031 6.269531 10.597656 6.324219 C 10.613281 6.375 10.628906 6.441406 10.648438 6.515625 C 10.679688 6.660156 10.710938 6.828125 10.726562 6.980469 C 10.738281 7.054688 10.746094 7.132812 10.75 7.199219 C 10.753906 7.257812 10.757812 7.296875 10.757812 7.316406 L 10.722656 7.304688 C 10.535156 7.234375 10.167969 7.148438 9.871094 7.097656 L 9.679688 7.066406 L 9.601562 6.773438 C 9.542969 6.570312 9.480469 6.371094 9.410156 6.171875 C 9.371094 6.066406 9.347656 6 9.332031 5.953125 Z M 4.945312 6.105469 C 4.949219 6.113281 4.949219 6.117188 4.949219 6.125 C 4.972656 6.289062 5.097656 6.820312 5.152344 6.976562 C 5.160156 6.996094 5.167969 7.019531 5.171875 7.039062 C 5.125 7.074219 5.050781 7.125 4.976562 7.1875 C 4.933594 7.226562 4.886719 7.269531 4.855469 7.3125 C 4.832031 7.347656 4.828125 7.390625 4.824219 7.429688 C 4.769531 7.171875 4.738281 6.910156 4.730469 6.648438 C 4.722656 6.445312 4.722656 6.316406 4.730469 6.25 C 4.730469 6.230469 4.734375 6.226562 4.734375 6.222656 C 4.742188 6.21875 4.746094 6.222656 4.753906 6.21875 C 4.769531 6.214844 4.785156 6.207031 4.800781 6.199219 C 4.839844 6.179688 4.875 6.15625 4.910156 6.132812 C 4.925781 6.121094 4.933594 6.117188 4.945312 6.105469 Z M 11.199219 6.292969 C 11.210938 6.378906 11.242188 6.449219 11.25 6.535156 C 11.277344 6.824219 11.226562 7.167969 11.140625 7.527344 C 11.128906 7.515625 11.125 7.492188 11.109375 7.480469 C 11.085938 7.464844 11.082031 7.457031 11.082031 7.453125 C 11.078125 7.449219 11.078125 7.445312 11.078125 7.417969 C 11.082031 7.308594 11.0625 7.113281 11.035156 6.890625 C 11.007812 6.691406 10.976562 6.496094 10.9375 6.296875 C 11.007812 6.320312 11.058594 6.335938 11.109375 6.335938 C 11.140625 6.335938 11.171875 6.320312 11.195312 6.300781 C 11.199219 6.300781 11.195312 6.296875 11.199219 6.292969 Z M 6.8125 6.550781 L 6.8125 6.554688 C 6.824219 6.589844 6.84375 6.636719 6.859375 6.6875 C 6.921875 6.875 6.988281 7.0625 7.0625 7.246094 C 7.101562 7.347656 7.136719 7.441406 7.160156 7.511719 C 7.167969 7.535156 7.175781 7.550781 7.183594 7.566406 L 7.179688 7.570312 C 7.148438 7.589844 7.101562 7.613281 7.050781 7.640625 C 6.816406 7.765625 6.457031 7.996094 6.261719 8.152344 C 6.226562 8.175781 6.199219 8.199219 6.175781 8.214844 C 6.164062 8.195312 6.152344 8.179688 6.136719 8.152344 C 6.089844 8.078125 6.042969 8 6.003906 7.917969 C 5.925781 7.769531 5.792969 7.449219 5.734375 7.285156 L 5.714844 7.230469 L 5.882812 7.109375 C 6.066406 6.976562 6.3125 6.820312 6.515625 6.707031 C 6.597656 6.65625 6.683594 6.609375 6.769531 6.566406 C 6.789062 6.558594 6.796875 6.554688 6.8125 6.550781 Z M 9.371094 7.460938 C 9.378906 7.488281 9.390625 7.53125 9.402344 7.582031 C 9.429688 7.679688 9.457031 7.808594 9.480469 7.921875 C 9.492188 7.980469 9.515625 8.136719 9.53125 8.285156 C 9.542969 8.359375 9.550781 8.433594 9.554688 8.492188 C 9.558594 8.53125 9.5625 8.550781 9.5625 8.574219 C 9.550781 8.574219 9.550781 8.574219 9.523438 8.574219 C 9.4375 8.574219 9.25 8.597656 8.894531 8.667969 L 8.890625 8.667969 L 8.359375 8.796875 L 8.261719 8.644531 C 8.132812 8.445312 8.003906 8.238281 7.882812 8.03125 C 7.835938 7.949219 7.796875 7.878906 7.769531 7.824219 C 7.761719 7.8125 7.757812 7.804688 7.753906 7.792969 C 7.765625 7.789062 7.769531 7.785156 7.785156 7.78125 C 7.84375 7.753906 7.929688 7.726562 8.023438 7.695312 C 8.214844 7.632812 8.441406 7.566406 8.589844 7.539062 C 8.695312 7.519531 8.902344 7.492188 9.082031 7.476562 C 9.167969 7.46875 9.253906 7.464844 9.316406 7.460938 C 9.335938 7.460938 9.351562 7.460938 9.371094 7.460938 Z M 4.808594 7.472656 C 4.808594 7.476562 4.808594 7.476562 4.808594 7.476562 C 4.808594 7.476562 4.808594 7.476562 4.808594 7.480469 Z M 9.792969 7.488281 C 9.828125 7.496094 9.871094 7.5 9.921875 7.507812 C 10.175781 7.542969 10.558594 7.636719 10.71875 7.695312 L 10.78125 7.71875 L 10.78125 7.921875 C 10.78125 8.058594 10.777344 8.277344 10.769531 8.390625 C 10.761719 8.488281 10.757812 8.542969 10.75 8.574219 C 10.738281 8.609375 10.730469 8.628906 10.699219 8.671875 C 10.6875 8.691406 10.671875 8.710938 10.65625 8.730469 C 10.648438 8.738281 10.644531 8.738281 10.640625 8.742188 C 10.636719 8.742188 10.589844 8.738281 10.503906 8.714844 L 10.171875 8.632812 L 10.167969 8.632812 C 10.074219 8.613281 9.988281 8.597656 9.953125 8.589844 C 9.945312 8.546875 9.941406 8.507812 9.9375 8.464844 C 9.917969 8.226562 9.867188 7.867188 9.8125 7.601562 C 9.804688 7.5625 9.796875 7.527344 9.792969 7.488281 Z M 5.332031 7.492188 C 5.453125 7.792969 5.613281 8.136719 5.722656 8.316406 C 5.757812 8.378906 5.792969 8.4375 5.816406 8.476562 L 5.828125 8.5 C 5.800781 8.527344 5.765625 8.5625 5.726562 8.605469 C 5.683594 8.648438 5.644531 8.691406 5.617188 8.730469 C 5.601562 8.75 5.589844 8.765625 5.578125 8.785156 C 5.566406 8.804688 5.558594 8.828125 5.554688 8.847656 C 5.550781 8.871094 5.554688 8.894531 5.5625 8.917969 C 5.335938 8.660156 5.140625 8.371094 5.015625 8.070312 C 4.957031 7.929688 4.917969 7.765625 4.875 7.605469 C 4.878906 7.609375 4.882812 7.613281 4.886719 7.617188 C 4.910156 7.644531 4.9375 7.675781 4.984375 7.683594 C 5.007812 7.6875 5.03125 7.683594 5.050781 7.671875 C 5.070312 7.667969 5.082031 7.660156 5.097656 7.652344 C 5.140625 7.625 5.21875 7.570312 5.289062 7.523438 C 5.3125 7.503906 5.316406 7.503906 5.332031 7.492188 Z M 11.085938 7.765625 C 11.082031 7.78125 11.078125 7.796875 11.074219 7.808594 L 11.078125 7.765625 Z M 7.386719 7.96875 C 7.40625 8.019531 7.433594 8.074219 7.492188 8.171875 C 7.5625 8.296875 7.660156 8.457031 7.765625 8.628906 C 7.832031 8.734375 7.890625 8.832031 7.933594 8.902344 C 7.949219 8.929688 7.960938 8.945312 7.972656 8.964844 C 7.945312 8.980469 7.914062 9.003906 7.875 9.023438 C 7.777344 9.074219 7.597656 9.195312 7.457031 9.292969 L 7.265625 9.433594 L 7.054688 9.234375 C 6.9375 9.121094 6.769531 8.945312 6.632812 8.792969 C 6.574219 8.726562 6.515625 8.660156 6.460938 8.59375 C 6.445312 8.578125 6.4375 8.566406 6.425781 8.554688 C 6.449219 8.535156 6.480469 8.511719 6.515625 8.480469 C 6.597656 8.417969 6.707031 8.339844 6.8125 8.273438 C 6.945312 8.1875 7.082031 8.113281 7.222656 8.042969 C 7.289062 8.007812 7.347656 7.984375 7.382812 7.96875 Z M 6.09375 8.808594 C 6.234375 8.992188 6.535156 9.300781 6.765625 9.507812 C 6.847656 9.582031 6.910156 9.640625 6.949219 9.679688 C 6.957031 9.691406 6.960938 9.695312 6.964844 9.699219 C 6.949219 9.722656 6.929688 9.742188 6.914062 9.761719 C 6.898438 9.777344 6.882812 9.792969 6.871094 9.804688 C 6.863281 9.804688 6.855469 9.800781 6.847656 9.800781 C 6.808594 9.785156 6.773438 9.769531 6.734375 9.753906 C 6.648438 9.71875 6.558594 9.679688 6.472656 9.636719 C 6.15625 9.476562 5.863281 9.242188 5.609375 8.96875 C 5.621094 8.972656 5.628906 8.980469 5.640625 8.984375 C 5.6875 8.992188 5.738281 8.988281 5.828125 8.980469 C 5.851562 8.980469 5.871094 8.96875 5.882812 8.964844 C 5.894531 8.957031 5.910156 8.945312 5.925781 8.9375 C 5.960938 8.914062 5.996094 8.890625 6.035156 8.859375 Z M 9.945312 8.957031 L 9.964844 8.957031 C 10.011719 8.957031 10.082031 8.960938 10.285156 8.988281 C 10.355469 9 10.394531 9.003906 10.4375 9.011719 C 10.429688 9.019531 10.425781 9.023438 10.417969 9.03125 C 10.367188 9.082031 10.292969 9.144531 10.21875 9.207031 C 10.113281 9.292969 10.019531 9.351562 9.9375 9.40625 C 9.941406 9.257812 9.945312 9.105469 9.945312 8.957031 Z M 9.585938 8.957031 L 9.585938 9.621094 C 9.429688 9.699219 9.277344 9.769531 9.117188 9.824219 C 9.113281 9.820312 9.113281 9.816406 9.105469 9.8125 C 9.070312 9.769531 9.03125 9.730469 8.996094 9.6875 C 8.898438 9.566406 8.800781 9.441406 8.710938 9.316406 C 8.660156 9.246094 8.625 9.195312 8.601562 9.160156 C 8.597656 9.15625 8.597656 9.152344 8.59375 9.148438 C 8.613281 9.140625 8.636719 9.132812 8.679688 9.121094 C 8.917969 9.046875 9.230469 8.984375 9.46875 8.964844 Z M 8.203125 9.300781 L 8.230469 9.34375 L 8.371094 9.539062 L 8.382812 9.558594 L 8.65625 9.929688 C 8.457031 9.964844 8.269531 9.992188 8.035156 9.992188 L 8.027344 9.988281 C 8.019531 9.984375 8.007812 9.980469 7.996094 9.976562 C 7.964844 9.960938 7.933594 9.941406 7.902344 9.921875 C 7.832031 9.882812 7.765625 9.835938 7.703125 9.792969 L 7.5625 9.6875 C 7.65625 9.617188 7.8125 9.515625 7.960938 9.429688 C 8.042969 9.382812 8.117188 9.34375 8.167969 9.316406 C 8.183594 9.308594 8.191406 9.304688 8.203125 9.300781 Z M 7.292969 9.925781 L 7.304688 9.929688 L 7.289062 9.929688 Z M 8.027344 9.992188 L 8.027344 10.03125 C 8.03125 10.03125 8.011719 10.023438 7.992188 10.015625 L 8 10 L 8.007812 9.996094 L 8.019531 9.992188 L 8.023438 9.992188 C 8.023438 9.992188 8.027344 9.992188 8.027344 9.992188 Z M 8.027344 9.992188 "/>
</g>
</svg>
