<?xml version="1.0" encoding="UTF-8"?>
<svg width="22px" height="24px" viewBox="0 0 22 24" version="1.1" xmlns="http://www.w3.org/2000/svg" xmlns:xlink="http://www.w3.org/1999/xlink">
    <title>hanhchinh-active</title>
    <g id="GIS---Mạng-lưới-điện" stroke="none" stroke-width="1" fill="none" fill-rule="evenodd">
        <path d="M5.5,4.69450549 L5.5,1.31868132 C5.5,0.58021978 6.07619048,0 6.80952381,0 C7.54285714,0 8.11904762,0.58021978 8.11904762,1.31868132 L8.11904762,4.69450549 C8.11904762,5.43296703 7.54285714,6.01318681 6.80952381,6.01318681 C6.07619048,6.01318681 5.5,5.43296703 5.5,4.69450549 Z M15.1904762,6.01318681 C15.9238095,6.01318681 16.5,5.43296703 16.5,4.69450549 L16.5,1.31868132 C16.5,0.58021978 15.9238095,0 15.1904762,0 C14.4571429,0 13.8809524,0.58021978 13.8809524,1.31868132 L13.8809524,4.69450549 C13.8809524,5.43296703 14.4571429,6.01318681 15.1904762,6.01318681 Z M6.33809524,10.5494505 L15.6357143,10.5494505 C16.2119048,10.5494505 16.6833333,10.0747253 16.6833333,9.49450549 C16.6833333,8.91428571 16.2119048,8.43956044 15.6357143,8.43956044 L6.33809524,8.43956044 C5.76190476,8.43956044 5.29047619,8.91428571 5.29047619,9.49450549 C5.29047619,10.0747253 5.76190476,10.5494505 6.33809524,10.5494505 Z M20.952381,1.84615385 L18.7785714,1.84615385 C18.202381,1.84615385 17.7309524,2.32087912 17.7309524,2.9010989 C17.7309524,3.48131868 18.202381,3.95604396 18.7785714,3.95604396 L19.9047619,3.95604396 L19.9047619,21.8901099 L2.0952381,21.8901099 L2.0952381,3.95604396 L3.22142857,3.95604396 C3.79761905,3.95604396 4.26904762,3.48131868 4.26904762,2.9010989 C4.26904762,2.32087912 3.79761905,1.84615385 3.22142857,1.84615385 L1.04761905,1.84615385 C0.471428571,1.84615385 0,2.42637363 0,3.00659341 L0,22.9450549 C0,23.5252747 0.471428571,24 1.04761905,24 L20.952381,24 C21.5285714,24 22,23.5252747 22,22.9450549 L22,3.00659341 C22,2.42637363 21.5285714,1.84615385 20.952381,1.84615385 Z M10.1357143,3.95604396 L11.8642857,3.95604396 C12.4404762,3.95604396 12.9119048,3.48131868 12.9119048,2.9010989 C12.9119048,2.32087912 12.4404762,1.84615385 11.8642857,1.84615385 L10.1357143,1.84615385 C9.55952381,1.84615385 9.08809524,2.32087912 9.08809524,2.9010989 C9.08809524,3.48131868 9.55952381,3.95604396 10.1357143,3.95604396 Z M6.33809524,15.2967033 L15.6357143,15.2967033 C16.2119048,15.2967033 16.6833333,14.821978 16.6833333,14.2417582 C16.6833333,13.6615385 16.2119048,13.1868132 15.6357143,13.1868132 L6.33809524,13.1868132 C5.76190476,13.1868132 5.29047619,13.6615385 5.29047619,14.2417582 C5.29047619,14.821978 5.76190476,15.2967033 6.33809524,15.2967033 Z" id="hanhchinh-active" fill="#254EA6"></path>
    </g>
</svg>