<svg xmlns="http://www.w3.org/2000/svg" width="20" height="20" viewBox="0 0 20 20" fill="none">
<path d="M14.8263 18.9583H5.1763C2.89297 18.9583 1.04297 17.1 1.04297 14.8167V8.64167C1.04297 7.50833 1.74297 6.08333 2.64297 5.38333L7.13464 1.88333C8.48464 0.833332 10.643 0.783332 12.043 1.76667L17.193 5.375C18.1846 6.06667 18.9596 7.55 18.9596 8.75833V14.825C18.9596 17.1 17.1096 18.9583 14.8263 18.9583ZM7.9013 2.86667L3.40964 6.36667C2.81797 6.83333 2.29297 7.89167 2.29297 8.64167V14.8167C2.29297 16.4083 3.58464 17.7083 5.1763 17.7083H14.8263C16.418 17.7083 17.7096 16.4167 17.7096 14.825V8.75833C17.7096 7.95833 17.1346 6.85 16.4763 6.4L11.3263 2.79167C10.3763 2.125 8.80963 2.15833 7.9013 2.86667Z" fill="#253e90"/>
<path d="M10 15.625C9.65833 15.625 9.375 15.3417 9.375 15V12.5C9.375 12.1583 9.65833 11.875 10 11.875C10.3417 11.875 10.625 12.1583 10.625 12.5V15C10.625 15.3417 10.3417 15.625 10 15.625Z" fill="#253e90"/>
</svg>