<?xml version="1.0" encoding="UTF-8"?>
<svg width="16px" height="16px" viewBox="0 0 16 16" version="1.1" xmlns="http://www.w3.org/2000/svg" xmlns:xlink="http://www.w3.org/1999/xlink">
    <title>Dang nhap</title>
    <g id="Design" stroke="none" stroke-width="1" fill="none" fill-rule="evenodd">
        <g id="Artboard" transform="translate(-465.000000, -192.000000)" fill="#FFFFFF" fill-rule="nonzero">
            <path d="M473,195.625 C471.276844,195.625 469.875,197.026875 469.875,198.75 C469.875,200.473125 471.276844,201.875 473,201.875 C474.723156,201.875 476.125,200.473125 476.125,198.75 C476.125,197.026875 474.723156,195.625 473,195.625 Z M473,200.625 C471.966125,200.625 471.125,199.783875 471.125,198.75 C471.125,197.716125 471.966125,196.875 473,196.875 C474.033875,196.875 474.875,197.716125 474.875,198.75 C474.875,199.783875 474.033875,200.625 473,200.625 Z M473,192 C468.514,192 465,195.514 465,200 C465,204.501625 468.53,208 473,208 C477.475687,208 481,204.495156 481,200 C481,195.514 477.486,192 473,192 Z M473,206.75 C471.531469,206.75 470.186531,206.303469 469.090156,205.536094 C469.825844,204.077219 471.342938,203.125 473.000031,203.125 C474.657094,203.125 476.174156,204.077219 476.909844,205.536063 C475.813469,206.303438 474.468563,206.75 473,206.75 Z M477.882531,204.704125 C477.476094,203.993875 476.918375,203.379781 476.238688,202.900406 C475.2875,202.229562 474.167594,201.875 473.000031,201.875 C471.832438,201.875 470.712531,202.229562 469.761344,202.900406 C469.081656,203.379781 468.523906,203.993875 468.117469,204.704125 C466.955625,203.497031 466.25,201.846187 466.25,200 C466.25,196.214969 469.214969,193.25 473,193.25 C476.785031,193.25 479.75,196.214969 479.75,200 C479.75,201.846156 479.044375,203.497 477.882531,204.704125 L477.882531,204.704125 Z" id="Dang-nhap"></path>
        </g>
    </g>
</svg>