<?xml version="1.0" encoding="UTF-8"?>
<svg width="20px" height="14px" viewBox="0 0 20 14" version="1.1" xmlns="http://www.w3.org/2000/svg" xmlns:xlink="http://www.w3.org/1999/xlink">
    <title>folder</title>
    <g id="GIS---Mạng-lưới-điện" stroke="none" stroke-width="1" fill="none" fill-rule="evenodd">
        <g id="02.-QL-lưới-điện---DS-hành-chính" transform="translate(-106.000000, -124.000000)" fill-rule="nonzero">
            <g id="folder" transform="translate(106.000000, 124.000000)">
                <path d="M17.1818182,2.54545455 L9.80636364,2.54545455 L7.45181818,0.184545455 C7.33172438,0.0654267636 7.16914735,-0.000977937418 7,-1.06503597e-05 L1.90909091,-1.06503597e-05 C0.854729114,-1.06503597e-05 0,0.854729114 0,1.90909091 L0,12.0909091 C0,13.1452709 0.854729114,14 1.90909091,14 L17.1818182,14 C18.23618,14 19.0909091,13.1452709 19.0909091,12.0909091 L19.0909091,4.45454545 C19.0909091,3.40018366 18.23618,2.54545455 17.1818182,2.54545455 Z" id="Path" fill="#FDB32F"></path>
                <path d="M18.0281818,13.2554545 L2.75545455,13.2554545 C1.70109275,13.2554545 0.846363636,12.4007254 0.846363636,11.3463636 L0.846363636,1.16454545 C0.8494951,0.810827031 0.95083955,0.464934019 1.13909091,0.165454545 C0.447873008,0.470125379 0.00129959786,1.15370702 0,1.90909091 L0,12.0909091 C0,13.1452709 0.854729114,14 1.90909091,14 L17.1818182,14 C17.8416655,13.9963902 18.4528664,13.6522889 18.7981818,13.09 C18.5564741,13.2001069 18.2937848,13.2565526 18.0281818,13.2554545 Z" id="Path" fill="#D98B00"></path>
                <path d="M6.44636364,11.5563636 L3.90090909,11.5563636 C3.54945516,11.5563636 3.26454545,11.2714539 3.26454545,10.92 C3.26454545,10.5685461 3.54945516,10.2836364 3.90090909,10.2836364 L6.44636364,10.2836364 C6.79781757,10.2836364 7.08272727,10.5685461 7.08272727,10.92 C7.08272727,11.2714539 6.79781757,11.5563636 6.44636364,11.5563636 Z" id="Path" fill="#E49F4E"></path>
                <path d="M6.36363636,11.4545455 L3.81818182,11.4545455 C3.46672789,11.4545455 3.18181818,11.1696357 3.18181818,10.8181818 C3.18181818,10.4667279 3.46672789,10.1818182 3.81818182,10.1818182 L6.36363636,10.1818182 C6.7150903,10.1818182 7,10.4667279 7,10.8181818 C7,11.1696357 6.7150903,11.4545455 6.36363636,11.4545455 Z" id="Path" fill="#FFFFFF"></path>
                <path d="M3.39181818,11.0090909 C3.39181818,10.657637 3.67672789,10.3727273 4.02818182,10.3727273 L6.57363636,10.3727273 C6.67863247,10.3751996 6.78138444,10.4036204 6.87272727,10.4554545 C6.75662774,10.2879957 6.56735632,10.1862623 6.36363636,10.1818182 L3.81818182,10.1818182 C3.53189754,10.1882901 3.28519659,10.3851821 3.21539532,10.662902 C3.14559406,10.9406219 3.2698868,11.2307583 3.51909091,11.3718182 C3.44028912,11.26692 3.39583616,11.140229 3.39181818,11.0090909 Z" id="Path" fill="#D7E2F2"></path>
            </g>
        </g>
    </g>
</svg>