<?xml version="1.0" encoding="UTF-8"?>
<svg xmlns="http://www.w3.org/2000/svg" xmlns:xlink="http://www.w3.org/1999/xlink" width="20px" height="16px" viewBox="0 0 20 16" version="1.1">
<g id="surface1">
<path style=" stroke:none;fill-rule:evenodd;fill:rgb(1.568627%,1.568627%,1.568627%);fill-opacity:1;" d="M 7.941406 0.515625 C 7.867188 0.59375 7.859375 0.621094 7.859375 0.949219 L 7.859375 1.304688 L 9.890625 1.292969 L 11.921875 1.285156 L 11.933594 1.003906 C 11.945312 0.667969 11.929688 0.59375 11.835938 0.503906 C 11.761719 0.4375 11.726562 0.433594 9.894531 0.433594 L 8.023438 0.433594 L 7.941406 0.515625 M 7.859375 2.621094 C 7.859375 3.347656 7.878906 3.441406 8.015625 3.503906 C 8.066406 3.527344 8.367188 3.539062 8.839844 3.539062 L 9.585938 3.539062 L 9.585938 4.351562 C 9.585938 4.796875 9.574219 5.304688 9.5625 5.484375 L 9.542969 5.808594 L 8.597656 5.820312 L 7.65625 5.828125 L 7.558594 5.9375 C 7.464844 6.046875 7.460938 6.050781 7.460938 6.449219 L 7.460938 6.847656 L 12.339844 6.847656 L 12.335938 6.472656 C 12.335938 6.042969 12.308594 5.957031 12.140625 5.871094 C 12.039062 5.820312 11.914062 5.8125 11.128906 5.8125 L 10.238281 5.8125 L 10.261719 5.285156 C 10.273438 4.996094 10.28125 4.484375 10.28125 4.148438 L 10.28125 3.539062 L 11.007812 3.539062 C 11.730469 3.539062 11.738281 3.539062 11.832031 3.460938 L 11.921875 3.378906 L 11.933594 2.660156 L 11.945312 1.9375 L 7.859375 1.9375 L 7.859375 2.621094 M 0.378906 6.0625 C 0.304688 6.136719 0.296875 6.164062 0.296875 6.496094 L 0.296875 6.847656 L 4.378906 6.847656 L 4.378906 6.527344 C 4.378906 6.199219 4.332031 6.039062 4.226562 6 C 4.199219 5.988281 3.339844 5.980469 2.316406 5.980469 L 0.460938 5.980469 L 0.378906 6.0625 M 15.664062 6 C 15.566406 6.039062 15.523438 6.207031 15.523438 6.527344 L 15.523438 6.847656 L 19.601562 6.847656 L 19.601562 6.496094 C 19.601562 6.164062 19.597656 6.136719 19.519531 6.0625 L 19.4375 5.980469 L 17.570312 5.980469 C 16.546875 5.984375 15.6875 5.992188 15.664062 6 M 0.296875 8.257812 C 0.296875 9.035156 0.308594 9.117188 0.429688 9.210938 C 0.464844 9.238281 0.695312 9.25 1.234375 9.25 L 1.988281 9.253906 L 1.988281 12.191406 L 1.234375 12.191406 C 0.695312 12.195312 0.464844 12.207031 0.429688 12.234375 C 0.328125 12.3125 0.296875 12.421875 0.296875 12.742188 L 0.296875 13.058594 L 4.378906 13.058594 L 4.378906 12.722656 C 4.378906 12.394531 4.375 12.382812 4.28125 12.289062 L 4.183594 12.191406 L 2.6875 12.191406 L 2.6875 9.253906 L 4.183594 9.253906 L 4.28125 9.15625 C 4.378906 9.058594 4.378906 9.058594 4.378906 8.636719 L 4.378906 8.21875 L 7.460938 8.21875 L 7.460938 9.523438 L 7.65625 9.71875 L 9.582031 9.71875 L 9.5625 11.984375 C 9.550781 13.230469 9.550781 14.289062 9.566406 14.34375 C 9.578125 14.394531 9.628906 14.472656 9.675781 14.515625 L 9.761719 14.597656 L 15.523438 14.597656 L 15.523438 14.917969 C 15.523438 15.246094 15.566406 15.402344 15.671875 15.445312 C 15.703125 15.457031 16.5625 15.464844 17.582031 15.464844 L 19.4375 15.464844 L 19.601562 15.300781 L 19.601562 13.855469 L 14.925781 13.882812 L 10.25 13.90625 L 10.25 12.21875 C 10.25 11.292969 10.257812 10.351562 10.269531 10.125 L 10.292969 9.71875 L 11.203125 9.71875 C 11.761719 9.71875 12.136719 9.707031 12.175781 9.6875 C 12.316406 9.609375 12.339844 9.492188 12.339844 8.835938 L 12.339844 8.21875 L 15.523438 8.21875 L 15.523438 8.554688 C 15.523438 8.882812 15.523438 8.894531 15.621094 8.988281 L 15.714844 9.085938 L 17.171875 9.085938 L 17.191406 9.84375 C 17.203125 10.257812 17.214844 10.996094 17.214844 11.480469 L 17.214844 12.359375 L 15.714844 12.359375 L 15.621094 12.457031 C 15.523438 12.550781 15.523438 12.5625 15.523438 12.890625 L 15.523438 13.226562 L 19.601562 13.226562 L 19.601562 12.890625 C 19.601562 12.5625 19.597656 12.550781 19.503906 12.457031 L 19.40625 12.359375 L 17.910156 12.359375 L 17.910156 11.929688 C 17.910156 11.695312 17.902344 10.957031 17.886719 10.292969 L 17.867188 9.085938 L 19.40625 9.085938 L 19.601562 8.890625 L 19.601562 7.492188 L 0.296875 7.492188 L 0.296875 8.257812 M 0.296875 14.414062 C 0.296875 15.132812 0.296875 15.132812 0.378906 15.214844 L 0.460938 15.296875 L 2.328125 15.296875 C 3.742188 15.296875 4.207031 15.285156 4.25 15.253906 C 4.363281 15.164062 4.378906 15.078125 4.378906 14.382812 L 4.378906 13.695312 L 0.296875 13.695312 L 0.296875 14.414062 "/>
</g>
</svg>
