<?xml version="1.0" encoding="UTF-8"?>
<svg xmlns="http://www.w3.org/2000/svg" xmlns:xlink="http://www.w3.org/1999/xlink" width="14px" height="16px" viewBox="0 0 14 15" version="1.1">
<g id="surface1">
<path style=" stroke:none;fill-rule:evenodd;fill:rgb(1.568627%,1.568627%,1.568627%);fill-opacity:1;" d="M 0.441406 0.210938 C 0.371094 0.234375 0.324219 0.273438 0.292969 0.335938 L 0.261719 0.390625 L 0.261719 7.480469 C 0.265625 13.375 0.265625 14.574219 0.277344 14.609375 C 0.300781 14.667969 0.34375 14.714844 0.402344 14.742188 L 0.453125 14.765625 L 6.023438 14.769531 C 10.183594 14.773438 11.609375 14.769531 11.652344 14.761719 C 11.71875 14.746094 11.785156 14.699219 11.820312 14.632812 L 11.847656 14.589844 L 11.847656 11.808594 C 11.851562 10.28125 11.851562 8.335938 11.851562 7.488281 L 11.851562 5.945312 L 12.484375 5.945312 C 12.890625 5.945312 13.140625 5.941406 13.183594 5.933594 C 13.414062 5.894531 13.617188 5.703125 13.667969 5.476562 C 13.679688 5.414062 13.683594 5.195312 13.679688 3.925781 C 13.675781 2.449219 13.675781 2.449219 13.652344 2.390625 C 13.566406 2.171875 13.40625 2.03125 13.191406 1.988281 C 13.132812 1.976562 12.984375 1.976562 12.484375 1.976562 L 11.851562 1.976562 L 11.847656 1.183594 C 11.847656 0.445312 11.84375 0.386719 11.824219 0.347656 C 11.800781 0.296875 11.757812 0.253906 11.703125 0.226562 L 11.660156 0.203125 L 6.074219 0.199219 C 1.4375 0.199219 0.480469 0.203125 0.441406 0.210938 M 0.757812 7.484375 L 0.757812 14.304688 L 11.359375 14.304688 L 11.359375 5.945312 L 7.945312 5.945312 C 5.558594 5.945312 4.511719 5.941406 4.464844 5.933594 C 4.253906 5.898438 4.066406 5.730469 3.996094 5.515625 C 3.976562 5.457031 3.972656 5.378906 3.972656 3.960938 C 3.972656 2.542969 3.976562 2.464844 3.996094 2.40625 C 4.0625 2.195312 4.242188 2.035156 4.460938 1.988281 C 4.523438 1.976562 5.0625 1.976562 7.945312 1.976562 L 11.359375 1.976562 L 11.359375 0.664062 L 0.757812 0.664062 L 0.757812 7.484375 M 4.515625 2.4375 C 4.5 2.445312 4.476562 2.464844 4.464844 2.480469 C 4.445312 2.507812 4.445312 2.558594 4.441406 3.941406 C 4.441406 5.070312 4.441406 5.378906 4.453125 5.410156 C 4.460938 5.4375 4.480469 5.460938 4.503906 5.476562 L 4.542969 5.5 L 8.824219 5.5 C 13.101562 5.5 13.105469 5.5 13.144531 5.476562 C 13.214844 5.4375 13.210938 5.527344 13.210938 3.960938 C 13.210938 2.378906 13.214844 2.484375 13.140625 2.441406 C 13.105469 2.421875 12.996094 2.421875 8.824219 2.421875 C 5.152344 2.421875 4.539062 2.425781 4.515625 2.4375 M 10.390625 3.066406 C 10.21875 3.085938 10.078125 3.140625 9.964844 3.226562 C 9.898438 3.277344 9.820312 3.378906 9.800781 3.4375 C 9.765625 3.542969 9.777344 3.710938 9.824219 3.800781 C 9.914062 3.964844 10.089844 4.066406 10.523438 4.195312 C 10.621094 4.222656 10.722656 4.269531 10.761719 4.300781 C 10.820312 4.347656 10.835938 4.386719 10.835938 4.46875 C 10.835938 4.539062 10.832031 4.554688 10.808594 4.589844 C 10.761719 4.65625 10.679688 4.691406 10.558594 4.695312 C 10.304688 4.710938 10.160156 4.625 10.128906 4.445312 L 10.113281 4.375 L 9.925781 4.375 C 9.757812 4.375 9.734375 4.378906 9.726562 4.394531 C 9.714844 4.421875 9.746094 4.566406 9.777344 4.632812 C 9.859375 4.796875 10.0625 4.925781 10.316406 4.972656 C 10.445312 5 10.691406 4.992188 10.808594 4.957031 C 11.03125 4.898438 11.183594 4.765625 11.230469 4.601562 C 11.273438 4.445312 11.238281 4.277344 11.136719 4.15625 C 11.058594 4.0625 10.871094 3.960938 10.65625 3.894531 C 10.257812 3.769531 10.183594 3.71875 10.183594 3.585938 C 10.183594 3.472656 10.261719 3.402344 10.402344 3.371094 C 10.632812 3.328125 10.816406 3.421875 10.839844 3.59375 L 10.847656 3.644531 L 11.042969 3.644531 L 11.238281 3.648438 L 11.238281 3.59375 C 11.238281 3.519531 11.207031 3.425781 11.160156 3.359375 C 11.078125 3.234375 10.894531 3.117188 10.734375 3.082031 C 10.640625 3.0625 10.484375 3.054688 10.390625 3.066406 M 6.433594 3.121094 C 6.445312 3.140625 6.578125 3.347656 6.726562 3.585938 C 6.949219 3.941406 6.992188 4.019531 6.984375 4.039062 C 6.980469 4.050781 6.847656 4.261719 6.6875 4.507812 C 6.53125 4.757812 6.402344 4.960938 6.402344 4.964844 C 6.402344 4.964844 6.507812 4.96875 6.636719 4.96875 L 6.867188 4.96875 L 7.054688 4.636719 C 7.15625 4.453125 7.242188 4.308594 7.246094 4.308594 C 7.25 4.3125 7.335938 4.457031 7.433594 4.632812 C 7.53125 4.808594 7.613281 4.957031 7.617188 4.960938 C 7.621094 4.964844 7.734375 4.96875 7.863281 4.964844 L 8.101562 4.964844 L 7.796875 4.492188 L 7.488281 4.023438 L 7.75 3.605469 C 7.894531 3.375 8.023438 3.164062 8.039062 3.136719 L 8.070312 3.085938 L 7.601562 3.085938 L 7.421875 3.417969 C 7.277344 3.679688 7.242188 3.742188 7.230469 3.730469 C 7.226562 3.71875 7.144531 3.574219 7.050781 3.398438 L 6.878906 3.085938 L 6.410156 3.085938 L 6.433594 3.121094 M 8.300781 4.027344 L 8.300781 4.96875 L 9.570312 4.96875 L 9.570312 4.667969 L 8.695312 4.667969 L 8.695312 3.085938 L 8.300781 3.085938 L 8.300781 4.027344 M 1.457031 7.792969 C 1.414062 7.816406 1.390625 7.835938 1.363281 7.875 L 1.332031 7.925781 L 1.332031 11.273438 L 1.363281 11.324219 C 1.390625 11.363281 1.414062 11.382812 1.457031 11.40625 L 1.515625 11.433594 L 10.585938 11.433594 L 10.644531 11.40625 C 10.683594 11.386719 10.71875 11.363281 10.738281 11.332031 L 10.769531 11.289062 L 10.769531 7.914062 L 10.738281 7.867188 C 10.71875 7.835938 10.683594 7.8125 10.644531 7.792969 L 10.585938 7.765625 L 1.515625 7.765625 L 1.457031 7.792969 M 1.820312 8.535156 L 1.820312 8.835938 L 3.871094 8.835938 L 3.871094 8.234375 L 1.820312 8.234375 L 1.820312 8.535156 M 4.363281 8.535156 L 4.363281 8.835938 L 7.738281 8.835938 L 7.738281 8.234375 L 4.363281 8.234375 L 4.363281 8.535156 M 8.234375 8.535156 L 8.234375 8.835938 L 10.285156 8.835938 L 10.285156 8.234375 L 8.234375 8.234375 L 8.234375 8.535156 M 1.820312 9.605469 L 1.820312 9.90625 L 3.871094 9.90625 L 3.871094 9.304688 L 1.820312 9.304688 L 1.820312 9.605469 M 4.363281 9.605469 L 4.363281 9.90625 L 7.738281 9.90625 L 7.738281 9.304688 L 4.363281 9.304688 L 4.363281 9.605469 M 8.234375 9.605469 L 8.234375 9.90625 L 10.285156 9.90625 L 10.285156 9.304688 L 8.234375 9.304688 L 8.234375 9.605469 M 1.820312 10.664062 L 1.820312 10.964844 L 3.871094 10.964844 L 3.871094 10.363281 L 1.820312 10.363281 L 1.820312 10.664062 M 4.363281 10.664062 L 4.363281 10.964844 L 7.738281 10.964844 L 7.738281 10.363281 L 4.363281 10.363281 L 4.363281 10.664062 M 8.234375 10.664062 L 8.234375 10.964844 L 10.285156 10.964844 L 10.285156 10.363281 L 8.234375 10.363281 L 8.234375 10.664062 "/>
</g>
</svg>
