<?xml version="1.0" encoding="UTF-8"?>
<svg width="21px" height="24px" viewBox="0 0 21 24" version="1.1" xmlns="http://www.w3.org/2000/svg" xmlns:xlink="http://www.w3.org/1999/xlink">
    <title>pdf</title>
    <g id="Design" stroke="none" stroke-width="1" fill="none" fill-rule="evenodd">
        <g id="Artboard" transform="translate(-694.000000, -240.000000)" fill-rule="nonzero">
            <g id="pdf" transform="translate(694.000000, 240.000000)">
                <path d="M4.5,0 C3.675,0 3,0.675 3,1.5 L3,22.5 C3,23.325 3.675,24 4.5,24 L19.5,24 C20.325,24 21,23.325 21,22.5 L21,6 L15,0 L4.5,0 Z" id="Path" fill="#E2E5E7"></path>
                <path d="M16.5,6 L21,6 L15,0 L15,4.5 C15,5.325 15.675,6 16.5,6 Z" id="Path" fill="#B0B7BD"></path>
                <polygon id="Path" fill="#CAD1D8" points="21 10.5 16.5 6 21 6"></polygon>
                <path d="M18,19.5 C18,19.9125 17.6625,20.25 17.25,20.25 L0.75,20.25 C0.3375,20.25 0,19.9125 0,19.5 L0,12 C0,11.5875 0.3375,11.25 0.75,11.25 L17.25,11.25 C17.6625,11.25 18,11.5875 18,12 L18,19.5 Z" id="Path" fill="#F15642"></path>
                <g id="Group" transform="translate(3.234375, 13.781250)" fill="#FFFFFF">
                    <path d="M0.034875,0.429 C0.034875,0.231 0.190875,0.015 0.442125,0.015 L1.827375,0.015 C2.607375,0.015 3.309375,0.537 3.309375,1.5375 C3.309375,2.4855 2.607375,3.0135 1.827375,3.0135 L0.826125,3.0135 L0.826125,3.8055 C0.826125,4.0695 0.658125,4.21875 0.442125,4.21875 C0.244125,4.21875 0.034875,4.0695 0.034875,3.8055 L0.034875,0.429 L0.034875,0.429 Z M0.826125,0.77025 L0.826125,2.26425 L1.827375,2.26425 C2.229375,2.26425 2.547375,1.9095 2.547375,1.5375 C2.547375,1.11825 2.229375,0.77025 1.827375,0.77025 L0.826125,0.77025 Z" id="Shape"></path>
                    <path d="M4.483875,4.21875 C4.285875,4.21875 4.069875,4.11075 4.069875,3.8475 L4.069875,0.441 C4.069875,0.22575 4.285875,0.069 4.483875,0.069 L5.857125,0.069 C8.597625,0.069 8.537625,4.21875 5.911125,4.21875 L4.483875,4.21875 L4.483875,4.21875 Z M4.861875,0.801 L4.861875,3.4875 L5.857125,3.4875 C7.476375,3.4875 7.548375,0.801 5.857125,0.801 L4.861875,0.801 L4.861875,0.801 Z" id="Shape"></path>
                    <path d="M9.509625,0.849 L9.509625,1.80225 L11.038875,1.80225 C11.254875,1.80225 11.470875,2.01825 11.470875,2.2275 C11.470875,2.4255 11.254875,2.5875 11.038875,2.5875 L9.509625,2.5875 L9.509625,3.84675 C9.509625,4.05675 9.360375,4.218 9.150375,4.218 C8.886375,4.218 8.725125,4.05675 8.725125,3.84675 L8.725125,0.44025 C8.725125,0.225 8.887125,0.06825 9.150375,0.06825 L11.255625,0.06825 C11.519625,0.06825 11.675625,0.225 11.675625,0.44025 C11.675625,0.63225 11.519625,0.84825 11.255625,0.84825 L9.509625,0.84825 L9.509625,0.849 Z" id="Path"></path>
                </g>
                <path d="M17.25,20.25 L3,20.25 L3,21 L17.25,21 C17.6625,21 18,20.6625 18,20.25 L18,19.5 C18,19.9125 17.6625,20.25 17.25,20.25 Z" id="Path" fill="#CAD1D8"></path>
            </g>
        </g>
    </g>
</svg>