<?xml version="1.0" encoding="UTF-8"?>
<svg xmlns="http://www.w3.org/2000/svg" xmlns:xlink="http://www.w3.org/1999/xlink" width="13px" height="16px" viewBox="0 0 13 16" version="1.1">
<g id="surface1">
<path style=" stroke:none;fill-rule:evenodd;fill:rgb(0%,0%,0%);fill-opacity:1;" d="M 1.234375 0.414062 C 0.578125 0.703125 0.601562 0.507812 0.601562 5.640625 C 0.601562 9.648438 0.585938 10.210938 0.46875 10.308594 C 0.355469 10.398438 0.339844 10.722656 0.363281 12.699219 C 0.386719 14.871094 0.394531 14.996094 0.570312 15.21875 C 0.667969 15.347656 0.882812 15.53125 1.042969 15.621094 C 1.324219 15.785156 1.488281 15.789062 6.542969 15.789062 C 11.597656 15.789062 11.761719 15.785156 12.042969 15.621094 C 12.675781 15.261719 12.695312 15.191406 12.726562 13.179688 C 12.746094 11.660156 12.730469 11.347656 12.617188 11.179688 C 12.5 11.007812 12.484375 10.511719 12.484375 7.5625 L 12.484375 4.140625 L 10.476562 2.195312 L 8.472656 0.25 L 5.03125 0.253906 C 1.839844 0.253906 1.566406 0.265625 1.234375 0.414062 M 1.550781 0.894531 C 1.207031 1.015625 1.207031 1.050781 1.207031 5.628906 L 1.207031 10.050781 L 3.050781 10.050781 C 4.066406 10.050781 4.992188 10.089844 5.109375 10.132812 C 5.230469 10.175781 5.488281 10.382812 5.6875 10.59375 L 6.046875 10.972656 L 11.878906 10.972656 L 11.878906 4.605469 L 10.363281 4.605469 C 8.09375 4.605469 8.070312 4.585938 8.023438 2.324219 L 7.992188 0.835938 L 4.835938 0.84375 C 3.097656 0.847656 1.621094 0.871094 1.550781 0.894531 M 2.582031 3.226562 L 2.582031 4.019531 L 6.542969 4.019531 L 6.542969 2.429688 L 2.582031 2.429688 L 2.582031 3.226562 M 2.925781 2.847656 C 2.925781 2.894531 3.0625 2.933594 3.226562 2.933594 C 3.394531 2.933594 3.53125 2.894531 3.53125 2.847656 C 3.53125 2.800781 3.394531 2.765625 3.226562 2.765625 C 3.0625 2.765625 2.925781 2.800781 2.925781 2.847656 M 2.582031 5.402344 L 2.582031 6.199219 L 6.542969 6.199219 L 6.542969 4.605469 L 2.582031 4.605469 L 2.582031 5.402344 M 2.925781 5.027344 C 2.925781 5.070312 3.0625 5.109375 3.226562 5.109375 C 3.394531 5.109375 3.53125 5.070312 3.53125 5.027344 C 3.53125 4.980469 3.394531 4.941406 3.226562 4.941406 C 3.0625 4.941406 2.925781 4.980469 2.925781 5.027344 M 2.582031 7.582031 L 2.582031 8.378906 L 6.542969 8.378906 L 6.542969 6.785156 L 2.582031 6.785156 L 2.582031 7.582031 M 2.925781 7.203125 C 2.925781 7.25 3.0625 7.289062 3.226562 7.289062 C 3.394531 7.289062 3.53125 7.25 3.53125 7.203125 C 3.53125 7.15625 3.394531 7.121094 3.226562 7.121094 C 3.0625 7.121094 2.925781 7.15625 2.925781 7.203125 M 3.980469 12.398438 C 3.492188 12.59375 3.253906 13.695312 3.585938 14.242188 C 3.816406 14.621094 4.351562 14.773438 4.742188 14.574219 C 4.855469 14.511719 4.90625 14.511719 4.90625 14.574219 C 4.90625 14.621094 4.984375 14.660156 5.078125 14.660156 C 5.234375 14.660156 5.25 14.605469 5.25 14.074219 L 5.25 13.488281 L 4.820312 13.488281 C 4.449219 13.488281 4.390625 13.507812 4.390625 13.65625 C 4.390625 13.777344 4.449219 13.820312 4.605469 13.820312 C 4.875 13.820312 4.890625 14.019531 4.628906 14.195312 C 4.378906 14.367188 4.253906 14.359375 4.046875 14.15625 C 3.734375 13.855469 3.863281 12.75 4.210938 12.722656 C 4.46875 12.703125 4.605469 12.746094 4.707031 12.871094 C 4.835938 13.03125 5.113281 12.984375 5.148438 12.796875 C 5.167969 12.707031 5.070312 12.589844 4.890625 12.484375 C 4.585938 12.304688 4.296875 12.277344 3.980469 12.398438 M 5.683594 13.527344 L 5.683594 14.660156 L 6.160156 14.660156 C 7.101562 14.660156 7.503906 14.324219 7.503906 13.542969 C 7.503906 13.042969 7.328125 12.621094 7.0625 12.484375 C 6.972656 12.4375 6.625 12.398438 6.289062 12.398438 L 5.683594 12.398438 L 5.683594 13.527344 M 7.835938 13.527344 L 7.835938 14.660156 L 8.371094 14.660156 C 8.710938 14.660156 9.023438 14.605469 9.210938 14.511719 C 9.476562 14.386719 9.515625 14.324219 9.539062 14.015625 C 9.558594 13.738281 9.53125 13.640625 9.398438 13.558594 C 9.230469 13.457031 9.230469 13.457031 9.402344 13.230469 C 9.515625 13.082031 9.554688 12.941406 9.515625 12.828125 C 9.398438 12.46875 9.234375 12.398438 8.515625 12.398438 L 7.835938 12.398438 L 7.835938 13.527344 M 6.199219 13.488281 L 6.199219 14.242188 L 6.496094 14.242188 C 6.882812 14.242188 7.058594 13.996094 7.058594 13.46875 C 7.058594 12.992188 6.847656 12.734375 6.457031 12.734375 L 6.199219 12.734375 L 6.199219 13.488281 M 8.351562 12.984375 C 8.351562 13.234375 8.363281 13.246094 8.675781 13.21875 C 8.953125 13.195312 8.996094 13.164062 8.996094 12.984375 C 8.996094 12.804688 8.953125 12.769531 8.675781 12.75 C 8.363281 12.722656 8.351562 12.734375 8.351562 12.984375 M 8.351562 13.949219 L 8.351562 14.25 L 8.71875 14.226562 C 9.058594 14.199219 9.082031 14.183594 9.082031 13.949219 C 9.082031 13.710938 9.058594 13.695312 8.71875 13.671875 L 8.351562 13.644531 L 8.351562 13.949219 "/>
</g>
</svg>
