<?xml version="1.0" encoding="UTF-8"?>
<svg xmlns="http://www.w3.org/2000/svg" xmlns:xlink="http://www.w3.org/1999/xlink" width="20px" height="20px" viewBox="0 0 20 20" version="1.1">
<g id="surface1">
<path style=" stroke:none;fill-rule:nonzero;fill:rgb(14.509804%,24.313725%,56.470588%);fill-opacity:1;" d="M 17.5 18.957031 L 2.5 18.957031 C 2.160156 18.957031 1.875 18.675781 1.875 18.332031 C 1.875 17.992188 2.160156 17.707031 2.5 17.707031 L 17.5 17.707031 C 17.839844 17.707031 18.125 17.992188 18.125 18.332031 C 18.125 18.675781 17.839844 18.957031 17.5 18.957031 Z M 17.5 18.957031 "/>
<path style=" stroke:none;fill-rule:nonzero;fill:rgb(14.509804%,24.313725%,56.470588%);fill-opacity:1;" d="M 4.667969 6.984375 L 3.332031 6.984375 C 2.875 6.984375 2.5 7.359375 2.5 7.816406 L 2.5 15 C 2.5 15.457031 2.875 15.832031 3.332031 15.832031 L 4.667969 15.832031 C 5.125 15.832031 5.5 15.457031 5.5 15 L 5.5 7.816406 C 5.5 7.347656 5.125 6.984375 4.667969 6.984375 Z M 4.667969 6.984375 "/>
<path style=" stroke:none;fill-rule:nonzero;fill:rgb(14.509804%,24.313725%,56.470588%);fill-opacity:1;" d="M 10.664062 4.328125 L 9.332031 4.328125 C 8.875 4.328125 8.5 4.703125 8.5 5.160156 L 8.5 15 C 8.5 15.460938 8.875 15.835938 9.332031 15.835938 L 10.664062 15.835938 C 11.125 15.835938 11.5 15.460938 11.5 15 L 11.5 5.160156 C 11.5 4.703125 11.125 4.328125 10.664062 4.328125 Z M 10.664062 4.328125 "/>
<path style=" stroke:none;fill-rule:nonzero;fill:rgb(14.509804%,24.313725%,56.470588%);fill-opacity:1;" d="M 16.667969 1.667969 L 15.332031 1.667969 C 14.875 1.667969 14.5 2.042969 14.5 2.5 L 14.5 15 C 14.5 15.457031 14.875 15.832031 15.332031 15.832031 L 16.667969 15.832031 C 17.125 15.832031 17.5 15.457031 17.5 15 L 17.5 2.5 C 17.5 2.042969 17.125 1.667969 16.667969 1.667969 Z M 16.667969 1.667969 "/>
</g>
</svg>
