<?xml version="1.0" encoding="UTF-8"?>
<svg width="18px" height="18px" viewBox="0 0 18 18" version="1.1" xmlns="http://www.w3.org/2000/svg" xmlns:xlink="http://www.w3.org/1999/xlink">
    <title>addnew</title>
    <g id="GIS---Mạng-lưới-điện" stroke="none" stroke-width="1" fill="none" fill-rule="evenodd">
        <g id="08.-Vận-hành-bảo-dưỡng---DS" transform="translate(-319.000000, -767.000000)" fill="#2858B6" fill-rule="nonzero">
            <path d="M328,767 C332.962902,767 337,771.037801 337,776 C337,780.962199 332.962902,785 328,785 C323.037098,785 319,780.962902 319,776 C319,771.037098 323.037098,767 328,767 Z M328,768.394262 C323.806738,768.394262 320.394262,771.806035 320.394262,776 C320.394262,780.193965 323.806738,783.605738 328,783.605738 C332.193965,783.605738 335.605738,780.193965 335.605738,776 C335.605738,771.806035 332.193262,768.394262 328,768.394262 Z M328,771.754461 C328.385523,771.754461 328.697148,772.066789 328.697148,772.451609 L328.697148,772.451609 L328.697148,775.240133 L331.485672,775.240133 C331.871195,775.240133 332.18282,775.552461 332.18282,775.937281 C332.18282,776.322102 331.871195,776.63443 331.485672,776.63443 L331.485672,776.63443 L328.697148,776.63443 L328.697148,779.422953 C328.697148,779.807773 328.385523,780.120102 328,780.120102 C327.614477,780.120102 327.302852,779.807773 327.302852,779.422953 L327.302852,779.422953 L327.302852,776.63443 L324.514328,776.63443 C324.128805,776.63443 323.81718,776.322102 323.81718,775.937281 C323.81718,775.552461 324.128805,775.240133 324.514328,775.240133 L324.514328,775.240133 L327.302852,775.240133 L327.302852,772.451609 C327.302852,772.066789 327.614477,771.754461 328,771.754461 Z" id="addnew"></path>
        </g>
    </g>
</svg>