<?xml version="1.0" encoding="UTF-8"?>
<svg xmlns="http://www.w3.org/2000/svg" xmlns:xlink="http://www.w3.org/1999/xlink" width="14px" height="16px" viewBox="0 0 14 15" version="1.1">
<g id="surface1">
<path style=" stroke:none;fill-rule:evenodd;fill:rgb(1.568627%,1.568627%,1.568627%);fill-opacity:1;" d="M 2.394531 0.339844 C 2.347656 0.347656 2.253906 0.375 2.1875 0.398438 C 1.769531 0.554688 1.484375 0.863281 1.375 1.269531 L 1.335938 1.417969 L 1.335938 5.757812 L 0.460938 5.757812 L 0.460938 12.480469 L 1.335938 12.480469 L 1.339844 13.023438 C 1.347656 13.539062 1.347656 13.570312 1.382812 13.671875 C 1.539062 14.121094 1.855469 14.417969 2.320312 14.542969 L 2.445312 14.578125 L 6.914062 14.582031 C 10.175781 14.585938 11.414062 14.582031 11.507812 14.570312 C 11.839844 14.523438 12.132812 14.367188 12.34375 14.128906 C 12.4375 14.023438 12.539062 13.84375 12.59375 13.6875 C 12.636719 13.566406 12.636719 13.5625 12.644531 13.03125 L 12.648438 12.496094 L 13.523438 12.496094 L 13.523438 5.757812 L 12.644531 5.757812 L 12.644531 3.472656 L 11.007812 1.898438 L 9.375 0.324219 L 5.925781 0.324219 C 4.027344 0.324219 2.4375 0.332031 2.394531 0.339844 M 2.644531 3.667969 L 2.644531 5.757812 L 11.339844 5.757812 L 11.339844 4.914062 L 8.21875 4.914062 L 8.21875 1.582031 L 2.644531 1.582031 L 2.644531 3.667969 M 9.539062 2.957031 L 9.539062 3.640625 L 10.945312 3.640625 L 10.25 2.957031 C 9.863281 2.578125 9.550781 2.273438 9.546875 2.273438 C 9.542969 2.273438 9.539062 2.578125 9.539062 2.957031 M 3.632812 9.097656 L 3.632812 10.59375 L 5.71875 10.59375 L 5.71875 9.996094 L 4.410156 9.996094 L 4.410156 9.367188 L 5.542969 9.367188 L 5.542969 8.8125 L 4.410156 8.8125 L 4.410156 8.199219 L 5.703125 8.199219 L 5.703125 7.601562 L 3.632812 7.601562 L 3.632812 9.097656 M 5.894531 7.609375 C 5.894531 7.613281 6.066406 7.929688 6.277344 8.308594 C 6.488281 8.6875 6.667969 9.019531 6.675781 9.039062 C 6.691406 9.078125 6.652344 9.148438 6.261719 9.816406 C 6.023438 10.21875 5.824219 10.558594 5.820312 10.570312 C 5.8125 10.589844 5.871094 10.59375 6.222656 10.589844 L 6.632812 10.585938 L 6.925781 10.054688 C 7.085938 9.765625 7.222656 9.519531 7.230469 9.515625 C 7.238281 9.507812 7.378906 9.746094 7.542969 10.046875 L 7.84375 10.59375 L 8.667969 10.59375 L 8.628906 10.527344 C 8.605469 10.492188 8.40625 10.148438 8.179688 9.765625 L 7.769531 9.070312 L 8.160156 8.371094 C 8.375 7.984375 8.558594 7.652344 8.566406 7.632812 L 8.585938 7.601562 L 7.773438 7.601562 L 7.507812 8.125 L 7.238281 8.652344 L 6.96875 8.125 L 6.699219 7.601562 L 6.296875 7.601562 C 6.074219 7.601562 5.894531 7.605469 5.894531 7.609375 M 8.808594 9.097656 L 8.808594 10.59375 L 10.78125 10.59375 L 10.78125 9.996094 L 9.570312 9.996094 L 9.570312 7.601562 L 8.808594 7.601562 L 8.808594 9.097656 M 2.644531 12.898438 L 2.644531 13.3125 L 11.339844 13.3125 L 11.339844 13 C 11.339844 12.828125 11.34375 12.644531 11.351562 12.585938 L 11.359375 12.480469 L 2.644531 12.480469 L 2.644531 12.898438 "/>
</g>
</svg>
