<?xml version="1.0" encoding="UTF-8"?>
<svg width="17px" height="18px" viewBox="0 0 17 18" version="1.1" xmlns="http://www.w3.org/2000/svg" xmlns:xlink="http://www.w3.org/1999/xlink">
    <title>setting-location</title>
    <g id="GIS---Mạng-lưới-điện" stroke="none" stroke-width="1" fill="none" fill-rule="evenodd">
        <g id="08.-Vận-hành-bảo-dưỡng---DS" transform="translate(-320.000000, -342.000000)" fill="#2858B6" fill-rule="nonzero">
            <path d="M329.737464,342 C330.636283,342.004571 331.363811,342.746429 331.368294,343.662953 L331.368294,343.662953 L331.368294,344.364903 C331.827299,344.569871 332.261745,344.827822 332.663124,345.133705 L332.663124,345.133705 L333.285954,344.791086 C334.067236,344.336105 335.062143,344.608379 335.515029,345.401114 L335.515029,345.401114 L336.719712,347.590529 C336.935431,347.972632 336.994342,348.426175 336.883615,348.852368 C336.770617,349.278887 336.496596,349.642432 336.121468,349.86351 L336.121468,349.86351 L335.498638,350.231198 C335.539614,350.481894 335.539614,350.740947 335.539614,350.991643 C335.552112,351.214302 335.552112,351.437508 335.539614,351.660167 L335.539614,351.660167 L336.170639,352.019499 C336.952158,352.472477 337.230027,353.482814 336.793468,354.284123 L336.793468,354.284123 L335.58059,356.481894 C335.139184,357.281867 334.147682,357.569134 333.35971,357.125348 L333.35971,357.125348 L332.736881,356.766017 C332.312394,357.095317 331.853391,357.375583 331.368294,357.601671 L331.368294,357.601671 L331.368294,358.328691 C331.368294,359.251729 330.634478,360 329.729269,360 L329.729269,360 L327.270731,360 C326.365522,360 325.631706,359.251729 325.631706,358.328691 L325.631706,358.328691 L325.631706,357.601671 C325.172701,357.396703 324.738255,357.138752 324.336876,356.832869 L324.336876,356.832869 L323.705851,357.175487 C322.924568,357.630469 321.929662,357.358194 321.476776,356.56546 L321.476776,356.56546 L320.239312,354.384401 C320.023594,354.002298 319.964682,353.548755 320.07541,353.122563 C320.188407,352.696043 320.462428,352.332499 320.837556,352.111421 L320.837556,352.111421 L321.460386,351.743733 L321.460386,350.983287 C321.447888,350.760628 321.447888,350.537422 321.460386,350.314763 L321.460386,350.314763 L320.829361,349.955432 C320.047842,349.502453 319.769973,348.492116 320.206532,347.690808 L320.206532,347.690808 L321.427606,345.518106 C321.869011,344.718133 322.860513,344.430866 323.648485,344.874652 L323.648485,344.874652 L324.271315,345.233983 C324.695801,344.904683 325.154804,344.624417 325.639901,344.398329 L325.639901,344.398329 L325.639901,343.671309 C325.639901,342.748271 326.373717,342 327.278926,342 L327.278926,342 Z M329.721074,343.253482 L327.262536,343.253482 C327.04076,343.253482 326.860975,343.436808 326.860975,343.662953 L326.860975,343.662953 L326.860975,344.816156 C326.859553,345.081859 326.696072,345.318575 326.451218,345.409471 C325.818081,345.647716 325.234344,346.004857 324.730242,346.462396 C324.532739,346.634224 324.250657,346.660981 324.025461,346.529248 L324.025461,346.529248 L323.042046,345.969359 C322.853994,345.853096 322.609214,345.912702 322.492972,346.103064 L322.492972,346.103064 L321.288288,348.300836 C321.247305,348.40256 321.247305,348.51666 321.288288,348.618384 C321.313121,348.723493 321.382062,348.812131 321.476776,348.860724 L321.476776,348.860724 L322.460192,349.428969 C322.683408,349.553397 322.805042,349.808161 322.763411,350.064067 C322.707114,350.367596 322.671517,350.674738 322.656875,350.983287 C322.664109,351.317282 322.699755,351.650006 322.763411,351.977716 C322.813195,352.250294 322.683815,352.524299 322.443801,352.654596 L322.443801,352.654596 L321.501362,353.197772 C321.40878,353.252965 321.341109,353.342971 321.312874,353.448468 C321.276448,353.548186 321.276448,353.657943 321.312874,353.75766 L321.312874,353.75766 L322.566728,355.938719 C322.618687,356.035049 322.707862,356.104763 322.812582,356.130919 C322.915043,356.159289 323.0244,356.14422 323.115802,356.089136 L323.115802,356.089136 L324.099217,355.512535 C324.190523,355.45604 324.295652,355.427067 324.402437,355.428969 C324.560946,355.419187 324.716895,355.473194 324.836778,355.579387 C325.324616,355.997968 325.878909,356.328617 326.475804,356.557103 C326.720657,356.647999 326.884138,356.884715 326.88556,357.150418 L326.88556,357.150418 L326.88556,358.345404 C326.88556,358.571548 327.065345,358.754875 327.287121,358.754875 L327.287121,358.754875 L329.745659,358.754875 C329.967435,358.754875 330.14722,358.571548 330.14722,358.345404 L330.14722,358.345404 L330.14722,357.192201 C330.148642,356.926497 330.312123,356.689782 330.556977,356.598886 C331.188242,356.368189 331.771851,356.019628 332.277953,355.571031 C332.475456,355.399202 332.757539,355.372445 332.982734,355.504178 L332.982734,355.504178 L333.96615,356.064067 C334.059491,356.117816 334.170033,356.131279 334.273163,356.101457 C334.376292,356.071635 334.463448,356.001005 334.515223,355.905292 L334.515223,355.905292 L335.728102,353.707521 C335.769085,353.605796 335.769085,353.491697 335.728102,353.389972 C335.703269,353.284863 335.634328,353.196226 335.539614,353.147632 L335.539614,353.147632 L334.556199,352.579387 C334.332983,352.454959 334.211349,352.200196 334.252979,351.94429 C334.29578,351.639812 334.317687,351.332659 334.31854,351.02507 C334.319417,350.691803 334.291997,350.359084 334.236589,350.030641 C334.197117,349.774887 334.313844,349.520303 334.531613,349.387187 L334.531613,349.387187 L335.515029,348.810585 C335.60761,348.755391 335.675281,348.665386 335.703516,348.559889 C335.72709,348.455168 335.712527,348.345281 335.662541,348.250696 L335.662541,348.250696 L334.425077,346.069638 C334.370949,345.975233 334.282682,345.906229 334.179223,345.877437 C334.082211,345.836119 333.973015,345.836119 333.876003,345.877437 L333.876003,345.877437 L332.892588,346.454039 C332.671083,346.589676 332.388799,346.562585 332.196002,346.387187 L332.196002,346.387187 L332.220588,346.387187 C331.71791,345.963634 331.146611,345.632767 330.532391,345.409471 C330.287538,345.318575 330.124057,345.081859 330.122635,344.816156 L330.122635,344.816156 L330.122635,343.662953 C330.122635,343.436808 329.94285,343.253482 329.721074,343.253482 L329.721074,343.253482 Z M328.5,347.849582 C330.197266,347.849582 331.573173,349.25259 331.573173,350.983287 C331.573173,352.713984 330.197266,354.116992 328.5,354.116992 C326.802734,354.116992 325.426827,352.713984 325.426827,350.983287 C325.426827,349.25259 326.802734,347.849582 328.5,347.849582 Z M328.5,349.103064 C327.48164,349.103064 326.656096,349.944869 326.656096,350.983287 C326.656096,352.021705 327.48164,352.86351 328.5,352.86351 C329.51836,352.86351 330.343904,352.021705 330.343904,350.983287 C330.343904,349.944869 329.51836,349.103064 328.5,349.103064 Z" id="setting-location"></path>
        </g>
    </g>
</svg>