<svg xmlns="http://www.w3.org/2000/svg" width="20" height="20" viewBox="0 0 20 20" fill="none">
<path d="M10.0008 18.9583C9.44245 18.9583 8.87578 18.8166 8.37578 18.525L3.42578 15.6666C2.42578 15.0833 1.80078 14.0083 1.80078 12.85V7.15C1.80078 5.99167 2.42578 4.91667 3.42578 4.33333L8.37578 1.47501C9.37578 0.891673 10.6174 0.891673 11.6258 1.47501L16.5758 4.33333C17.5758 4.91667 18.2008 5.99167 18.2008 7.15V12.85C18.2008 14.0083 17.5758 15.0833 16.5758 15.6666L11.6258 18.525C11.1258 18.8166 10.5591 18.9583 10.0008 18.9583ZM10.0008 2.29166C9.65911 2.29166 9.30911 2.38333 9.00078 2.55833L4.05078 5.41666C3.43411 5.77499 3.05078 6.43334 3.05078 7.15V12.85C3.05078 13.5583 3.43411 14.225 4.05078 14.5833L9.00078 17.4416C9.61745 17.8 10.3841 17.8 11.0008 17.4416L15.9508 14.5833C16.5674 14.225 16.9508 13.5666 16.9508 12.85V7.15C16.9508 6.44167 16.5674 5.77499 15.9508 5.41666L11.0008 2.55833C10.6924 2.38333 10.3424 2.29166 10.0008 2.29166Z" fill="#0056b3"/>
<path d="M10.0003 9.79173C8.58359 9.79173 7.43359 8.64171 7.43359 7.22505C7.43359 5.80838 8.58359 4.65842 10.0003 4.65842C11.4169 4.65842 12.5669 5.80838 12.5669 7.22505C12.5669 8.64171 11.4169 9.79173 10.0003 9.79173ZM10.0003 5.90842C9.27526 5.90842 8.68359 6.50005 8.68359 7.22505C8.68359 7.95005 9.27526 8.54173 10.0003 8.54173C10.7253 8.54173 11.3169 7.95005 11.3169 7.22505C11.3169 6.50005 10.7253 5.90842 10.0003 5.90842Z" fill="#0056b3"/>
<path d="M13.3346 14.5084C12.993 14.5084 12.7096 14.2251 12.7096 13.8834C12.7096 12.7334 11.493 11.7918 10.0013 11.7918C8.50964 11.7918 7.29297 12.7334 7.29297 13.8834C7.29297 14.2251 7.00964 14.5084 6.66797 14.5084C6.3263 14.5084 6.04297 14.2251 6.04297 13.8834C6.04297 12.0417 7.81797 10.5418 10.0013 10.5418C12.1846 10.5418 13.9596 12.0417 13.9596 13.8834C13.9596 14.2251 13.6763 14.5084 13.3346 14.5084Z" fill="#0056b3"/>
</svg>