<?xml version="1.0" encoding="UTF-8"?>
<svg xmlns="http://www.w3.org/2000/svg" xmlns:xlink="http://www.w3.org/1999/xlink" width="16px" height="16px" viewBox="0 0 16 16" version="1.1">
<g id="surface1">
<path style=" stroke:none;fill-rule:evenodd;fill:rgb(1.568627%,1.568627%,1.568627%);fill-opacity:1;" d="M 2.246094 0.300781 C 2.148438 0.335938 2.066406 0.394531 2.027344 0.472656 L 1.992188 0.539062 L 1.992188 6.933594 L 1.335938 6.933594 C 0.710938 6.933594 0.675781 6.933594 0.621094 6.964844 C 0.589844 6.980469 0.550781 7.019531 0.53125 7.046875 C 0.5 7.097656 0.496094 7.128906 0.496094 10.136719 L 0.496094 13.175781 L 0.535156 13.226562 C 0.558594 13.253906 0.597656 13.292969 0.625 13.3125 C 0.671875 13.34375 0.695312 13.34375 1.332031 13.347656 L 1.992188 13.351562 L 1.996094 14.339844 L 2 15.324219 L 2.046875 15.390625 C 2.074219 15.425781 2.125 15.472656 2.167969 15.496094 L 2.238281 15.539062 L 13.847656 15.546875 L 13.941406 15.503906 C 14.003906 15.476562 14.050781 15.4375 14.085938 15.394531 L 14.136719 15.328125 L 14.140625 14.339844 L 14.148438 13.351562 L 14.761719 13.351562 C 15.402344 13.351562 15.476562 13.34375 15.550781 13.285156 C 15.644531 13.207031 15.640625 13.410156 15.640625 10.140625 C 15.640625 7.289062 15.636719 7.109375 15.609375 7.058594 C 15.59375 7.027344 15.554688 6.988281 15.519531 6.96875 C 15.464844 6.933594 15.460938 6.933594 14.804688 6.933594 L 14.144531 6.933594 L 14.144531 4.828125 C 14.144531 2.96875 14.144531 2.71875 14.121094 2.667969 C 14.085938 2.59375 11.667969 0.390625 11.554688 0.328125 L 11.476562 0.289062 L 6.894531 0.285156 C 3.09375 0.28125 2.296875 0.285156 2.246094 0.300781 M 2.746094 3.949219 L 2.746094 6.933594 L 13.390625 6.933594 L 13.390625 3.039062 L 12.863281 3.035156 C 12.382812 3.027344 12.320312 3.023438 12.199219 2.992188 C 11.742188 2.875 11.371094 2.570312 11.210938 2.179688 C 11.132812 1.992188 11.121094 1.894531 11.113281 1.421875 L 11.101562 0.964844 L 2.746094 0.964844 L 2.746094 3.949219 M 4.480469 3.101562 L 4.480469 3.378906 L 9.5625 3.378906 L 9.5625 2.820312 L 4.480469 2.820312 L 4.480469 3.101562 M 4.480469 4.433594 L 4.480469 4.71875 L 11.65625 4.71875 L 11.65625 4.144531 L 4.480469 4.144531 L 4.480469 4.433594 M 4.480469 5.765625 L 4.480469 6.042969 L 11.65625 6.042969 L 11.65625 5.484375 L 4.480469 5.484375 L 4.480469 5.765625 M 4.777344 8.679688 C 4.378906 8.722656 4.082031 8.882812 3.953125 9.128906 C 3.792969 9.433594 3.84375 9.726562 4.097656 9.972656 C 4.265625 10.136719 4.464844 10.214844 5.015625 10.34375 C 5.339844 10.421875 5.449219 10.457031 5.539062 10.515625 C 5.757812 10.660156 5.679688 10.953125 5.390625 11.074219 C 5.261719 11.125 4.96875 11.140625 4.8125 11.101562 C 4.683594 11.066406 4.554688 10.988281 4.492188 10.910156 C 4.441406 10.84375 4.359375 10.660156 4.359375 10.613281 C 4.359375 10.585938 4.34375 10.585938 4.0625 10.613281 C 3.902344 10.625 3.765625 10.640625 3.765625 10.640625 C 3.746094 10.644531 3.765625 10.753906 3.804688 10.867188 C 3.941406 11.300781 4.257812 11.53125 4.796875 11.589844 C 5.078125 11.621094 5.449219 11.589844 5.667969 11.511719 C 5.828125 11.460938 5.925781 11.40625 6.027344 11.3125 C 6.296875 11.0625 6.363281 10.628906 6.179688 10.3125 C 6.035156 10.066406 5.789062 9.941406 5.183594 9.800781 C 4.75 9.703125 4.613281 9.652344 4.527344 9.570312 C 4.46875 9.515625 4.449219 9.441406 4.464844 9.367188 C 4.511719 9.160156 5.007812 9.0625 5.328125 9.199219 C 5.4375 9.242188 5.511719 9.328125 5.554688 9.464844 L 5.578125 9.542969 L 5.710938 9.539062 C 5.785156 9.535156 5.925781 9.53125 6.023438 9.523438 L 6.199219 9.515625 L 6.1875 9.4375 C 6.132812 9.078125 5.902344 8.835938 5.507812 8.726562 C 5.40625 8.699219 5.023438 8.65625 4.929688 8.664062 C 4.914062 8.664062 4.84375 8.671875 4.777344 8.679688 M 6.832031 10.140625 L 6.832031 11.558594 L 7.449219 11.558594 L 7.449219 10.3125 L 8.703125 10.3125 L 8.703125 11.558594 L 9.320312 11.558594 L 9.320312 8.722656 L 8.703125 8.722656 L 8.703125 9.847656 L 7.460938 9.839844 L 7.453125 9.28125 L 7.449219 8.722656 L 6.832031 8.722656 L 6.832031 10.140625 M 9.992188 10.140625 L 9.992188 11.558594 L 10.609375 11.558594 L 10.609375 11.308594 C 10.609375 11.167969 10.609375 10.925781 10.609375 10.773438 L 10.609375 10.488281 L 11.050781 10.480469 C 11.5625 10.46875 11.710938 10.449219 11.890625 10.371094 C 12.117188 10.269531 12.253906 10.125 12.335938 9.898438 C 12.417969 9.679688 12.394531 9.34375 12.28125 9.140625 C 12.222656 9.039062 12.050781 8.878906 11.9375 8.828125 C 11.734375 8.734375 11.738281 8.734375 10.828125 8.726562 L 9.992188 8.722656 L 9.992188 10.140625 M 10.621094 9.199219 C 10.613281 9.207031 10.609375 9.390625 10.609375 9.609375 L 10.609375 10.003906 L 11.007812 10 C 11.382812 9.996094 11.414062 9.992188 11.484375 9.960938 C 11.65625 9.882812 11.742188 9.761719 11.742188 9.597656 C 11.742188 9.421875 11.636719 9.285156 11.449219 9.222656 C 11.382812 9.199219 10.644531 9.179688 10.621094 9.199219 M 2.746094 14.105469 L 2.746094 14.863281 L 13.390625 14.863281 L 13.390625 13.351562 L 2.746094 13.351562 L 2.746094 14.105469 "/>
</g>
</svg>
