<?xml version="1.0" encoding="UTF-8"?>
<svg xmlns="http://www.w3.org/2000/svg" xmlns:xlink="http://www.w3.org/1999/xlink" width="13px" height="16px" viewBox="0 0 13 16" version="1.1">
<g id="surface1">
<path style=" stroke:none;fill-rule:evenodd;fill:rgb(1.568627%,1.568627%,1.568627%);fill-opacity:1;" d="M 1.074219 0.421875 C 0.914062 0.453125 0.789062 0.511719 0.660156 0.613281 C 0.519531 0.726562 0.394531 0.921875 0.351562 1.101562 C 0.332031 1.171875 0.332031 1.753906 0.332031 8.042969 C 0.332031 14.875 0.332031 14.90625 0.355469 14.996094 C 0.40625 15.195312 0.527344 15.375 0.6875 15.496094 C 0.796875 15.574219 0.882812 15.617188 1.015625 15.65625 L 1.105469 15.679688 L 10.820312 15.679688 L 10.910156 15.652344 C 11.183594 15.578125 11.390625 15.40625 11.507812 15.164062 C 11.570312 15.027344 11.59375 14.945312 11.601562 14.773438 L 11.605469 14.632812 L 11.808594 14.625 C 11.992188 14.621094 12.019531 14.617188 12.101562 14.589844 C 12.363281 14.503906 12.546875 14.320312 12.636719 14.0625 L 12.664062 13.984375 L 12.664062 9.476562 L 12.628906 9.386719 C 12.585938 9.257812 12.484375 9.109375 12.382812 9.027344 C 12.292969 8.953125 12.132812 8.875 12.019531 8.847656 C 11.964844 8.835938 11.878906 8.832031 11.769531 8.832031 L 11.605469 8.832031 L 11.601562 6.265625 C 11.597656 3.398438 11.605469 3.660156 11.511719 3.375 C 11.488281 3.296875 11.464844 3.230469 11.464844 3.222656 C 11.464844 3.199219 11.273438 2.898438 11.207031 2.820312 C 11.175781 2.78125 10.691406 2.300781 10.136719 1.757812 C 9.074219 0.71875 9.050781 0.695312 8.851562 0.597656 C 8.667969 0.507812 8.460938 0.441406 8.28125 0.417969 C 8.226562 0.410156 6.957031 0.40625 4.675781 0.40625 C 1.785156 0.40625 1.136719 0.410156 1.074219 0.421875 M 1.113281 0.96875 C 1.035156 0.996094 0.957031 1.066406 0.910156 1.148438 L 0.875 1.21875 L 0.875 14.859375 L 0.914062 14.933594 C 0.957031 15.023438 1.03125 15.089844 1.117188 15.125 C 1.179688 15.144531 1.179688 15.144531 5.960938 15.144531 L 10.746094 15.144531 L 10.808594 15.121094 C 10.890625 15.09375 10.976562 15.015625 11.015625 14.933594 C 11.042969 14.878906 11.050781 14.855469 11.054688 14.75 L 11.058594 14.628906 L 6.589844 14.628906 C 1.59375 14.628906 2.050781 14.636719 1.855469 14.542969 C 1.761719 14.5 1.730469 14.476562 1.648438 14.394531 C 1.5 14.246094 1.433594 14.117188 1.40625 13.921875 C 1.398438 13.851562 1.394531 13.121094 1.398438 11.40625 C 1.402344 9.117188 1.402344 8.980469 1.421875 8.914062 C 1.511719 8.625 1.710938 8.425781 2.003906 8.335938 L 2.089844 8.308594 L 5.886719 8.308594 L 5.988281 8.34375 C 6.140625 8.398438 6.203125 8.441406 6.398438 8.625 C 6.542969 8.761719 6.585938 8.796875 6.632812 8.8125 C 6.683594 8.828125 6.863281 8.832031 8.871094 8.832031 L 11.054688 8.832031 L 11.054688 6.316406 C 11.054688 3.835938 11.054688 3.730469 11.019531 3.613281 L 11.003906 3.574219 L 10.058594 3.574219 C 8.980469 3.574219 9.007812 3.574219 8.824219 3.484375 C 8.617188 3.386719 8.457031 3.191406 8.398438 2.96875 C 8.378906 2.886719 8.375 2.84375 8.375 1.9375 C 8.375 1.046875 8.375 0.988281 8.355469 0.984375 C 8.222656 0.941406 8.308594 0.945312 4.671875 0.945312 C 1.214844 0.945312 1.171875 0.945312 1.113281 0.96875 M 8.917969 2.078125 L 8.921875 2.847656 L 8.953125 2.902344 C 8.984375 2.957031 9.035156 3 9.09375 3.019531 C 9.117188 3.03125 9.328125 3.03125 9.894531 3.03125 L 10.664062 3.027344 L 8.914062 1.308594 L 8.917969 2.078125 M 4.046875 1.472656 C 2.996094 1.546875 2.386719 1.746094 2.210938 2.070312 L 2.179688 2.128906 L 2.179688 7.097656 L 2.21875 7.167969 C 2.296875 7.328125 2.472656 7.449219 2.761719 7.550781 C 3.417969 7.78125 4.6875 7.851562 5.683594 7.714844 C 6.441406 7.609375 6.855469 7.421875 6.976562 7.136719 L 7.003906 7.074219 L 7.003906 2.191406 L 6.980469 2.121094 C 6.933594 1.980469 6.808594 1.863281 6.597656 1.765625 C 6.367188 1.65625 6.011719 1.566406 5.601562 1.515625 C 5.546875 1.511719 5.480469 1.503906 5.457031 1.5 C 5.183594 1.464844 4.375 1.449219 4.046875 1.472656 M 4.273438 2 C 3.871094 2.011719 3.429688 2.066406 3.132812 2.140625 C 3.015625 2.171875 2.828125 2.230469 2.8125 2.246094 C 2.789062 2.269531 3.050781 2.347656 3.316406 2.398438 C 3.679688 2.46875 4.097656 2.503906 4.589844 2.503906 C 5.238281 2.503906 5.828125 2.4375 6.207031 2.3125 C 6.378906 2.257812 6.390625 2.253906 6.34375 2.234375 C 5.886719 2.058594 5.136719 1.972656 4.273438 2 M 2.710938 3.289062 L 2.710938 3.785156 L 2.75 3.808594 C 2.949219 3.925781 3.480469 4.035156 4.074219 4.074219 C 4.5 4.101562 5.0625 4.089844 5.464844 4.042969 C 5.847656 4 6.304688 3.886719 6.4375 3.804688 L 6.464844 3.785156 L 6.464844 3.289062 C 6.464844 2.824219 6.464844 2.796875 6.445312 2.804688 C 6.382812 2.828125 6.132812 2.890625 5.988281 2.921875 C 5.585938 3.003906 5.167969 3.039062 4.589844 3.039062 C 4.011719 3.039062 3.589844 3.003906 3.1875 2.921875 C 3.042969 2.890625 2.792969 2.828125 2.730469 2.804688 C 2.714844 2.796875 2.710938 2.824219 2.710938 3.289062 M 3.460938 3.242188 C 3.390625 3.265625 3.3125 3.355469 3.296875 3.429688 C 3.277344 3.519531 3.304688 3.609375 3.371094 3.679688 C 3.4375 3.742188 3.476562 3.75 3.800781 3.78125 C 3.976562 3.796875 4.011719 3.796875 4.058594 3.785156 C 4.132812 3.765625 4.222656 3.675781 4.246094 3.605469 C 4.28125 3.480469 4.21875 3.347656 4.097656 3.285156 C 4.074219 3.273438 3.988281 3.261719 3.851562 3.246094 C 3.605469 3.222656 3.523438 3.21875 3.460938 3.242188 M 5.332031 3.246094 C 5.113281 3.269531 5.078125 3.277344 5.019531 3.328125 C 4.890625 3.429688 4.890625 3.613281 5.015625 3.722656 C 5.101562 3.800781 5.125 3.804688 5.414062 3.777344 C 5.546875 3.765625 5.679688 3.746094 5.703125 3.742188 C 5.769531 3.722656 5.851562 3.636719 5.875 3.5625 C 5.910156 3.441406 5.859375 3.3125 5.746094 3.257812 C 5.671875 3.21875 5.621094 3.21875 5.332031 3.246094 M 2.726562 4.878906 L 2.730469 5.375 L 2.792969 5.40625 C 3.015625 5.519531 3.503906 5.613281 4.035156 5.652344 C 4.269531 5.667969 4.921875 5.667969 5.148438 5.652344 C 5.453125 5.628906 5.765625 5.585938 6.019531 5.527344 C 6.148438 5.5 6.367188 5.425781 6.421875 5.386719 L 6.464844 5.359375 L 6.464844 4.871094 C 6.464844 4.40625 6.464844 4.378906 6.445312 4.386719 C 6.097656 4.484375 5.96875 4.511719 5.710938 4.550781 C 4.875 4.664062 3.878906 4.644531 3.167969 4.5 C 3.054688 4.476562 2.796875 4.410156 2.742188 4.386719 C 2.722656 4.378906 2.722656 4.40625 2.726562 4.878906 M 3.464844 4.8125 C 3.28125 4.878906 3.230469 5.113281 3.371094 5.25 C 3.4375 5.316406 3.476562 5.324219 3.800781 5.355469 C 4.042969 5.378906 4.078125 5.371094 4.164062 5.296875 C 4.308594 5.167969 4.273438 4.949219 4.097656 4.859375 C 4.074219 4.847656 3.988281 4.832031 3.851562 4.820312 C 3.609375 4.792969 3.523438 4.792969 3.464844 4.8125 M 5.308594 4.820312 C 5.09375 4.84375 5.050781 4.859375 4.988281 4.933594 C 4.890625 5.042969 4.902344 5.195312 5.015625 5.296875 C 5.101562 5.375 5.125 5.378906 5.414062 5.351562 C 5.546875 5.335938 5.679688 5.320312 5.703125 5.3125 C 5.726562 5.308594 5.769531 5.28125 5.800781 5.25 C 5.941406 5.117188 5.90625 4.898438 5.726562 4.820312 C 5.671875 4.792969 5.566406 4.792969 5.308594 4.820312 M 2.714844 6.453125 L 2.71875 6.949219 L 2.800781 6.992188 C 3 7.085938 3.355469 7.164062 3.839844 7.214844 C 4.039062 7.238281 4.136719 7.242188 4.570312 7.242188 C 5.085938 7.242188 5.183594 7.238281 5.546875 7.191406 C 5.917969 7.144531 6.25 7.0625 6.402344 6.980469 L 6.460938 6.949219 L 6.464844 6.453125 L 6.464844 5.957031 L 6.410156 5.972656 C 6.191406 6.042969 5.835938 6.117188 5.550781 6.152344 C 5.21875 6.1875 5.066406 6.195312 4.589844 6.195312 C 4.109375 6.195312 3.957031 6.1875 3.628906 6.152344 C 3.339844 6.117188 2.984375 6.042969 2.765625 5.972656 L 2.710938 5.957031 L 2.714844 6.453125 M 3.460938 6.386719 C 3.433594 6.398438 3.394531 6.425781 3.363281 6.460938 C 3.28125 6.546875 3.265625 6.648438 3.320312 6.753906 C 3.347656 6.808594 3.421875 6.871094 3.476562 6.886719 C 3.5 6.894531 3.628906 6.910156 3.761719 6.921875 C 4.046875 6.953125 4.074219 6.949219 4.164062 6.867188 C 4.308594 6.742188 4.273438 6.519531 4.097656 6.433594 C 4.074219 6.421875 3.984375 6.40625 3.851562 6.390625 C 3.609375 6.367188 3.523438 6.367188 3.460938 6.386719 M 5.308594 6.394531 C 5.09375 6.414062 5.050781 6.429688 4.988281 6.503906 C 4.890625 6.617188 4.898438 6.757812 5.007812 6.863281 C 5.097656 6.949219 5.117188 6.953125 5.414062 6.921875 C 5.546875 6.910156 5.675781 6.894531 5.699219 6.886719 C 5.722656 6.882812 5.761719 6.859375 5.789062 6.835938 C 5.917969 6.730469 5.921875 6.554688 5.800781 6.441406 C 5.71875 6.363281 5.648438 6.359375 5.308594 6.394531 M 2.109375 8.863281 C 2.085938 8.875 2.046875 8.902344 2.023438 8.925781 C 1.9375 9.011719 1.945312 8.792969 1.949219 11.484375 L 1.949219 13.90625 L 1.976562 13.949219 C 1.992188 13.976562 2.019531 14.011719 2.046875 14.03125 C 2.136719 14.105469 1.71875 14.101562 7.0625 14.097656 L 11.917969 14.09375 L 11.976562 14.0625 C 12.042969 14.027344 12.089844 13.972656 12.113281 13.902344 C 12.125 13.867188 12.128906 13.496094 12.128906 11.742188 C 12.128906 9.40625 12.132812 9.550781 12.058594 9.464844 C 12.042969 9.445312 12.007812 9.417969 11.984375 9.402344 L 11.941406 9.375 L 9.273438 9.371094 C 6.324219 9.363281 6.566406 9.371094 6.390625 9.292969 C 6.277344 9.242188 6.21875 9.199219 6.054688 9.039062 C 5.96875 8.957031 5.878906 8.878906 5.855469 8.867188 L 5.808594 8.84375 L 3.984375 8.84375 C 2.230469 8.84375 2.15625 8.84375 2.109375 8.863281 M 4.402344 10.3125 C 4.125 10.375 3.902344 10.492188 3.699219 10.691406 C 3.53125 10.855469 3.449219 10.988281 3.371094 11.214844 C 3.316406 11.371094 3.304688 11.484375 3.308594 11.679688 C 3.316406 11.871094 3.351562 12.007812 3.425781 12.164062 C 3.605469 12.539062 3.917969 12.796875 4.316406 12.902344 C 4.636719 12.988281 5.019531 12.949219 5.34375 12.796875 C 5.5 12.722656 5.550781 12.683594 5.585938 12.613281 C 5.605469 12.570312 5.605469 12.53125 5.605469 12.140625 C 5.605469 11.878906 5.601562 11.695312 5.59375 11.671875 C 5.582031 11.617188 5.535156 11.566406 5.480469 11.539062 C 5.441406 11.519531 5.410156 11.515625 5.066406 11.515625 C 4.714844 11.515625 4.695312 11.519531 4.648438 11.539062 C 4.511719 11.605469 4.492188 11.820312 4.613281 11.914062 C 4.671875 11.957031 4.726562 11.964844 4.921875 11.964844 L 5.105469 11.964844 L 5.105469 12.433594 L 5.039062 12.453125 C 4.863281 12.5 4.605469 12.507812 4.460938 12.472656 C 3.9375 12.339844 3.652344 11.742188 3.878906 11.25 C 3.980469 11.035156 4.1875 10.851562 4.414062 10.777344 C 4.59375 10.71875 4.875 10.734375 5.050781 10.804688 C 5.199219 10.867188 5.277344 10.863281 5.355469 10.800781 C 5.425781 10.742188 5.457031 10.621094 5.421875 10.535156 C 5.386719 10.457031 5.253906 10.386719 5.035156 10.328125 C 4.941406 10.304688 4.894531 10.300781 4.714844 10.296875 C 4.539062 10.292969 4.484375 10.296875 4.402344 10.3125 M 6.183594 10.347656 C 6.132812 10.371094 6.085938 10.417969 6.0625 10.464844 C 6.042969 10.511719 6.035156 12.617188 6.054688 12.71875 C 6.066406 12.789062 6.097656 12.839844 6.15625 12.878906 L 6.195312 12.90625 L 6.757812 12.90625 C 7.234375 12.910156 7.332031 12.90625 7.410156 12.894531 C 7.636719 12.847656 7.773438 12.777344 7.9375 12.613281 C 8.167969 12.382812 8.289062 12.085938 8.304688 11.695312 C 8.320312 11.269531 8.199219 10.898438 7.964844 10.648438 C 7.8125 10.488281 7.636719 10.390625 7.417969 10.347656 C 7.3125 10.328125 7.261719 10.324219 6.765625 10.324219 C 6.269531 10.328125 6.226562 10.328125 6.183594 10.347656 M 8.855469 10.351562 C 8.824219 10.371094 8.792969 10.394531 8.773438 10.433594 L 8.738281 10.488281 L 8.734375 11.597656 C 8.730469 12.34375 8.734375 12.722656 8.742188 12.753906 C 8.757812 12.808594 8.800781 12.859375 8.859375 12.886719 C 8.898438 12.910156 8.929688 12.910156 9.464844 12.910156 C 10.046875 12.910156 10.121094 12.90625 10.253906 12.863281 C 10.398438 12.816406 10.472656 12.773438 10.5625 12.6875 C 10.703125 12.550781 10.753906 12.417969 10.765625 12.179688 C 10.773438 12.015625 10.753906 11.910156 10.699219 11.804688 C 10.636719 11.675781 10.492188 11.546875 10.371094 11.507812 C 10.34375 11.496094 10.324219 11.488281 10.324219 11.484375 C 10.324219 11.480469 10.347656 11.460938 10.378906 11.445312 C 10.5 11.375 10.59375 11.238281 10.621094 11.09375 C 10.636719 11.015625 10.628906 10.851562 10.601562 10.757812 C 10.558594 10.59375 10.46875 10.476562 10.328125 10.410156 C 10.167969 10.332031 10.175781 10.332031 9.507812 10.328125 L 8.910156 10.324219 L 8.855469 10.351562 M 6.523438 11.617188 L 6.523438 12.484375 L 6.902344 12.480469 C 7.28125 12.476562 7.285156 12.476562 7.363281 12.445312 C 7.625 12.347656 7.765625 12.125 7.804688 11.738281 C 7.816406 11.644531 7.816406 11.582031 7.804688 11.484375 C 7.765625 11.109375 7.605469 10.871094 7.335938 10.785156 C 7.269531 10.761719 7.226562 10.761719 6.890625 10.753906 L 6.523438 10.75 L 6.523438 11.617188 M 9.234375 11.050781 L 9.234375 11.339844 L 9.585938 11.335938 C 9.921875 11.332031 9.941406 11.332031 9.984375 11.308594 C 10.042969 11.277344 10.085938 11.234375 10.109375 11.1875 C 10.128906 11.140625 10.132812 11.007812 10.117188 10.941406 C 10.097656 10.882812 10.042969 10.820312 9.980469 10.792969 C 9.929688 10.769531 9.902344 10.769531 9.582031 10.765625 L 9.234375 10.761719 L 9.234375 11.050781 M 9.234375 12.128906 L 9.234375 12.484375 L 9.628906 12.480469 C 10.007812 12.476562 10.019531 12.476562 10.074219 12.453125 C 10.226562 12.382812 10.292969 12.242188 10.265625 12.050781 C 10.25 11.949219 10.234375 11.914062 10.175781 11.867188 C 10.089844 11.789062 10 11.773438 9.558594 11.773438 L 9.234375 11.773438 L 9.234375 12.128906 "/>
</g>
</svg>
