<svg width="20" height="20" viewBox="0 0 20 20" fill="none" xmlns="http://www.w3.org/2000/svg">
<g clip-path="url(#clip0_29_4613)">
<path d="M6.75 0H2.25C1.00736 0 0 1.00736 0 2.25V6.75C0 7.99264 1.00736 9 2.25 9H6.75C7.99264 9 9 7.99264 9 6.75V2.25C9 1.00736 7.99264 0 6.75 0Z" fill="white"/>
<path d="M17.75 0H13.25C12.0074 0 11 1.00736 11 2.25V6.75C11 7.99264 12.0074 9 13.25 9H17.75C18.9926 9 20 7.99264 20 6.75V2.25C20 1.00736 18.9926 0 17.75 0Z" fill="white"/>
<path d="M6.75 11H2.25C1.00736 11 0 12.0074 0 13.25V17.75C0 18.9926 1.00736 20 2.25 20H6.75C7.99264 20 9 18.9926 9 17.75V13.25C9 12.0074 7.99264 11 6.75 11Z" fill="white"/>
<path d="M15.5 20C17.9853 20 20 17.9853 20 15.5C20 13.0147 17.9853 11 15.5 11C13.0147 11 11 13.0147 11 15.5C11 17.9853 13.0147 20 15.5 20Z" fill="white"/>
</g>
<defs>
<clipPath id="clip0_29_4613">
<rect width="20" height="20" fill="white"/>
</clipPath>
</defs>
</svg>
