<?xml version="1.0" encoding="UTF-8"?>
<svg width="16px" height="16px" viewBox="0 0 16 16" version="1.1" xmlns="http://www.w3.org/2000/svg" xmlns:xlink="http://www.w3.org/1999/xlink">
    <title>userdangnhap</title>
    <g id="GIS---Mạng-lưới-điện" stroke="none" stroke-width="1" fill="none" fill-rule="evenodd">
        <g id="01.-Home" transform="translate(-1235.000000, -19.000000)" fill="#FFFFFF">
            <path d="M1243,35 C1247.41824,35 1251,31.41824 1251,27 C1251,22.58172 1247.41824,19 1243,19 C1238.58172,19 1235,22.58172 1235,27 C1235,31.41824 1238.58172,35 1243,35 Z M1245.4,25.4 C1245.4,26.72552 1244.32552,27.8 1243,27.8 C1241.67448,27.8 1240.6,26.72552 1240.6,25.4 C1240.6,24.07452 1241.67448,23 1243,23 C1244.32552,23 1245.4,24.07452 1245.4,25.4 Z M1238.19942,31 C1239.29406,29.54264 1241.03687,28.6 1242.99984,28.6 C1244.9628,28.6 1246.70568,29.54264 1247.80032,31 C1246.70568,32.45736 1244.9628,33.4 1242.99984,33.4 C1241.03687,33.4 1239.29406,32.45736 1238.19942,31 Z" id="userdangnhap"></path>
        </g>
    </g>
</svg>