<?xml version="1.0" encoding="UTF-8"?>
<svg width="12px" height="16px" viewBox="0 0 12 16" version="1.1" xmlns="http://www.w3.org/2000/svg" xmlns:xlink="http://www.w3.org/1999/xlink">
    <title>file</title>
    <g id="GIS---Mạng-lưới-điện" stroke="none" stroke-width="1" fill="none" fill-rule="evenodd">
        <g id="02.-QL-lưới-điện---DS-hành-chính" transform="translate(-136.000000, -159.000000)" fill-rule="nonzero">
            <g id="file" transform="translate(136.000000, 159.000000)">
                <path d="M11.5786667,3.35466667 L8.37866667,0.154666667 C8.27801662,0.054833859 8.14176159,-0.000819604693 8,-8.92601573e-06 L1.6,-8.92601573e-06 C0.7163444,-8.92601573e-06 0,0.7163444 0,1.6 L0,14.4 C0,15.2836556 0.7163444,15.9999911 1.6,15.9999911 L10.1333333,15.9999911 C11.0169889,15.9999911 11.7333423,15.2836556 11.7333423,14.4 L11.7333423,3.73333333 C11.7341529,3.59157174 11.6784995,3.45531671 11.5786667,3.35466667 Z" id="Path" fill="#FDB32F"></path>
                <path d="M8.37866667,0.154666667 C8.27801662,0.054833859 8.14176159,-0.000819604693 8,-8.92601572e-06 L7.46666667,-8.92601572e-06 L7.46666667,3.54666667 C7.46957107,3.94310241 7.79023092,4.26376226 8.18666667,4.26666667 L11.7333423,4.26666667 L11.7333423,3.73333333 C11.7341529,3.59157174 11.6784995,3.45531671 11.5786667,3.35466667 L8.37866667,0.154666667 Z M8.61866667,8.66666667 L3.28533333,8.66666667 C2.99078147,8.66666667 2.752,8.4278852 2.752,8.13333333 C2.752,7.83878147 2.99078147,7.6 3.28533333,7.6 L8.61866667,7.6 C8.91321853,7.6 9.152,7.83878147 9.152,8.13333333 C9.152,8.4278852 8.91321853,8.66666667 8.61866667,8.66666667 Z M8.61866667,11.3333333 L3.28533333,11.3333333 C2.99078147,11.3333333 2.752,11.0945519 2.752,10.8 C2.752,10.5054481 2.99078147,10.2666667 3.28533333,10.2666667 L8.61866667,10.2666667 C8.91321853,10.2666667 9.152,10.5054481 9.152,10.8 C9.152,11.0945519 8.91321853,11.3333333 8.61866667,11.3333333 Z M8.61866667,14 L3.28533333,14 C2.99078147,14 2.752,13.7612185 2.752,13.4666667 C2.752,13.1721148 2.99078147,12.9333333 3.28533333,12.9333333 L8.61866667,12.9333333 C8.91321853,12.9333333 9.152,13.1721148 9.152,13.4666667 C9.152,13.7612185 8.91321853,14 8.61866667,14 Z" id="Shape" fill="#D98B00"></path>
                <path d="M8.53333333,8.53333333 L3.2,8.53333333 C2.90544813,8.53333333 2.66666667,8.29455187 2.66666667,8 C2.66666667,7.70544813 2.90544813,7.46666667 3.2,7.46666667 L8.53333333,7.46666667 C8.8278852,7.46666667 9.06666667,7.70544813 9.06666667,8 C9.06666667,8.29455187 8.8278852,8.53333333 8.53333333,8.53333333 Z M8.53333333,11.2 L3.2,11.2 C2.90544813,11.2 2.66666667,10.9612185 2.66666667,10.6666667 C2.66666667,10.3721148 2.90544813,10.1333333 3.2,10.1333333 L8.53333333,10.1333333 C8.8278852,10.1333333 9.06666667,10.3721148 9.06666667,10.6666667 C9.06666667,10.9612185 8.8278852,11.2 8.53333333,11.2 Z M8.53333333,13.8666667 L3.2,13.8666667 C2.90544813,13.8666667 2.66666667,13.6278852 2.66666667,13.3333333 C2.66666667,13.0387815 2.90544813,12.8 3.2,12.8 L8.53333333,12.8 C8.8278852,12.8 9.06666667,13.0387815 9.06666667,13.3333333 C9.06666667,13.6278852 8.8278852,13.8666667 8.53333333,13.8666667 Z" id="Shape" fill="#FFFFFF"></path>
                <path d="M9.00266667,7.75466667 C8.92810311,7.71173037 8.84336917,7.68962587 8.75733333,7.69066667 L3.424,7.69066667 C3.12944813,7.69066667 2.89066667,7.92944813 2.89066667,8.224 C2.88962587,8.31003584 2.91173037,8.39476978 2.95466667,8.46933333 C2.77908264,8.37837724 2.66823581,8.19773796 2.66666667,8 C2.66666667,7.70544813 2.90544813,7.46666667 3.2,7.46666667 L8.53333333,7.46666667 C8.73107129,7.46823581 8.91171057,7.57908264 9.00266667,7.75466667 Z M9.00266667,10.4213333 C8.92810311,10.378397 8.84336917,10.3562925 8.75733333,10.3573333 L3.424,10.3573333 C3.12944813,10.3573333 2.89066667,10.5961148 2.89066667,10.8906667 C2.88962587,10.9767025 2.91173037,11.0614364 2.95466667,11.136 C2.77908264,11.0450439 2.66823581,10.8644046 2.66666667,10.6666667 C2.66666667,10.3721148 2.90544813,10.1333333 3.2,10.1333333 L8.53333333,10.1333333 C8.73107129,10.1349025 8.91171057,10.2457493 9.00266667,10.4213333 Z M9.00266667,13.088 C8.92810311,13.0450637 8.84336917,13.0229592 8.75733333,13.024 L3.424,13.024 C3.12944813,13.024 2.89066667,13.2627815 2.89066667,13.5573333 C2.88962587,13.6433692 2.91173037,13.7281031 2.95466667,13.8026667 C2.77908264,13.7117106 2.66823581,13.5310713 2.66666667,13.3333333 C2.66666667,13.0387815 2.90544813,12.8 3.2,12.8 L8.53333333,12.8 C8.73107129,12.8015691 8.91171057,12.912416 9.00266667,13.088 Z" id="Shape" fill="#D7E2F2"></path>
            </g>
        </g>
    </g>
</svg>