<?xml version="1.0" encoding="UTF-8"?>
<svg width="14px" height="14px" viewBox="0 0 14 14" version="1.1" xmlns="http://www.w3.org/2000/svg" xmlns:xlink="http://www.w3.org/1999/xlink">
    <title>tim kiem</title>
    <g id="Design" stroke="none" stroke-width="1" fill="none" fill-rule="evenodd">
        <g id="Artboard" transform="translate(-196.000000, -136.000000)" fill="#383435" fill-rule="nonzero">
            <path d="M209.867445,149.23835 L206.2528,145.681536 C207.199359,144.653147 207.780957,143.293086 207.780957,141.796482 C207.780499,138.59497 205.143456,136 201.89025,136 C198.637043,136 196,138.59497 196,141.796482 C196,144.997994 198.637043,147.592964 201.89025,147.592964 C203.29586,147.592964 204.585055,147.106792 205.597703,146.298533 L209.226371,149.86937 C209.403179,150.043543 209.690226,150.043543 209.867034,149.86937 C210.044253,149.695219 210.044253,149.412524 209.867445,149.23835 Z M201.89025,146.701141 C199.137683,146.701141 196.906298,144.505257 196.906298,141.796482 C196.906298,139.087707 199.137683,136.891823 201.89025,136.891823 C204.642839,136.891823 206.874201,139.087707 206.874201,141.796482 C206.874201,144.505257 204.642839,146.701141 201.89025,146.701141 Z" id="tim-kiem"></path>
        </g>
    </g>
</svg>