<?xml version="1.0" encoding="UTF-8"?>
<svg width="15px" height="16px" viewBox="0 0 15 16" version="1.1" xmlns="http://www.w3.org/2000/svg" xmlns:xlink="http://www.w3.org/1999/xlink">
    <title>remove</title>
    <g id="GIS---Mạng-lưới-điện" stroke="none" stroke-width="1" fill="none" fill-rule="evenodd">
        <g id="04.2.-QL-lưới-điện---Lớp-dữ-liệu---Đã-tìm-kiếm---Chi-tiết-TT-1-trạm" transform="translate(-355.000000, -70.000000)" fill="#676A72" fill-rule="nonzero">
            <path d="M364.857121,70 C365.447922,70 365.928498,70.4849688 365.928498,71.0810625 L365.928498,71.0810625 L365.928,72.486 L369.357105,72.4865 C369.679907,72.4865 369.947114,72.7264793 369.99303,73.039294 L370,73.1351562 C370,73.4934375 369.712218,73.7838125 369.357136,73.7838125 L369.357136,73.7838125 L368.446,73.783 L367.469055,85.0190313 C367.417922,85.5329955 367.009642,85.93829 366.515447,85.993567 L366.4,86 L358.6,86 C358.055066,86 357.58598,85.5723125 357.531812,85.0268125 L357.531812,85.0268125 L356.553,73.783 L355.642864,73.7838125 C355.320062,73.7838125 355.05288,73.5438332 355.006969,73.2310185 L355,73.1351562 C355,72.776875 355.287782,72.4865 355.642864,72.4865 L355.642864,72.4865 L359.071,72.486 L359.071409,71.0810938 C359.071409,70.5247104 359.490098,70.0651565 360.026267,70.0063555 L360.142848,70 Z M367.155,73.783 L357.844,73.783 L358.794126,84.7027188 L366.205843,84.7027188 L367.155,73.783 Z M364.642802,71.2972813 L360.357105,71.2972813 L360.357,72.486 L364.642,72.486 L364.642802,71.2972813 Z" id="remove"></path>
        </g>
    </g>
</svg>