<?xml version="1.0" encoding="UTF-8"?>
<svg width="17px" height="16px" viewBox="0 0 17 16" version="1.1" xmlns="http://www.w3.org/2000/svg" xmlns:xlink="http://www.w3.org/1999/xlink">
    <title>chat</title>
    <g id="GIS---Mạng-lưới-điện" stroke="none" stroke-width="1" fill="none" fill-rule="evenodd">
        <g id="09.1.-Vận-hành-bảo-dưỡng---Thêm-mới" transform="translate(-1269.000000, -653.000000)" fill="#2c3090" fill-rule="nonzero">
            <g id="Group-3" transform="translate(120.000000, 34.000000)">
                <path d="M1155.19793,631.251841 L1158.07871,632.218793 L1156.15701,634.787131 C1156.05501,634.923479 1155.89493,635 1155.72918,635 C1155.67393,635 1155.61797,634.991652 1155.56343,634.974261 C1155.34526,634.903305 1155.19793,634.703653 1155.19793,634.478263 L1155.19793,634.478263 L1155.19793,631.251841 Z M1165.22294,619.059192 C1165.40002,618.968062 1165.61394,618.983366 1165.77685,619.096757 C1165.93977,619.210843 1166.02335,619.404234 1165.99431,619.599016 L1165.99431,619.599016 L1164.0464,632.468531 C1164.02302,632.620879 1163.93165,632.75653 1163.79707,632.837226 C1163.71278,632.887312 1163.61715,632.913052 1163.52082,632.913052 C1163.46273,632.913052 1163.40465,632.903312 1163.3494,632.885226 L1163.3494,632.885226 L1155.92397,630.392713 L1163.22544,621.753442 L1153.78977,629.67689 L1149.35916,628.189591 C1149.1587,628.122113 1149.01774,627.944027 1149.00145,627.735332 C1148.98586,627.527333 1149.09707,627.329769 1149.28549,627.233073 L1149.28549,627.233073 Z" id="chat"></path>
            </g>
        </g>
    </g>
</svg>