<?xml version="1.0" encoding="UTF-8"?>
<svg width="18px" height="18px" viewBox="0 0 18 18" version="1.1" xmlns="http://www.w3.org/2000/svg" xmlns:xlink="http://www.w3.org/1999/xlink">
    <title>info-location</title>
    <g id="GIS---Mạng-lưới-điện" stroke="none" stroke-width="1" fill="none" fill-rule="evenodd">
        <g id="08.-Vận-hành-bảo-dưỡng---DS" transform="translate(-357.000000, -342.000000)" fill="#2858B6" fill-rule="nonzero">
            <path d="M366,342 C370.9626,342 375,346.037455 375,351.000055 C375,355.962655 370.9626,360 366,360 C361.0374,360 357,355.962655 357,351.000055 C357,346.037455 361.0374,342 366,342 Z M366,343.636364 C361.939636,343.636364 358.636364,346.939745 358.636364,351.000055 C358.636364,355.060364 361.939636,358.363636 366,358.363636 C370.060309,358.363636 373.363636,355.060364 373.363636,351.000055 C373.363636,346.939745 370.060364,343.636364 366,343.636364 Z M366,349.636364 C366.451855,349.636364 366.818182,350.002691 366.818182,350.454545 L366.818182,350.454545 L366.818182,355.363636 C366.818182,355.815491 366.451855,356.181818 366,356.181818 C365.548145,356.181818 365.181818,355.815491 365.181818,355.363636 L365.181818,355.363636 L365.181818,350.454545 C365.181818,350.002691 365.548145,349.636364 366,349.636364 Z M365.999891,345.818182 C366.601309,345.818182 367.090582,346.307782 367.090582,346.909582 C367.090582,347.510836 366.601309,348 365.999891,348 C365.398473,348 364.9092,347.510836 364.9092,346.909582 C364.9092,346.307782 365.398473,345.818182 365.999891,345.818182 Z" id="info-location"></path>
        </g>
    </g>
</svg>