<?xml version="1.0" encoding="UTF-8"?>
<svg width="24px" height="24px" viewBox="0 0 24 24" version="1.1" xmlns="http://www.w3.org/2000/svg" xmlns:xlink="http://www.w3.org/1999/xlink">
    <title>Shape</title>
    <g id="GIS---Mạng-lưới-điện" stroke="none" stroke-width="1" fill="none" fill-rule="evenodd">
        <g id="02.-QL-lưới-điện---DS-hành-chính" transform="translate(-23.000000, -756.000000)" fill="#828A95">
            <path d="M30.6240098,756 C28.8342726,756 27.3530221,757.482418 27.3530221,759.276116 L27.3530221,776.723884 C27.3530221,778.517582 28.834248,780 30.6240098,780 L34.9704494,780 C36.7602106,780 38.2393114,778.517582 38.2393114,776.723884 L38.2393114,772.35928 C38.2393114,770.904783 36.0629037,770.904783 36.0629037,772.35928 L36.0629037,776.723884 C36.0629037,777.346887 35.5920923,777.818763 34.9704494,777.818763 L30.6240098,777.818763 C30.0023669,777.818763 29.5315552,777.346887 29.5315552,776.723884 L29.5315552,759.276116 C29.5315552,758.653114 30.0023418,758.181237 30.6240098,758.181237 L34.9704494,758.181237 C35.5921174,758.181237 36.0629037,758.653114 36.0629037,759.276116 L36.0629037,763.640721 C36.0629037,765.095218 38.2393114,765.095218 38.2393114,763.640721 L38.2393114,759.276116 C38.2393114,757.482418 36.7601856,756 34.9704494,756 L30.6240098,756 Z M24.0990375,760.347511 C23.8048781,760.344658 23.5220741,760.461223 23.3150653,760.670698 C23.1080565,760.880173 22.9944769,761.164713 23.0002067,761.459483 L23.0002067,774.540517 C23.0133326,775.133422 23.4966725,775.607206 24.0884106,775.607206 C24.6801486,775.607206 25.1634885,775.133422 25.1766144,774.540517 L25.1766144,761.459483 C25.1822743,761.169864 25.0727489,760.889883 24.8721939,760.68129 C24.6716389,760.472698 24.3965291,760.352629 24.1075392,760.347511 C24.1047053,760.347511 24.1018714,760.347511 24.0990375,760.347511 Z M41.550682,762.533034 C41.5159192,762.532813 41.4811646,762.534235 41.4465376,762.537321 C41.0246483,762.578559 40.6650371,762.86155 40.5249841,763.262523 C40.384931,763.663497 40.4899227,764.109486 40.7940397,764.405432 L43.2913826,766.908316 L32.8578028,766.908316 C32.8203348,766.90638 32.7826174,766.90638 32.7451572,766.908316 C31.2940368,766.983749 31.406685,769.166952 32.8578028,769.091684 L43.2850068,769.091684 L40.7940397,771.586047 C40.5090959,771.858826 40.393531,772.264664 40.4919045,772.647079 C40.590278,773.029494 40.887222,773.328746 41.2682412,773.429449 C41.6492603,773.530153 42.0548322,773.416575 42.3285769,773.132511 L46.6835186,768.767906 C47.1054938,768.34248 47.1054938,767.65539 46.6835186,767.229964 L42.3285769,762.867489 C42.1249282,762.65538 41.8443841,762.534771 41.550682,762.533034 Z" id="Shape"></path>
        </g>
    </g>
</svg>