<?xml version="1.0" encoding="UTF-8"?>
<svg width="16px" height="16px" viewBox="0 0 16 16" version="1.1" xmlns="http://www.w3.org/2000/svg" xmlns:xlink="http://www.w3.org/1999/xlink">
    <title>edit</title>
    <g id="GIS---Mạng-lưới-điện" stroke="none" stroke-width="1" fill="none" fill-rule="evenodd">
        <g id="04.2.-QL-lưới-điện---Lớp-dữ-liệu---Đã-tìm-kiếm---Chi-tiết-TT-1-trạm" transform="translate(-319.000000, -70.000000)" fill="#2c3090" fill-rule="nonzero">
            <path d="M334.566414,72.8868786 L332.113132,70.4335597 C331.535132,69.855527 330.599507,69.8554332 330.021413,70.4335597 C329.609944,70.845092 320.563942,79.8911466 320.391411,80.0636158 C320.323223,80.1318035 320.275005,80.2173037 320.252036,80.3109602 L319.015692,85.3459107 C318.920817,85.7324117 319.271504,86.0784126 319.654161,85.9844124 C319.915442,85.920256 324.457849,84.8048156 324.689068,84.7480342 C324.782693,84.7250654 324.868256,84.6768465 324.936412,84.6086588 C325.118162,84.4269084 334.11382,75.4312289 334.566445,74.9786027 C335.144445,74.40057 335.144602,73.4649738 334.566414,72.8868786 Z M320.248661,84.7513779 L320.299036,84.5463149 L320.453755,84.7010341 L320.248661,84.7513779 Z M321.652317,84.4067208 L320.593348,83.3477493 L321.053848,81.4724632 L323.527599,83.9462196 L321.652317,84.4067208 Z M324.563193,83.4889997 L321.511067,80.4368668 L329.392475,72.5554089 L332.444601,75.6075418 L324.563193,83.4889997 Z M333.820008,74.2321633 L333.210382,74.8417586 L330.158288,71.7896257 L330.767882,71.1800304 C330.933319,71.0146237 331.201226,71.0144675 331.366726,71.1800304 L333.820039,73.6333805 C333.985508,73.7988497 333.985508,74.0666316 333.820008,74.2321633 Z" id="edit"></path>
        </g>
    </g>
</svg>