<?xml version="1.0" encoding="UTF-8"?>
<svg xmlns="http://www.w3.org/2000/svg" xmlns:xlink="http://www.w3.org/1999/xlink" width="14px" height="16px" viewBox="0 0 14 15" version="1.1">
<g id="surface1">
<path style=" stroke:none;fill-rule:evenodd;fill:rgb(1.568627%,1.568627%,1.568627%);fill-opacity:1;" d="M 3.789062 0.324219 C 3.621094 0.339844 3.375 0.425781 3.21875 0.519531 C 3.023438 0.640625 2.804688 0.839844 2.636719 1.054688 C 2.59375 1.105469 2.558594 1.15625 2.554688 1.160156 C 2.550781 1.164062 2.5 1.175781 2.445312 1.183594 C 2.132812 1.222656 1.835938 1.359375 1.617188 1.566406 C 1.449219 1.726562 1.34375 1.878906 1.269531 2.078125 C 1.179688 2.320312 1.183594 2.179688 1.183594 4.742188 L 1.183594 7.050781 L 0.742188 9.191406 C 0.242188 11.640625 0.253906 11.585938 0.253906 11.722656 C 0.253906 12.304688 0.648438 12.824219 1.238281 13.019531 L 1.339844 13.054688 L 1.421875 13.171875 C 1.648438 13.496094 2.003906 13.714844 2.398438 13.773438 C 2.5 13.789062 2.757812 13.792969 3.957031 13.792969 L 5.394531 13.792969 L 5.621094 13.867188 C 5.742188 13.90625 6.089844 14.035156 6.394531 14.148438 C 7.1875 14.449219 7.507812 14.542969 7.839844 14.585938 C 7.992188 14.605469 8.335938 14.59375 8.441406 14.566406 C 8.84375 14.46875 9.121094 14.269531 9.472656 13.828125 C 9.496094 13.796875 9.515625 13.789062 9.632812 13.773438 C 10.035156 13.714844 10.386719 13.5 10.617188 13.167969 C 10.796875 12.914062 10.863281 12.671875 10.863281 12.25 L 10.863281 12.058594 L 11.539062 12.058594 C 11.949219 12.058594 12.257812 12.050781 12.320312 12.042969 C 12.914062 11.96875 13.429688 11.5625 13.605469 11.039062 C 13.683594 10.808594 13.683594 10.816406 13.691406 10.019531 C 13.695312 9.21875 13.6875 9.042969 13.632812 8.839844 C 13.59375 8.703125 13.5 8.503906 13.414062 8.386719 C 13.210938 8.101562 12.859375 7.871094 12.488281 7.78125 L 12.332031 7.742188 L 11.617188 7.734375 C 11.011719 7.730469 10.902344 7.726562 10.902344 7.710938 C 10.902344 7.703125 11.097656 6.746094 11.335938 5.585938 C 11.574219 4.425781 11.773438 3.425781 11.78125 3.359375 C 11.832031 2.878906 11.582031 2.382812 11.140625 2.101562 C 11.042969 2.035156 10.871094 1.960938 10.769531 1.929688 C 10.707031 1.914062 10.691406 1.902344 10.667969 1.863281 C 10.621094 1.777344 10.496094 1.628906 10.398438 1.542969 C 10.222656 1.386719 10.007812 1.273438 9.757812 1.210938 L 9.621094 1.175781 L 8.125 1.167969 L 6.628906 1.164062 L 6.496094 1.117188 C 6.300781 1.050781 5.988281 0.929688 5.675781 0.800781 C 4.777344 0.429688 4.359375 0.3125 3.976562 0.316406 C 3.898438 0.316406 3.816406 0.320312 3.789062 0.324219 M 3.835938 0.925781 C 3.675781 0.953125 3.53125 1.015625 3.398438 1.113281 L 3.320312 1.167969 L 4.207031 1.167969 C 4.703125 1.167969 5.085938 1.164062 5.070312 1.15625 C 4.941406 1.105469 4.59375 0.992188 4.488281 0.964844 C 4.25 0.90625 4.019531 0.890625 3.835938 0.925781 M 2.441406 1.742188 C 2.144531 1.808594 1.90625 2.023438 1.804688 2.308594 L 1.773438 2.394531 L 1.773438 12.554688 L 1.804688 12.648438 C 1.878906 12.871094 2.039062 13.050781 2.246094 13.148438 C 2.460938 13.246094 2.152344 13.242188 6.070312 13.238281 L 9.566406 13.234375 L 9.679688 13.195312 C 9.90625 13.117188 10.078125 12.976562 10.179688 12.78125 C 10.25 12.640625 10.265625 12.570312 10.273438 12.300781 L 10.28125 12.058594 L 4.898438 12.050781 L 4.761719 12.015625 C 4.445312 11.9375 4.207031 11.804688 3.980469 11.578125 C 3.769531 11.367188 3.636719 11.113281 3.582031 10.8125 C 3.566406 10.71875 3.5625 10.566406 3.566406 9.84375 L 3.570312 8.984375 L 3.605469 8.859375 C 3.703125 8.523438 3.902344 8.242188 4.1875 8.039062 C 4.375 7.90625 4.542969 7.832031 4.785156 7.773438 L 4.925781 7.738281 L 10.277344 7.730469 L 10.273438 5.074219 C 10.269531 2.183594 10.273438 2.375 10.191406 2.207031 C 10.089844 1.996094 9.925781 1.855469 9.6875 1.769531 L 9.578125 1.730469 L 6.050781 1.726562 C 3 1.726562 2.507812 1.726562 2.441406 1.742188 M 10.863281 3.773438 C 10.863281 4.425781 10.867188 4.953125 10.871094 4.949219 C 10.871094 4.941406 10.949219 4.578125 11.035156 4.144531 C 11.183594 3.4375 11.199219 3.335938 11.199219 3.226562 C 11.195312 3.007812 11.117188 2.835938 10.953125 2.671875 L 10.863281 2.582031 L 10.863281 3.773438 M 3.25 2.910156 C 3.179688 2.933594 3.09375 3.027344 3.074219 3.09375 C 3.042969 3.214844 3.101562 3.347656 3.21875 3.40625 L 3.277344 3.4375 L 5.996094 3.441406 C 7.882812 3.445312 8.726562 3.441406 8.765625 3.433594 C 8.871094 3.40625 8.972656 3.28125 8.972656 3.175781 C 8.976562 3.054688 8.890625 2.9375 8.78125 2.90625 C 8.695312 2.882812 3.324219 2.886719 3.25 2.910156 M 3.273438 4.445312 C 3.019531 4.519531 2.992188 4.839844 3.230469 4.953125 C 3.28125 4.980469 3.324219 4.980469 6.019531 4.980469 C 8.644531 4.976562 8.757812 4.976562 8.808594 4.957031 C 8.90625 4.914062 8.972656 4.8125 8.972656 4.707031 C 8.972656 4.632812 8.945312 4.570312 8.882812 4.511719 C 8.789062 4.417969 9.003906 4.425781 6.015625 4.425781 C 3.851562 4.425781 3.320312 4.429688 3.273438 4.445312 M 3.25 5.992188 C 3.179688 6.015625 3.09375 6.105469 3.074219 6.175781 C 3.042969 6.296875 3.101562 6.425781 3.21875 6.488281 L 3.277344 6.519531 L 5.996094 6.523438 C 7.882812 6.523438 8.726562 6.523438 8.765625 6.511719 C 8.871094 6.484375 8.972656 6.359375 8.972656 6.257812 C 8.976562 6.136719 8.890625 6.019531 8.78125 5.988281 C 8.695312 5.964844 3.324219 5.964844 3.25 5.992188 M 5.011719 8.300781 C 4.765625 8.328125 4.515625 8.457031 4.367188 8.636719 C 4.285156 8.730469 4.191406 8.914062 4.167969 9.027344 C 4.148438 9.105469 4.148438 9.242188 4.152344 9.9375 L 4.15625 10.757812 L 4.191406 10.855469 C 4.246094 11.003906 4.3125 11.109375 4.441406 11.230469 C 4.542969 11.324219 4.578125 11.347656 4.695312 11.402344 C 4.769531 11.4375 4.867188 11.472656 4.90625 11.480469 C 4.964844 11.496094 5.625 11.5 8.640625 11.5 L 12.304688 11.5 L 12.410156 11.464844 C 12.679688 11.375 12.875 11.214844 12.996094 10.988281 C 13.101562 10.785156 13.101562 10.789062 13.101562 9.894531 C 13.101562 9 13.101562 9.011719 12.996094 8.804688 C 12.867188 8.566406 12.621094 8.378906 12.339844 8.3125 C 12.257812 8.292969 11.933594 8.292969 8.683594 8.289062 C 6.71875 8.289062 5.066406 8.292969 5.011719 8.300781 M 6.007812 8.828125 C 5.738281 8.871094 5.5625 8.964844 5.449219 9.132812 C 5.382812 9.230469 5.351562 9.339844 5.359375 9.464844 C 5.371094 9.613281 5.410156 9.695312 5.523438 9.800781 C 5.660156 9.929688 5.847656 10.011719 6.1875 10.089844 C 6.386719 10.136719 6.484375 10.171875 6.542969 10.222656 C 6.636719 10.300781 6.636719 10.410156 6.542969 10.488281 C 6.476562 10.542969 6.386719 10.566406 6.269531 10.558594 C 6.089844 10.542969 5.984375 10.445312 5.9375 10.242188 C 5.929688 10.214844 5.921875 10.210938 5.894531 10.210938 C 5.867188 10.210938 5.347656 10.242188 5.28125 10.246094 C 5.28125 10.246094 5.277344 10.265625 5.277344 10.289062 C 5.277344 10.351562 5.328125 10.507812 5.375 10.59375 C 5.429688 10.691406 5.582031 10.835938 5.675781 10.878906 C 5.910156 10.980469 6.386719 11.011719 6.683594 10.945312 C 7.039062 10.863281 7.285156 10.585938 7.285156 10.273438 C 7.285156 10.023438 7.167969 9.84375 6.917969 9.722656 C 6.789062 9.660156 6.664062 9.621094 6.355469 9.550781 C 6.101562 9.492188 6.042969 9.46875 6.011719 9.414062 C 5.984375 9.371094 6.007812 9.289062 6.0625 9.253906 C 6.144531 9.199219 6.328125 9.199219 6.421875 9.25 C 6.472656 9.277344 6.539062 9.367188 6.550781 9.425781 C 6.554688 9.449219 6.5625 9.46875 6.566406 9.472656 C 6.578125 9.480469 7.207031 9.445312 7.214844 9.4375 C 7.226562 9.425781 7.171875 9.246094 7.132812 9.171875 C 7.078125 9.066406 6.96875 8.960938 6.859375 8.910156 C 6.714844 8.84375 6.597656 8.824219 6.328125 8.820312 C 6.191406 8.816406 6.050781 8.820312 6.007812 8.828125 M 7.632812 9.902344 L 7.632812 10.953125 L 8.324219 10.953125 L 8.324219 10.097656 L 9.054688 10.097656 L 9.054688 10.953125 L 9.757812 10.953125 L 9.757812 8.851562 L 9.054688 8.851562 L 9.054688 9.582031 L 8.324219 9.582031 L 8.324219 8.851562 L 7.632812 8.851562 L 7.632812 9.902344 M 10.199219 9.902344 L 10.199219 10.953125 L 10.890625 10.953125 L 10.890625 10.175781 L 11.191406 10.167969 C 11.523438 10.160156 11.582031 10.152344 11.722656 10.089844 C 11.890625 10.011719 11.996094 9.894531 12.054688 9.710938 C 12.085938 9.609375 12.085938 9.378906 12.054688 9.273438 C 11.984375 9.058594 11.832031 8.925781 11.589844 8.871094 C 11.523438 8.855469 11.386719 8.851562 10.851562 8.851562 L 10.199219 8.851562 L 10.199219 9.902344 M 10.890625 9.511719 L 10.890625 9.746094 L 10.957031 9.746094 C 11.074219 9.742188 11.242188 9.722656 11.285156 9.699219 C 11.445312 9.625 11.445312 9.398438 11.289062 9.316406 C 11.234375 9.289062 11.207031 9.285156 11.058594 9.28125 L 10.890625 9.277344 L 10.890625 9.511719 M 1.011719 10.792969 C 0.859375 11.527344 0.84375 11.609375 0.84375 11.738281 C 0.84375 11.855469 0.851562 11.890625 0.882812 11.980469 C 0.925781 12.105469 0.996094 12.210938 1.101562 12.304688 L 1.175781 12.378906 L 1.179688 11.777344 C 1.183594 11.449219 1.183594 10.910156 1.179688 10.582031 L 1.175781 9.984375 L 1.011719 10.792969 M 7.046875 13.796875 C 7.046875 13.8125 7.515625 13.949219 7.664062 13.976562 C 7.878906 14.019531 8.15625 14.023438 8.316406 13.984375 C 8.4375 13.953125 8.554688 13.902344 8.648438 13.835938 L 8.714844 13.792969 L 7.878906 13.792969 C 7.421875 13.792969 7.046875 13.796875 7.046875 13.796875 "/>
</g>
</svg>
