<?xml version="1.0" encoding="UTF-8"?>
<svg width="15px" height="18px" viewBox="0 0 15 18" version="1.1" xmlns="http://www.w3.org/2000/svg" xmlns:xlink="http://www.w3.org/1999/xlink">
    <title>baoduong-location</title>
    <g id="GIS---Mạng-lưới-điện" stroke="none" stroke-width="1" fill="none" fill-rule="evenodd">
        <g id="08.-Vận-hành-bảo-dưỡng---DS" transform="translate(-285.000000, -342.000000)" fill="#2c3090" fill-rule="nonzero">
            <path d="M292.5,342 C295.534083,342 298.269264,343.843995 299.429634,346.671794 C300.590003,349.499594 299.946934,352.754042 297.800406,354.916997 L292.946616,359.812986 C292.82874,359.933377 292.667748,360.000785 292.5,360 C292.332252,360.000785 292.17126,359.933377 292.053384,359.812986 L287.199594,354.916997 C285.053066,352.754042 284.409997,349.499594 285.570366,346.671794 C286.730736,343.843995 289.465917,342 292.5,342 Z M292.5,343.280521 C289.979221,343.2823 287.707437,344.814785 286.743016,347.164029 C285.778594,349.513273 286.311248,352.217153 288.092826,354.015999 L292.5,358.461489 L296.907174,354.015999 C298.688752,352.217153 299.221406,349.513273 298.256984,347.164029 C297.292563,344.814785 295.020779,343.2823 292.5,343.280521 Z M292.5,346.000516 C294.245231,346.000516 295.66002,347.427605 295.66002,349.188009 C295.66002,350.948413 294.245231,352.375502 292.5,352.375502 C290.754769,352.375502 289.33998,350.948413 289.33998,349.188009 C289.33998,347.427605 290.754769,346.000516 292.5,346.000516 Z M292.5,347.275513 C291.452862,347.275513 290.603988,348.131767 290.603988,349.188009 C290.603988,350.244251 291.452862,351.100505 292.5,351.100505 C293.547138,351.100505 294.396012,350.244251 294.396012,349.188009 C294.396012,348.131767 293.547138,347.275513 292.5,347.275513 Z" id="baoduong-location"></path>
        </g>
    </g>
</svg>