<?xml version="1.0" encoding="UTF-8"?>
<svg xmlns="http://www.w3.org/2000/svg" xmlns:xlink="http://www.w3.org/1999/xlink" width="16px" height="16px" viewBox="0 0 16 16" version="1.1">
<g id="surface1">
<path style=" stroke:none;fill-rule:nonzero;fill:rgb(0%,0%,0%);fill-opacity:1;" d="M 7.140625 1.519531 C 4.566406 1.683594 2.539062 2.402344 2.082031 3.316406 L 2 3.480469 L 2 6.5 L 1 7 L 1 11.5 L 2 11.5 L 2 12.007812 C 2 12.496094 2.003906 12.523438 2.082031 12.683594 C 2.425781 13.375 3.757812 14 5.507812 14.296875 C 6.382812 14.445312 6.914062 14.480469 8 14.480469 C 9.089844 14.480469 9.617188 14.445312 10.496094 14.292969 C 12.054688 14.03125 13.316406 13.492188 13.773438 12.898438 C 13.984375 12.628906 14 12.566406 14 12 L 14 11.5 L 15 11.5 L 15 7 L 14 6.5 L 14 3.480469 L 13.917969 3.320312 C 13.507812 2.492188 11.820312 1.820312 9.5625 1.578125 C 9.132812 1.53125 7.554688 1.492188 7.140625 1.519531 Z M 9.515625 2.074219 C 10.796875 2.21875 11.84375 2.484375 12.609375 2.859375 C 13.027344 3.066406 13.296875 3.277344 13.414062 3.492188 C 13.523438 3.6875 13.523438 3.789062 13.417969 3.992188 C 13.105469 4.621094 11.519531 5.199219 9.492188 5.429688 C 8.820312 5.503906 7.171875 5.503906 6.507812 5.429688 C 4.492188 5.199219 2.925781 4.632812 2.585938 4.007812 C 2.476562 3.808594 2.476562 3.691406 2.585938 3.492188 C 2.933594 2.851562 4.699219 2.230469 6.65625 2.0625 C 6.871094 2.042969 7.109375 2.023438 7.1875 2.019531 C 7.507812 1.992188 9.105469 2.03125 9.515625 2.074219 Z M 3.304688 5.148438 C 3.867188 5.414062 4.734375 5.664062 5.609375 5.808594 C 6.40625 5.945312 6.910156 5.980469 7.96875 5.980469 C 9 5.984375 9.363281 5.960938 10.203125 5.839844 C 11.445312 5.664062 12.710938 5.238281 13.3125 4.792969 L 13.5 4.65625 L 13.5 7 L 2.5 7 L 2.5 4.664062 L 2.757812 4.835938 C 2.898438 4.929688 3.148438 5.070312 3.304688 5.148438 Z M 12.773438 7.988281 C 12.878906 8.003906 12.882812 8.007812 12.859375 8.117188 C 12.820312 8.351562 12.820312 8.351562 12.683594 8.328125 C 12.496094 8.296875 12.40625 8.367188 12.40625 8.546875 L 12.40625 8.6875 L 12.75 8.6875 L 12.75 9.0625 L 12.40625 9.0625 L 12.40625 10.5 L 11.90625 10.5 L 11.90625 9.0625 L 11.65625 9.0625 L 11.65625 8.6875 L 11.898438 8.6875 L 11.917969 8.480469 C 11.953125 8.132812 12.054688 8.015625 12.335938 7.972656 C 12.480469 7.953125 12.5625 7.953125 12.773438 7.988281 Z M 2.730469 8.851562 C 2.851562 9.308594 2.957031 9.679688 2.960938 9.675781 C 2.960938 9.671875 3.058594 9.320312 3.171875 8.886719 C 3.285156 8.460938 3.382812 8.085938 3.394531 8.054688 C 3.410156 8.007812 3.457031 8 3.785156 8 L 4.15625 8 L 4.15625 10.5 L 3.6875 10.5 L 3.679688 8.609375 L 3.445312 9.554688 L 3.203125 10.503906 L 2.957031 10.492188 L 2.707031 10.484375 L 2.464844 9.53125 L 2.226562 8.578125 L 2.21875 10.5 L 1.75 10.5 L 1.75 7.996094 L 2.132812 8.007812 L 2.511719 8.015625 Z M 9.21875 8.21875 L 9.21875 8.4375 L 8.75 8.4375 L 8.75 8 L 9.21875 8 Z M 5.757812 8.691406 C 5.828125 8.710938 5.929688 8.773438 5.992188 8.828125 L 6.109375 8.929688 L 6.128906 9.601562 C 6.140625 10.109375 6.160156 10.292969 6.195312 10.382812 L 6.246094 10.5 L 5.757812 10.5 L 5.734375 10.402344 C 5.710938 10.3125 5.710938 10.308594 5.648438 10.359375 C 5.417969 10.523438 5.085938 10.582031 4.867188 10.488281 C 4.609375 10.382812 4.476562 10.070312 4.578125 9.824219 C 4.679688 9.585938 4.789062 9.523438 5.40625 9.382812 C 5.625 9.332031 5.640625 9.320312 5.648438 9.242188 C 5.664062 9.121094 5.585938 9.039062 5.445312 9.019531 C 5.28125 8.992188 5.148438 9.039062 5.078125 9.144531 L 5.015625 9.238281 L 4.820312 9.203125 C 4.710938 9.179688 4.617188 9.160156 4.605469 9.148438 C 4.582031 9.121094 4.703125 8.898438 4.789062 8.820312 C 4.835938 8.777344 4.921875 8.726562 4.992188 8.703125 C 5.132812 8.648438 5.59375 8.644531 5.757812 8.691406 Z M 7.996094 8.757812 C 8.351562 8.992188 8.480469 9.617188 8.269531 10.085938 C 8.125 10.394531 7.886719 10.542969 7.570312 10.523438 C 7.414062 10.515625 7.351562 10.492188 7.234375 10.414062 L 7.09375 10.3125 L 7.09375 11.1875 L 6.59375 11.1875 L 6.59375 8.6875 L 7.0625 8.6875 L 7.0625 8.917969 L 7.148438 8.835938 C 7.289062 8.703125 7.429688 8.652344 7.660156 8.664062 C 7.824219 8.671875 7.894531 8.691406 7.996094 8.757812 Z M 11.082031 8.722656 C 11.164062 8.757812 11.246094 8.835938 11.289062 8.898438 C 11.355469 9.007812 11.359375 9.046875 11.367188 9.757812 L 11.382812 10.5 L 10.914062 10.5 L 10.898438 9.867188 C 10.890625 9.320312 10.882812 9.21875 10.835938 9.144531 C 10.757812 9.027344 10.636719 8.988281 10.496094 9.027344 C 10.242188 9.101562 10.191406 9.28125 10.1875 10.054688 L 10.1875 10.5 L 9.71875 10.5 L 9.71875 8.6875 L 10.15625 8.6875 L 10.15625 8.945312 L 10.273438 8.84375 C 10.335938 8.789062 10.429688 8.726562 10.480469 8.699219 C 10.632812 8.632812 10.929688 8.648438 11.082031 8.722656 Z M 14.320312 8.757812 C 14.648438 8.949219 14.800781 9.246094 14.773438 9.65625 C 14.757812 9.957031 14.644531 10.179688 14.421875 10.351562 C 14.230469 10.492188 14.058594 10.539062 13.789062 10.523438 C 13.390625 10.503906 13.058594 10.265625 12.964844 9.929688 C 12.902344 9.707031 12.914062 9.382812 12.992188 9.207031 C 13.101562 8.964844 13.203125 8.855469 13.414062 8.75 C 13.597656 8.65625 13.625 8.652344 13.890625 8.664062 C 14.132812 8.671875 14.195312 8.6875 14.320312 8.757812 Z M 9.21875 9.59375 L 9.21875 10.5 L 8.75 10.5 L 8.75 8.6875 L 9.21875 8.6875 Z M 13.5 11.914062 C 13.5 12.410156 13.464844 12.5 13.214844 12.738281 C 12.253906 13.640625 9.246094 14.191406 6.640625 13.9375 C 4.828125 13.761719 3.3125 13.28125 2.742188 12.695312 C 2.527344 12.476562 2.5 12.386719 2.5 11.90625 L 2.5 11.5 L 13.5 11.5 Z M 13.5 11.914062 "/>
<path style=" stroke:none;fill-rule:nonzero;fill:rgb(0%,0%,0%);fill-opacity:1;" d="M 5.382812 9.703125 C 5.082031 9.78125 5.03125 9.820312 5.03125 9.949219 C 5.03125 10.160156 5.289062 10.257812 5.503906 10.132812 C 5.617188 10.070312 5.664062 9.953125 5.648438 9.773438 L 5.640625 9.632812 Z M 5.382812 9.703125 "/>
<path style=" stroke:none;fill-rule:nonzero;fill:rgb(0%,0%,0%);fill-opacity:1;" d="M 7.269531 9.097656 C 7.132812 9.203125 7.085938 9.335938 7.085938 9.582031 C 7.085938 9.96875 7.246094 10.175781 7.523438 10.148438 C 7.769531 10.121094 7.875 9.949219 7.875 9.578125 C 7.871094 9.234375 7.71875 9.03125 7.460938 9.03125 C 7.398438 9.03125 7.316406 9.058594 7.269531 9.097656 Z M 7.269531 9.097656 "/>
<path style=" stroke:none;fill-rule:nonzero;fill:rgb(0%,0%,0%);fill-opacity:1;" d="M 13.664062 9.082031 C 13.492188 9.167969 13.421875 9.320312 13.421875 9.59375 C 13.421875 9.78125 13.433594 9.851562 13.492188 9.941406 C 13.675781 10.234375 14.105469 10.203125 14.238281 9.886719 C 14.300781 9.742188 14.292969 9.414062 14.226562 9.285156 C 14.117188 9.070312 13.867188 8.976562 13.664062 9.082031 Z M 13.664062 9.082031 "/>
</g>
</svg>
