<?xml version="1.0" encoding="UTF-8"?>
<svg width="24px" height="24px" viewBox="0 0 24 24" version="1.1" xmlns="http://www.w3.org/2000/svg" xmlns:xlink="http://www.w3.org/1999/xlink">
    <title>lopbando-df</title>
    <g id="GIS---Mạng-lưới-điện" stroke="none" stroke-width="1" fill="none" fill-rule="evenodd">
        <path d="M0.600640163,8.30369885 L11.4000337,14.4249619 C11.7712941,14.6352423 12.2287059,14.6352423 12.5999663,14.4249619 L23.3993598,8.30369885 C23.7683926,8.09469033 23.9967541,7.70936077 23.9993356,7.29133612 C24.0010349,6.86910463 23.7720999,6.47831581 23.3993598,6.26720172 L12.5999663,0.157710336 C12.2287059,-0.0525701119 11.7712941,-0.0525701119 11.4000337,0.157710336 L0.600640163,6.26720172 C0.227900064,6.47831581 -0.00103485635,6.86910463 0.000664356702,7.29133612 C0.00324586437,7.70936077 0.231607443,8.09469033 0.600640163,8.30369885 Z M12,2.58267224 L20.3995283,7.29133612 L12,12 L3.6004717,7.29133612 L12,2.58267224 Z M22.1994272,11.0229522 L12,16.7086639 L1.80057278,10.9758656 C1.52395983,10.818661 1.19483924,10.7762374 0.886219736,10.8580058 C0.577600227,10.9397742 0.314997668,11.1389741 0.156665095,11.411417 C-0.168982582,11.9740778 0.0293085475,12.689103 0.600640163,13.0123627 L11.4000337,19.1336258 C11.7712941,19.3439062 12.2287059,19.3439062 12.5999663,19.1336258 L23.3993598,13.0123627 C23.9706915,12.689103 24.1689826,11.9740778 23.8433349,11.411417 C23.6850023,11.1389741 23.4223998,10.9397742 23.1137803,10.8580058 C22.8051608,10.7762374 22.4760402,10.818661 22.1994272,10.9758656 L22.1994272,11.0229522 Z M22.1994272,15.7316161 L12,21.4173278 L1.80057278,15.6845295 C1.52395983,15.5273248 1.19483924,15.4849013 0.886219736,15.5666697 C0.577600227,15.6484381 0.314997668,15.8476379 0.156665095,16.1200809 C-0.168982582,16.6827417 0.0293085475,17.3977669 0.600640163,17.7210266 L11.4000337,23.8422897 C11.7712941,24.0525701 12.2287059,24.0525701 12.5999663,23.8422897 L23.3993598,17.7210266 C23.9706915,17.3977669 24.1689826,16.6827417 23.8433349,16.1200809 C23.6850023,15.8476379 23.4223998,15.6484381 23.1137803,15.5666697 C22.8051608,15.4849013 22.4760402,15.5273248 22.1994272,15.6845295 L22.1994272,15.7316161 Z" id="lopbando-df" fill="#828A95"></path>
    </g>
</svg>