<svg width="20" height="20" viewBox="0 0 20 20" fill="none" xmlns="http://www.w3.org/2000/svg">
<path d="M16.6667 12.2917C15.4 12.2917 14.375 11.2667 14.375 10C14.375 8.73334 15.4 7.70834 16.6667 7.70834C17.9333 7.70834 18.9583 8.73334 18.9583 10C18.9583 11.2667 17.9333 12.2917 16.6667 12.2917ZM16.6667 8.95834C16.0917 8.95834 15.625 9.42501 15.625 10C15.625 10.575 16.0917 11.0417 16.6667 11.0417C17.2417 11.0417 17.7083 10.575 17.7083 10C17.7083 9.42501 17.2417 8.95834 16.6667 8.95834Z" fill="#253E90"/>
<path d="M16.6667 5.62499C15.4 5.62499 14.375 4.59999 14.375 3.33332C14.375 2.06666 15.4 1.04166 16.6667 1.04166C17.9333 1.04166 18.9583 2.06666 18.9583 3.33332C18.9583 4.59999 17.9333 5.62499 16.6667 5.62499ZM16.6667 2.29166C16.0917 2.29166 15.625 2.75832 15.625 3.33332C15.625 3.90832 16.0917 4.37499 16.6667 4.37499C17.2417 4.37499 17.7083 3.90832 17.7083 3.33332C17.7083 2.75832 17.2417 2.29166 16.6667 2.29166Z" fill="#253E90"/>
<path d="M16.6667 18.9583C15.4 18.9583 14.375 17.9333 14.375 16.6667C14.375 15.4 15.4 14.375 16.6667 14.375C17.9333 14.375 18.9583 15.4 18.9583 16.6667C18.9583 17.9333 17.9333 18.9583 16.6667 18.9583ZM16.6667 15.625C16.0917 15.625 15.625 16.0917 15.625 16.6667C15.625 17.2417 16.0917 17.7083 16.6667 17.7083C17.2417 17.7083 17.7083 17.2417 17.7083 16.6667C17.7083 16.0917 17.2417 15.625 16.6667 15.625Z" fill="#253E90"/>
<path d="M3.33464 12.2917C2.06797 12.2917 1.04297 11.2667 1.04297 10C1.04297 8.73334 2.06797 7.70834 3.33464 7.70834C4.6013 7.70834 5.6263 8.73334 5.6263 10C5.6263 11.2667 4.6013 12.2917 3.33464 12.2917ZM3.33464 8.95834C2.75964 8.95834 2.29297 9.42501 2.29297 10C2.29297 10.575 2.75964 11.0417 3.33464 11.0417C3.90964 11.0417 4.3763 10.575 4.3763 10C4.3763 9.42501 3.90964 8.95834 3.33464 8.95834Z" fill="#253E90"/>
<path d="M15 10.625H5C4.65833 10.625 4.375 10.3417 4.375 10C4.375 9.65833 4.65833 9.375 5 9.375H15C15.3417 9.375 15.625 9.65833 15.625 10C15.625 10.3417 15.3417 10.625 15 10.625Z" fill="#253E90"/>
<path d="M15.0013 17.2917H11.668C9.6513 17.2917 8.54297 16.1833 8.54297 14.1667V5.83334C8.54297 3.81668 9.6513 2.70834 11.668 2.70834H15.0013C15.343 2.70834 15.6263 2.99168 15.6263 3.33334C15.6263 3.67501 15.343 3.95834 15.0013 3.95834H11.668C10.3513 3.95834 9.79297 4.51668 9.79297 5.83334V14.1667C9.79297 15.4833 10.3513 16.0417 11.668 16.0417H15.0013C15.343 16.0417 15.6263 16.325 15.6263 16.6667C15.6263 17.0083 15.343 17.2917 15.0013 17.2917Z" fill="#253E90"/>
</svg>
