<svg width="16" height="16" viewBox="0 0 16 16" fill="none" xmlns="http://www.w3.org/2000/svg">
<path d="M8.33334 4.66669C9.06973 4.66669 9.66669 4.06973 9.66669 3.33334C9.66669 2.59696 9.06973 2 8.33334 2C7.59696 2 7 2.59696 7 3.33334C7 4.06973 7.59696 4.66669 8.33334 4.66669Z" fill="#828A95"/>
<path d="M8.33334 9.33333C9.06973 9.33333 9.66669 8.73638 9.66669 7.99999C9.66669 7.26361 9.06973 6.66665 8.33334 6.66665C7.59696 6.66665 7 7.26361 7 7.99999C7 8.73638 7.59696 9.33333 8.33334 9.33333Z" fill="#828A95"/>
<path d="M8.33334 14C9.06973 14 9.66669 13.403 9.66669 12.6666C9.66669 11.9303 9.06973 11.3333 8.33334 11.3333C7.59696 11.3333 7 11.9303 7 12.6666C7 13.403 7.59696 14 8.33334 14Z" fill="#828A95"/>
</svg>
