<svg width="20" height="20" viewBox="0 0 20 20" fill="none" xmlns="http://www.w3.org/2000/svg">
<path d="M9.82467 9.90001C9.37467 9.90001 8.91634 9.81668 8.55801 9.65834L3.64134 7.47501C2.39134 6.91668 2.20801 6.16668 2.20801 5.75834C2.20801 5.35001 2.39134 4.60001 3.64134 4.04168L8.55801 1.85834C9.28301 1.53334 10.3747 1.53334 11.0997 1.85834L16.0247 4.04168C17.2663 4.59168 17.458 5.35001 17.458 5.75834C17.458 6.16668 17.2747 6.91668 16.0247 7.47501L11.0997 9.65834C10.733 9.82501 10.283 9.90001 9.82467 9.90001ZM9.82467 2.86668C9.54134 2.86668 9.26634 2.90834 9.06634 3.00001L4.14967 5.18334C3.64134 5.41668 3.45801 5.65001 3.45801 5.75834C3.45801 5.86668 3.64134 6.10834 4.14134 6.33334L9.05801 8.51668C9.45801 8.69168 10.183 8.69168 10.583 8.51668L15.508 6.33334C16.0163 6.10834 16.1997 5.86668 16.1997 5.75834C16.1997 5.65001 16.0163 5.40834 15.508 5.18334L10.5913 3.00001C10.3913 2.91668 10.108 2.86668 9.82467 2.86668Z" fill="#253E90"/>
<path d="M10 14.2417C9.68333 14.2417 9.36667 14.175 9.06667 14.0417L3.40833 11.525C2.55 11.15 1.875 10.1083 1.875 9.16666C1.875 8.82499 2.15833 8.54166 2.5 8.54166C2.84167 8.54166 3.125 8.82499 3.125 9.16666C3.125 9.62499 3.5 10.2 3.91667 10.3917L9.575 12.9083C9.84167 13.025 10.15 13.025 10.425 12.9083L16.0833 10.3917C16.5 10.2083 16.875 9.62499 16.875 9.16666C16.875 8.82499 17.1583 8.54166 17.5 8.54166C17.8417 8.54166 18.125 8.82499 18.125 9.16666C18.125 10.1083 17.45 11.15 16.5917 11.5333L10.9333 14.05C10.6333 14.175 10.3167 14.2417 10 14.2417Z" fill="#253E90"/>
<path d="M10 18.4083C9.68333 18.4083 9.36667 18.3417 9.06667 18.2083L3.40833 15.6917C2.475 15.275 1.875 14.35 1.875 13.325C1.875 12.9833 2.15833 12.7 2.5 12.7C2.84167 12.7 3.125 12.9917 3.125 13.3333C3.125 13.8583 3.43333 14.3417 3.91667 14.5583L9.575 17.075C9.84167 17.1917 10.15 17.1917 10.425 17.075L16.0833 14.5583C16.5667 14.3417 16.875 13.8667 16.875 13.3333C16.875 12.9917 17.1583 12.7083 17.5 12.7083C17.8417 12.7083 18.125 12.9917 18.125 13.3333C18.125 14.3583 17.525 15.2833 16.5917 15.7L10.9333 18.2167C10.6333 18.3417 10.3167 18.4083 10 18.4083Z" fill="#253E90"/>
</svg>
