<svg width="16" height="16" viewBox="0 0 16 16" fill="none" xmlns="http://www.w3.org/2000/svg">
<g clip-path="url(#clip0_29_4062)">
<path d="M10.8572 5.97653L8.80567 7.99951L10.8572 10.0225C10.9143 10.0759 10.9598 10.1406 10.991 10.2123C11.0221 10.2841 11.0381 10.3615 11.0381 10.4397C11.0381 10.5179 11.0221 10.5953 10.991 10.667C10.9598 10.7388 10.9143 10.8034 10.8572 10.8568C10.8038 10.9098 10.7405 10.9517 10.6709 10.9801C10.6013 11.0086 10.5267 11.023 10.4515 11.0226C10.3016 11.0219 10.1579 10.9624 10.0515 10.8568L7.99991 8.80528L5.97693 10.8568C5.87049 10.9624 5.72682 11.0219 5.57691 11.0226C5.5017 11.023 5.42714 11.0086 5.35752 10.9801C5.28789 10.9517 5.22456 10.9098 5.17117 10.8568C5.06473 10.7498 5.00499 10.6049 5.00499 10.4539C5.00499 10.303 5.06473 10.1581 5.17117 10.0511L7.19415 7.99951L5.17117 5.97653C5.07755 5.86721 5.02863 5.72659 5.03418 5.58277C5.03974 5.43894 5.09936 5.30251 5.20113 5.20074C5.30291 5.09896 5.43934 5.03934 5.58316 5.03378C5.72699 5.02823 5.86761 5.07715 5.97693 5.17077L7.99991 7.19375L10.0229 5.17077C10.0758 5.11599 10.139 5.07216 10.2088 5.0418C10.2787 5.01143 10.3538 4.99512 10.43 4.99379C10.5061 4.99246 10.5818 5.00615 10.6526 5.03406C10.7235 5.06198 10.7882 5.10358 10.8429 5.15648C10.8977 5.20939 10.9416 5.27257 10.9719 5.34242C11.0023 5.41226 11.0186 5.4874 11.0199 5.56355C11.0212 5.6397 11.0076 5.71536 10.9796 5.78622C10.9517 5.85708 10.9101 5.92175 10.8572 5.97653ZM13.6574 13.657C12.5385 14.7758 11.1129 15.5377 9.56101 15.8463C8.00908 16.155 6.4005 15.9965 4.93865 15.3909C3.4768 14.7854 2.22734 13.7599 1.34827 12.4443C0.4692 11.1286 0 9.58183 0 7.99951C0 6.4172 0.4692 4.87042 1.34827 3.55477C2.22734 2.23911 3.4768 1.21367 4.93865 0.608106C6.4005 0.00254407 8.00908 -0.15594 9.56101 0.152694C11.1129 0.461329 12.5385 1.22322 13.6574 2.34203C14.4004 3.08495 14.9898 3.96696 15.3919 4.93767C15.794 5.90839 16.001 6.94881 16.001 7.99951C16.001 9.05022 15.794 10.0906 15.3919 11.0614C14.9898 12.0321 14.4004 12.9141 13.6574 13.657ZM12.8516 3.14779C11.8916 2.19113 10.6697 1.54037 9.34012 1.2777C8.01053 1.01503 6.63293 1.15222 5.38126 1.67195C4.12959 2.19168 3.05999 3.07064 2.30753 4.19785C1.55506 5.32505 1.15347 6.64995 1.15347 8.00523C1.15347 9.36051 1.55506 10.6854 2.30753 11.8126C3.05999 12.9398 4.12959 13.8188 5.38126 14.3385C6.63293 14.8582 8.01053 14.9954 9.34012 14.7328C10.6697 14.4701 11.8916 13.8193 12.8516 12.8627C13.4909 12.2256 13.9982 11.4686 14.3443 10.635C14.6904 9.80145 14.8686 8.90778 14.8686 8.00523C14.8686 7.10268 14.6904 6.209 14.3443 5.37546C13.9982 4.54191 13.4909 3.78488 12.8516 3.14779Z" fill="#828A95"/>
</g>
<defs>
<clipPath id="clip0_29_4062">
<rect width="16" height="16" fill="white"/>
</clipPath>
</defs>
</svg>
