<svg width="10" height="10" viewBox="0 0 10 10" fill="none" xmlns="http://www.w3.org/2000/svg">
<g id="up-arrow 4" clip-path="url(#clip0_28_1107)">
<g id="Group">
<g id="Group_2">
<path id="Vector" d="M3.32394 9.84012L7.77807 5.38591C7.881 5.28299 7.9375 5.14575 7.9375 4.99624C7.9375 4.84974 7.881 4.71242 7.77807 4.60966L3.32817 0.159593C3.22516 0.0566665 3.08784 5.78316e-08 2.94134 5.95786e-08C2.79484 6.13256e-08 2.65744 0.0565852 2.55451 0.159593L2.22679 0.487315C2.12386 0.590242 2.06704 0.727639 2.06704 0.874143C2.06704 1.02065 2.12386 1.15796 2.22679 1.26097L5.96361 4.99778L2.22248 8.73874C2.11964 8.84167 2.06289 8.97899 2.06289 9.12557C2.06289 9.27208 2.11964 9.40931 2.22248 9.51232L2.55037 9.84012C2.76362 10.0533 3.11069 10.0533 3.32394 9.84012Z" fill="#828A95"/>
</g>
</g>
</g>
<defs>
<clipPath id="clip0_28_1107">
<rect width="10" height="10" fill="white" transform="translate(10) rotate(90)"/>
</clipPath>
</defs>
</svg>
