<?xml version="1.0" encoding="UTF-8"?><svg id="Layer_1" xmlns="http://www.w3.org/2000/svg" width="20" height="20" viewBox="0 0 20 20"><defs><style>.cls-1{fill:#253e90;stroke:#253e90;stroke-miterlimit:10;stroke-width:.25px;}</style></defs><path class="cls-1" d="m5.591,5.63405c0-.5987.00352-1.19743-.00119-1.79609-.00337-.42899.17315-.74955.52875-.983,1.07672-.70686,2.15325-1.4141,3.22359-2.13073.44741-.29956.87316-.29833,1.3193-.0001,1.06501.71191,2.13426,1.41742,3.20595,2.11908.3705.24258.54692.57265.54465,1.01838-.00603,1.18312-.0053,2.3663-.00035,3.54942.00179.42824-.16355.75273-.52037.98712-1.08835.71494-2.17508,1.43243-3.25967,2.15316-.4253.28262-.83904.28048-1.26389-.00197-1.09034-.72488-2.184-1.44471-3.27708-2.16538-.33435-.22044-.50071-.52943-.49993-.9324.00117-.60583.0003-1.21166.00024-1.81748Zm.96397-2.25334c.05659.04283.09878.07856.14451.10882,1.00393.66422,2.01047,1.32445,3.01066,1.99435.2052.13744.37747.13834.58178.00058.72211-.48693,1.45155-.96279,2.17794-1.44326.32313-.21374.64561-.42848.97072-.64431-.02273-.02581-.03031-.03913-.04167-.04664-1.06291-.70325-2.1259-1.40638-3.18952-2.10853-.14595-.09635-.28973-.0862-.43508.01135-.3116.20914-.62648.41329-.93956.62019-.75573.49941-1.51121.99922-2.2798,1.50747Zm3.10796,6.54965c0-1.13706-.0076-2.22741.00562-3.3175.0031-.25601-.05357-.40644-.2883-.55417-.97628-.61443-1.93143-1.26303-2.89463-1.89863-.06188-.04083-.12629-.07774-.20553-.12629-.00691.05453-.01319.08102-.0132.10751-.00052,1.10515.0015,2.21031-.0024,3.31545-.00067.19054.0994.29972.24358.39399.5333.34867,1.06476.70021,1.59668,1.05101.50686.33427,1.01343.66898,1.55819,1.02863Zm.67514.00327c1.10496-.73062,2.17105-1.42813,3.22461-2.14442.09805-.06666.16316-.25177.16476-.38286.01305-1.06955.00745-2.13933.00706-3.20904-.00002-.04626-.00451-.09253-.00867-.17249-.16774.10974-.30802.20109-.44789.2931-.9287.6109-1.85504,1.22553-2.78898,1.82816-.11064.07139-.15441.13192-.15378.2625.00515,1.07681.00291,2.15367.00291,3.23051,0,.08342,0,.16683,0,.29456Z"/><path class="cls-1" d="m9.32005,14.38142c0,.59158-.00275,1.18317.00094,1.77472.00261.41905-.16371.73988-.51302.96971-1.09968.72352-2.19698,1.45073-3.29598,2.17531-.40307.26574-.80663.26192-1.20952-.0044-1.09815-.72591-2.19638-1.4517-3.29567-2.17586-.34132-.22484-.50789-.53767-.50679-.95024.00321-1.20453.00276-2.40907.00025-3.6136-.00086-.41116.16252-.72727.50396-.95247,1.10478-.72866,2.20799-1.45973,3.31331-2.18755.3872-.25496.78394-.26339,1.17283-.00784,1.11783.73455,2.23315,1.47301,3.34818,2.21189.32682.21657.48139.52899.48143.92145.00007.61296.00002,1.22592.00009,1.83888Zm-7.8529-2.27126c.04331.03572.07302.06509.10714.08766,1.03343.68366,2.0683,1.36511,3.10015,2.0512.18124.12051.33898.0918.50851-.02139.66544-.44427,1.33403-.88372,2.00132-1.32517.38845-.25699.77664-.51439,1.18349-.78388-1.10417-.72865-2.18472-1.44278-3.26684-2.15447-.13924-.09157-.27936-.07224-.41608.02077-.21662.14736-.43648.28988-.65513.4342-.85057.56139-1.70121,1.12268-2.56256,1.69109Zm3.10574,6.54907v-.26402c0-1.00551-.00955-2.01117.00617-3.01643.00437-.27943-.05922-.44314-.31506-.60327-.97194-.60832-1.91962-1.25609-2.87668-1.88864-.06098-.0403-.12457-.07659-.2112-.12957,0,1.14585.00467,2.25095-.00384,3.35596-.00176.22818.08556.36722.27059.48749.85484.55566,1.70302,1.12174,2.55395,1.68353.1808.11937.3631.23643.57607.37496Zm4.06316-5.90119c-.21684.14206-.4098.26815-.60243.39473-.88167.57933-1.76085,1.1626-2.648,1.73327-.10714.06892-.13988.13126-.13953.24904.00334,1.11248.00181,2.22498.00257,3.33747.00004.05196.00848.10392.01326.15888.03197-.00807.04714-.0081.05779-.01513,1.04025-.6864,2.07973-1.37399,3.12059-2.05945.14344-.09447.20688-.21872.2063-.39302-.00358-1.08395-.00172-2.16793-.00208-3.25189-.00001-.04-.00426-.08-.00847-.15391Z"/><path class="cls-1" d="m10.68097,14.38247c0-.60583.00207-1.21166-.00071-1.81748-.00192-.41888.16671-.73854.516-.9682,1.09989-.72318,2.19724-1.45028,3.29586-2.17543.39544-.26101.79563-.26596,1.19113-.00567,1.11139.73146,2.22099,1.46569,3.33011,2.20066.32581.2159.48682.52399.48664.91831-.00053,1.21878-.00052,2.43756-.00002,3.65635.00016.39436-.16075.70093-.48764.91715-1.10972.73401-2.21875,1.4691-3.33036,2.2002-.39561.26019-.79662.25324-1.1917-.00746-1.0987-.725-2.19596-1.45222-3.29585-2.17537-.3494-.22972-.5175-.54856-.51453-.96835.00419-.59154.00106-1.18314.00108-1.77471Zm.95623-2.26404c.09142.06139.16098.10874.23117.15513.96869.64027,1.94112,1.27489,2.90352,1.92464.22749.15358.40818.15635.6359.00296.97487-.65666,1.95883-1.29957,2.93919-1.94792.06103-.04036.11971-.08436.19596-.13833-1.10046-.72665-2.17521-1.43698-3.25093-2.14581-.13855-.0913-.27868-.08191-.41691.00952-1.06868.70688-2.13787,1.41299-3.2379,2.13982Zm3.11574,6.54119c0-1.11749-.00966-2.18711.00631-3.25634.00438-.29339-.05601-.46962-.32945-.63953-.97371-.60503-1.92018-1.25468-2.87734-1.88685-.05547-.03664-.11432-.06806-.1963-.11651,0,.09862,0,.16158,0,.22454,0,1.04115.00478,2.08233-.00374,3.12341-.00186.22697.08195.36886.26765.48959.89039.57886,1.77456,1.16748,2.66105,1.75246.14581.09621.29219.19153.47182.30923Zm.67523-.01208c.05248-.02539.07782-.0343.09961-.04868,1.03426-.6826,2.06777-1.36637,3.10273-2.0479.14565-.09592.19682-.226.19623-.39787-.00372-1.06969-.00167-2.13941-.0024-3.20912-.00003-.05211-.00822-.10422-.01414-.17449-.05177.02907-.0826.04409-.1111.06272-1.06649.69722-2.13334,1.3939-3.19692,2.09562-.04089.02697-.07077.10283-.07095.15602-.00398,1.17649-.00305,2.353-.00305,3.56369Z"/></svg>