<svg width="20" height="20" viewBox="0 0 20 20" fill="none" xmlns="http://www.w3.org/2000/svg">
<path d="M9.58145 18.1629C4.85119 18.1629 1 14.3117 1 9.58145C1 4.85119 4.85119 1 9.58145 1C14.3117 1 18.1629 4.85119 18.1629 9.58145C18.1629 14.3117 14.3117 18.1629 9.58145 18.1629ZM9.58145 2.25582C5.5377 2.25582 2.25582 5.54608 2.25582 9.58145C2.25582 13.6168 5.5377 16.9071 9.58145 16.9071C13.6252 16.9071 16.9071 13.6168 16.9071 9.58145C16.9071 5.54608 13.6252 2.25582 9.58145 2.25582Z" fill="#253E90"/>
<path d="M18.3725 19C18.2134 19 18.0544 18.9414 17.9288 18.8158L16.2544 17.1414C16.0116 16.8986 16.0116 16.4967 16.2544 16.2539C16.4972 16.0111 16.899 16.0111 17.1418 16.2539L18.8162 17.9284C19.059 18.1712 19.059 18.573 18.8162 18.8158C18.6907 18.9414 18.5316 19 18.3725 19Z" fill="#253E90"/>
</svg>
