<?xml version="1.0" encoding="UTF-8"?>
<svg width="24px" height="24px" viewBox="0 0 24 24" version="1.1" xmlns="http://www.w3.org/2000/svg" xmlns:xlink="http://www.w3.org/1999/xlink">
    <title>timkiem-df</title>
    <g id="GIS---Mạng-lưới-điện" stroke="none" stroke-width="1" fill="none" fill-rule="evenodd">
        <path d="M23.6057292,21.7130056 L19.0738558,17.1944612 C20.5360309,15.3316675 21.3294084,13.0313423 21.3264635,10.6632317 C21.3264635,4.77409146 16.552372,0 10.6632317,0 C4.77409146,0 0,4.77409146 0,10.6632317 C0,16.552372 4.77409146,21.3264635 10.6632317,21.3264635 C13.0313423,21.3294084 15.3316675,20.5360309 17.1944612,19.0738558 L21.7130056,23.6057292 C21.9632805,23.8580648 22.3039652,24 22.6593674,24 C23.0147697,24 23.3554544,23.8580648 23.6057292,23.6057292 C23.8580648,23.3554544 24,23.0147697 24,22.6593674 C24,22.3039652 23.8580648,21.9632805 23.6057292,21.7130056 Z M2.66580793,10.6632317 C2.66580793,6.24637653 6.24637653,2.66580793 10.6632317,2.66580793 C15.0800869,2.66580793 18.6606555,6.24637653 18.6606555,10.6632317 C18.6606555,15.0800869 15.0800869,18.6606555 10.6632317,18.6606555 C6.24637653,18.6606555 2.66580793,15.0800869 2.66580793,10.6632317 Z" id="timkiem-df" fill="#828A95"></path>
    </g>
</svg>