<?xml version="1.0" encoding="UTF-8"?>
<svg width="14px" height="14px" viewBox="0 0 24 24" version="1.1" xmlns="http://www.w3.org/2000/svg" xmlns:xlink="http://www.w3.org/1999/xlink">
    <title>close popup</title>
    <g id="Design" stroke="none" stroke-width="1" fill="none" fill-rule="evenodd">
        <g id="05.-Hình-ảnh-chi-tiết" transform="translate(-1366.000000, -50.000000)" fill="#FFFFFF" fill-rule="nonzero">
            <path d="M1368.10814,50.3616455 L1378,60.253 L1387.89216,50.3616455 C1388.37436,49.8794515 1389.15614,49.8794515 1389.63835,50.3616455 C1390.12055,50.8438395 1390.12055,51.6255964 1389.63835,52.1080918 L1379.746,61.999 L1389.63835,71.8916068 C1390.12055,72.3738008 1390.12055,73.1555577 1389.63835,73.6377517 C1389.39634,73.878246 1389.08049,74 1388.76616,74 C1388.45001,74 1388.13416,73.8797529 1387.89366,73.6377517 L1378,63.745 L1368.10814,73.6377517 C1367.86614,73.878246 1367.54999,74 1367.23415,74 C1366.918,74 1366.60185,73.8797529 1366.36165,73.6377517 C1365.87945,73.1555577 1365.87945,72.3738008 1366.36165,71.8916068 L1376.253,61.999 L1366.36165,52.1080918 C1365.87945,51.6255964 1365.87945,50.8438395 1366.36165,50.3616455 C1366.84386,49.8794515 1367.62564,49.8794515 1368.10814,50.3616455 Z" id="close-popup"></path>
        </g>
    </g>
</svg>