<?xml version="1.0" encoding="UTF-8"?>
<svg xmlns="http://www.w3.org/2000/svg" xmlns:xlink="http://www.w3.org/1999/xlink" width="15px" height="16px" viewBox="0 0 15 15" version="1.1">
<g id="surface1">
<path style=" stroke:none;fill-rule:evenodd;fill:rgb(1.568627%,1.568627%,1.568627%);fill-opacity:1;" d="M 10.636719 0.289062 C 9.367188 0.484375 8.339844 1.371094 8.019531 2.546875 C 7.890625 3.007812 7.890625 3.582031 8.019531 4.042969 C 8.269531 4.964844 8.988281 5.746094 9.902344 6.101562 C 11.234375 6.613281 12.742188 6.253906 13.632812 5.210938 C 13.949219 4.84375 14.144531 4.46875 14.273438 3.988281 C 14.332031 3.761719 14.34375 3.671875 14.34375 3.320312 C 14.34375 3.074219 14.332031 2.847656 14.308594 2.738281 C 14.058594 1.546875 13.132812 0.628906 11.886719 0.339844 C 11.542969 0.257812 10.980469 0.238281 10.636719 0.289062 M 10.667969 2.425781 L 10.667969 2.855469 L 9.757812 2.855469 L 9.757812 3.738281 L 10.667969 3.738281 L 10.667969 4.597656 L 11.605469 4.597656 L 11.605469 3.738281 L 12.539062 3.738281 L 12.539062 2.855469 L 11.605469 2.855469 L 11.605469 1.996094 L 10.667969 1.996094 L 10.667969 2.425781 M 6.652344 5.054688 C 6.53125 5.09375 0.550781 8.058594 0.496094 8.101562 C 0.421875 8.164062 0.347656 8.332031 0.347656 8.441406 C 0.347656 8.566406 0.429688 8.71875 0.542969 8.796875 C 0.589844 8.828125 1.980469 9.527344 3.636719 10.34375 C 6.550781 11.785156 6.648438 11.832031 6.792969 11.832031 C 6.933594 11.832031 7.03125 11.785156 9.945312 10.34375 C 11.601562 9.527344 12.992188 8.828125 13.042969 8.796875 C 13.152344 8.71875 13.234375 8.566406 13.234375 8.441406 C 13.234375 8.332031 13.160156 8.164062 13.085938 8.101562 C 13.023438 8.050781 7.046875 5.09375 6.925781 5.054688 C 6.820312 5.019531 6.75 5.019531 6.652344 5.054688 M 0.683594 9.394531 C 0.511719 9.445312 0.347656 9.667969 0.347656 9.855469 C 0.347656 9.976562 0.429688 10.128906 0.527344 10.191406 C 0.566406 10.214844 1.953125 10.90625 3.609375 11.726562 L 6.617188 13.21875 L 6.964844 13.21875 L 9.867188 11.785156 C 11.460938 10.992188 12.847656 10.304688 12.949219 10.25 C 13.148438 10.136719 13.234375 10.019531 13.234375 9.855469 C 13.234375 9.632812 13.039062 9.410156 12.820312 9.378906 C 12.71875 9.367188 12.675781 9.375 12.507812 9.449219 C 12.398438 9.5 11.070312 10.152344 9.554688 10.902344 L 6.792969 12.269531 L 3.878906 10.828125 C 1.875 9.839844 0.933594 9.386719 0.863281 9.378906 C 0.808594 9.375 0.726562 9.382812 0.683594 9.394531 M 0.609375 10.832031 C 0.328125 10.976562 0.261719 11.371094 0.492188 11.558594 C 0.539062 11.597656 1.941406 12.308594 3.613281 13.132812 C 6.550781 14.589844 6.648438 14.632812 6.792969 14.632812 C 6.933594 14.632812 7.03125 14.585938 9.972656 13.132812 C 11.640625 12.308594 13.046875 11.601562 13.09375 11.558594 C 13.402344 11.285156 13.148438 10.75 12.730469 10.789062 C 12.632812 10.796875 12.019531 11.089844 9.714844 12.230469 C 8.125 13.019531 6.808594 13.660156 6.792969 13.660156 C 6.777344 13.660156 5.460938 13.015625 3.871094 12.230469 C 0.699219 10.660156 0.832031 10.71875 0.609375 10.832031 "/>
</g>
</svg>
