<?xml version="1.0" encoding="UTF-8"?>
<svg width="14px" height="14px" viewBox="0 0 14 14" version="1.1" xmlns="http://www.w3.org/2000/svg" xmlns:xlink="http://www.w3.org/1999/xlink">
    <title>Shape</title>
    <g id="GIS---Mạng-lưới-điện" stroke="none" stroke-width="1" fill="none" fill-rule="evenodd">
        <g id="04.-QL-lưới-điện---Lớp-dữ-liệu---Đã-tìm-kiếm" transform="translate(-256.000000, -128.000000)" fill="#828A95" fill-rule="nonzero">
            <g id="Group-3" transform="translate(70.000000, 102.000000)">
                <g id="Group-4" transform="translate(15.000000, 15.000000)">
                    <path d="M178,11 C174.15,11 171,14.15 171,18 C171,21.85 174.15,25 178,25 C181.85,25 185,21.85 185,18 C185,14.15 181.85,11 178,11 Z M180.59,19.61 C180.87,19.89 180.87,20.31 180.59,20.59 C180.31,20.87 179.89,20.87 179.61,20.59 L178,18.98 L176.39,20.59 C176.11,20.87 175.69,20.87 175.41,20.59 C175.13,20.31 175.13,19.89 175.41,19.61 L177.02,18 L175.41,16.39 C175.13,16.11 175.13,15.69 175.41,15.41 C175.69,15.13 176.11,15.13 176.39,15.41 L178,17.02 L179.61,15.41 C179.89,15.13 180.31,15.13 180.59,15.41 C180.87,15.69 180.87,16.11 180.59,16.39 L178.98,18 L180.59,19.61 Z" id="Shape"></path>
                </g>
            </g>
        </g>
    </g>
</svg>