<?xml version="1.0" encoding="UTF-8"?>
<svg width="170px" height="170px" viewBox="0 0 170 170" version="1.1" xmlns="http://www.w3.org/2000/svg" xmlns:xlink="http://www.w3.org/1999/xlink">
    <title>checked (10)</title>
    <g id="Design" stroke="none" stroke-width="1" fill="none" fill-rule="evenodd">
        <g id="09.-Gửi-liên-hệ-thành-công" transform="translate(-635.000000, -260.000000)" fill-rule="nonzero">
            <g id="checked-(10)" transform="translate(635.000000, 260.000000)">
                <circle id="Oval" fill="#1BAB47" cx="84.8344737" cy="84.8344737" r="84.8344737"></circle>
                <path d="M169.668575,84.8344737 C169.668575,131.493509 131.493136,169.668947 84.8341009,169.668947 C57.7932895,169.668947 33.9336404,157.474057 18.5572149,137.856206 C32.8730044,149.520965 51.4305921,156.413794 71.5785746,156.413794 C118.23761,156.413794 156.413048,118.238355 156.413048,71.5793202 C156.413048,51.4313377 149.520219,32.87375 137.855461,18.5579605 C157.473684,33.9336404 169.668575,57.7932895 169.668575,84.8344737 Z" id="Path" fill="#0D9D39"></path>
                <path d="M130.963004,60.4443202 L75.8207456,120.889013 C72.1090789,125.130811 65.7467544,125.130811 62.0350877,120.889013 L38.7055702,94.9084649 C35.5244079,91.1967982 35.5244079,85.3646053 39.2357018,81.6529386 C42.9473684,78.4717763 48.7795614,78.4717763 52.4912281,82.1830702 L68.9279167,100.740658 L117.177346,48.2494298 C120.889013,44.5377632 126.721206,44.0076316 130.432873,47.7192982 C134.144167,50.9004605 134.144167,57.2631579 130.963004,60.4443202 Z" id="Path" fill="#FFFFFF"></path>
            </g>
        </g>
    </g>
</svg>