<?xml version="1.0" encoding="UTF-8"?>
<svg xmlns="http://www.w3.org/2000/svg" xmlns:xlink="http://www.w3.org/1999/xlink" width="16px" height="16px" viewBox="0 0 16 16" version="1.1">
<g id="surface1">
<path style=" stroke:none;fill-rule:nonzero;fill:rgb(0%,0%,0%);fill-opacity:1;" d="M 2.238281 0 C 2.019531 0 1.839844 0.179688 1.839844 0.398438 L 1.839844 11.199219 L 0 11.199219 L 0 14.71875 L 1.839844 14.71875 L 1.839844 15.601562 C 1.839844 15.820312 2.019531 16 2.238281 16 L 13.757812 16 C 13.980469 16 14.160156 15.820312 14.160156 15.601562 L 14.160156 3.460938 C 14.164062 3.28125 14.160156 3.175781 14.042969 3.046875 L 11.113281 0.117188 C 11.039062 0.0390625 10.933594 0 10.824219 0 Z M 2.640625 0.800781 L 10.464844 0.800781 L 10.664062 3.132812 C 10.679688 3.324219 10.835938 3.480469 11.027344 3.496094 L 13.359375 3.695312 L 13.359375 15.199219 L 2.640625 15.199219 L 2.640625 14.71875 L 12.800781 14.71875 L 12.800781 11.199219 L 2.640625 11.199219 Z M 11.324219 1.457031 L 12.699219 2.835938 L 11.433594 2.726562 Z M 1.675781 11.679688 C 1.894531 11.679688 2.066406 11.742188 2.191406 11.863281 C 2.3125 11.980469 2.394531 12.148438 2.429688 12.363281 L 2.074219 12.449219 C 2.050781 12.335938 2.003906 12.246094 1.933594 12.179688 C 1.863281 12.113281 1.78125 12.082031 1.675781 12.082031 C 1.519531 12.082031 1.398438 12.144531 1.304688 12.273438 C 1.214844 12.40625 1.167969 12.597656 1.167969 12.851562 C 1.167969 13.128906 1.214844 13.335938 1.308594 13.472656 C 1.398438 13.609375 1.523438 13.679688 1.671875 13.679688 C 1.75 13.679688 1.824219 13.660156 1.898438 13.621094 C 1.96875 13.585938 2.035156 13.539062 2.089844 13.480469 L 2.089844 13.1875 L 1.683594 13.1875 L 1.683594 12.796875 L 2.449219 12.796875 L 2.449219 13.71875 C 2.375 13.8125 2.269531 13.898438 2.125 13.972656 C 1.984375 14.042969 1.839844 14.078125 1.695312 14.078125 C 1.511719 14.078125 1.351562 14.027344 1.214844 13.925781 C 1.074219 13.824219 0.972656 13.679688 0.902344 13.488281 C 0.835938 13.300781 0.800781 13.09375 0.800781 12.871094 C 0.800781 12.628906 0.839844 12.414062 0.914062 12.226562 C 0.992188 12.039062 1.105469 11.894531 1.253906 11.796875 C 1.367188 11.71875 1.507812 11.679688 1.675781 11.679688 Z M 7.648438 11.679688 C 7.871094 11.679688 8.039062 11.742188 8.148438 11.871094 C 8.261719 12 8.320312 12.167969 8.324219 12.382812 L 7.96875 12.402344 C 7.953125 12.285156 7.921875 12.199219 7.871094 12.148438 C 7.820312 12.09375 7.746094 12.066406 7.644531 12.066406 C 7.542969 12.066406 7.460938 12.097656 7.402344 12.152344 C 7.363281 12.1875 7.347656 12.234375 7.347656 12.296875 C 7.347656 12.351562 7.363281 12.398438 7.398438 12.4375 C 7.445312 12.484375 7.554688 12.539062 7.726562 12.589844 C 7.898438 12.644531 8.027344 12.699219 8.109375 12.757812 C 8.195312 12.816406 8.257812 12.894531 8.304688 12.996094 C 8.351562 13.09375 8.375 13.214844 8.375 13.363281 C 8.375 13.496094 8.347656 13.621094 8.292969 13.738281 C 8.238281 13.851562 8.15625 13.9375 8.054688 13.996094 C 7.953125 14.050781 7.824219 14.078125 7.671875 14.078125 C 7.445312 14.078125 7.273438 14.011719 7.15625 13.878906 C 7.035156 13.742188 6.964844 13.542969 6.941406 13.285156 L 7.289062 13.238281 C 7.308594 13.394531 7.351562 13.503906 7.414062 13.578125 C 7.480469 13.648438 7.566406 13.683594 7.671875 13.683594 C 7.789062 13.683594 7.875 13.652344 7.933594 13.589844 C 7.992188 13.523438 8.019531 13.449219 8.019531 13.363281 C 8.019531 13.308594 8.007812 13.261719 7.984375 13.226562 C 7.960938 13.1875 7.917969 13.152344 7.855469 13.125 C 7.8125 13.105469 7.71875 13.070312 7.570312 13.023438 C 7.378906 12.960938 7.246094 12.882812 7.167969 12.792969 C 7.058594 12.664062 7.003906 12.511719 7.003906 12.328125 C 7.003906 12.210938 7.03125 12.097656 7.082031 11.996094 C 7.128906 11.898438 7.207031 11.816406 7.300781 11.761719 C 7.398438 11.707031 7.515625 11.679688 7.648438 11.679688 Z M 9.460938 11.679688 C 9.71875 11.679688 9.929688 11.785156 10.085938 12 C 10.242188 12.210938 10.320312 12.503906 10.320312 12.882812 C 10.320312 13.257812 10.242188 13.550781 10.085938 13.761719 C 9.933594 13.972656 9.726562 14.078125 9.464844 14.078125 C 9.203125 14.078125 8.992188 13.972656 8.839844 13.761719 C 8.683594 13.550781 8.605469 13.261719 8.605469 12.894531 C 8.605469 12.65625 8.632812 12.457031 8.6875 12.296875 C 8.726562 12.179688 8.78125 12.074219 8.851562 11.980469 C 8.921875 11.886719 8.996094 11.816406 9.082031 11.773438 C 9.191406 11.710938 9.316406 11.679688 9.460938 11.679688 Z M 6.296875 11.71875 L 6.652344 11.71875 L 6.652344 13.1875 C 6.652344 13.378906 6.636719 13.527344 6.613281 13.628906 C 6.578125 13.765625 6.515625 13.875 6.425781 13.957031 C 6.335938 14.039062 6.214844 14.078125 6.066406 14.078125 C 5.890625 14.078125 5.757812 14.015625 5.664062 13.886719 C 5.570312 13.757812 5.523438 13.570312 5.523438 13.320312 L 5.859375 13.273438 C 5.863281 13.402344 5.875 13.5 5.902344 13.554688 C 5.941406 13.636719 6 13.679688 6.078125 13.679688 C 6.15625 13.679688 6.214844 13.648438 6.246094 13.589844 C 6.28125 13.53125 6.296875 13.40625 6.296875 13.21875 Z M 10.601562 11.71875 L 10.945312 11.71875 L 11.667969 13.269531 L 11.667969 11.71875 L 12 11.71875 L 12 14.039062 L 11.640625 14.039062 L 10.929688 12.527344 L 10.929688 14.039062 L 10.601562 14.039062 Z M 9.464844 12.082031 C 9.316406 12.082031 9.199219 12.148438 9.109375 12.28125 C 9.019531 12.410156 8.972656 12.609375 8.972656 12.878906 C 8.972656 13.140625 9.019531 13.339844 9.113281 13.476562 C 9.203125 13.609375 9.324219 13.679688 9.464844 13.679688 C 9.605469 13.679688 9.722656 13.613281 9.8125 13.476562 C 9.90625 13.34375 9.949219 13.140625 9.949219 12.871094 C 9.949219 12.605469 9.90625 12.40625 9.816406 12.277344 C 9.730469 12.144531 9.613281 12.082031 9.464844 12.082031 Z M 3.265625 12.320312 C 3.453125 12.320312 3.605469 12.402344 3.714844 12.570312 C 3.824219 12.734375 3.875 12.988281 3.871094 13.328125 L 3.023438 13.328125 C 3.027344 13.457031 3.054688 13.5625 3.105469 13.636719 C 3.15625 13.707031 3.222656 13.746094 3.300781 13.746094 C 3.355469 13.746094 3.398438 13.726562 3.433594 13.6875 C 3.472656 13.648438 3.5 13.589844 3.515625 13.503906 L 3.855469 13.578125 C 3.808594 13.742188 3.742188 13.863281 3.648438 13.949219 C 3.554688 14.035156 3.4375 14.078125 3.296875 14.078125 C 3.074219 14.078125 2.910156 13.980469 2.804688 13.789062 C 2.71875 13.636719 2.675781 13.445312 2.675781 13.210938 C 2.675781 12.933594 2.734375 12.714844 2.84375 12.558594 C 2.953125 12.398438 3.09375 12.320312 3.261719 12.320312 Z M 4.730469 12.320312 C 4.921875 12.320312 5.082031 12.402344 5.207031 12.570312 C 5.328125 12.734375 5.390625 12.941406 5.390625 13.195312 C 5.390625 13.449219 5.328125 13.660156 5.203125 13.828125 C 5.078125 13.992188 4.921875 14.078125 4.730469 14.078125 C 4.613281 14.078125 4.503906 14.042969 4.394531 13.972656 C 4.289062 13.902344 4.210938 13.800781 4.152344 13.667969 C 4.097656 13.53125 4.070312 13.367188 4.070312 13.175781 C 4.070312 13.027344 4.097656 12.882812 4.152344 12.746094 C 4.210938 12.609375 4.289062 12.503906 4.386719 12.429688 C 4.488281 12.359375 4.605469 12.320312 4.730469 12.320312 Z M 3.285156 12.660156 C 3.210938 12.660156 3.148438 12.695312 3.101562 12.765625 C 3.054688 12.835938 3.03125 12.933594 3.03125 13.054688 L 3.535156 13.054688 C 3.535156 12.925781 3.507812 12.828125 3.460938 12.761719 C 3.410156 12.695312 3.351562 12.660156 3.285156 12.660156 Z M 4.730469 12.683594 C 4.640625 12.683594 4.566406 12.726562 4.507812 12.816406 C 4.449219 12.90625 4.417969 13.03125 4.417969 13.199219 C 4.417969 13.367188 4.449219 13.492188 4.507812 13.582031 C 4.566406 13.671875 4.640625 13.714844 4.730469 13.714844 C 4.820312 13.714844 4.894531 13.671875 4.953125 13.582031 C 5.011719 13.492188 5.042969 13.363281 5.042969 13.195312 C 5.042969 13.03125 5.011719 12.90625 4.953125 12.816406 C 4.894531 12.726562 4.820312 12.683594 4.730469 12.683594 Z M 4.730469 12.683594 "/>
<path style=" stroke:none;fill-rule:nonzero;fill:rgb(0%,0%,0%);fill-opacity:1;" d="M 8.199219 2.878906 L 8.199219 4.496094 L 9.617188 4.496094 C 9.542969 4.285156 9.453125 4.074219 9.34375 3.875 C 9.027344 3.300781 8.621094 2.953125 8.199219 2.878906 Z M 7.800781 2.894531 C 7.40625 2.992188 7.03125 3.332031 6.730469 3.875 C 6.621094 4.074219 6.53125 4.285156 6.457031 4.496094 L 7.800781 4.496094 Z M 6.875 3.003906 C 6.082031 3.265625 5.402344 3.792969 4.957031 4.496094 L 6.035156 4.496094 C 6.128906 4.203125 6.246094 3.925781 6.378906 3.683594 C 6.523438 3.421875 6.691406 3.191406 6.875 3.003906 Z M 9.234375 3.042969 C 9.40625 3.222656 9.558594 3.4375 9.695312 3.683594 C 9.828125 3.925781 9.945312 4.203125 10.039062 4.496094 L 11.042969 4.496094 C 10.617188 3.824219 9.980469 3.3125 9.234375 3.042969 Z M 4.734375 4.898438 C 4.539062 5.316406 4.425781 5.769531 4.398438 6.230469 L 5.746094 6.230469 C 5.761719 5.761719 5.820312 5.3125 5.921875 4.898438 Z M 6.335938 4.898438 C 6.230469 5.304688 6.164062 5.753906 6.144531 6.230469 L 7.800781 6.230469 L 7.800781 4.898438 Z M 8.199219 4.898438 L 8.199219 6.230469 L 9.925781 6.230469 C 9.910156 5.753906 9.84375 5.304688 9.738281 4.898438 Z M 10.152344 4.898438 C 10.253906 5.335938 10.3125 5.78125 10.328125 6.230469 L 11.601562 6.230469 C 11.574219 5.769531 11.460938 5.316406 11.265625 4.898438 Z M 4.398438 6.632812 C 4.425781 7.09375 4.539062 7.546875 4.734375 7.964844 L 5.902344 7.964844 C 5.808594 7.550781 5.753906 7.101562 5.742188 6.632812 Z M 6.144531 6.632812 C 6.15625 7.105469 6.214844 7.554688 6.316406 7.964844 L 7.800781 7.964844 L 7.800781 6.632812 Z M 8.199219 6.632812 L 8.199219 7.964844 L 9.757812 7.964844 C 9.859375 7.554688 9.917969 7.105469 9.929688 6.632812 Z M 10.328125 6.632812 C 10.320312 7.101562 10.265625 7.550781 10.171875 7.964844 L 11.265625 7.964844 C 11.460938 7.546875 11.574219 7.09375 11.601562 6.632812 Z M 4.957031 8.363281 C 5.382812 9.039062 6.019531 9.550781 6.769531 9.820312 C 6.621094 9.648438 6.488281 9.460938 6.378906 9.257812 C 6.234375 8.992188 6.109375 8.691406 6.007812 8.363281 Z M 6.429688 8.363281 C 6.515625 8.621094 6.617188 8.859375 6.730469 9.066406 C 7.011719 9.574219 7.359375 9.90625 7.726562 10.027344 C 7.75 10.027344 7.773438 10.03125 7.800781 10.03125 L 7.800781 8.363281 Z M 8.199219 8.363281 L 8.199219 10.03125 C 8.257812 10.027344 8.3125 10.023438 8.371094 10.019531 C 8.730469 9.890625 9.070312 9.566406 9.34375 9.066406 C 9.457031 8.859375 9.558594 8.621094 9.644531 8.363281 Z M 10.066406 8.363281 C 9.964844 8.691406 9.839844 8.992188 9.695312 9.257812 C 9.59375 9.441406 9.476562 9.617188 9.34375 9.777344 C 10.042969 9.496094 10.636719 9.003906 11.042969 8.363281 Z M 10.066406 8.363281 "/>
</g>
</svg>
