<?xml version="1.0" encoding="UTF-8"?>
<svg width="64px" height="64px" viewBox="0 0 64 64" version="1.1" xmlns="http://www.w3.org/2000/svg" xmlns:xlink="http://www.w3.org/1999/xlink">
    <title>home-baocao</title>
    <g id="GIS---Mạng-lưới-điện" stroke="none" stroke-width="1" fill="none" fill-rule="evenodd">
        <g id="01.-Home" transform="translate(-980.000000, -296.000000)" fill-rule="nonzero">
            <g id="home-baocao" transform="translate(980.000000, 296.000000)">
                <path d="M30.3732528,3.37620947 L30.3732528,16.9354441 L30.3049345,16.9354441 C29.2440685,16.9354441 28.2051158,17.0334099 27.1983887,17.2228963 C26.7626989,17.3041047 26.3321652,17.4033595 25.9093656,17.5180826 C18.7926687,19.4490393 13.5592346,25.9534502 13.5592346,33.681144 C13.5592346,36.7219496 14.3700302,39.5758469 15.7879557,42.0340141 L12.1168177,48.9045076 L4.04366566,48.8142759 C1.47077543,44.3619899 -1.77635684e-15,39.193007 -1.77635684e-15,33.681144 C-1.77635684e-15,18.4358671 11.2544612,5.8214864 25.9093656,3.69330916 C26.3360322,3.63143605 26.7652769,3.5785861 27.1983887,3.53475932 C28.2192951,3.42905942 29.2556697,3.37620947 30.3049345,3.37620947 L30.3732528,3.37620947 Z" id="Path" fill="#2858B6"></path>
                <path d="M30.3732528,12.4251521 L30.3732528,16.9354441 L30.3049345,16.9354441 C21.0561934,16.9354441 13.5592346,24.4324028 13.5592346,33.681144 C13.5592346,36.7219496 14.3700302,39.5758469 15.7879557,42.0340141 L11.855146,44.3039839 C10.0530916,41.1819698 9.02316213,37.5572367 9.02316213,33.6940342 C9.02316213,21.9471662 18.5451762,12.4251521 30.2920443,12.4251521 L30.3732528,12.4251521 Z" id="Path" fill="#1E4CA6"></path>
                <path d="M35.6461309,63.5168741 C33.9132971,63.8246928 32.1274844,63.9860785 30.3050634,63.9860785 C19.0793474,63.9860785 9.27993555,57.8830695 4.04340785,48.8145337 L15.7884713,42.0334985 C18.6806526,47.0505055 24.0989325,50.426715 30.3050634,50.426715 C31.3246808,50.426715 32.3213535,50.3358389 33.2908278,50.1609184 L38.9284995,56.7675488 L35.6461309,63.5168741 Z" id="Path" fill="#FAD207"></path>
                <path d="M34.0779053,54.6264814 C32.8494663,54.8481934 31.5836455,54.9629164 30.2920443,54.9629164 C22.4096677,54.9629164 15.528862,50.6756254 11.855146,44.3039839 L15.7879557,42.0340141 C18.6805237,47.0508922 24.099577,50.4268439 30.3049345,50.4268439 C31.3245519,50.4268439 32.3209668,50.3353233 33.2903122,50.1613051 L34.0779053,54.6264814 Z" id="Path" fill="#FAA515"></path>
                <path d="M53.5808258,53.0873877 L53.5795368,53.0886767 L53.5782477,53.0899658 C52.8989325,53.9046284 52.1783686,54.6819094 51.4178449,55.4192306 L51.4165559,55.4205196 C51.1071903,55.7234401 50.7900906,56.0173374 50.4678348,56.3047895 C50.3453776,56.4143565 50.2216314,56.5226344 50.0978852,56.6296234 C46.0671098,60.1099859 41.1095267,62.5449507 35.6466465,63.5168741 L33.2903122,50.1613051 C35.5138771,49.761708 37.5853374,48.9225539 39.4118832,47.7353635 C39.5768781,47.6283746 39.7418731,47.5175186 39.903001,47.4040846 C40.2561934,47.1565921 40.5990735,46.8962095 40.9316415,46.6229366 C40.9329305,46.6216475 40.9329305,46.6216475 40.9342195,46.6216475 C41.7540383,45.9487774 42.5081168,45.1972769 43.184854,44.3839033 C43.187432,44.3813253 43.1900101,44.3774582 43.1925881,44.3748802 L43.1938771,44.3735911 L43.1951662,44.3723021 L46.1496073,46.8510937 L52.7867875,52.4209627 L53.5808258,53.0873877 Z" id="Path" fill="#EA1C1B"></path>
                <path d="M46.6587714,47.2777603 C43.5238671,51.0520201 39.1076737,53.7228761 34.0779053,54.6264814 L33.2903122,50.1613051 C37.2501913,49.4497644 40.7266868,47.3447895 43.1951662,44.3723021 L45.7912588,46.5507513 L46.6587714,47.2777603 Z" id="Path" fill="#CF1312"></path>
                <path d="M30.3732528,3.37620947 L32.998993,8.94478953 L30.3732528,16.9354441 L30.3049345,16.9354441 C29.2440685,16.9354441 28.2051158,17.0334099 27.1983887,17.2228963 L27.1983887,3.53475932 C28.2192951,3.42905942 29.2556697,3.37620947 30.3049345,3.37620947 L30.3732528,3.37620947 Z" id="Path" fill="#1E4CA6"></path>
                <path d="M53.5808258,53.0873877 L53.5795368,53.0886767 L53.5782477,53.0899658 C52.8989325,53.9046284 52.1783686,54.6819094 51.4178449,55.4192306 L40.9342195,46.6216475 C41.7540383,45.9487774 42.5081168,45.1972769 43.184854,44.3839033 C43.187432,44.3813253 43.1900101,44.3774582 43.1925881,44.3748802 L43.1938771,44.3735911 L50.6586103,46.9709728 L52.7867875,52.4209627 L53.5808258,53.0873877 Z" id="Path" fill="#CF1312"></path>
                <path d="M64,33.6808862 C64,41.4097402 61.3965599,48.5310775 57.0214864,54.2163142 C56.5735509,54.7984371 55.7311742,54.8915045 55.1685156,54.4193353 L45.7911299,46.5499778 L43.1945217,44.3723021 C45.6026747,41.472 47.0507633,37.7445317 47.0507633,33.6807573 C47.0507633,24.4549607 39.5904129,16.9716657 30.3727372,16.9350574 L30.3727372,1.30397583 C30.3727372,0.569748238 30.985281,-0.015081571 31.718864,0.0152104733 C49.6721208,0.756269889 64,15.5462638 64,33.6808862 L64,33.6808862 Z" id="Path" fill="#2858B6"></path>
                <path d="M51.5609265,33.6940342 C51.5609265,38.857861 49.7202014,43.5937321 46.6587714,47.2777603 L45.7912588,46.5507513 L43.1951662,44.3723021 C45.6030614,41.472 47.0506344,37.744145 47.0506344,33.681144 C47.0506344,24.4556052 39.5910574,16.9715368 30.3732528,16.9354441 L30.3732528,12.4251521 C42.0827392,12.4689789 51.5609265,21.9742356 51.5609265,33.6940342 L51.5609265,33.6940342 Z" id="Path" fill="#1E4CA6"></path>
            </g>
        </g>
    </g>
</svg>