<?xml version="1.0" encoding="UTF-8"?>
<svg width="81px" height="64px" viewBox="0 0 81 64" version="1.1" xmlns="http://www.w3.org/2000/svg" xmlns:xlink="http://www.w3.org/1999/xlink">
    <title>home-quantrihethong</title>
    <g id="GIS---Mạng-lưới-điện" stroke="none" stroke-width="1" fill="none" fill-rule="evenodd">
        <g id="01.-Home" transform="translate(-971.000000, -484.000000)" fill-rule="nonzero">
            <g id="home-quantrihethong" transform="translate(971.000000, 484.000000)">
                <polygon id="Path" fill="#1B49A4" points="30.8044698 49.4548479 49.7067487 49.4548479 49.7067487 62.6850662 30.8044698 62.6850662"></polygon>
                <polygon id="Path" fill="#123A8A" points="44.8469264 49.4546859 49.7067487 49.4546859 49.7067487 62.6849042 44.8469264 62.6849042"></polygon>
                <path d="M80.5110565,43.5378523 L80.5110565,2.00953653 C80.5110565,0.948151336 79.650706,0.08780079 78.5893208,0.08780079 L1.92173574,0.08780079 C0.860350546,0.08780079 0,0.948151336 0,2.00953653 L0,43.5378523 L40.6783328,47.3941213 L80.5110565,43.5378523 Z" id="Path" fill="#E5F0FF"></path>
                <path d="M78.5893208,0.08780079 L73.7294984,0.08780079 C74.7908836,0.08780079 75.6512342,0.948151336 75.6512342,2.00953653 L75.6512342,53.144101 C75.6512342,54.2054862 74.7908836,55.0658368 73.7294984,55.0658368 L78.5893208,55.0658368 C79.650706,55.0658368 80.5110565,54.2054862 80.5110565,53.144101 L80.5110565,2.00953653 C80.5110565,0.948151336 79.650706,0.08780079 78.5893208,0.08780079 Z" id="Path" fill="#BED9FD"></path>
                <path d="M31.8797865,43.5378523 C31.7872879,43.0348606 31.7364217,42.5171276 31.7364217,41.9874069 C31.7364217,37.282451 35.5505723,33.4683004 40.2555283,33.4683004 C44.9604842,33.4683004 48.7746348,37.282451 48.7746348,41.9874069 C48.7746348,42.5171276 48.7237687,43.0348606 48.63127,43.5378523 L54.4667827,45.157793 L61.8763918,45.157793 C62.7080694,45.157793 63.3822887,44.4835737 63.3822887,43.6518961 L63.3822887,40.618719 C63.3822887,39.7870414 62.7080694,39.112822 61.8763918,39.112822 L60.3270804,39.112822 C59.6177084,39.112822 59.0071527,38.6169582 58.8563362,37.9237855 C58.3682481,35.6801675 57.4844084,33.5846121 56.2817643,31.7130946 C55.8975144,31.1151744 55.9767295,30.3319331 56.4793971,29.8294274 L57.576583,28.7322415 C58.1646215,28.144203 58.1646215,27.1907059 57.576583,26.6025054 L55.6407538,24.6666762 C55.0527153,24.0786377 54.0992181,24.0786377 53.5110176,24.6666762 L52.4138317,25.7638621 C51.9113261,26.2663677 51.1280848,26.3457448 50.5301646,25.9614948 C48.658647,24.7590128 46.5629297,23.8750111 44.3194737,23.386923 C43.626301,23.2361065 43.1304371,22.6255508 43.1304371,21.9161787 L43.1304371,20.3668674 C43.1304371,19.5351898 42.4562178,18.8609704 41.6245402,18.8609704 L38.8868403,18.8609704 C38.0551627,18.8609704 37.3809434,19.5351898 37.3809434,20.3668674 L37.3809434,21.9161787 C37.3809434,22.6255508 36.8850795,23.2361065 36.1919068,23.386923 C33.9482888,23.8750111 31.8527335,24.7588508 29.9812159,25.9614948 C29.3832957,26.3457448 28.6000544,26.2663677 28.0975488,25.7638621 L27.0003629,24.6666762 C26.4123244,24.0786377 25.4588272,24.0786377 24.8706267,24.6666762 L22.9347975,26.6025054 C22.346759,27.1905439 22.346759,28.1440411 22.9347975,28.7322415 L24.0319834,29.8294274 C24.534489,30.3319331 24.6138661,31.1151744 24.2296162,31.7130946 C23.0269721,33.5846121 22.1431324,35.6803295 21.6550443,37.9237855 C21.5042278,38.6169582 20.8936721,39.112822 20.1843001,39.112822 L18.6349887,39.112822 C17.8033111,39.112822 17.1290918,39.7870414 17.1290918,40.618719 L17.1290918,43.6518961 C17.1290918,44.4835737 17.8033111,45.157793 18.6349887,45.157793 L24.6760718,45.157793 L31.8797865,43.5378523 Z" id="Path" fill="#FAD207"></path>
                <path d="M53.2518271,63.8998598 L27.2592294,63.8998598 C26.5882499,63.8998598 26.0442738,63.3558837 26.0442738,62.6849042 C26.0442738,62.0139248 26.5882499,61.4699487 27.2592294,61.4699487 L53.2518271,61.4699487 C53.9228066,61.4699487 54.4667827,62.0139248 54.4667827,62.6849042 C54.4667827,63.3558837 53.9228066,63.8998598 53.2518271,63.8998598 Z" id="Path" fill="#2858B6"></path>
                <g id="Group" transform="translate(5.021816, 6.641757)" fill="#EA1C1B">
                    <path d="M17.1431852,2.54346901 L1.27878125,2.54346901 C0.607801779,2.54346901 0.0638256665,1.9994929 0.0638256665,1.32851343 C0.0638256665,0.657533961 0.607801779,0.113557848 1.27878125,0.113557848 L17.1430233,0.113557848 C17.8140027,0.113557848 18.3579789,0.657533961 18.3579789,1.32851343 C18.3579789,1.9994929 17.8141647,2.54346901 17.1431852,2.54346901 Z" id="Path"></path>
                    <path d="M6.42290318,7.98873793 L1.27878125,7.98873793 C0.607801779,7.98873793 0.0638256665,7.44476182 0.0638256665,6.77378235 C0.0638256665,6.10280288 0.607801779,5.55882677 1.27878125,5.55882677 L6.42290318,5.55882677 C7.09388265,5.55882677 7.63785876,6.10280288 7.63785876,6.77378235 C7.63785876,7.44476182 7.09388265,7.98873793 6.42290318,7.98873793 Z" id="Path"></path>
                    <path d="M68.1560922,7.98873793 L63.0119703,7.98873793 C62.3408288,7.98873793 61.7970147,7.44476182 61.7970147,6.77378235 C61.7970147,6.10280288 62.3408288,5.55882677 63.0119703,5.55882677 L68.1560922,5.55882677 C68.8272337,5.55882677 69.3710478,6.10280288 69.3710478,6.77378235 C69.3710478,7.44476182 68.8270717,7.98873793 68.1560922,7.98873793 Z" id="Path"></path>
                    <path d="M68.1560922,13.4340069 L63.0119703,13.4340069 C62.3408288,13.4340069 61.7970147,12.8900307 61.7970147,12.2190513 C61.7970147,11.5480718 62.3408288,11.0040957 63.0119703,11.0040957 L68.1560922,11.0040957 C68.8272337,11.0040957 69.3710478,11.5480718 69.3710478,12.2190513 C69.3710478,12.8900307 68.8270717,13.4340069 68.1560922,13.4340069 Z" id="Path"></path>
                    <path d="M68.1560922,18.8791138 L63.0119703,18.8791138 C62.3408288,18.8791138 61.7970147,18.3351377 61.7970147,17.6641582 C61.7970147,16.9931787 62.3408288,16.4492026 63.0119703,16.4492026 L68.1560922,16.4492026 C68.8272337,16.4492026 69.3710478,16.9931787 69.3710478,17.6641582 C69.3710478,18.3351377 68.8270717,18.8791138 68.1560922,18.8791138 Z" id="Path"></path>
                </g>
                <path d="M0,43.5378523 L0,53.144101 C0,54.2054862 0.860350546,55.0658368 1.92173574,55.0658368 L78.5893208,55.0658368 C79.650706,55.0658368 80.5110565,54.2054862 80.5110565,53.144101 L80.5110565,43.5378523 L0,43.5378523 Z" id="Path" fill="#2858B6"></path>
                <path d="M75.6512342,43.5378523 L75.6512342,53.144101 C75.6512342,54.2054862 74.7908836,55.0658368 73.7294984,55.0658368 L78.5893208,55.0658368 C79.650706,55.0658368 80.5110565,54.2054862 80.5110565,53.144101 L80.5110565,43.5378523 L75.6512342,43.5378523 Z" id="Path" fill="#1E4CA6"></path>
            </g>
        </g>
    </g>
</svg>