<?xml version="1.0" encoding="UTF-8"?>
<svg width="46px" height="64px" viewBox="0 0 46 64" version="1.1" xmlns="http://www.w3.org/2000/svg" xmlns:xlink="http://www.w3.org/1999/xlink">
    <title>home-quanlyluoidien</title>
    <g id="GIS---Mạng-lưới-điện" stroke="none" stroke-width="1" fill="none" fill-rule="evenodd">
        <g id="01.-Home" transform="translate(-405.000000, -296.000000)" fill-rule="nonzero">
            <g id="home-quanlyluoidien" transform="translate(405.000000, 296.000000)">
                <path d="M25.9505653,57.8879376 L19.9622612,57.8879376 C19.4105887,57.8879376 18.9642105,58.3343158 18.9642105,58.8859883 L18.9642105,59.884039 C18.9642105,62.0857388 20.7547135,63.8762417 22.9564133,63.8762417 C25.1581131,63.8762417 26.948616,62.0857388 26.948616,59.884039 L26.948616,58.8859883 C26.948616,58.3343158 26.5022378,57.8879376 25.9505653,57.8879376 Z" id="Path" fill="#868491"></path>
                <path d="M22.9554152,57.8879376 L19.9622612,57.8879376 C19.4105887,57.8879376 18.9642105,58.3343158 18.9642105,58.8859883 L18.9642105,59.884039 C18.9642105,62.0854893 20.7540897,63.8756179 22.9554152,63.876117 L22.9554152,57.8879376 L22.9554152,57.8879376 Z" id="Path" fill="#5C546A"></path>
                <path d="M38.6723431,6.22471735 C34.0075789,1.84065497 27.8975127,-0.355181287 21.489154,0.0467836257 C9.81071345,0.773489279 0.376015595,10.5152125 0.0114775828,22.2252164 C-0.257497076,30.9016452 4.29997661,38.8899181 11.9062456,43.0741209 C13.7970526,44.1150877 14.9715088,46.1140585 14.9715088,48.2924288 L14.9715088,55.8918363 C14.9715088,58.0935361 16.7620117,59.884039 18.9637115,59.884039 L26.948117,59.884039 C29.1498168,59.884039 30.9403197,58.0935361 30.9403197,55.8918363 L30.9403197,48.2924288 C30.9403197,46.1160546 32.1235088,44.1120936 34.0300351,43.0613957 C41.3584717,39.0185419 45.9110799,31.3148382 45.9110799,22.9561637 C45.9110799,16.6462378 43.2727329,10.5477739 38.6723431,6.22471735 Z" id="Path" fill="#EA1C1B"></path>
                <circle id="Oval" fill="#FEF300" cx="22.9554152" cy="22.9561637" r="15.9688109"></circle>
                <path d="M26.4465965,28.9444678 C25.1200624,28.9444678 24.4417622,28.1706043 23.9476023,27.6062066 C23.5119532,27.1091774 23.3384172,26.9483665 22.9495517,26.9483665 C22.5625575,26.9483665 22.3901442,27.1091774 21.9563665,27.6053333 C21.4905263,28.1384172 20.7857778,28.9444678 19.4592437,28.9444678 C18.1337076,28.9444678 17.4290838,28.1384172 16.9631189,27.6053333 C16.5293411,27.1091774 16.3569279,26.9483665 15.9699337,26.9483665 C15.4182612,26.9483665 14.971883,26.5019883 14.971883,25.9503158 C14.971883,25.3986433 15.4182612,24.9522651 15.9699337,24.9522651 C17.2954698,24.9522651 18.0000936,25.7583158 18.4660585,26.2913996 C18.8998363,26.7875556 19.0722495,26.9483665 19.4592437,26.9483665 C19.8462378,26.9483665 20.0196491,26.7875556 20.4534269,26.2913996 C20.9192671,25.7583158 21.6240156,24.9522651 22.9495517,24.9522651 C24.2760858,24.9522651 24.954386,25.7261287 25.4485458,26.2905263 C25.8841949,26.7875556 26.057731,26.9483665 26.4465965,26.9483665 C26.8344639,26.9483665 27.008,26.7875556 27.4436491,26.2913996 C27.9104873,25.7583158 28.6152359,24.9522651 29.9426433,24.9522651 C30.4943158,24.9522651 30.940694,25.3986433 30.940694,25.9503158 C30.940694,26.5019883 30.4943158,26.9483665 29.9426433,26.9483665 C29.5537778,26.9483665 29.3802417,27.1091774 28.9445926,27.6062066 C28.4777544,28.1394152 27.7731306,28.9444678 26.4465965,28.9444678 Z" id="Path" fill="#1E4CA6"></path>
                <path d="M19.9612632,47.9074308 C19.5021598,47.9074308 19.0889669,47.5886784 18.9865419,47.1218402 L13.9962885,24.1666745 C13.8792671,23.6277271 14.2214737,23.0965146 14.759423,22.9786199 C15.3013645,22.8597271 15.8295828,23.2038051 15.9474776,23.7417544 L20.937731,46.6969201 C21.0547524,47.2358674 20.7125458,47.7670799 20.1745965,47.8849747 C20.1026121,47.900694 20.0313762,47.9074308 19.9612632,47.9074308 Z" id="Path" fill="#1E4CA6"></path>
                <path d="M25.9514386,47.9074308 C25.8812008,47.9074308 25.8100897,47.9005692 25.7379805,47.8849747 C25.1999064,47.7670799 24.8578246,47.2358674 24.974846,46.6969201 L29.9650994,23.7417544 C30.0829942,23.2036803 30.6093411,22.8606004 31.153154,22.9786199 C31.6912281,23.0965146 32.0333099,23.6277271 31.9162885,24.1666745 L26.9260351,47.1218402 C26.8238596,47.5888031 26.4105419,47.9074308 25.9514386,47.9074308 Z" id="Path" fill="#1E4CA6"></path>
                <path d="M14.8002183,46.9093801 C14.906386,47.3576296 14.9716335,47.8192281 14.9716335,48.2924288 L14.9716335,55.8918363 C14.9716335,58.0935361 16.7621365,59.884039 18.9638363,59.884039 L26.9482417,59.884039 C29.1499415,59.884039 30.9404444,58.0935361 30.9404444,55.8918363 L30.9404444,48.2924288 C30.9404444,47.8196023 31.006191,47.3578791 31.1131072,46.9093801 L14.8002183,46.9093801 Z" id="Path" fill="#B4B6BC"></path>
                <path d="M22.9554152,46.9093801 L14.8002183,46.9093801 C14.906386,47.3576296 14.9716335,47.8192281 14.9716335,48.2924288 L14.9716335,55.8918363 C14.9716335,58.0935361 16.7621365,59.884039 18.9638363,59.884039 L22.9554152,59.884039 L22.9554152,46.9093801 Z" id="Path" fill="#868491"></path>
                <rect id="Rectangle" fill="#868491" x="22.9554152" y="49.9035322" width="7.98440546" height="1.99610136"></rect>
                <rect id="Rectangle" fill="#868491" x="22.9559142" y="53.8957349" width="7.98440546" height="1.99610136"></rect>
                <rect id="Rectangle" fill="#5C546A" x="14.9710097" y="49.9035322" width="7.98440546" height="1.99610136"></rect>
                <rect id="Rectangle" fill="#5C546A" x="14.9710097" y="53.8957349" width="7.98440546" height="1.99610136"></rect>
            </g>
        </g>
    </g>
</svg>