<?xml version="1.0" encoding="UTF-8"?>
<svg width="65px" height="64px" viewBox="0 0 65 64" version="1.1" xmlns="http://www.w3.org/2000/svg" xmlns:xlink="http://www.w3.org/1999/xlink">
    <title>home-quanlysuco</title>
    <g id="GIS---Mạng-lưới-điện" stroke="none" stroke-width="1" fill="none" fill-rule="evenodd">
        <g id="01.-Home" transform="translate(-687.000000, -484.000000)" fill-rule="nonzero">
            <g id="home-quanlysuco" transform="translate(687.000000, 484.000000)">
                <path d="M47.0843953,50.9809328 L17.674498,51.2338972 L17.674498,33.1793202 C17.674498,25.0580237 24.2581502,18.4743715 32.3794466,18.4743715 C40.5007431,18.4743715 47.0843953,25.0580237 47.0843953,33.1793202 L47.0843953,50.9809328 Z" id="Path" fill="#EA1C1B"></path>
                <path d="M20.8366798,47.6209328 C20.4874625,47.6209328 20.2042688,47.3377391 20.2042688,46.9885217 L20.2042688,33.1791937 C20.2042688,25.4840158 26.1147826,19.1700237 33.6442688,18.5287589 C33.2281423,18.4920791 32.8056917,18.4743715 32.3794466,18.4743715 C24.2580237,18.4743715 17.6746245,25.0577708 17.6746245,33.1791937 L17.6746245,47.6209328 L17.6746245,51.2345296 L47.0842688,50.9815652 L47.0842688,47.6209328 L20.8366798,47.6209328 Z" id="Path" fill="#CF1312"></path>
                <g id="Group" fill="#FAD207">
                    <path d="M32.3794466,8.44344664 C31.8554308,8.44344664 31.43083,8.01871937 31.43083,7.49483004 L31.43083,1.04512253 C31.43083,0.521233202 31.8554308,0.0965059289 32.3794466,0.0965059289 C32.9034625,0.0965059289 33.3280632,0.521233202 33.3280632,1.04512253 L33.3280632,7.49483004 C33.3280632,8.01871937 32.9034625,8.44344664 32.3794466,8.44344664 Z" id="Path"></path>
                    <path d="M14.8182767,15.5565534 C14.5790988,15.5565534 14.3397945,15.4666245 14.1552569,15.2861344 L9.49135178,10.7254387 C9.11671146,10.3591462 9.11000791,9.75848221 9.4763004,9.38396838 C9.84233992,9.00945455 10.443004,9.00249802 10.8176443,9.368917 L15.4815494,13.9296126 C15.8561897,14.2959051 15.8628933,14.8965692 15.4966008,15.271083 C15.3109249,15.4611858 15.064664,15.5565534 14.8182767,15.5565534 L14.8182767,15.5565534 Z" id="Path"></path>
                    <path d="M7.54428458,32.728917 L0.948616601,32.728917 C0.424600791,32.728917 0,32.3041897 0,31.7803004 C0,31.2564111 0.424600791,30.8316838 0.948616601,30.8316838 L7.54428458,30.8316838 C8.0683004,30.8316838 8.49290119,31.2564111 8.49290119,31.7803004 C8.49290119,32.3041897 8.0683004,32.728917 7.54428458,32.728917 Z" id="Path"></path>
                    <path d="M63.8102767,32.728917 L57.2146087,32.728917 C56.6905929,32.728917 56.2659921,32.3041897 56.2659921,31.7803004 C56.2659921,31.2564111 56.6905929,30.8316838 57.2146087,30.8316838 L63.8102767,30.8316838 C64.3342925,30.8316838 64.7588933,31.2564111 64.7588933,31.7803004 C64.7588933,32.3041897 64.3342925,32.728917 63.8102767,32.728917 Z" id="Path"></path>
                    <path d="M49.9406166,15.5565534 C49.6942292,15.5565534 49.4480949,15.4611858 49.2622925,15.2712095 C48.896,14.8966957 48.9027036,14.2960316 49.2773439,13.9297391 L53.941249,9.36904348 C54.3157628,9.00262451 54.9163004,9.00958103 55.2825929,9.38409486 C55.6488854,9.7586087 55.6421818,10.3592727 55.2675415,10.7255652 L50.6036364,15.2862609 C50.4192253,15.4666245 50.179668,15.5565534 49.9406166,15.5565534 Z" id="Path"></path>
                </g>
                <path d="M37.7549407,50.1202213 L26.8774704,50.1202213 L26.8774704,38.6103399 C26.8774704,35.6066403 29.3125059,33.1716047 32.3162055,33.1716047 C35.3199051,33.1716047 37.7549407,35.6066403 37.7549407,38.6103399 L37.7549407,50.1202213 Z" id="Path" fill="#CF1312"></path>
                <path d="M51.8387352,53.9450435 L51.8387352,54.5433043 L32.3162055,55.8081265 L12.9201581,54.5433043 L12.9201581,53.9450435 C12.9201581,51.8492332 14.6188142,50.1505771 16.7146245,50.1505771 L48.0442688,50.1505771 C50.1400791,50.1505771 51.8387352,51.8492332 51.8387352,53.9450435 Z" id="Path" fill="#2858B6"></path>
                <path d="M15.829249,54.5433043 C15.619668,54.5433043 15.4498024,54.3734387 15.4498024,54.1638577 L15.4498024,53.9450435 C15.4498024,51.8492332 17.1484585,50.1505771 19.2442688,50.1505771 L16.7146245,50.1505771 C14.6189407,50.1505771 12.9201581,51.8493597 12.9201581,53.9450435 L12.9201581,54.5433043 L12.9201581,58.1606957 L15.4498024,58.1606957 L51.8387352,58.1606957 L51.8387352,54.5433043 L15.829249,54.5433043 Z" id="Path" fill="#1E4CA6"></path>
                <path d="M55.2727273,63.9034941 L9.48616601,63.9034941 C8.78760474,63.9034941 8.22134387,63.3372332 8.22134387,62.6386719 L8.22134387,60.8679209 C8.22134387,58.7722372 9.92012648,57.0734545 12.0158103,57.0734545 L52.743083,57.0734545 C54.8387668,57.0734545 56.5375494,58.7722372 56.5375494,60.8679209 L56.5375494,62.6386719 C56.5375494,63.3372332 55.9712885,63.9034941 55.2727273,63.9034941 Z" id="Path" fill="#2858B6"></path>
                <path d="M12.0158103,63.9029881 L9.48616601,63.9029881 C8.78798419,63.9029881 8.22134387,63.3376126 8.22134387,62.638166 L8.22134387,60.867415 C8.22134387,58.7728696 9.92,57.0729486 12.0158103,57.0729486 L14.5454545,57.0729486 C12.4496443,57.0729486 10.7509881,58.7728696 10.7509881,60.867415 L10.7509881,62.638166 C10.7509881,63.3376126 11.3176285,63.9029881 12.0158103,63.9029881 Z" id="Path" fill="#30569F"></path>
            </g>
        </g>
    </g>
</svg>