<?xml version="1.0" encoding="UTF-8"?>
<svg width="64px" height="65px" viewBox="0 0 64 65" version="1.1" xmlns="http://www.w3.org/2000/svg" xmlns:xlink="http://www.w3.org/1999/xlink">
    <title>home-vanhanhbaoduong</title>
    <g id="GIS---Mạng-lưới-điện" stroke="none" stroke-width="1" fill="none" fill-rule="evenodd">
        <g id="01.-Home" transform="translate(-688.000000, -296.000000)" fill-rule="nonzero">
            <g id="home-vanhanhbaoduong" transform="translate(688.000000, 296.000000)">
                <path d="M45.357037,37.8067836 L43.7110019,36.1607485 L27.5966004,20.046347 L25.9505653,18.4003119 C25.9505653,18.4003119 28.0563275,13.2619727 28.0563275,8.98831969 C28.0563275,8.98831969 22.4208343,2.05136842 14.4319376,0.00860818713 C14.4319376,0.00860818713 12.4806238,-0.270097466 9.88045224,2.33007407 C9.88045224,2.33007407 15.4665419,6.05904094 17.4114932,9.86111501 C17.4114932,9.86111501 16.45823,12.6239688 14.6001092,14.4820897 C12.7419883,16.3402105 9.9791345,17.2934737 9.9791345,17.2934737 C6.17706043,15.3485224 2.44809357,9.76243275 2.44809357,9.76243275 C-0.152077973,12.362729 0.12662768,14.3140429 0.12662768,14.3140429 C2.16938791,22.3029396 9.10633918,27.9384327 9.10633918,27.9384327 C13.3799922,27.9384327 18.5183314,25.8326706 18.5183314,25.8326706 L20.1643665,27.4787057 L36.2786433,43.5929825 L37.9246784,45.2390175 C37.9246784,45.2390175 35.8189162,50.3773567 35.8189162,54.6510097 C35.8189162,54.6510097 41.4544094,61.587961 49.443306,63.6307212 C49.443306,63.6307212 51.3946199,63.9094269 53.9947914,61.3092554 C53.9947914,61.3092554 48.4087018,57.5802885 46.4637505,53.7782144 C46.4637505,53.7782144 47.4170136,51.0153606 49.2751345,49.1572398 C51.1332554,47.2991189 53.8961092,46.3458558 53.8961092,46.3458558 C57.6981832,48.290807 61.4271501,53.8768967 61.4271501,53.8768967 C64.0273216,51.2767251 63.748616,49.3254113 63.748616,49.3254113 C61.7058558,41.3365146 54.7689045,35.7010214 54.7689045,35.7010214 C50.4952515,35.7008967 45.357037,37.8067836 45.357037,37.8067836 Z" id="Path" fill="#EA1C1B"></path>
                <path d="M10.0448811,24.4443821 C-1.15936062,14.0425731 2.44809357,9.76243275 2.44809357,9.76243275 C-0.152077973,12.362729 0.12662768,14.3140429 0.12662768,14.3140429 C2.16938791,22.3029396 9.10633918,27.9384327 9.10633918,27.9384327 C13.3799922,27.9384327 18.5183314,25.8326706 18.5183314,25.8326706 L20.1643665,27.4787057 L36.2786433,43.5929825 L37.9246784,45.2390175 C37.9246784,45.2390175 35.8189162,50.3773567 35.8189162,54.6510097 C35.8189162,54.6510097 41.4544094,61.587961 49.443306,63.6307212 C49.443306,63.6307212 51.3946199,63.9094269 53.9947914,61.3092554 C53.9947914,61.3092554 49.7146511,64.9167096 39.3129669,53.7123431 C39.3129669,53.7123431 39.2187758,48.571384 41.6500273,44.9502066 L38.2857232,41.5859025 L22.1713216,25.4716257 L18.8070175,22.1073216 C15.1859649,24.5384483 10.0448811,24.4443821 10.0448811,24.4443821 Z" id="Path" fill="#CF1312"></path>
                <g id="Group" transform="translate(0.249513, 2.619883)">
                    <path d="M60.2482027,3.68954386 L57.634807,1.07614815 C56.6241559,0.065497076 55.0867836,-0.199610136 53.7959298,0.414066277 L46.286347,3.98459259 C45.2040858,4.49921248 44.4755088,5.54866277 44.3715867,6.74245614 L43.9832203,11.2077349 C43.9143548,11.9994386 43.5685302,12.741614 43.0066277,13.3035166 L20.6855984,35.6245458 L25.6998051,40.6387524 L48.0208343,18.3177232 C48.5827368,17.7558207 49.3249123,17.4099961 50.116616,17.3411306 L54.5818947,16.9527641 C55.7756881,16.8489669 56.8252632,16.1202651 57.3397583,15.0380039 L60.9102846,7.5282963 C61.523961,6.23756725 61.2588538,4.70019493 60.2482027,3.68954386 Z" id="Path" fill="#FEF300"></path>
                    <path d="M44.8538947,15.1509084 L22.5329903,37.4719376 L20.6849747,35.623922 L43.0058791,13.3030175 C43.5679064,12.7409903 43.9143548,11.9996881 43.982846,11.2073606 L44.3713372,6.74270565 C44.4755088,5.54903704 45.203961,4.49896296 46.2860975,3.98534113 L53.7960546,0.414565302 C55.0865341,-0.199610136 56.6237817,0.0653723197 57.6346823,1.0762729 L58.1958363,1.6374269 C57.6200858,1.06167641 56.4693333,1.18318908 55.3241949,1.94270565 L48.66046,6.35982846 C47.7008343,6.99596101 46.9028928,7.97667057 46.5646784,8.9362963 C46.5648031,8.93604678 45.4160468,14.5888811 44.8538947,15.1509084 Z" id="Path" fill="#DCD302"></path>
                    <path d="M15.4802651,58.9110643 C12.0794074,62.1053255 6.77302144,62.0176218 3.43516569,58.756616 C3.14361014,58.4705497 2.85392593,58.1808655 2.56785965,57.8893099 C-0.693146199,54.5514542 -0.780849903,49.2450682 2.41341131,45.8442105 C5.8279922,42.2121793 9.3814269,38.7207485 13.0784561,35.3711657 C14.1468694,34.4014347 15.2281326,33.4426823 16.3212476,32.497653 C21.1889903,35.9671267 25.3575984,40.1356101 28.8269474,45.0033528 C27.8819181,46.0964678 26.9231657,47.1776062 25.9534347,48.2460195 C22.6036023,51.942924 19.1122963,55.4964834 15.4802651,58.9110643 L15.4802651,58.9110643 Z" id="Path" fill="#2858B6"></path>
                    <path d="M2.87762963,58.1990799 C2.91879922,58.2419961 2.95897076,58.284039 3.00014035,58.3252086 C2.85479922,58.1798674 2.71132943,58.0345263 2.56785965,57.8891852 C-0.693146199,54.5513294 -0.780849903,49.2449435 2.41341131,45.8440858 C6.81506433,41.1609825 11.4506355,36.7117973 16.3211228,32.4975283 C18.7541209,34.2322651 21.0143314,36.1415361 23.0990097,38.2262144 C22.5057934,37.6329981 21.7371696,37.2154386 20.795883,36.9722885 C16.1603119,41.4214737 11.5913606,45.9372788 7.089154,50.5199532 C3.82091228,53.8468304 1.97838596,57.2229864 2.87762963,58.1990799 L2.87762963,58.1990799 Z" id="Path" fill="#1E4CA6"></path>
                    <path d="M25.9533099,48.2460195 C25.9340975,48.2305497 25.9167563,48.2130838 25.8994152,48.1957427 L13.1286082,35.4249357 C13.1112671,35.4075945 13.0939259,35.3902534 13.0783314,35.3710409 C14.1467446,34.4013099 15.2280078,33.4425575 16.3211228,32.4975283 C21.1888655,35.9670019 25.3574737,40.1354854 28.8268226,45.0032281 C27.8817934,46.0963431 26.9230409,47.1776062 25.9533099,48.2460195 L25.9533099,48.2460195 Z" id="Path" fill="#868491"></path>
                    <path d="M31.3974269,42.6974815 L18.6268694,29.9267992 C17.6145965,28.9145263 15.9734269,28.9145263 14.961154,29.9267992 C13.9488811,30.9390721 13.9488811,32.5802417 14.961154,33.5925146 L27.7317115,46.3631969 C28.7439844,47.3754698 30.385154,47.3754698 31.3974269,46.3631969 C32.4096998,45.350924 32.4096998,43.7097544 31.3974269,42.6974815 Z" id="Path" fill="#B4B6BC"></path>
                    <path d="M19.122152,36.6791111 C19.1212788,37.3435634 19.3744094,38.0061442 19.8806706,38.5125302 L14.9607797,33.5926394 C14.4553918,33.0872515 14.2012632,32.4236725 14.2022583,31.7592203 C14.2013879,31.0966394 14.4553918,30.4330604 14.9617778,29.9266745 C15.9735517,28.9149006 17.6149708,28.9149006 18.6267446,29.9266745 L23.5466355,34.8465653 C22.5348616,33.8347914 20.8934425,33.8347914 19.8816686,34.8465653 C19.3752827,35.3529513 19.122152,36.0174035 19.122152,36.6791111 Z" id="Path" fill="#868491"></path>
                </g>
            </g>
        </g>
    </g>
</svg>