<?xml version="1.0" encoding="UTF-8"?>
<svg width="58px" height="65px" viewBox="0 0 58 65" version="1.1" xmlns="http://www.w3.org/2000/svg" xmlns:xlink="http://www.w3.org/1999/xlink">
    <title>home-quanlykhachhang</title>
    <g id="GIS---Mạng-lưới-điện" stroke="none" stroke-width="1" fill="none" fill-rule="evenodd">
        <g id="01.-Home" transform="translate(-399.000000, -484.000000)" fill-rule="nonzero">
            <g id="home-quanlykhachhang" transform="translate(399.000000, 484.000000)">
                <polygon id="Path" fill="#E6AF78" points="38.68075 45.242375 38.68075 37.51875 18.81975 37.51875 18.81975 45.242375 28.75025 54.0695"></polygon>
                <path d="M54.03575,48.855375 L40.382125,45.64275 C40.175875,45.59425 39.98625,45.511875 39.80875,45.412 L28.750125,51.862875 L18.12275,45.1 C17.847625,45.359 17.506125,45.5515 17.11825,45.642875 L3.464625,48.8555 C1.470875,49.324625 0.061875,51.103625 0.061875,53.15175 L0.061875,61.7935 C0.061875,63.012375 1.049875,64.00025 2.268625,64.00025 L55.231375,64.00025 C56.45025,64.00025 57.438125,63.01225 57.438125,61.7935 L57.438125,53.15175 C57.438125,51.1035 56.029375,49.324375 54.03575,48.855375 Z" id="Path" fill="#2858B6"></path>
                <path d="M18.81975,37.51875 L18.81975,45.667875 C31.3295,50.175 38.68075,38.89475 38.68075,38.89475 L38.68075,37.518625 L18.81975,37.518625 L18.81975,37.51875 Z" id="Path" fill="#D29B6E"></path>
                <path d="M14.406125,12.140875 L15.367625,33.294375 C15.457375,35.2705 16.426375,37.103125 18.008875,38.29 L22.571125,41.71175 C23.717125,42.571125 25.110875,43.035875 26.543375,43.035875 L30.957,43.035875 C32.3895,43.035875 33.78325,42.57125 34.92925,41.71175 L39.4915,38.29 C41.074,37.103 42.043,35.270625 42.13275,33.294375 L43.09425,12.140875 C43.09425,12.140875 14.406125,12.140875 14.406125,12.140875 Z" id="Path" fill="#F0C087"></path>
                <path d="M25.440125,16.554375 C29.85375,16.554375 36.474,15.451 38.04425,12.14075 L14.406125,12.14075 L15.367625,33.29425 C15.457375,35.270375 16.426375,37.102875 18.009,38.289875 L22.57125,41.711625 C23.71725,42.571 25.111,43.03575 26.5435,43.03575 L28.75025,43.03575 C26.5435,43.03575 22.129875,38.622125 22.129875,33.10525 C22.129875,30.407 22.129875,23.17475 22.129875,19.8645 C22.129875,18.761125 23.23325,16.554375 25.440125,16.554375 Z" id="Path" fill="#E6AF78"></path>
                <g id="Group" transform="translate(0.000000, 50.375000)" fill="#1E4CA6">
                    <path d="M8.1625,6.46425 L1.012625,0.0415 C0.4135,0.800125 0.06225,1.75475 0.06225,2.77675 L0.06225,11.4185 C0.06225,12.637375 1.05025,13.62525 2.269,13.62525 L9.99275,13.62525 L9.99275,10.5685 C9.992625,9.002625 9.32725,7.5105 8.1625,6.46425 Z" id="Path"></path>
                    <path d="M49.338125,6.46425 L56.488,0.0415 C57.087125,0.800125 57.438375,1.75475 57.438375,2.77675 L57.438375,11.4185 C57.438375,12.637375 56.450375,13.62525 55.231625,13.62525 L47.507875,13.62525 L47.507875,10.5685 C47.507875,9.002625 48.17325,7.5105 49.338125,6.46425 Z" id="Path"></path>
                </g>
                <g id="Group" transform="translate(15.500000, 42.500000)" fill="#1E4CA6">
                    <path d="M3.164875,0.285875 L13.250375,9.36275 C13.250375,9.36275 10.425875,10.788625 6.940375,13.6625 C6.221375,14.25525 5.13375,14.015125 4.748125,13.16675 L0.00975,2.7425 L1.50875,0.494125 C1.88175,-0.065875 2.66475,-0.164125 3.164875,0.285875 Z" id="Path"></path>
                    <path d="M23.33575,0.285875 L13.25025,9.36275 C13.25025,9.36275 16.07475,10.788625 19.56025,13.6625 C20.27925,14.25525 21.366875,14.015125 21.7525,13.16675 L26.490875,2.7425 L24.991875,0.494125 C24.61875,-0.065875 23.83575,-0.164125 23.33575,0.285875 Z" id="Path"></path>
                </g>
                <path d="M35.4395,4.830875 L36.473875,12.140875 C41.19575,13.08525 41.87625,20.4955 41.97425,22.612 C41.992,22.996125 42.114625,23.367 42.323,23.690125 L44.124625,26.484875 C44.124625,26.484875 43.508,21.864375 46.331375,18.761125 C46.3315,18.761125 47.301,0.41725 35.4395,4.830875 Z" id="Path" fill="#1E1D1D"></path>
                <path d="M45.231375,26.014375 L43.98575,30.997 C43.838125,31.587625 43.307625,32.00175 42.69875,32.00175 L42.69875,32.00175 C42.029625,32.00175 41.465375,31.503625 41.382375,30.83975 L40.74525,25.7435 C40.57475,24.379375 41.63825,23.174625 43.013,23.174625 L43.014,23.174625 C44.501,23.17475 45.592,24.571875 45.231375,26.014375 Z" id="Path" fill="#F0C087"></path>
                <path d="M15.463625,2.853875 L17.095625,3.96875 C9.71675,9.41675 11.095875,18.761125 11.095875,18.761125 C13.302625,20.967875 13.302625,26.484875 13.302625,26.484875 L15.509375,24.278125 C15.509375,24.278125 14.65775,17.903375 18.8195,15.451 C22.681375,13.17525 26.0605,14.347625 29.508625,14.347625 C38.7495,14.347625 41.335625,10.865 40.887375,6.623875 C40.655375,4.429375 37.300125,-0.141875 28.750125,0.0035 C25.299625,0.062125 18.81975,1.106875 15.463625,2.853875 Z" id="Path" fill="#302F2F"></path>
                <path d="M14.819875,13.382125 C14.819875,13.382125 13.6475,8.761625 17.095625,3.968875 C9.71675,9.416875 11.095875,18.76125 11.095875,18.76125 C13.302625,20.968 13.302625,26.485 13.302625,26.485 L15.509375,24.27825 C15.509375,24.27825 14.65775,17.9035 18.8195,15.451125 C22.681375,13.175375 26.0605,14.34775 29.508625,14.34775 C31.0115,14.34775 32.321125,14.247125 33.487625,14.074625 C26.371125,14.313125 22.176,8.9225 14.819875,13.382125 Z" id="Path" fill="#1E1D1D"></path>
                <path d="M12.269125,26.014375 L13.51475,30.997 C13.662375,31.587625 14.192875,32.00175 14.80175,32.00175 L14.80175,32.00175 C15.470875,32.00175 16.035125,31.503625 16.118125,30.83975 L16.75525,25.7435 C16.92575,24.379375 15.86225,23.174625 14.4875,23.174625 L14.4865,23.174625 C12.9995,23.17475 11.9085,24.571875 12.269125,26.014375 Z" id="Path" fill="#E6AF78"></path>
                <path d="M43.094375,61.79325 L35.370625,61.79325 C34.76125,61.79325 34.26725,62.28725 34.26725,62.896625 L34.26725,64 L44.19775,64 L44.19775,62.896625 C44.19775,62.287375 43.703625,61.79325 43.094375,61.79325 Z" id="Path" fill="#FAD207"></path>
            </g>
        </g>
    </g>
</svg>