<?xml version="1.0" encoding="UTF-8" standalone="no"?><!-- Generator: Gravit.io -->
<svg xmlns="http://www.w3.org/2000/svg" xmlns:xlink="http://www.w3.org/1999/xlink"
    style="isolation:isolate" viewBox="791 629 36 31.477" width="36pt" height="31.477pt">
    <defs>
        <clipPath id="_clipPath_LO91BRtgODAHBGhOO4VTnLo7PIQp20DK">
            <rect x="791" y="629" width="36" height="31.477" />
        </clipPath>
    </defs>
    <g clip-path="url(#_clipPath_LO91BRtgODAHBGhOO4VTnLo7PIQp20DK)">
        <clipPath id="_clipPath_tiwDmtqr2wVXiGKONfl4u7KRZwAV9sj9">
            <rect x="791" y="629" width="36" height="31.477" transform="matrix(1,0,0,1,0,0)"
                fill="rgb(255,255,255)" />
        </clipPath>
        <g clip-path="url(#_clipPath_tiwDmtqr2wVXiGKONfl4u7KRZwAV9sj9)">
            <g>
                <clipPath id="_clipPath_CXxghz4sXdXgdnvVGvgR9SN24LITNg1L">
                    <rect x="793.262" y="626.738" width="31.477" height="36"
                        transform="matrix(0,1,-1,0,1453.739,-164.262)" fill="rgb(255,255,255)" />
                </clipPath>
                <g clip-path="url(#_clipPath_CXxghz4sXdXgdnvVGvgR9SN24LITNg1L)">
                    <g>
                        <g>
                            <clipPath id="_clipPath_PHVtns8mIuTKdMFXjpxkZ7H8iKxoTTRX">
                                <rect x="790.999" y="629" width="36" height="31.477"
                                    transform="matrix(1,0,0,1,0,0)" fill="rgb(255,255,255)" />
                            </clipPath>
                            <g clip-path="url(#_clipPath_PHVtns8mIuTKdMFXjpxkZ7H8iKxoTTRX)">
                                <g>
                                    <g>
                                        <g>
                                            <path
                                                d=" M 808.267 653.474 C 806.752 655.137 806.823 657.702 808.428 659.278 C 810.033 660.855 812.597 660.88 814.233 659.335 L 825.801 647.574 C 827.398 645.946 827.398 643.34 825.801 641.713 L 814.464 630.183 C 812.835 628.598 810.239 628.606 808.618 630.199 C 806.997 631.791 806.945 634.387 808.502 636.044 L 812.92 640.545 L 795.147 640.63 C 792.837 640.647 790.981 642.536 790.999 644.845 C 791.018 647.154 792.905 649.01 795.214 648.991 L 812.75 648.91 L 808.267 653.474 Z "
                                                fill="#FF5100" />
                                        </g>
                                    </g>
                                </g>
                            </g>
                        </g>
                    </g>
                </g>
            </g>
        </g>
    </g>
</svg>