<?xml version="1.0" encoding="UTF-8" standalone="no"?><!-- Generator: Gravit.io --><svg xmlns="http://www.w3.org/2000/svg" xmlns:xlink="http://www.w3.org/1999/xlink" style="isolation:isolate" viewBox="1106.739 158.262 36 31.477" width="36pt" height="31.477pt"><defs><clipPath id="_clipPath_YoiirMlC2LbYcBVLaLDcja5VL2Y6vGhI"><rect x="1106.739" y="158.262" width="36" height="31.477"/></clipPath></defs><g clip-path="url(#_clipPath_YoiirMlC2LbYcBVLaLDcja5VL2Y6vGhI)"><clipPath id="_clipPath_L4HwHBLWraSuownUhG0Pv4TmncFWuJRW"><rect x="1109" y="156" width="31.477" height="36" transform="matrix(0,1,-1,0,1298.739,-950.738)" fill="rgb(255,255,255)"/></clipPath><g clip-path="url(#_clipPath_L4HwHBLWraSuownUhG0Pv4TmncFWuJRW)"><g><clipPath id="_clipPath_iEhKUBAV7HGV0oCFM0ugEM6v1jzSEIvz"><rect x="1106.738" y="158.262" width="36" height="31.477" transform="matrix(1,0,0,1,0,0)" fill="rgb(255,255,255)"/></clipPath><g clip-path="url(#_clipPath_iEhKUBAV7HGV0oCFM0ugEM6v1jzSEIvz)"><g><g><path d=" M 1124.006 182.736 C 1122.491 184.399 1122.562 186.964 1124.167 188.54 C 1125.772 190.117 1128.336 190.142 1129.972 188.597 L 1141.54 176.836 C 1143.137 175.208 1143.137 172.602 1141.54 170.975 L 1130.203 159.445 C 1128.574 157.86 1125.978 157.868 1124.357 159.461 C 1122.736 161.053 1122.684 163.649 1124.241 165.306 L 1128.659 169.807 L 1110.886 169.892 C 1108.576 169.909 1106.72 171.798 1106.738 174.107 C 1106.757 176.416 1108.644 178.272 1110.953 178.253 L 1128.489 178.172 L 1124.006 182.736 Z " fill="rgb(255,255,255)"/></g></g></g></g></g></g></svg>