<?xml version="1.0" encoding="UTF-8" standalone="no"?><!-- Generator: Gravit.io --><svg xmlns="http://www.w3.org/2000/svg" xmlns:xlink="http://www.w3.org/1999/xlink" style="isolation:isolate" viewBox="919.145 476 7.71 6" width="7.71pt" height="6pt"><defs><clipPath id="_clipPath_lemE9XeYMR09sHkmW6WbGF1UuDTpocEL"><rect x="919.145" y="476" width="7.71" height="6"/></clipPath></defs><g clip-path="url(#_clipPath_lemE9XeYMR09sHkmW6WbGF1UuDTpocEL)"><path d=" M 924.461 476.206 L 926.658 478.505 C 926.789 478.632 926.855 478.805 926.855 478.996 C 926.855 479.186 926.789 479.357 926.658 479.486 L 924.461 481.795 C 924.2 482.069 923.775 482.069 923.515 481.795 C 923.254 481.521 923.254 481.079 923.515 480.805 L 924.57 479.701 L 919.818 479.701 C 919.445 479.701 919.145 479.388 919.145 479 C 919.145 478.612 919.445 478.299 919.815 478.299 L 924.568 478.299 L 923.513 477.196 C 923.252 476.921 923.252 476.479 923.513 476.206 C 923.775 475.931 924.198 475.931 924.461 476.206 Z " fill="rgb(0,0,0)"/></g></svg>