<svg id="Layer_1" data-name="Layer 1" xmlns="http://www.w3.org/2000/svg" viewBox="0 0 366.5 366.5"><defs><style>.cls-1{fill:#fff;}.cls-2{fill:#4db079;}.cls-3,.cls-7{fill:none;}.cls-3{stroke:#4db079;stroke-miterlimit:10;stroke-width:2px;}.cls-4{fill:#db5070;}.cls-5{fill:#52afa6;}.cls-6{fill:#aa1726;}.cls-7{stroke:#241726;stroke-linecap:round;stroke-linejoin:round;stroke-width:1.07px;}.cls-8{fill:#fbfcff;}.cls-9{fill:#fdffff;}.cls-10{fill:#241726;}</style></defs><circle class="cls-1" cx="183.2" cy="183.2" r="175"/><path class="cls-2" d="M107.8,286.6C6.7,286.6-75.5,204.4-75.5,103.3S6.7-79.9,107.8-79.9,291,2.3,291,103.3,208.8,286.6,107.8,286.6Zm0-351.9c-93,0-168.7,75.7-168.7,168.6S14.8,272,107.8,272s168.6-75.7,168.6-168.7S200.7-65.3,107.8-65.3Z" transform="translate(75.5 79.9)"/><circle class="cls-3" cx="183.2" cy="183.2" r="162"/><path class="cls-4" d="M222.9,84.3c-.3-12.5-5-32.7-8.3-35.7S213,57.1,208,63l-.3.3a149,149,0,0,0-8.6-16.9c-1.2-9.2-3.3-17.2-4.3-9.2a16,16,0,0,1-.5,2.1l-3.5-4.7a70.7,70.7,0,0,1-.1-37.9c3.8-13-19.3,10.2-21.3,20.7l.4.3-1.3-.2C164,3.9,150.2-7.8,151,1.9c.8,6.9-5.2,22.5-8.7,31-2.7,1.9-5.6,4.1-8.5,6.3-4.5-3.5-7.8-4.5-6.7-1,.5,1.7,1,3.4,1.4,5.2a143.6,143.6,0,0,0-19.2,19,18.3,18.3,0,0,1-1-10.1c1.7-12.9-24.7,30.3-16.4,50.3a48.7,48.7,0,0,0,4,22c25.5,59.6,102.1,53.4,117.2,2.8a92,92,0,0,0,3.1-15.8C219.1,106.2,223.2,94.1,222.9,84.3Z" transform="translate(75.5 79.9)"/><path class="cls-5" d="M148.1,19.8s6.4.3,7.5-5.1,2.4,3.7,6.3,3.3,3.4-7.6,3.4-7.6-3-7.1-8-10.7c-7.8-5.5-6.3,1.4-6.8,7.7A87.6,87.6,0,0,1,148.1,19.8Z" transform="translate(75.5 79.9)"/><path class="cls-5" d="M175.2,7s0,7.8,1.8,6.2,2.9-5,3.7-2.9,7.5,6.4,7.5,6.4,2.4-20.8,3.2-23.8S177.7-1.8,175.2,7Z" transform="translate(75.5 79.9)"/><path class="cls-5" d="M183.8,51.9s-.2,4.3.9,6.2,7.4-.9,8.6,2.5,7.2-1.3,7.2-1.3-.7-19-3.9-25.1c0,0-.3,1.7-3.7,7.2A50.5,50.5,0,0,1,183.8,51.9Z" transform="translate(75.5 79.9)"/><path class="cls-5" d="M205.2,66.3s.6,5.9,2.6,6.9,6.3-2.9,7-1.6,7.4,3.9,7.4,3.9-1.5-18.5-8.6-27.7c0,0-2,2.6-2.2,4S208.2,64.6,205.2,66.3Z" transform="translate(75.5 79.9)"/><path class="cls-5" d="M163.7,95.8s3.5.4,4.3,2.3.2,8.4,4.6,8.1,9.3,2,7.8,2,8.2-7.2,2.4-26c0,0-2.2-.4-3.7,3.1S164,94.1,163.7,95.8Z" transform="translate(75.5 79.9)"/><path class="cls-5" d="M129.9,62.5c1.8-2,3.7-4,5.7-5.9s2.1,1,4.5,2.3,5.5-4.5,5.5-4.5-8.1-16-18.6-19a3,3,0,0,0-.1,3.7C128.2,41.5,131,59.9,129.9,62.5Z" transform="translate(75.5 79.9)"/><path class="cls-5" d="M95.4,71.6s.1,5.6,3.7,6.7,7.6-4.9,9.2-2.9,5.7-4.2,5.7-4.2-5.2-6.7-5.4-14.6.1-7.3-1.9-6.7S95.5,69,95.4,71.6Z" transform="translate(75.5 79.9)"/><path class="cls-5" d="M183.9,128.6s0,4.6,2.4,5.9,5.6-1.8,6.1,0,5.6,4,7.2,3.3,7.5-18.2,1.1-26.5a28.2,28.2,0,0,1-2.1,3.8C196.8,118.2,183.9,128.6,183.9,128.6Z" transform="translate(75.5 79.9)"/><path class="cls-5" d="M128.7,120.4s-.6,4-1.9,4.3-7-3-7.2-.4-9.7,5.2-10.2,2.2,2.8-15.5,10.1-21.7c0,0,1.7,0,2,3S126.3,120.6,128.7,120.4Z" transform="translate(75.5 79.9)"/><path class="cls-6" d="M170.9,163c-.3,0-.5,0-.6-.2a1.1,1.1,0,0,1-.1-.8h.6c1.6.2,21.6-6.4,26.8-16.3s6.5-31.1,3.8-32.5c-.3-.2-1,.3-2.3,2.3-5.8,9.6-12.6,12.9-21,17.1l-6.6,3.4c-11.3,6.1-13.6,21-13.6,21.1a.6.6,0,0,1-.6.5c-.3-.1-.4-.4-.5-.6s2.3-15.6,14.1-22l6.7-3.4c8.4-4.1,14.9-7.3,20.6-16.6.5-1,2.2-3.6,3.8-2.7,3.7,2.1.7,25.8-3.5,33.9s-22.9,16.2-26.9,16.9Z" transform="translate(75.5 79.9)"/><path class="cls-6" d="M193.1,39.5a68.9,68.9,0,0,1-1.9-42.6c.6-2.1.6-3.5-.1-4.2a2.2,2.2,0,0,0-2.1-.2c-5.1,1.6-18.6,16.6-20.1,24.8C166.3,9.1,160.3,1.8,156.3-1c-2-1.2-3.6-1.7-4.7-1s-1.4,1.9-1.2,3.8c1,9.5-11,36.1-11.1,36.4a.6.6,0,0,0,.3.7h.2a.5.5,0,0,0,.5-.3c.5-1.1,12.1-27.1,11.2-36.9-.1-1.5.1-2.4.6-2.8s2.1,0,3.6,1.1c5.6,3.8,15.1,16.8,13.3,27.8a.5.5,0,0,0,.4.7,1,1,0,0,0,.7-.4,22.8,22.8,0,0,0-.6-9,7.5,7.5,0,0,0,.5-1.6c1.4-7.7,14.6-22.4,19.3-24,.3,0,.7-.3,1.1,0s.4.7-.2,3.1A70,70,0,0,0,192.1,40c.1.2.2.3.4.3h.2a.6.6,0,0,0,.4-.7Z" transform="translate(75.5 79.9)"/><path class="cls-6" d="M148.4,90.2a1,1,0,0,1-.6-.5c-.2-.4-.1-2.1.1-7.2s.5-11.4.4-17.4c-.4-12.6-13.5-25.8-19.1-28.1-.9-.5-1.5-.5-1.7-.4s-.1.6.1,1.4c2.9,9.1,4.6,23,0,32.4s-.5,18.2-.5,18.4a.4.4,0,0,1-.2.5.1.1,0,0,1-.1.1.6.6,0,0,1-.7-.2c-.2-.4-4.2-9.8.6-19.2s2.8-22.7,0-31.6c-.5-1.2-.4-2.1.2-2.5a3,3,0,0,1,2.8,0c5.8,2.6,19.3,16.2,19.6,29.2.1,6-.1,12.6-.3,17.4s-.3,6.4-.1,6.9-.1.5-.3.6Z" transform="translate(75.5 79.9)"/><path class="cls-6" d="M189.9,87.5a.5.5,0,0,1-.5-.5c-.3-2,1.5-5.6,3.9-9.8s5.8-11,6.1-16.2c.5-7.7-2-24.7-3.6-26.5a25.6,25.6,0,0,0-.5,2.7c-1.2,8.4-5.4,10.8-9.9,13.4a31.7,31.7,0,0,0-7.3,5.3c-6.4,7-6.1,13-6.1,13.1s-.2.5-.4.5-.5.1-.6-.1a.4.4,0,0,1-.1-.3c0-.3-.4-6.7,6.5-14a31.5,31.5,0,0,1,7.5-5.5c4.4-2.5,8.3-4.7,9.3-12.5.4-2.8.9-3.8,1.8-3.8,2.7.3,4.9,21.6,4.5,27.8s-3.5,11.3-6.3,16.5-4,7.5-3.7,9.3c0,.2-.2.6-.5.6Z" transform="translate(75.5 79.9)"/><path class="cls-6" d="M143.9,157.4h-.4a.5.5,0,0,1-.1-.7c0-.2,5.3-7.8-.9-20-3.1-5.7-7.8-9.8-12-13.4s-9.7-8.3-10.2-14.2c-.1-1.9-.5-2.8-1.2-2.8h0c-2.5,0-9.4,12.3-10,21.1s3.3,13.1,6.5,18a34.4,34.4,0,0,1,3.3,5.6c.2.2.1.5-.2.7h0a.6.6,0,0,1-.7-.2,39.8,39.8,0,0,0-3.4-5.6c-3.2-4.9-7-10.5-6.5-18.6s7.3-22.1,11-22.1h0c1.3,0,2.1,1.3,2.3,3.8.4,5.4,4.7,9.2,9.8,13.5s9.1,7.6,12.2,13.5c6.5,12.9,1.1,20.8.9,21.1S144.1,157.4,143.9,157.4Z" transform="translate(75.5 79.9)"/><path class="cls-6" d="M93.4,106.1l-.5-.3C83.2,91.5,98,60,104.9,51.6c1.3-1.7,2.4-2.4,3.2-2.1s.8,1.9.7,2.9c-1,7.3,1.3,11.1,3.6,14.9s3.7,6.1,3.7,11.1a93.5,93.5,0,0,1-2.4,21.1.5.5,0,0,1-.7.3.4.4,0,0,1-.4-.6h0a97,97,0,0,0,2.5-20.8c0-4.7-1.8-7.6-3.7-10.6a21.4,21.4,0,0,1-3.6-15.6c.2-1.5-.2-1.7-.2-1.7h0c-.3,0-1.9,1.1-5,6.2A93.9,93.9,0,0,0,92.5,81c-1.9,7.4-3.2,17.6,1.3,24.2a.5.5,0,0,1-.1.7h0Z" transform="translate(75.5 79.9)"/><path class="cls-6" d="M214,115.1l-.4-.2a.5.5,0,0,1-.1-.6l.3-.2c2-1.2,9-17.4,8.6-29.8s-5.3-32.6-8.1-35.3c-.3-.3-.5-.3-.5-.3a26,26,0,0,0-1.2,3.7c-.6,3.4-1.6,7.8-4.3,10.9-4.9,5.7-9,18.6-9.1,18.8a.6.6,0,0,1-.7.3.3.3,0,0,1-.3-.5h0c.1-.6,4.2-13.4,9.4-19.3,2.4-2.8,3.3-7.2,3.9-10.3s.9-4.3,1.9-4.6a1.7,1.7,0,0,1,1.6.7c3.4,3,8.1,23.3,8.5,36s-6.6,29.3-9.3,30.7Z" transform="translate(75.5 79.9)"/><path class="cls-6" d="M162.2,131.5a.5.5,0,0,1-.5-.5c0-2.6,2.1-5,7.5-10.7,2.3-2.3,5.1-5.3,8.4-9.1,7.1-7.9,8.1-19.8,6.2-25.2-.5-1.3-1.2-2.1-1.7-2.2s-1.3.5-1.8,1.1c-3.7,4.7-10,7.4-16.8,10.2-3.3,1.3-6.6,2.8-9.8,4.4-9.6,4.9-9.4,15.8-9.4,15.9a1.1,1.1,0,0,1-.6.6.5.5,0,0,1-.5-.5c0-.1-.2-11.7,10.1-17,3.2-1.7,6.6-3.1,9.8-4.5,6.6-2.7,12.9-5.2,16.4-9.8.9-1.1,1.7-1.7,2.7-1.5s1.9,1.2,2.6,2.9c2,5.7.9,18.1-6.4,26.3l-8.3,9.2c-5.1,5.3-7.3,7.7-7.3,9.9A.6.6,0,0,1,162.2,131.5Z" transform="translate(75.5 79.9)"/><path class="cls-7" d="M91.2,100.4" transform="translate(75.5 79.9)"/><path class="cls-8" d="M143.5,83.8a.5.5,0,0,1-.5-.5,40.4,40.4,0,0,1,1-10.4,49.1,49.1,0,0,0,.5-12.1c-.1-.2.1-.5.4-.5s.6.1.6.4a39.2,39.2,0,0,1-.6,12.3,38.4,38.4,0,0,0-.8,10.2.7.7,0,0,1-.5.6Z" transform="translate(75.5 79.9)"/><path class="cls-8" d="M110.3,85.4h-.1c-.2,0-.4-.3-.4-.6s1.5-8.3-1.8-12.8-4.1-11.6-4.1-11.8a.8.8,0,0,1,.5-.7.6.6,0,0,1,.6.6c0,.1.5,6.7,3.8,11.2S111,84.7,110.9,85,110.7,85.4,110.3,85.4Z" transform="translate(75.5 79.9)"/><path class="cls-8" d="M162.9,19.6a.6.6,0,0,1-.6-.5c-.7-8.2-3.5-10.8-3.5-10.8a.6.6,0,0,1,0-.8.5.5,0,0,1,.7-.1c.1.1,3,2.8,3.9,11.6A.6.6,0,0,1,162.9,19.6Z" transform="translate(75.5 79.9)"/><path class="cls-5" d="M160.9,38.4s.8,3.5,2.8,3.2,3-3.2,4.5-.5,8.4,4.3,9.5,2.3,1-12.7-2.5-17.7l-1.8.7S164.7,36.6,160.9,38.4Z" transform="translate(75.5 79.9)"/><path class="cls-6" d="M156,67.8c-.2,0-.3-.1-.4-.3s-7.2-11.8-1.5-22.1c3-5.4,7.3-8.5,11-11.3s6.4-4.6,7.8-7.9c.1-.4.6-1.5,1.5-1.5s1.1.6,1.6,1.6c2.2,4.9,4.2,23.5.9,27.1a.5.5,0,1,1-.7-.6c2.5-2.9,1.4-18.6-.8-24.9-.6-1.9-1-2.1-1-2.1s-.3.1-.6.9c-1.5,3.5-4.7,5.9-8,8.3s-7.9,5.7-10.8,10.9c-5.3,9.8,1.4,20.9,1.4,21a.6.6,0,0,1-.1.8Z" transform="translate(75.5 79.9)"/><path class="cls-8" d="M154.4,104.5h-.2a.5.5,0,0,1-.3-.7c3.6-6.1,16.7-9.5,17.2-9.6a.7.7,0,0,1,.7.4.4.4,0,0,1-.2.5h-.2c-.2.1-13.3,3.3-16.5,9.1A.4.4,0,0,1,154.4,104.5Z" transform="translate(75.5 79.9)"/><path class="cls-8" d="M135.7,135.1l-.4-.3a29.8,29.8,0,0,0-8.5-8.1c-5.8-3.8-8.3-10.6-8.4-10.8a.6.6,0,0,1,.2-.7h.1c.2-.1.5.1.7.3s2.5,6.8,8,10.3a33.5,33.5,0,0,1,8.8,8.4.6.6,0,0,1-.2.7Z" transform="translate(75.5 79.9)"/><path class="cls-8" d="M191,73.2h-.3a.6.6,0,0,1-.1-.8s2.6-3.3,4.7-10.5a23.3,23.3,0,0,0-.2-13.6.5.5,0,0,1,.9-.5.1.1,0,0,0,.1.1,24,24,0,0,1,.3,14.3,37.7,37.7,0,0,1-5,11Z" transform="translate(75.5 79.9)"/><path class="cls-8" d="M157.4,58.4a.5.5,0,0,1-.4-.6c-.2-.2-.4-4.6,2.9-11.1s9.8-13.6,10.2-13.9a.4.4,0,0,1,.7,0,.5.5,0,0,1,0,.7c-.1.1-6.9,7.4-10,13.7s-2.9,10.5-2.9,10.5a1.3,1.3,0,0,1-.4.7Z" transform="translate(75.5 79.9)"/><path class="cls-8" d="M186.1,27.6a.6.6,0,0,1-.6-.5s-.2-2.5-1.5-12.2,1.2-13.4,1.4-13.5a.6.6,0,0,1,.8-.1.6.6,0,0,1,0,.8s-2.5,3.3-1.1,12.6,1.5,12.2,1.5,12.3A.6.6,0,0,1,186.1,27.6Z" transform="translate(75.5 79.9)"/><path class="cls-8" d="M215.8,95.8h-.1a.4.4,0,0,1-.4-.4c0-.1.1-.1.1-.2a36.1,36.1,0,0,0,1.3-16.3c-1.5-9.2-1.9-13.1-1.9-13.1a.4.4,0,0,1,.1-.6h.3a.7.7,0,0,1,.6.4c0,.2.5,4,2,13.2a38.7,38.7,0,0,1-1.4,16.9C216.2,95.8,216,95.9,215.8,95.8Z" transform="translate(75.5 79.9)"/><path class="cls-8" d="M175,138l-.5-.5c-.1-.2.1-.5.3-.6a42.4,42.4,0,0,0,13.3-7c6.1-4.9,9.3-7.5,9.3-7.6s.6-.1.7.1a.5.5,0,0,1,0,.7l-9.2,7.7a47.8,47.8,0,0,1-13.8,7.2Z" transform="translate(75.5 79.9)"/><path class="cls-8" d="M166.8,145.7h-.1a.3.3,0,0,1-.3-.5V145c.5-1.7,4.4-4.8,4.8-5.2a.6.6,0,0,1,.8.1.5.5,0,0,1-.1.7h0c-1.1,1-4.1,3.6-4.5,4.8A.6.6,0,0,1,166.8,145.7Z" transform="translate(75.5 79.9)"/><path class="cls-4" d="M124.1,135.4a82.9,82.9,0,0,0-8.2-15.6,47.1,47.1,0,0,0-4.4-11.5c-6.2-11-19.9-26.5-24.1-27.7s.9,5.7,1.1,12.2c-3-2-6.2-3.9-9.3-5.7a26.3,26.3,0,0,0-7.1-8.8C61.9,70.8,61.2,61.6,58,67.3c-1.3,2.3-1.8,6.2-2,10l-6.3-1.8A70.5,70.5,0,0,1,26.5,45.6c-5-12.7-9.1,19.8-4.2,29.3h.5l-1.2.6c-11.8-8-30-8.8-23.2-1.6,4.6,5,9.4,21,11.9,29.8-1,3-1.9,6.2-2.8,9.4-5.6-4.1-11.5-6.7-11-4.9s2.5,7.5,5.1,18.5q.8,3,1.8,6a141.4,141.4,0,0,0-1.3,14.6,17.6,17.6,0,0,1-6.9-7.4c-6.6-11.3-1.1,39.1,17.6,49.8a51.1,51.1,0,0,0,16.7,15C85.9,236.4,143,184.7,124.1,135.4Z" transform="translate(75.5 79.9)"/><path class="cls-5" d="M6.9,89.7s5.2-3.5,2.8-8.4,4.2,1.3,7-1.4-1.9-8-1.9-8S9.8,66.8.6,69.4c-6.5,1.8-2.7,3.9.6,9.1A84.3,84.3,0,0,1,6.9,89.7Z" transform="translate(75.5 79.9)"/><path class="cls-5" d="M20.5,63.2s4.9,6.2,5.2,3.7S25,61.3,27,62.4s9.7.5,9.7.5S26,45,24.8,42,17.2,54.7,20.5,63.2Z" transform="translate(75.5 79.9)"/><path class="cls-5" d="M87.4,100.7s3.4,4.9,5.4,4.8,4.3-5.5,5.5-4.6,8.4,0,8.4,0-10-15.7-20.5-20.5c0,0-.6,3.2-.1,4.5S89.2,97.7,87.4,100.7Z" transform="translate(75.5 79.9)"/><path class="cls-5" d="M-3.3,163.1s3.5,4.3,7.1,3.1,3-8.6,5.4-8,2.1-6.8,2.1-6.8-8.2-2.2-13.2-8.3-4.3-5.8-5.7-4.2S-4.7,160.8-3.3,163.1Z" transform="translate(75.5 79.9)"/><path class="cls-6" d="M54.6,78A69.2,69.2,0,0,1,27,45.4c-.8-2.1-1.7-3.2-2.6-3.3a2.2,2.2,0,0,0-1.8,1.2c-3,4.3-4.6,24.2-.9,31.7-7-4.7-16-6.8-20.8-6.6-2.4.2-3.9.9-4.4,2s.1,2.3,1.5,3.9c6.4,6.8,13.3,35.2,13.3,35.5s.3.4.5.3h.1a.3.3,0,0,0,.5-.3v-.3c-.4-1.2-7-28.9-13.7-36-1-1.1-1.5-2-1.2-2.7S-1,69.6,1,69.5c6.7-.3,22.1,4.1,27.5,14,.1.3.4.3.7.2a.5.5,0,0,0,.2-.7,20.6,20.6,0,0,0-6.2-6.9,5.7,5.7,0,0,0-.4-1.4c-3.7-7-2.2-26.7.6-30.9.2-.2.6-.6.9-.6s.8.3,1.7,2.6A70.9,70.9,0,0,0,54,79h.3a.5.5,0,0,0,.5-.3A1.4,1.4,0,0,0,54.6,78Z" transform="translate(75.5 79.9)"/><path class="cls-6" d="M15.8,191.7h-.1C-.8,186.3-8.4,152.2-8,141.4c0-2.3.5-3.4,1.3-3.7s1.8,1,2.3,2c3.8,6.3,7.8,7.9,11.9,9.5s6.8,2.6,9.9,6.6a87.1,87.1,0,0,1,10.7,18.1c.3.4,0,.6-.2.8a.6.6,0,0,1-.7-.3,96.1,96.1,0,0,0-10.7-18c-2.9-3.7-6.1-4.9-9.4-6.2s-8.5-3.3-12.4-10c-.7-1.3-1.1-1.4-1.1-1.4s-.9,2.1-.3,8.1A97.6,97.6,0,0,0,.2,172.3c3,7,8.3,15.9,15.8,18.3.2.1.4.4.3.6A.5.5,0,0,1,15.8,191.7Z" transform="translate(75.5 79.9)"/><path class="cls-7" d="M11,188.3" transform="translate(75.5 79.9)"/><path class="cls-8" d="M13.5,160.5a.5.5,0,0,1-.5-.3c0-.1-2.9-5.7-7.5-6.6s-8.8-4.7-9-4.8a.4.4,0,0,1,.1-.7h0c.1-.3.5-.3.7,0a18.7,18.7,0,0,0,8.3,4.5c5.1.9,8.3,6.8,8.4,7.1a.5.5,0,0,1,0,.6h-.5Z" transform="translate(75.5 79.9)"/><path class="cls-8" d="M18,80.8l-.3-.2c-5.7-6.1-9.4-6.5-9.4-6.5a.6.6,0,0,1-.6-.5.8.8,0,0,1,.7-.5c.1,0,4.2.3,10.1,6.7a.6.6,0,0,1,0,.8Z" transform="translate(75.5 79.9)"/><path class="cls-8" d="M41.4,73l-.5-.3s-1.6-1.8-8.6-8.7-7.2-11.3-7.2-11.5.3-.6.6-.5a.5.5,0,0,1,.5.5s.1,4.1,6.9,10.8,8.6,8.7,8.7,8.8a.8.8,0,0,1-.1.8Z" transform="translate(75.5 79.9)"/><path class="cls-8" d="M110.3,121.8c-.2,0-.5-.2-.5-.4a33.6,33.6,0,0,0-6.5-15c-5.5-7.4-7.8-10.8-7.8-10.8a.5.5,0,0,1,.1-.7.5.5,0,0,1,.8.1c0,.1,2.2,3.3,7.8,10.7a34.6,34.6,0,0,1,6.7,15.6.5.5,0,0,1-.5.5Z" transform="translate(75.5 79.9)"/><path class="cls-5" d="M1.8,124.5s.9-5.3,2.3-5.3,4.2-3.1,5-5-10.4-9.1-12.3-7.7,1.9,7.4,1.9,10.2S1.6,126.1,1.8,124.5Z" transform="translate(75.5 79.9)"/><path class="cls-6" d="M9.6,143.9l-.5-.2c-.2-.3-5.3-5.9-8-16.9-1.6-6.7-2.9-10.9-3.9-13.9a33.1,33.1,0,0,1-1.3-4.6,1.1,1.1,0,0,1,.7-1.2h.1c3-.7,18.7,9,21.1,17.6,0,.4-.1.7-.4.7a.5.5,0,0,1-.6-.2h0c-2-6.7-12.1-13.8-17-16-1.7-.9-2.5-1-2.8-.9s.6,2.6,1.3,4.4,2.2,7.2,3.8,14c2.6,10.7,7.8,16.3,7.8,16.3a.6.6,0,0,1,0,.8Z" transform="translate(75.5 79.9)"/><path class="cls-5" d="M55.9,78.8s1.5,4.8,5.2,4.4,3.3-4.3,5.4-3.5,5.4-.2,5.7-.9-6.2-5.3-7.6-7.5-2.7-6.1-4.8-5.6S55.4,73,55.9,78.8Z" transform="translate(75.5 79.9)"/><path class="cls-6" d="M82.6,99.9h-.1a.4.4,0,0,1-.4-.4v-.2C83,97,79,84,71.8,78.8A42.7,42.7,0,0,1,62.6,69c-1.1-1.6-2.1-3-2.8-2.9s-.6.2-1.4,1.4C55.3,73,56.8,87.8,56.8,88a.5.5,0,0,1-.5.5c-.2,0-.5-.2-.5-.4s-1.5-15.4,1.8-21c.7-1.4,1.4-2.1,2.2-2.1s2.2,1.2,3.7,3.3a37,37,0,0,0,8.9,9.6c7.5,5.5,11.9,18.9,10.8,21.7A.7.7,0,0,1,82.6,99.9Z" transform="translate(75.5 79.9)"/><path class="cls-8" d="M71.9,85.6h-.4c-5.5-3.9-9.5-13-9.7-13.3a.4.4,0,0,1,.2-.7h.1a.4.4,0,0,1,.6.1v.2c.1,0,4.1,9,9.4,12.9a.5.5,0,0,1,.2.7h0C72.2,85.6,72,85.7,71.9,85.6Z" transform="translate(75.5 79.9)"/><path class="cls-8" d="M13.1,123.8a.6.6,0,0,1-.5-.6c0-1.8-6.2-6.1-10-8.2a.5.5,0,0,1-.1-.8h0a.5.5,0,0,1,.6-.2c1.8,1,10.5,6.2,10.5,9.2a.6.6,0,0,1-.5.6Z" transform="translate(75.5 79.9)"/><path class="cls-6" d="M117,121.9a48.8,48.8,0,0,0-5.1-13.8c-6.2-11.2-19.8-26.9-24.2-28-.4,0-1.2-.4-1.8.3s-.3,2.3.5,4.9,2.2,7.3,1.3,11c-1.9,7.6.6,20.7.7,21.4s.3.4.6.4a.6.6,0,0,0,.4-.7c-.1-.2-2.4-13.5-.7-20.8,1-4-.3-8.4-1.3-11.6-.4-1.5-1-3.6-.7-3.9h.6c3.8,1,17.2,15.9,23.8,27.5s7.4,28.4,6.1,30.3c-.1.2-.1.7.2.8h.2l.6-.2c.8-1.4.7-7.5-.5-14.3,4,7.3,13.8,27.9,7.1,44.7a.5.5,0,0,0,.3.7h.3c.2,0,.4-.1.4-.3C134.1,149.6,117.9,123.2,117,121.9Z" transform="translate(75.5 79.9)"/><path class="cls-9" d="M31,92s-39.1,78.4,6.5,104.1,91.7-15.9,76.6-55.8S37.4,79.8,31,92Z" transform="translate(75.5 79.9)"/><path class="cls-10" d="M67,118.7s-3.8,2.6-.7,5.7S71.9,117.3,67,118.7Z" transform="translate(75.5 79.9)"/><path class="cls-10" d="M78.7,117.2s-3.8,2.6-.7,5.7S83.5,115.8,78.7,117.2Z" transform="translate(75.5 79.9)"/><path class="cls-10" d="M74.1,108.5s-4.6.5-3.3,4.6S79,109.6,74.1,108.5Z" transform="translate(75.5 79.9)"/><path class="cls-10" d="M74.2,128.9s-4.2,2.1-1.5,5.6S79.2,128.2,74.2,128.9Z" transform="translate(75.5 79.9)"/><path class="cls-10" d="M84.1,152.4s-3.3-3.3-5.7.4S86.4,156.8,84.1,152.4Z" transform="translate(75.5 79.9)"/><path class="cls-10" d="M88.8,131.9s-4.3-1.7-5,2.6S92.7,135.2,88.8,131.9Z" transform="translate(75.5 79.9)"/><path class="cls-10" d="M94.3,121.5s-4.3-1.7-5,2.6S98.2,124.7,94.3,121.5Z" transform="translate(75.5 79.9)"/><path class="cls-10" d="M101.6,135.5s-4.3-1.7-5,2.6S105.5,138.7,101.6,135.5Z" transform="translate(75.5 79.9)"/><path class="cls-10" d="M92.4,144.8s-2.7-3.7-5.7-.5S93.9,149.6,92.4,144.8Z" transform="translate(75.5 79.9)"/><path class="cls-10" d="M97.3,173.5s-2.1-4.2-5.6-1.4S98.2,178.4,97.3,173.5Z" transform="translate(75.5 79.9)"/><path class="cls-10" d="M106.4,163.8s-2.2-4-5.6-1.3S107.2,168.8,106.4,163.8Z" transform="translate(75.5 79.9)"/><path class="cls-10" d="M106.6,150.6s-2.8-3.7-5.8-.4S108.1,155.4,106.6,150.6Z" transform="translate(75.5 79.9)"/><path class="cls-10" d="M93.6,159.8s-.4-4.7-4.5-3.6S92.3,164.6,93.6,159.8Z" transform="translate(75.5 79.9)"/><path class="cls-10" d="M86.7,182s-.2-4.6-4.5-3.5S85.5,186.8,86.7,182Z" transform="translate(75.5 79.9)"/><path class="cls-10" d="M61.2,153.1s4.3-1.8,1.8-5.5S56.3,153.5,61.2,153.1Z" transform="translate(75.5 79.9)"/><path class="cls-10" d="M68.1,161.2s4.3-1.9,1.7-5.4S63.2,161.7,68.1,161.2Z" transform="translate(75.5 79.9)"/><path class="cls-10" d="M57.5,168.9s4.3-1.8,1.7-5.5S52.5,169.3,57.5,168.9Z" transform="translate(75.5 79.9)"/><path class="cls-10" d="M28.1,161.6s4.6,1.3,5-3.1C33.3,155.7,24.1,158.8,28.1,161.6Z" transform="translate(75.5 79.9)"/><path class="cls-10" d="M42.1,172.6s4.3-1.9,1.7-5.5S37.2,173,42.1,172.6Z" transform="translate(75.5 79.9)"/><path class="cls-10" d="M41.4,186.8s4.3-1.8,1.7-5.4S36.4,187.4,41.4,186.8Z" transform="translate(75.5 79.9)"/><path class="cls-10" d="M68.6,176.8s2.5-3.8-1.6-5.4S64.9,180.1,68.6,176.8Z" transform="translate(75.5 79.9)"/><path class="cls-10" d="M29.7,175.7s3.5,3,5.6-.9S27.1,171.4,29.7,175.7Z" transform="translate(75.5 79.9)"/><path class="cls-10" d="M80.8,168.1s2.5-3.9-1.6-5.4S77,171.4,80.8,168.1Z" transform="translate(75.5 79.9)"/><path class="cls-10" d="M57.8,193.1s4.5-1.1,2.7-5.1S52.9,192.6,57.8,193.1Z" transform="translate(75.5 79.9)"/><path class="cls-10" d="M55.1,181.4s2.5-4-1.6-5.5S51.4,184.5,55.1,181.4Z" transform="translate(75.5 79.9)"/><path class="cls-10" d="M73.1,193.1s2.5-4-1.7-5.5S69.3,196.3,73.1,193.1Z" transform="translate(75.5 79.9)"/><path class="cls-10" d="M58.2,132.7s-.2,4.7,4.2,4C65.2,136.2,59.9,128.1,58.2,132.7Z" transform="translate(75.5 79.9)"/><path class="cls-10" d="M77.1,141.1s-4.2-2.2-5.2,2.1S80.7,144.5,77.1,141.1Z" transform="translate(75.5 79.9)"/><path class="cls-10" d="M45.6,145.6s4,2.2,5.3-1.9S42.1,142,45.6,145.6Z" transform="translate(75.5 79.9)"/><path class="cls-10" d="M32.9,110.7s2.8,3.7,5.8.5S31.4,105.9,32.9,110.7Z" transform="translate(75.5 79.9)"/><path class="cls-10" d="M46.3,131.6s-.2,4.6,4.2,4S48,127,46.3,131.6Z" transform="translate(75.5 79.9)"/><path class="cls-10" d="M33.4,135.4s4.3,1.5,5-2.8S29.4,132.4,33.4,135.4Z" transform="translate(75.5 79.9)"/><path class="cls-10" d="M28.3,146.8s4.4,1.5,5-2.8S24.4,143.8,28.3,146.8Z" transform="translate(75.5 79.9)"/><path class="cls-10" d="M49.4,119.7s-.2,4.6,4.2,4C56.4,123.1,51.1,115,49.4,119.7Z" transform="translate(75.5 79.9)"/><path class="cls-10" d="M43.1,157.2s4.2,2.1,5.2-2.2C49.1,152.4,39.5,153.7,43.1,157.2Z" transform="translate(75.5 79.9)"/><path class="cls-10" d="M43.7,103.9s-2.2,4.1,2,5.4S47.4,100.6,43.7,103.9Z" transform="translate(75.5 79.9)"/><path class="cls-10" d="M30.6,121.9s2,4.2,5.5,1.7S30.1,117,30.6,121.9Z" transform="translate(75.5 79.9)"/><path class="cls-10" d="M58.4,109.8s-1.1,4.5,3.3,4.8C64.5,114.9,61.2,105.7,58.4,109.8Z" transform="translate(75.5 79.9)"/><path class="cls-10" d="M53.4,99.2s-1.3,4.5,3.1,4.8C59.3,104.2,56.1,95.1,53.4,99.2Z" transform="translate(75.5 79.9)"/></svg>