<svg id="Layer_1" data-name="Layer 1" xmlns="http://www.w3.org/2000/svg" width="359.3" height="359.4" viewBox="0 0 359.3 359.4"><defs><style>.cls-1{fill:#020302;}.cls-2{fill:#2b8fd8;}.cls-3{fill:#fcce40;}.cls-4{fill:#28ae62;}.cls-5{fill:#efe092;}.cls-6{fill:#28ad62;}.cls-7{fill:#c98a1d;}.cls-8{fill:#fd5e5e;}</style></defs><path class="cls-1" d="M-152.1,28.4c0-98.9,80.6-179.7,179.5-179.8S207.3-70.7,207.3,28.4,126.5,208,27.6,208-152,127.4-152.1,28.4ZM-62.2-79.4c3.4,0,6.5-.3,9.6,0,8.7,1,14.3,8.4,14.4,18.4,0,7.9,2.9,11,10.6,11.5,10,.6,18.5,8.9,19.3,18.6S-14-10.5-24.1-8.5c-5.4,1.1-11.1.7-16.7.8S-50-5.1-50.2,1.6A21,21,0,0,1-71,22.3H-81.5c-3.1,0-4.5,1.6-4.7,4.6-1.1,20.4-11.6,33.9-30.5,41l-16.7,6.3c6.9,27.5,26.2,58.4,45.6,75.2,6.8-2.5,13.4-5.1,20.2-7.2s8.9-5.5,9.8-11a31.3,31.3,0,0,0-.3-11c-1.4-7.5,1.3-15.6,8-19,10.8-5.6,22-11.2,34.5-2.2-1.3-8.9-2.4-17-3.7-25.2-2.1-13,8-23.2,20.6-20.8C9,54.5,13.9,60.5,14.7,69.3a26.3,26.3,0,0,0,6.7,15.8V-139c-25.2-2.5-75.6,15.9-96.8,35.4A36.2,36.2,0,0,1-62.2-79.4Zm96-5.8c29.9,2,55.6,13.6,76.3,35.5s31.3,48.3,31.2,78.6a108.7,108.7,0,0,1-24.1,69.3C96,125,67.9,139.3,33.8,141.9v23.7c70.7-2.2,134.8-62.9,131.3-143.3C161.8-55.5,97.2-107.6,33.8-109Zm-119-10.3c-23.8,22-40.2,48.2-48.8,79.3a163.5,163.5,0,0,0-2.5,78.7l15.4-5.7c14.6-5.3,22.4-15.6,23-31.2A15.1,15.1,0,0,1-85.9,11c4.1-.8,8.4-.5,12.6-.6,7.8-.1,10.8-3,11.1-10.8A19.4,19.4,0,0,1-42.7-19.5h12.4c5.8,0,9.9-3.7,10-8.8s-3.8-8.8-9.7-9.1c-9.8-.6-17.6-7-19.6-16.6a44,44,0,0,1-.6-8.2c-.2-3.2-1.9-5-5.2-5.2h-8.2c-7.1,0-10.1-3-10.7-10.1S-78.5-91.2-85.2-95.5ZM33.7-121.4C108.3-119.3,174-58,177.2,22.2c1.4,37.1-9.4,70.5-32.7,99.4C116.1,156.7,78.8,175.1,33.8,178v17.7c87.5-2.4,165.4-76.8,161.2-174.6-4-95.1-83.3-158.9-161.3-160ZM-78.2,158.4c29.7,23.5,62.5,35.8,99.6,37.4a19.4,19.4,0,0,0,.1-2.2c0-29.5.1-58.9-.1-88.4a7.2,7.2,0,0,0-2.2-4.7C9.7,92,3.1,81.9,2.3,68.7c-.2-3-2.4-3.9-5-3.9A4.6,4.6,0,0,0-7.6,69a22.8,22.8,0,0,0,.4,5.2C-5.7,84.9-4,95.6-2.5,106.3a8.8,8.8,0,0,1-5,9.3c-3.5,1.7-6.8,1.2-9.9-1.7-1.5-1.3-2.9-2.8-4.3-4.2-3.6-3.4-7.7-4.4-12.3-2.5l-7.7,3c-4.2,1.8-5.4,4.1-4.3,8.6,3.8,16.9-3.6,30-20.1,35.5ZM33.8-72.8v23.3c45,4.1,69.9,41.9,71.5,72.6.9,16.5-2.6,32-11.5,46-14,22.1-34.3,34.1-60,36.9v23.5c46.8-1.4,95.5-41.7,95.5-101.2S80.7-71.4,33.8-72.8Zm.1,35.9V93.6C63,91.8,93.8,65.9,93.4,27.7S61.7-35.5,33.9-36.9Z" transform="translate(152.1 151.4)"/><path class="cls-2" d="M-62.2-79.4a36.2,36.2,0,0,0-13.2-24.2c21.2-19.5,71.6-37.9,96.8-35.4V85.1a26.3,26.3,0,0,1-6.7-15.8C13.9,60.5,9,54.5,1.3,53c-12.6-2.4-22.7,7.8-20.6,20.8C-18,82-16.9,90.1-15.6,99c-12.5-9-23.7-3.4-34.5,2.2-6.7,3.4-9.4,11.5-8,19a31.3,31.3,0,0,1,.3,11c-.9,5.5-4.2,9.3-9.8,11s-13.4,4.7-20.2,7.2c-19.4-16.8-38.7-47.7-45.6-75.2l16.7-6.3c18.9-7.1,29.4-20.6,30.5-41,.2-3,1.6-4.6,4.7-4.6H-71A21,21,0,0,0-50.2,1.6c.2-6.7,2.7-9.1,9.4-9.3s11.3.3,16.7-.8C-14-10.5-7.5-20.2-8.3-30.9s-9.3-18-19.3-18.6C-35.3-50-38.2-53.1-38.2-61c-.1-10-5.7-17.4-14.4-18.4C-55.7-79.7-58.8-79.4-62.2-79.4Z" transform="translate(152.1 151.4)"/><path class="cls-3" d="M33.8-85.2V-109c63.4,1.4,128,53.5,131.3,131.3,3.5,80.4-60.6,141.1-131.3,143.3V141.9C67.9,139.3,96,125,117.2,98.2a108.7,108.7,0,0,0,24.1-69.3c.1-30.3-10.4-56.7-31.2-78.6S63.7-83.2,33.8-85.2Z" transform="translate(152.1 151.4)"/><path class="cls-4" d="M-85.2-95.5c6.7,4.3,10.3,10.2,10.9,17.9s3.6,10.1,10.7,10.1h8.2c3.3.2,5,2,5.2,5.2a44,44,0,0,0,.6,8.2c2,9.6,9.8,16,19.6,16.6,5.9.3,9.8,3.9,9.7,9.1s-4.2,8.8-10,8.8H-42.7A19.4,19.4,0,0,0-62.2-.4c-.3,7.8-3.3,10.7-11.1,10.8-4.2.1-8.5-.2-12.6.6A15.1,15.1,0,0,0-98.1,25.6c-.6,15.6-8.4,25.9-23,31.2l-15.4,5.7A163.5,163.5,0,0,1-134-16.2C-125.4-47.3-109-73.5-85.2-95.5Z" transform="translate(152.1 151.4)"/><path class="cls-5" d="M33.7-121.4v-17.5C111.7-137.8,191-74,195,21.1c4.2,97.8-73.7,172.2-161.2,174.6V178c45-2.9,82.3-21.3,110.7-56.4,23.3-28.9,34.1-62.3,32.7-99.4C174-58,108.3-119.3,33.7-121.4Z" transform="translate(152.1 151.4)"/><path class="cls-6" d="M-78.2,158.4l12.1-4.1c16.5-5.5,23.9-18.6,20.1-35.5-1.1-4.5.1-6.8,4.3-8.6l7.7-3c4.6-1.9,8.7-.9,12.3,2.5,1.4,1.4,2.8,2.9,4.3,4.2,3.1,2.9,6.4,3.4,9.9,1.7a8.8,8.8,0,0,0,5-9.3C-4,95.6-5.7,84.9-7.2,74.2A22.8,22.8,0,0,1-7.6,69a4.6,4.6,0,0,1,4.9-4.2c2.6,0,4.8.9,5,3.9C3.1,81.9,9.7,92,19.2,100.5a7.2,7.2,0,0,1,2.2,4.7c.2,29.5.1,58.9.1,88.4a19.4,19.4,0,0,1-.1,2.2C-15.7,194.2-48.5,181.9-78.2,158.4Z" transform="translate(152.1 151.4)"/><path class="cls-7" d="M33.8-72.8c46.9,1.4,95.5,41.7,95.5,101.1S80.6,128.1,33.8,129.5V106c25.7-2.8,46-14.8,60-36.9,8.9-14,12.4-29.5,11.5-46C103.7-7.6,78.8-45.4,33.8-49.5Z" transform="translate(152.1 151.4)"/><path class="cls-8" d="M33.9-36.9c27.8,1.4,59.2,26.2,59.5,64.6S63,91.8,33.9,93.6Z" transform="translate(152.1 151.4)"/></svg>