<svg id="Layer_1" data-name="Layer 1" xmlns="http://www.w3.org/2000/svg" viewBox="0 0 383.2 345"><defs><style>.cls-1{fill:#030302;}.cls-2{fill:#020304;}.cls-3{fill:#040302;}.cls-4{fill:#fde358;}.cls-5{fill:#040404;}.cls-6{fill:#050505;}.cls-7{fill:#fde359;}.cls-8{fill:#f9c600;}.cls-9{fill:#1ba4f9;}.cls-10{fill:#5eb5f8;}.cls-11{fill:#5fb7fb;}.cls-12{fill:#1ca6fc;}.cls-13{fill:#5db3f6;}.cls-14{fill:#5eb6fa;}.cls-15{fill:#5fb8fc;}.cls-16{fill:#1ca6fb;}.cls-17{fill:#1ca5fb;}.cls-18{fill:#1ba3f8;}.cls-19{fill:#5eb7fb;}.cls-20{fill:#5eb4f8;}.cls-21{fill:#1e9eee;}.cls-22{fill:#1ca5fa;}.cls-23{fill:#2b86c3;}.cls-24{fill:#fac601;}.cls-25{fill:#f7c401;}</style></defs><path class="cls-1" d="M-164-30.8l1.4-2.4c5.5-10.5,15.1-17.8,26.1-15.9s20.4,11.4,20.5,23.7,0,26.2.1,39.2c.1,4-1.6,6.4-5.5,7.2-4.7-1.4-5.7-2.8-5.8-7.8v-38c0-4.8-1.6-8.8-6-11.2s-8.7-2.9-13-.5-6.6,6.6-6.6,11.8V68c0,4.8-.1,9.7.1,14.6.4,10.6,12.6,15.5,19.5,10.1,4.5-2.5,6-6.5,6-11.4,0-12.8,0-25.6.1-38.4,0-4.6,1.2-6.1,5.7-7.2,3.8.6,5.5,2.8,5.5,6.7-.1,13.1.1,26.2-.1,39.2s-8.1,22.1-20.5,24.3-22-4.9-26.3-16.3l-1.2-2.1Z" transform="translate(164 144.2)"/><path class="cls-2" d="M-98.9,28.4A92.8,92.8,0,0,1-6.2-64.4c51.1,0,92.8,41.6,92.8,92.7S44.9,121.2-6.1,121.1A92.8,92.8,0,0,1-98.9,28.4ZM28,102.2A77.6,77.6,0,0,0,54.7,82.4L41.1,76.2c-4.7,8.8-9.2,17-13.7,25.3l-.4.8ZM28-45.4l-1-.2.4.8c4.5,8.4,9,16.8,13.7,25.4l13.6-6.3C46.8-34.3,38.2-41,28-45.4Zm-68.1-.1c-10.3,4.4-19,11.2-26.9,19.8l13.6,6.2c4.8-8.9,9.3-17.1,13.7-25.4l.5-.7Zm0,147.8h.9l-.5-.6L-53.4,76.2-67,82.4C-59.1,91.1-50.4,97.8-40.1,102.3ZM-12,92.8V67.1l-18.1,2.6-11.4,2.4c3.9,17.1,19.1,35.6,29.5,36.3ZM-12-36V-51.9c-11.7,2.4-27.8,22.7-29.2,36.7l11.1,2.3L-12-10.4ZM-40.5,34.3h-8.6c1.3,9.4,2.6,18.2,3.9,27.3l9.9-2.6,23.2-3.2V34.3Zm.1-11.7h28.3V1L-35.3-2.2-45.4-4.9c-1.2,9.4-2.4,18.3-3.7,27.9ZM-.5-45.6v35.5l30.6-5c-2.9-6.1-5.1-11.4-7.8-16.4-3.8-6.9-8.5-13.2-15.5-17.4L-.5-52.8ZM6.8,105.6c12.1-8,17.7-20.2,22.9-33.9L-.5,66.9v42.7Zm-67.3-83c1.5-9.9,3-19.3,4.3-28.8A3.6,3.6,0,0,0-57.5-9c-5.4-2.6-10.8-5-16.5-7.5A77.9,77.9,0,0,0-87.3,22.6ZM43.9-8.3C45.3,2.3,46.7,12.5,48,22.5H75A80.5,80.5,0,0,0,61.7-16.6ZM61.7,73.4c7.8-12,12.4-24.8,13.2-39.1H48C46.6,44.8,45.2,54.9,43.9,65ZM-56.2,65c-1.4-10.4-2.8-20.5-4.1-30.7h-27A79.5,79.5,0,0,0-74,73.4ZM-.5,22.6H36.7c-1.3-9.3-2.5-18.2-3.6-26.8L-.5,1.2ZM33.1,60.9c1.2-8.7,2.3-17.6,3.5-26.7H-.4V55.5Z" transform="translate(164 144.2)"/><path class="cls-3" d="M161.4-43.7c1.1-4.4,2.6-5.7,6.9-5.7,9,0,18-.1,26.9,0a24.1,24.1,0,0,1,24,23.3A23.8,23.8,0,0,1,196.4-1.4c-6,.3-12,0-18.3,0V82.3a24.1,24.1,0,0,1-43.9,13.4C131,91.1,130,86,130,80.5c.1-25.7,0-51.4,0-77.1V-1.2c-5.1,0-10.1-.1-15,0S104.9-2,100.4-4.8A23.9,23.9,0,0,1,89.5-30.9C92.2-41.5,101-49,111.7-49.3s19.2-.1,28.8-.1c3.8,0,5.6,2.3,6.2,5.7s-3.4,5.7-7.5,5.6c-6-.2-12,0-17.9.1-3-.1-6-.3-9-.1a12.7,12.7,0,0,0-12.2,12.6,12.5,12.5,0,0,0,11.8,12.9c3.1.2,6.2-.1,9.3-.1s5.2.3,7.7.2c5-.2,8.9,1.4,11.5,5.8a68.7,68.7,0,0,1,.8,7.8c.1,17.3.1,34.6.1,51.9,0,9.9-.1,19.7,0,29.5s12.2,15.7,19.1,10.4c5-2.5,6.5-6.9,6.5-12.1q-.2-40.8,0-81.8c0-7.4,3.8-11.4,11.2-11.5,5.3-.2,10.7,0,16-.1a17.7,17.7,0,0,0,5.2-.6,12.8,12.8,0,0,0,8.6-14.1,13,13,0,0,0-12.8-10.9H168.5C164.5-38.1,162.1-39.7,161.4-43.7Z" transform="translate(164 144.2)"/><path class="cls-4" d="M161.4-43.7c.7,4,3.1,5.6,7.1,5.5h26.6a13,13,0,0,1,12.8,10.9,12.8,12.8,0,0,1-8.6,14.1,17.7,17.7,0,0,1-5.2.6c-5.3.1-10.7-.1-16,.1-7.4.1-11.2,4.1-11.2,11.5q-.2,41,0,81.8c0,5.2-1.5,9.6-6.5,12.1-3.1-6.3-2.6-13.1-2.6-19.8V1.4c0-1.1.1-2.3,0-3.4-.5-3.1-2-4.9-5.5-4.8H140.4c-2.6-4.4-6.5-6-11.5-5.8-2.5.1-5.1-.1-7.7-.2-6.4-9.3-6.3-15.4.1-25.3,5.9-.1,11.9-.3,17.9-.1,4.1.1,6.7-1.5,7.5-5.6Z" transform="translate(164 144.2)"/><path class="cls-5" d="M74.1-119.8c.1,4.2-4,6.8-8.2,5s-7.1-3.6-10.7-5.1Q-11-147.8-75.5-116.2a12.4,12.4,0,0,1-2,1c-3.6,1.8-6.8,1-8.3-1.9s-.4-6.3,3.2-8c7.6-3.4,15.1-7.2,22.9-9.9,44.2-14.9,87.2-11.6,128.9,9.3C73.1-123.8,74.1-122.5,74.1-119.8Z" transform="translate(164 144.2)"/><path class="cls-5" d="M-6.3,200.8a161.4,161.4,0,0,1-76-18.8c-2.7-1.4-4.9-3.3-3.9-6.3a8.6,8.6,0,0,1,4.6-4.6c1.5-.5,3.8.7,5.5,1.5a150.7,150.7,0,0,0,54,16.1,151.8,151.8,0,0,0,85.8-16,21,21,0,0,1,2.6-1.3c3-1.2,5.4-.4,7.1,2.3a5.2,5.2,0,0,1-2,7.4A111,111,0,0,1,58,187.7,159.4,159.4,0,0,1-6.3,200.8Z" transform="translate(164 144.2)"/><path class="cls-6" d="M-6.2,174.8a139.5,139.5,0,0,1-58-12.6c-4.1-1.8-5.6-4.6-4.3-7.8s4.6-4.4,8.8-2.5A129.6,129.6,0,0,0,4.4,163.1a125.2,125.2,0,0,0,39-9.5l4.8-2.1c3.6-1.4,6.6-.3,7.9,2.7s.2,6.1-3.4,7.5c-7.8,3-15.4,6.6-23.5,8.4-11.6,2.6-23,5.1-35.4,4.7C-6.3,174.4-6.2,175.1-6.2,174.8Z" transform="translate(164 144.2)"/><path class="cls-6" d="M-6.1-118.3a144.5,144.5,0,0,1,57.9,12.8c4.2,1.9,5.8,5,4.2,8.2s-4.6,4-8.6,2.1a128.5,128.5,0,0,0-64.1-11.1,124.3,124.3,0,0,0-40.1,9.9l-3.7,1.6c-3.6,1.4-6.5.4-7.9-2.6s-.1-5.9,3.4-7.6a134.5,134.5,0,0,1,40.3-11.8C-18.6-117.5-12.3-117.8-6.1-118.3Z" transform="translate(164 144.2)"/><path class="cls-7" d="M-121.4,35.7c-4.5,1.1-5.7,2.6-5.7,7.2-.1,12.8-.1,25.6-.1,38.4,0,4.9-1.5,8.9-6,11.4-2.6-4.5-3.2-9.5-3.2-14.7q.3-49.7,0-99.3c0-5.2.6-10.1,3.2-14.7,4.4,2.4,6,6.4,6,11.2v38c.1,5,1.1,6.4,5.8,7.8Z" transform="translate(164 144.2)"/><path class="cls-6" d="M-8.7-92.1c16.3.3,29.5,2.3,42.2,7.2a8.4,8.4,0,0,1,4.6,4.3c.6,1.4-.2,4.2-1.3,5.2a7.5,7.5,0,0,1-5.7,1.3c-7.3-1.6-14.4-4-21.7-5.3-17.3-3-34.2-1-50.8,4.7a12.7,12.7,0,0,1-4.6,1,5.2,5.2,0,0,1-4.9-4.9,5.3,5.3,0,0,1,4-6c7.6-2.1,15.1-4.4,22.7-5.9C-18.2-91.7-12-91.8-8.7-92.1Z" transform="translate(164 144.2)"/><path class="cls-6" d="M-6.3,148.8c-13.6-.3-27-2.3-39.8-7.2-3.9-1.5-5.6-4.2-4.6-7.3s4.3-4.7,8.3-3.3c24.2,8.7,48.4,8.6,72.7,0,3.8-1.4,6.8-.1,7.9,3.2s-.3,5.9-4.3,7.4A117.1,117.1,0,0,1-6.3,148.8Z" transform="translate(164 144.2)"/><path class="cls-8" d="M-133.2-36c-2.6,4.6-3.2,9.5-3.2,14.7q.3,49.7,0,99.3c0,5.2.6,10.2,3.2,14.7-6.9,5.4-19.1.5-19.5-10.1-.2-4.9-.1-9.8-.1-14.6V-24.7c0-5.2,2.1-9.2,6.6-11.8S-137.4-39-133.2-36Z" transform="translate(164 144.2)"/><path class="cls-9" d="M-60.5,22.6H-87.3A77.9,77.9,0,0,1-74-16.5C-68.3-14-62.9-11.6-57.5-9a3.6,3.6,0,0,1,1.3,2.8C-57.5,3.3-59,12.7-60.5,22.6Z" transform="translate(164 144.2)"/><path class="cls-10" d="M43.9-8.3l17.8-8.3A80.5,80.5,0,0,1,75,22.5H48C46.7,12.5,45.3,2.3,43.9-8.3Z" transform="translate(164 144.2)"/><path class="cls-11" d="M61.7,73.4,43.9,65c1.3-10.1,2.7-20.2,4.1-30.7H74.9C74.1,48.6,69.5,61.4,61.7,73.4Z" transform="translate(164 144.2)"/><path class="cls-12" d="M-56.2,65-74,73.4A79.5,79.5,0,0,1-87.3,34.3h27C-59,44.5-57.6,54.6-56.2,65Z" transform="translate(164 144.2)"/><path class="cls-13" d="M-.5,22.6V1.2L33.1-4.2c1.1,8.6,2.3,17.5,3.6,26.8Z" transform="translate(164 144.2)"/><path class="cls-14" d="M33.1,60.9-.4,55.5V34.2h37C35.4,43.3,34.3,52.2,33.1,60.9Z" transform="translate(164 144.2)"/><path class="cls-11" d="M-.5,102.3V66.9l30.2,4.8C24.5,85.4,18.9,97.6,6.8,105.6Z" transform="translate(164 144.2)"/><path class="cls-11" d="M6.8-48.9c7,4.2,11.7,10.5,15.5,17.4,2.7,5,4.9,10.3,7.8,16.4l-30.6,5V-45.6Z" transform="translate(164 144.2)"/><path class="cls-15" d="M-35.3-2.2-12.1,1V22.6H-40.4Z" transform="translate(164 144.2)"/><path class="cls-15" d="M-40.5,34.3h28.4V55.8L-35.3,59C-37,50.7-38.8,42.5-40.5,34.3Z" transform="translate(164 144.2)"/><path class="cls-16" d="M-30.1-12.9l-11.1-2.3c1.4-14,17.5-34.3,29.2-36.7V-36A66,66,0,0,0-30.1-12.9Z" transform="translate(164 144.2)"/><path class="cls-17" d="M-12,92.8v15.6c-10.4-.7-25.6-19.2-29.5-36.3l11.4-2.4C-25.9,78.8-19.6,86.3-12,92.8Z" transform="translate(164 144.2)"/><path class="cls-18" d="M-40.1,102.3c-10.3-4.5-19-11.2-26.9-19.9l13.6-6.2,13.7,25.5Z" transform="translate(164 144.2)"/><path class="cls-19" d="M-12,92.8c-7.6-6.5-13.9-14-18.1-23.1L-12,67.1Z" transform="translate(164 144.2)"/><path class="cls-19" d="M-30.1-12.9A66,66,0,0,1-12-36v25.6Z" transform="translate(164 144.2)"/><path class="cls-18" d="M-39.7-44.9c-4.4,8.3-8.9,16.5-13.7,25.4L-67-25.7c7.9-8.6,16.6-15.4,26.9-19.8Z" transform="translate(164 144.2)"/><path class="cls-20" d="M28-45.4C38.2-41,46.8-34.3,54.7-25.7L41.1-19.4c-4.7-8.6-9.2-17-13.7-25.4Z" transform="translate(164 144.2)"/><path class="cls-20" d="M27.4,101.5c4.5-8.3,9-16.5,13.7-25.3l13.6,6.2A77.6,77.6,0,0,1,28,102.2Z" transform="translate(164 144.2)"/><path class="cls-21" d="M-35.3-2.2l-5.1,24.8-8.7.4c1.3-9.6,2.5-18.5,3.7-27.9Z" transform="translate(164 144.2)"/><path class="cls-22" d="M-40.5,34.3c1.7,8.2,3.5,16.4,5.2,24.7l-9.9,2.6c-1.3-9.1-2.6-17.9-3.9-27.3Z" transform="translate(164 144.2)"/><path class="cls-23" d="M6.8-48.9-.5-45.6v-7.2Z" transform="translate(164 144.2)"/><path class="cls-23" d="M-.5,102.3l7.3,3.3-7.3,4Z" transform="translate(164 144.2)"/><path class="cls-18" d="M-40.1-45.5h.9l-.5.7Z" transform="translate(164 144.2)"/><path class="cls-20" d="M28,102.2H27a2,2,0,0,0,.4-.8Z" transform="translate(164 144.2)"/><path class="cls-20" d="M27.4-44.8l-.4-.8,1,.2Z" transform="translate(164 144.2)"/><path class="cls-18" d="M-39.7,101.7l.5.6h-.9Z" transform="translate(164 144.2)"/><path class="cls-24" d="M140.4-6.7h11.9c3.5-.1,5,1.7,5.5,4.8.1,1.1,0,2.3,0,3.4V73.1c0,6.7-.5,13.5,2.6,19.8-6.9,5.3-19-.2-19.1-10.4s0-19.6,0-29.5c0-17.3,0-34.6-.1-51.9A68.7,68.7,0,0,0,140.4-6.7Z" transform="translate(164 144.2)"/><path class="cls-25" d="M121.3-38c-6.4,9.9-6.5,16-.1,25.3-3.1,0-6.2.3-9.3.1a12.5,12.5,0,0,1-11.8-12.9,12.7,12.7,0,0,1,12.2-12.6C115.3-38.3,118.3-38.1,121.3-38Z" transform="translate(164 144.2)"/></svg>