<svg id="Layer_1" data-name="Layer 1" xmlns="http://www.w3.org/2000/svg" width="359.4" height="359.5" viewBox="0 0 359.4 359.5"><defs><style>.cls-1{fill:#010101;}.cls-2{fill:#020202;}.cls-3{fill:#030303;}.cls-4{fill:#89cbe6;}.cls-5{fill:#379dc2;}</style></defs><path class="cls-1" d="M-152.1-73.8v-52c0-15.5,10.1-25.6,25.5-25.6h56.9c15.3,0,25.4,10.1,25.4,25.6V-21c0,15.2-10.1,25.3-25.3,25.4h-57.2c-15.1-.1-25.3-10.2-25.3-25.4Zm12-17.6v70.2c0,8.8,4.8,13.6,13.6,13.6H-70c9.1,0,13.7-4.7,13.7-13.9V-91.4Zm83.8-12.2c0-8.4.2-16.4,0-24.3a11.9,11.9,0,0,0-11.6-11.5h-60.6c-5.6.1-10.9,4.2-11.3,9.7-.5,8.6-.1,17.3-.1,26.1Z" transform="translate(152.1 151.4)"/><path class="cls-1" d="M99.5-7.7V33.1C99.4,48,89.2,58.2,74.3,58.3H40.7C25.9,58.2,15.6,48,15.6,33.4V-48.5c0-14.7,10.3-25,25-25h34c14.5,0,24.8,10.3,24.9,24.7ZM27.6-13.5c0,16.4-.1,32.5.1,48.6.1,6.3,5.5,11.1,12.1,11.2,11.5.1,23,0,34.4,0,8.4,0,13.3-4.8,13.3-13.2V-10.7c0-.9-.2-1.8-.3-2.8ZM87.5-25.7c0-8.3.1-16.2-.1-24A11.7,11.7,0,0,0,75.8-61.5c-12.2-.1-24.5-.1-36.7,0-5.4.1-10.7,4-11.1,9.4-.6,8.7-.1,17.5-.1,26.4Z" transform="translate(152.1 151.4)"/><path class="cls-1" d="M207.3-7.7V33.1C207.2,48,197,58.2,182.1,58.3H148.5c-14.7-.1-25-10.3-25.1-24.9v-82c.1-14.6,10.3-24.9,25-24.9h34c14.5,0,24.8,10.3,24.9,24.7Zm-71.9-5.8V33.1c0,8.3,4.9,13.2,13.3,13.2H182c8.5,0,13.3-4.9,13.3-13.5v-43c0-1.1-.1-2.2-.2-3.3Zm59.9-12.2c0-8.4.1-16.4-.1-24.3a11.7,11.7,0,0,0-11.5-11.5c-12.3-.1-24.5-.1-36.7,0-5.6.1-10.9,4.2-11.3,9.7-.5,8.6-.1,17.3-.1,26.1Z" transform="translate(152.1 151.4)"/><path class="cls-1" d="M207.3,142.4v40.4c-.1,15.1-10.2,25.2-25.4,25.2H148.2c-14.4,0-24.7-10.3-24.8-24.7V100.9c.1-14.4,10.4-24.6,24.9-24.6h34.4c14.2,0,24.5,10.3,24.6,24.5Zm-12-6H135.4c0,16.3-.1,32.3.1,48.4A11.5,11.5,0,0,0,146.9,196c12.3.2,24.6.2,37,0a11.4,11.4,0,0,0,11.3-10.9C195.4,168.9,195.3,152.8,195.3,136.4Zm-59.9-12.5h59.9c0-8.3.2-16.4-.1-24.5a11.6,11.6,0,0,0-11.5-11.1c-12.2-.2-24.5-.2-36.7,0a11.6,11.6,0,0,0-11.5,11.1C135.2,107.5,135.4,115.6,135.4,123.9Z" transform="translate(152.1 151.4)"/><path class="cls-2" d="M51.6,64.4H63.5c0,7.9,0,15.8.1,23.8a17.8,17.8,0,0,0,14.7,17.7,38.2,38.2,0,0,0,5.9.3h33v12H86a65.4,65.4,0,0,1-10-.7A29.5,29.5,0,0,1,51.6,89C51.4,80.9,51.6,72.8,51.6,64.4Z" transform="translate(152.1 151.4)"/><path class="cls-3" d="M9.5-25.6v11.5c-14.6,3.2-28.7-7.1-29.8-21.6-.7-10.2-4.6-13.8-14.9-13.8h-2.9V-61.1C-23.5-64.2-9.5-54-8.4-39.4c.8,10.1,4.7,13.8,15,13.8Z" transform="translate(152.1 151.4)"/><path d="M117.2-7.7H105.7V-19.4h11.5Z" transform="translate(152.1 151.4)"/><path class="cls-4" d="M-140.1-91.4h83.8v69.9c0,9.2-4.6,13.9-13.7,13.9h-56.5c-8.8,0-13.6-4.8-13.6-13.6V-91.4Zm35.8,60.1h-23.6v11.5h23.6Zm35.8,11.6V-31.3H-91.9v11.6Zm-35.9-47.9V-79.3h-23.5v11.7Zm12.3-.2h23.6V-79.2H-92.1Zm-35.9,24h23.7V-55.4H-128Zm47.6-11.5H-91.9v11.5h11.5Z" transform="translate(152.1 151.4)"/><path class="cls-5" d="M-56.3-103.6h-83.6c0-8.8-.4-17.5.1-26.1.4-5.5,5.7-9.6,11.3-9.7h60.6a11.9,11.9,0,0,1,11.6,11.5C-56.1-120-56.3-112-56.3-103.6Zm-48-23.6h-23.5v11.6h23.5Zm12.4-.1v11.6h23.5v-11.6Z" transform="translate(152.1 151.4)"/><path class="cls-4" d="M27.6-13.5H87.2c.1,1,.3,1.9.3,2.8V33.1c0,8.4-4.9,13.2-13.3,13.2-11.4,0-22.9.1-34.4,0-6.6-.1-12-4.9-12.1-11.2C27.5,19,27.6,2.9,27.6-13.5ZM63.4-1.4H39.8V10.1H63.4Zm-.1,35.6V22.6H39.8V34.2Z" transform="translate(152.1 151.4)"/><path class="cls-5" d="M87.5-25.7H27.9c0-8.9-.5-17.7.1-26.4.4-5.4,5.7-9.3,11.1-9.4,12.2-.1,24.5-.1,36.7,0A11.7,11.7,0,0,1,87.4-49.7C87.6-41.9,87.5-34,87.5-25.7ZM63.4-49.3H39.9v11.5H63.4Z" transform="translate(152.1 151.4)"/><path class="cls-4" d="M135.4-13.5h59.7c.1,1.1.2,2.2.2,3.3v43c0,8.6-4.8,13.5-13.3,13.5H148.7c-8.4,0-13.3-4.9-13.3-13.2ZM171.2-1.4H147.6V10.2h23.6ZM147.5,34.1h23.6V22.6H147.5Z" transform="translate(152.1 151.4)"/><path class="cls-5" d="M195.3-25.7H135.6c0-8.8-.4-17.5.1-26.1.4-5.5,5.7-9.6,11.3-9.7,12.2-.1,24.4-.1,36.7,0A11.7,11.7,0,0,1,195.2-50C195.4-42.1,195.3-34.1,195.3-25.7ZM171.2-49.3H147.7v11.5h23.5Z" transform="translate(152.1 151.4)"/><path class="cls-4" d="M195.3,136.4c0,16.4.1,32.5-.1,48.7A11.4,11.4,0,0,1,183.9,196c-12.4.2-24.7.2-37,0a11.5,11.5,0,0,1-11.4-11.2c-.2-16.1-.1-32.1-.1-48.4Zm-24.1,12H147.6v11.5h23.6Zm0,23.9H147.6v11.6h23.6Z" transform="translate(152.1 151.4)"/><path class="cls-5" d="M135.4,123.9c0-8.3-.2-16.4.1-24.5A11.6,11.6,0,0,1,147,88.3c12.2-.2,24.5-.2,36.7,0a11.6,11.6,0,0,1,11.5,11.1c.3,8.1.1,16.2.1,24.5Zm35.8-23.4H147.7V112h23.5Z" transform="translate(152.1 151.4)"/><path d="M-104.3-31.3v11.5h-23.6V-31.3Z" transform="translate(152.1 151.4)"/><path d="M-68.5-19.7H-91.9V-31.3h23.4Z" transform="translate(152.1 151.4)"/><path d="M-104.4-67.6h-23.5V-79.3h23.5Z" transform="translate(152.1 151.4)"/><path d="M-92.1-67.8V-79.2h23.6v11.4Z" transform="translate(152.1 151.4)"/><path d="M-128-43.8V-55.4h23.7v11.6Z" transform="translate(152.1 151.4)"/><path d="M-80.4-55.3v11.5H-91.9V-55.3Z" transform="translate(152.1 151.4)"/><path d="M-104.3-127.2v11.6h-23.5v-11.6Z" transform="translate(152.1 151.4)"/><path d="M-91.9-127.3h23.5v11.6H-91.9Z" transform="translate(152.1 151.4)"/><path d="M63.4-1.4V10.1H39.8V-1.4Z" transform="translate(152.1 151.4)"/><path d="M63.3,34.2H39.8V22.6H63.3Z" transform="translate(152.1 151.4)"/><path d="M63.4-49.3v11.5H39.9V-49.3Z" transform="translate(152.1 151.4)"/><path d="M171.2-1.4V10.2H147.6V-1.4Z" transform="translate(152.1 151.4)"/><path d="M147.5,34.1V22.6h23.6V34.1Z" transform="translate(152.1 151.4)"/><path d="M171.2-49.3v11.5H147.7V-49.3Z" transform="translate(152.1 151.4)"/><path d="M171.2,148.4v11.5H147.6V148.4Z" transform="translate(152.1 151.4)"/><path d="M171.2,172.3v11.6H147.6V172.3Z" transform="translate(152.1 151.4)"/><path d="M171.2,100.5V112H147.7V100.5Z" transform="translate(152.1 151.4)"/></svg>