<svg id="Layer_1" data-name="Layer 1" xmlns="http://www.w3.org/2000/svg" width="347.3" height="322.7" viewBox="0 0 347.3 322.7"><defs><style>.cls-1{fill:#e73e63;}.cls-2{fill:#dddbfd;}.cls-3{fill:#5b5e8b;}.cls-4{fill:#e73d62;}.cls-5{fill:#5b5e8a;}.cls-6{fill:#fbb842;}.cls-7{fill:#fbb73f;}.cls-8{fill:#5c5f8b;}.cls-9{fill:#cd2a55;}.cls-10{fill:#ce2a56;}.cls-11{fill:#322f4c;}.cls-12{fill:#33304e;}.cls-13{fill:#c6c5f6;}.cls-14{fill:#d1325d;}.cls-15{fill:#fc972e;}.cls-16{fill:#e73f63;}.cls-17{fill:#5c5f8c;}.cls-18{fill:#ce2955;}.cls-19{fill:#dcdafa;}.cls-20{fill:#dddcfe;}.cls-21{fill:#fc9a33;}.cls-22{fill:#fbb63e;}.cls-23{fill:#5d608d;}</style></defs><path class="cls-1" d="M195-72.8c-.3,3.4-.1,7-1,10.2-3.4,11.8-11.2,20.7-20.2,28.5-6,5.2-12.7,9.6-19.1,14.3H-71.9c-.8-.8-1.4-1.6-2.2-2.3-7.8-6.6-15.8-12.7-23.2-19.7a46.1,46.1,0,0,1-13.6-25l33.2,5,4.2.3a21,21,0,0,0,2.4.6l27,2.9,5,.3,28.7,2h7.2l27.2.7h7.3l27.8-.8h6.5L93-57.8l7.1-.6c4.2-.3,8.4-.5,12.5-1s9-1.4,13.5-2.1l7-.7c3.9-.5,7.9-.8,11.8-1.5Z" transform="translate(146 132.9)"/><path class="cls-2" d="M-71.9-19.7H154.7c.1,14.6.1,29.1.2,43.7-12.5,1.2-25,2.7-37.5,3.7-15.2,1.1-30.4,1.7-45.5,2.5l-15.8.6h-.8l-9.7.2H35.1c-1.6-1.5-3.2-3-4.7-4.6-4.4-4.2-10.2-4.1-14.5.2-1.4,1.4-2.7,2.9-4,4.3H2.2c-23.2-1.3-46.3-2.5-69.4-3.9-7.6-.4-15.1-1.4-22.7-2.2v-44ZM75.2,16.4c3.9,0,7.8.1,11.6,0s5.6-1.9,5.7-5.5.2-7.4.1-11.2S90.5-6,86.7-6H64.3c-3.6,0-5.6,1.9-5.8,5.5s-.1,7.7.1,11.6,2.2,5.3,5.8,5.3S71.6,16.4,75.2,16.4Zm-144.9,0c3.6,0,7.2.1,10.9,0s6-1.8,6.1-5.7a99.1,99.1,0,0,0,0-10.9C-52.8-4-54.7-6-58.4-6H-80.9c-3.6,0-5.6,1.9-5.8,5.4s-.1,7.8,0,11.6,2.2,5.4,5.8,5.4S-73.4,16.4-69.7,16.4Zm96.7,0c3.7,0,7.4.1,11.2,0s5.8-1.8,5.9-5.9.1-7.3,0-10.9S42.1-6,38.6-6H15.8c-3.7,0-5.4,1.9-5.5,5.6s-.1,7.5,0,11.2,1.8,5.6,5.8,5.6S23.4,16.4,27,16.4Zm97.1,0c3.6,0,7.2.1,10.8,0s5.8-1.7,5.9-5.6,0-7.5,0-11.2S138.9-6,134.9-6h-22c-3.8,0-5.8,1.9-5.9,5.6s-.1,7.5,0,11.2,2,5.6,5.9,5.6S120.4,16.4,124.1,16.4Zm-145.3,0c3.7,0,7.4.1,11.2,0s5.5-1.7,5.6-5.4.1-7.8-.1-11.6S-6.4-6-10.1-6H-32.5c-3.6,0-5.6,1.9-5.7,5.5s-.1,7.4,0,11.2,2,5.7,5.8,5.7S-25,16.4-21.2,16.4Z" transform="translate(146 132.9)"/><path class="cls-3" d="M156.8,167.3l33.3.2a10.5,10.5,0,0,1,9.9,6.2c2,4,1.7,8.2-1.3,11.5s-4.6,3.1-7.2,4.1-3.4.3-5.1.3H-107.9c-.6-.5-1.2-1.2-1.8-1.6-7.8-4.9-7.7-14.5.1-19.3a10.7,10.7,0,0,0,1.6-1.4h2.4l19.3.2H156.8Z" transform="translate(146 132.9)"/><path class="cls-4" d="M56.1,30.7l15.8-.6a26,26,0,0,0,3.9.5c20.2-.7,40.5-1.4,60.7-2.3,6.4-.2,12.8-.8,19.2-1.5,13.3-1.4,26.5-3,39.8-4.5,0,1.9.7,4,0,5.6-6.7,16.2-17.2,29.8-30.1,41.5-2.4,2.2-5.6,3.6-8.4,5.4h-.6l-18.9,2.8H85.2c-3.2-4.1-6.4-8.4-9.9-12.3-7.9-8.9-16.1-17.7-24.2-26.6-2-2.3-3.7-4.8-5.6-7.2a1.3,1.3,0,0,0,.1-.6l9.7-.2Z" transform="translate(146 132.9)"/><path class="cls-4" d="M-89.9,24.6c7.6.8,15.1,1.8,22.7,2.2,23.1,1.4,46.2,2.6,69.4,3.9C-9.8,44-21.7,57.2-33.6,70.6c-2,2.2-3.6,4.6-5.4,7h-6l-27.7-.2-3-1.2c-4.5-1.9-9.6-3-13.4-5.9-10.6-7.8-18.3-18.4-25.2-29.5-3.6-5.9-7.8-11.7-7-19.2l20.9,2.1Z" transform="translate(146 132.9)"/><path class="cls-5" d="M59.1-55.6l-27.8.8c.1-26,.1-52,.2-77.9H49.3l1.5,2.4.9,9.6,3.6,31.3C56.6-78.2,57.8-66.9,59.1-55.6Z" transform="translate(146 132.9)"/><path class="cls-5" d="M24-54.8l-27.2-.7,8.4-77.1H23.8C23.9-106.7,23.9-80.8,24-54.8Z" transform="translate(146 132.9)"/><path class="cls-5" d="M-10.4-55.6l-28.7-2c.8-1.1,2-2.1,2.3-3.3C-34-73.2-31.3-85.6-28.7-98s4.8-23.3,7.2-34.9l19.2.4c-1.1,10.5-2.1,21-3.2,31.4-.9,8-1.9,16-2.8,24Z" transform="translate(146 132.9)"/><path class="cls-5" d="M93-57.8,65.6-55.7c0-2.1.2-4.2,0-6.3-.6-6.3-1.3-12.6-2.1-18.8-.9-8-1.9-16-2.7-24s-1.7-18.5-2.5-27.8l18.6-.2c2.5,11.4,4.9,22.8,7.4,34.2Z" transform="translate(146 132.9)"/><path class="cls-5" d="M-44.1-57.9l-27-2.9a21,21,0,0,1-2.4-.6c2.6.4,3.3-1.2,4-3.3,4.9-15.5,10-31,15-46.5,2.3-7.2,4.5-14.5,6.8-21.7l19.1.2c-4.1,18.8-8.3,37.7-12.3,56.6C-42.2-70.1-43.1-64-44.1-57.9Z" transform="translate(146 132.9)"/><path class="cls-5" d="M126.1-61.5c-4.5.7-9,1.6-13.5,2.1s-8.3.7-12.5,1a4,4,0,0,0,0-1.1c-3.6-16.9-7.3-33.7-11-50.6-1.6-7.5-3-15-4.5-22.6h18.5l6.6,20.5Q117.8-86.8,126.1-61.5Z" transform="translate(146 132.9)"/><path class="cls-6" d="M156.8,167.3H137.7V84.5c6.5.3,12.9,0,19.1-2.3,0,18.1.1,36.1.1,54.2C156.9,146.7,156.8,157,156.8,167.3Z" transform="translate(146 132.9)"/><path class="cls-7" d="M-86.3,167.5l-19.3-.2q.1-42.6.1-85c6.2,2.4,12.7,2.4,19.2,2.2Z" transform="translate(146 132.9)"/><path class="cls-8" d="M-77.7-61.7l-33.2-5-2.5-.8-26.5-5.4c24.6-4.3,46.3-14.6,63.6-32.7,5.6-5.8,9.9-12.8,14.8-19.2,1.6-2,3.5-3.8,5.2-5.7a20.9,20.9,0,0,1-.7,3.6Q-66.9-96.4-76.7-66A29.9,29.9,0,0,0-77.7-61.7Z" transform="translate(146 132.9)"/><path class="cls-8" d="M195-72.8l-50.1,9.1c-3.9.7-7.9,1-11.8,1.5a24.4,24.4,0,0,0-.7-3.9c-5.6-17.3-11.3-34.5-16.9-51.7-1.4-4.4-2.7-8.8-4.1-13.2,1.8,1.8,3.9,3.2,5.2,5.2,17.7,29.5,44.1,46.1,77.4,52.5A3.1,3.1,0,0,1,195-72.8Z" transform="translate(146 132.9)"/><path class="cls-9" d="M-139.9-72.9l26.5,5.4,2.5.8a46.1,46.1,0,0,0,13.6,25c7.4,7,15.4,13.1,23.2,19.7.8.7,1.4,1.5,2.2,2.3l-18,.3h-10.4c-11.7-7.5-22.6-15.9-31.1-27-5.2-6.8-9-14.3-9.7-23C-141.2-70.6-140.3-71.8-139.9-72.9Z" transform="translate(146 132.9)"/><path class="cls-10" d="M-121.3,21.7c-.8,7.5,3.4,13.3,7,19.2,6.9,11.1,14.6,21.7,25.2,29.5,3.8,2.9,8.9,4,13.4,5.9v1.2l-10.4.3-19.5-3c-14.3-7-22.7-19.8-31.2-32.3A95.6,95.6,0,0,1-144.5,28c-2.3-5.1.3-9,5.8-8.5S-127.1,20.9-121.3,21.7Z" transform="translate(146 132.9)"/><path class="cls-11" d="M-108,167.4a10.7,10.7,0,0,1-1.6,1.4c-7.8,4.8-7.9,14.4-.1,19.3.6.4,1.2,1.1,1.8,1.6-8.8.1-17.5.2-26.2.1-6.9-.1-11.9-5-11.9-11.3s4.9-11.1,11.9-11.2C-125.4,167.1-116.7,167.3-108,167.4Z" transform="translate(146 132.9)"/><path class="cls-12" d="M24-54.8c-.1-26-.1-51.9-.2-77.8h7.7c-.1,25.9-.1,51.9-.2,77.9Z" transform="translate(146 132.9)"/><path class="cls-11" d="M58.3-132.6c.8,9.3,1.5,18.5,2.5,27.8s1.8,16,2.7,24c.8,6.2,1.5,12.5,2.1,18.8.2,2.1,0,4.2,0,6.3H59.1c-1.3-11.3-2.5-22.6-3.8-33.8l-3.6-31.3-.9-9.6a20.9,20.9,0,0,1-.1-2.5Z" transform="translate(146 132.9)"/><path class="cls-11" d="M-10.4-55.6l2.1-21.5c.9-8,1.9-16,2.8-24,1.1-10.4,2.1-20.9,3.2-31.4H5.2L-3.2-55.5Z" transform="translate(146 132.9)"/><path class="cls-11" d="M-44.1-57.9c1-6.1,1.9-12.2,3.2-18.2,4-18.9,8.2-37.8,12.3-56.6l7.1-.2c-2.4,11.6-4.7,23.3-7.2,34.9S-34-73.2-36.8-60.9c-.3,1.2-1.5,2.2-2.3,3.3Z" transform="translate(146 132.9)"/><path class="cls-11" d="M84.6-132.7c1.5,7.6,2.9,15.1,4.5,22.6,3.7,16.9,7.4,33.7,11,50.6a4,4,0,0,1,0,1.1l-7.1.6L84.3-98.6c-2.5-11.4-4.9-22.8-7.4-34.2Z" transform="translate(146 132.9)"/><path class="cls-11" d="M-77.7-61.7a29.9,29.9,0,0,1,1-4.3q9.8-30.4,19.7-60.9a20.9,20.9,0,0,0,.7-3.6l8.6-2.4c-2.3,7.2-4.5,14.5-6.8,21.7-5,15.5-10.1,31-15,46.5-.7,2.1-1.4,3.7-4,3.3Z" transform="translate(146 132.9)"/><path class="cls-11" d="M111.4-131c1.4,4.4,2.7,8.8,4.1,13.2,5.6,17.2,11.3,34.4,16.9,51.7a24.4,24.4,0,0,1,.7,3.9l-7,.7q-8.2-25.4-16.4-50.7l-6.6-20.5Z" transform="translate(146 132.9)"/><path class="cls-13" d="M-100.3-19.5h10.4v44l-10.5-.8C-100.4,9.3-100.4-5.1-100.3-19.5Z" transform="translate(146 132.9)"/><path class="cls-14" d="M195.5,22.3c-13.3,1.5-26.5,3.1-39.8,4.5-6.4.7-12.8,1.3-19.2,1.5-20.2.9-40.5,1.6-60.7,2.3a26,26,0,0,1-3.9-.5c15.1-.8,30.3-1.4,45.5-2.5,12.5-1,25-2.5,37.5-3.7l27.7-3.3,7-1.1C192.1,19.2,194.4,19.6,195.5,22.3Z" transform="translate(146 132.9)"/><path class="cls-15" d="M156.8,82.2c-6.2,2.3-12.6,2.6-19.1,2.3-.1-2.3-.1-4.5-.2-6.8l18.9-2.8.5.6Z" transform="translate(146 132.9)"/><path class="cls-15" d="M-105.6,74.8l19.5,3c-.1,2.2-.1,4.5-.2,6.7-6.5.2-13,.2-19.2-2.2C-105.5,79.8-105.6,77.3-105.6,74.8Z" transform="translate(146 132.9)"/><path class="cls-5" d="M50.7-132.8a20.9,20.9,0,0,0,.1,2.5l-1.5-2.4Z" transform="translate(146 132.9)"/><path class="cls-6" d="M156.9,75.5l-.5-.6h.6A.8.8,0,0,1,156.9,75.5Z" transform="translate(146 132.9)"/><path class="cls-16" d="M11.9,30.7c1.3-1.4,2.6-2.9,4-4.3,4.3-4.3,10.1-4.4,14.5-.2,1.5,1.6,3.1,3.1,4.7,4.6s3.4,4.2,5.2,6.1l34,37.8a31.3,31.3,0,0,1,2,3H60.6l-86.1.2-3.8-.3c.2-.4.2-1,.5-1.3l18.3-20.6C-3.1,47.3,4.4,39,11.9,30.7Z" transform="translate(146 132.9)"/><path class="cls-17" d="M75.2,16.4c-3.6,0-7.2.1-10.8,0s-5.7-1.8-5.8-5.3-.2-7.7-.1-11.6S60.7-6,64.3-6H86.7c3.8,0,5.7,1.9,5.9,5.7s.1,7.5-.1,11.2-2.1,5.5-5.7,5.5S79.1,16.4,75.2,16.4Z" transform="translate(146 132.9)"/><path class="cls-17" d="M-69.7,16.4c-3.7,0-7.5.1-11.2,0s-5.6-1.8-5.8-5.4-.1-7.7,0-11.6S-84.5-6-80.9-6h22.5c3.7,0,5.6,2,5.7,5.8a99.1,99.1,0,0,1,0,10.9c-.1,3.9-2,5.7-6.1,5.7S-66.1,16.4-69.7,16.4Z" transform="translate(146 132.9)"/><path class="cls-3" d="M27,16.4c-3.6,0-7.3.1-10.9,0s-5.7-1.7-5.8-5.6-.1-7.5,0-11.2S12.1-6,15.8-6H38.6C42.1-6,44-4,44.1-.4s0,7.3,0,10.9-1.9,5.9-5.9,5.9S30.7,16.4,27,16.4Z" transform="translate(146 132.9)"/><path class="cls-3" d="M124.1,16.4c-3.7,0-7.5.1-11.2,0s-5.8-1.8-5.9-5.6-.1-7.5,0-11.2S109.1-6,112.9-6h22c4,0,5.8,1.7,5.9,5.6s.1,7.5,0,11.2-1.9,5.6-5.9,5.6S127.7,16.4,124.1,16.4Z" transform="translate(146 132.9)"/><path class="cls-3" d="M-21.2,16.4c-3.8,0-7.5.1-11.2,0s-5.7-1.9-5.8-5.7-.1-7.5,0-11.2S-36.1-6-32.5-6h22.4C-6.4-6-4.6-4.2-4.5-.6s.1,7.7.1,11.6-1.9,5.3-5.6,5.4S-17.5,16.4-21.2,16.4Z" transform="translate(146 132.9)"/><path class="cls-18" d="M11.9,30.7c-7.5,8.3-15,16.6-22.4,25L-28.8,76.3c-.3.3-.3.9-.5,1.3H-39c1.8-2.4,3.4-4.8,5.4-7C-21.7,57.2-9.8,44,2.2,30.7Z" transform="translate(146 132.9)"/><path class="cls-18" d="M76.3,77.7a31.3,31.3,0,0,0-2-3l-34-37.8c-1.8-1.9-3.4-4.1-5.2-6.1h9.7l.7.6c1.9,2.4,3.6,4.9,5.6,7.2,8.1,8.9,16.3,17.7,24.2,26.6,3.5,3.9,6.7,8.2,9.9,12.3l-8.8.2Z" transform="translate(146 132.9)"/><path class="cls-16" d="M45.5,31.5l-.7-.6h.8A1.3,1.3,0,0,1,45.5,31.5Z" transform="translate(146 132.9)"/><path class="cls-16" d="M56.1,30.7h0Z" transform="translate(146 132.9)"/><path class="cls-19" d="M137.5,77.7c.1,2.3.1,4.5.2,6.8v82.9h-42a1.3,1.3,0,0,0-.1-.6c.1-1,.3-2,.3-3V84.6l.4-6.9Zm-10.2,46c0-8.5.1-16.9,0-25.4,0-4.7-1.6-6.2-6.3-6.2h-9.4c-3.6.1-5.4,1.7-5.4,5.2-.1,17.6,0,35.2,0,52.8,0,3.3,1.9,4.9,5.2,5h10.1c4.3,0,5.8-1.5,5.8-5.9C127.4,140.7,127.3,132.2,127.3,123.7Z" transform="translate(146 132.9)"/><path class="cls-20" d="M-86.3,84.5c.1-2.2.1-4.5.2-6.7l10.4-.3h3l27.7.2c.1,2.3.1,4.5.2,6.8v82.9H-86.3Zm10,38.9v24.7c0,5.6,1.4,7,7.1,7h9c3.5,0,5.3-1.9,5.4-5.3V97.5c-.1-3.6-2.1-5.4-5.8-5.4h-9c-5,.1-6.7,1.7-6.7,6.8Z" transform="translate(146 132.9)"/><path class="cls-7" d="M-44.8,167.4V84.5h19.2v82.8Z" transform="translate(146 132.9)"/><path class="cls-21" d="M95.6,166.9a1.3,1.3,0,0,1,.1.6H77a.4.4,0,0,1,.1-.5Z" transform="translate(146 132.9)"/><path class="cls-21" d="M96.3,77.7c-.2,2.3-.3,4.6-.4,6.9H76.8c-.1-2.3-.3-4.6-.4-6.8l8.8-.2Z" transform="translate(146 132.9)"/><path class="cls-15" d="M-25.6,84.5H-44.8c-.1-2.3-.1-4.5-.2-6.8h15.7l3.8.3C-25.5,80.1-25.6,82.3-25.6,84.5Z" transform="translate(146 132.9)"/><path class="cls-16" d="M-72.7,77.5h-3V76.3Z" transform="translate(146 132.9)"/><path class="cls-22" d="M76.8,84.6H95.9v79.3c0,1-.2,2-.3,3H77.1c-.1-1.2-.3-2.3-.3-3.4Z" transform="translate(146 132.9)"/><path class="cls-3" d="M127.3,123.7c0,8.5.1,17,0,25.4,0,4.4-1.5,5.9-5.8,5.9H111.4c-3.3-.1-5.2-1.7-5.2-5,0-17.6-.1-35.2,0-52.8,0-3.5,1.8-5.1,5.4-5.2H121c4.7,0,6.3,1.5,6.3,6.2C127.4,106.8,127.3,115.2,127.3,123.7Z" transform="translate(146 132.9)"/><path class="cls-23" d="M-76.3,123.4V98.8c0-5.1,1.7-6.7,6.7-6.8h9c3.7,0,5.7,1.8,5.8,5.4v52.3c-.1,3.4-1.9,5.3-5.4,5.3h-9c-5.7,0-7.1-1.4-7.1-7Z" transform="translate(146 132.9)"/></svg>