<svg id="Layer_1" data-name="Layer 1" xmlns="http://www.w3.org/2000/svg" width="408.8" height="377.1" viewBox="0 0 408.8 377.1"><defs><style>.cls-1{fill:#02c2fd;}.cls-2{fill:#fddb64;}.cls-3{fill:#b4e56f;}.cls-4{fill:#fec751;}.cls-5{fill:#7fe0fe;}.cls-6{fill:#825b51;}.cls-7{fill:#966a5b;}.cls-8{fill:#a0d656;}.cls-9{fill:#835b51;}.cls-10{fill:#b4e570;}.cls-11{fill:#fefefe;}</style></defs><path class="cls-1" d="M232.6,188.7c-3,5.9-7.9,8.2-14.2,9.9-8.5,2.3-16.7,5.4-25.6,5.4-5.9-1-12.1-1.1-17.5-3.2a39,39,0,0,0-29.8-.1,49.7,49.7,0,0,1-36.2.1,40.5,40.5,0,0,0-30.6.1c-12.3,4.7-25.1,4.2-37.4-.7-9-3.6-17.7-3.4-26.7.1a53.1,53.1,0,0,1-39.2-.1c-7.9-3-15.8-4.2-23.7-.9-15.5,6.4-30.7,5.8-46.1-.2-6.6-2.6-13.2-1.8-19.9.1s-14.7,3.2-22.1,4.7c-11.1.5-21.2-4.2-31.6-7.1-6.1-1.7-9.4-8.7-7.8-14.7s7.6-10.8,14-9.5,10.7,3.2,16.1,4.2,9.4.6,14,.8a24.6,24.6,0,0,0,4.7-1c15.4-6.3,30.7-6.2,46.2,0,6.6,2.6,13.4,1.9,20.3,0s14.4-3.2,21.6-4.8c7.4,1.4,15,2.1,22.2,4.3s16.3,2.8,24.5-.4a54.3,54.3,0,0,1,40.4-.1,34.9,34.9,0,0,0,26,0,53.4,53.4,0,0,1,39.7-.1,35.2,35.2,0,0,0,26.3.1c13.3-5.2,26.7-4.9,40.1,0,2.5.9,5.1,1.3,7.6,2,4.7-.2,9.4-.1,14-.8s7.3-2.4,11-3.2c10.9-2.5,13.7-1.3,19.7,7.9Z" transform="translate(176.2 160.2)"/><path class="cls-2" d="M187.9,177.6c-2.5-.7-5.1-1.1-7.6-2-13.4-4.9-26.8-5.2-40.1,0a35.2,35.2,0,0,1-26.3-.1,53.4,53.4,0,0,0-39.7.1,34.9,34.9,0,0,1-26,0,54.3,54.3,0,0,0-40.4.1c-8.2,3.2-16.1,3.1-24.5.4s-14.8-2.9-22.2-4.3c7.4-7.2,14.3-14.9,22.2-21.5,17.5-14.8,37.8-24.5,60-30.3l14.4-3.8,11.1,1.3,15.3,2.9,10.8,2.8c16.5,4.8,32.5,10.9,47.5,19.3C159.4,151.9,174.9,163.1,187.9,177.6Z" transform="translate(176.2 160.2)"/><path class="cls-3" d="M-34.9-144.3c2.4-2.3,4.5-4.9,7.1-6.9,10.4-8.4,22.7-9.8,35.4-8.7a105.6,105.6,0,0,1,13.7,2.2c1.6.3,3,1.8,4.4,2.7-1.2,1.4-2.2,3.3-3.7,4-14.5,6.3-27.9,14.3-38.9,25.9-5.1,5.4-9.5,11.3-11.2,19.2a23.3,23.3,0,0,0,2.6-1.7c8.8-7.2,18.1-13.6,28.9-17.4,19.7-7.1,37.4-3.3,53,10.4A88.3,88.3,0,0,1,67-103.2c1.1,1.4,1.9,4.2,1.2,5.6s-3.3,2.7-5.2,2.7c-11.6-.1-23.3-.5-35-.8a13.1,13.1,0,0,0-2.7-.6c-15.8-.3-31.6-.7-47.4-.8-2.7,0-5.3,1-8,1.6l-10.4,3.9c-1.5.7-3.3,1-4.6,2L-74-66.4c-2.9,2.4-5.5,5.2-8.2,7.8a43.4,43.4,0,0,0-4.6,2.8c-8.2,6.7-16.3,13.6-24.6,20.2-1.9,1.5-5.3,3-6.9,2.3S-121-37.7-121-40c.2-16.9,4.5-32.3,17.6-44.1,9.3-8.3,20.4-12.3,32.5-13.8,5.9-.7,11.9-.6,17.9-.9l3.3-.4.3-1.2c-3.9-1.4-7.8-2.9-11.8-3.9-17.5-4.5-35-4.1-52.4.2a9.5,9.5,0,0,1-3.2.6c-1.1-.2-2.8-.6-3.3-1.4a4.3,4.3,0,0,1,.7-3.6c8.3-10.2,17.7-19.1,30.3-23.8,7.9-2.8,15.6-2.4,23.4.1a54.2,54.2,0,0,1,20.4,17.3c.8,1.1,2.4,1.6,3.6,2.5.4-1.3,1.2-2.6,1.2-3.9,0-7.3.6-14.5,3.3-21.4C-36.4-139.9-35.6-142.1-34.9-144.3Z" transform="translate(176.2 160.2)"/><path class="cls-4" d="M57.7,116.2,43.3,120c-22.2,5.8-42.5,15.5-60,30.3-7.9,6.6-14.8,14.3-22.2,21.5-7.2,1.6-14.5,2.8-21.6,4.8s-13.7,2.6-20.3,0c-15.5-6.2-30.8-6.3-46.2,0a24.6,24.6,0,0,1-4.7,1c11.9-13.2,26-23.8,41.3-32.7a221.4,221.4,0,0,1,73.9-26.6l18.4-3,19.2-1Z" transform="translate(176.2 160.2)"/><path class="cls-5" d="M-136.4,203.9c7.4-1.5,14.9-2.7,22.1-4.7s13.3-2.7,19.9-.1c15.4,6,30.6,6.6,46.1.2,7.9-3.3,15.8-2.1,23.7.9a53.1,53.1,0,0,0,39.2.1c9-3.5,17.7-3.7,26.7-.1,12.3,4.9,25.1,5.4,37.4.7a40.5,40.5,0,0,1,30.6-.1,49.7,49.7,0,0,0,36.2-.1,39,39,0,0,1,29.8.1c5.4,2.1,11.6,2.2,17.5,3.2-4,8-11.5,11.6-19.8,8.7s-18-2.8-27.2.6a50.6,50.6,0,0,1-37.3,0,37.8,37.8,0,0,0-28.6,0,52,52,0,0,1-38.2-.1,36.1,36.1,0,0,0-27.4,0,52.3,52.3,0,0,1-38.9-.2c-8.4-3.3-16.7-3.8-25.2-.4a55.7,55.7,0,0,1-41.9.1,32.3,32.3,0,0,0-23.7-.3C-124.5,215.7-132.2,212.3-136.4,203.9Z" transform="translate(176.2 160.2)"/><path class="cls-6" d="M1.9,115.3l-18.4,3c-.8-21.3-1.2-42.5-2.6-63.7-1.1-17.2-3.2-34.3-5.3-51.4A716.5,716.5,0,0,0-39.6-80.3c-.6-2.5-1.3-4.9-1.9-7.3s.7-2.7,1-4l10.4-3.9,3.6,2.8c.9,2.5,1.8,5,2.8,7.5-4.3,3.8-3.8,8.8-2.8,13.3,3.8,16.4,8.5,32.5,11.8,49,4,19.6,7.1,39.4,10,59.2C-3,47.7-2.3,59.2-1.3,70.6-.1,85.5.8,100.4,1.9,115.3Z" transform="translate(176.2 160.2)"/><path class="cls-7" d="M1.9,115.3C.8,100.4-.1,85.5-1.3,70.6-2.3,59.2-3,47.7-4.7,36.3c-2.9-19.8-6-39.6-10-59.2-3.3-16.5-8-32.6-11.8-49-1-4.5-1.5-9.5,2.8-13.3,5.5,16.1,11.6,32,16.4,48.2C3.9.3,11.4,38.5,16.8,77.1c1.7,12.4,2.9,24.8,4.3,37.2Z" transform="translate(176.2 160.2)"/><path class="cls-8" d="M124-12.5c8.7-.1,17.3.7,24.8,5.7S161.3,7.4,163,17.1a85.2,85.2,0,0,1,.8,14.3c0,1.4-.6,3.5-1.6,4s-2.9-.4-4-1.3L118.3.4a46,46,0,0,0-4.5-3.2c-3.7-2.1-7.5-3.5-11.7-1.9-5.8.4-11.6.7-17.3,1.3C73.1-2.2,61.6-.9,49.9.2c-1.5.1-3.1-.8-4.6-1.3.5-1.4.5-3.2,1.4-4.3,5.2-5.8,10-12.2,16.1-16.9,10.3-7.9,21.9-7.5,33.3-1.5l4,1.7H100l.9,1.2c1.6,2.2,3.2,4.4,4.7,6.7s6.8,5.8,10.4,4.7S121.4-11.5,124-12.5Z" transform="translate(176.2 160.2)"/><path class="cls-9" d="M102.1-4.7c4.2-1.6,8-.2,11.7,1.9-.9,2.8-1.9,5.7-2.8,8.6-4.2-1.1-6.8-.1-8.1,3.3a90,90,0,0,0-4.2,11.6c-3.4,15-7,29.9-9.8,44.9-3.5,18.1-4.7,36.4-4.8,54.8l-15.3-2.9c2.8-37,9.4-73.2,25-107.3C96.2,5.1,99.3.3,102.1-4.7Z" transform="translate(176.2 160.2)"/><path class="cls-10" d="M124-12.5c-2.6,1-5.3,2.2-8,3s-8.2-1.2-10.4-4.7-3.1-4.5-4.7-6.7l-.9-1.2h.1C97-25.8,94.4-30,90.8-33s-9.3-5.6-13.9-8.4a31.1,31.1,0,0,1-3.2-3.1c1.2-1.1,2.3-2.6,3.7-3,6.6-2.1,13.3-3.4,20.3-1.8s12.2,6.4,14.2,13.6c1.1,3.9,1.2,8,1.7,12.1.2,1.5.2,3,.3,4.5l1,.4c1-1,1.9-2.1,2.9-3.2,3-3.3,5.7-7,9.2-9.8,6.5-5.3,14.2-5.9,21.1-1.3,5.3,3.5,9.7,8.5,14.4,12.9a3.6,3.6,0,0,1,.6,3.1c-.4.8-2,1.3-3,1.2-3.3-.2-6.5-.9-9.8-1.1A49.6,49.6,0,0,0,124-12.5Z" transform="translate(176.2 160.2)"/><path class="cls-8" d="M-26.5-92.7l-3.6-2.8c2.7-.6,5.3-1.6,8-1.6,15.8.1,31.6.5,47.4.8a13.1,13.1,0,0,1,2.7.6c4.8,11.4,6.1,23,3.1,35.1-1.7,6.7-5.4,7.9-10.4,3.2C8.8-68.7-3.6-79.3-17.5-88.1A95.1,95.1,0,0,0-26.5-92.7Z" transform="translate(176.2 160.2)"/><path class="cls-8" d="M-40.5-91.6c-.3,1.3-.6,2.7-1,4-3.1,9.4-6.8,18.6-9.3,28.2S-54.5-40-56.4-30.2c-1,5.5-4.8,6.9-9.1,3.2A46.5,46.5,0,0,1-82.2-58.6c2.7-2.6,5.3-5.4,8.2-7.8l28.9-23.2C-43.8-90.6-42-90.9-40.5-91.6Z" transform="translate(176.2 160.2)"/><path class="cls-7" d="M84.1,120.4c.1-18.4,1.3-36.7,4.8-54.8,2.8-15,6.4-29.9,9.8-44.9a90,90,0,0,1,4.2-11.6c1.3-3.4,3.9-4.4,8.1-3.3-8.8,33.4-13.2,67.4-15.1,101.9-.3,5.1-.6,10.3-1,15.5Z" transform="translate(176.2 160.2)"/><path class="cls-8" d="M-34.9-144.3c-.7,2.2-1.5,4.4-2.3,6.6-2.7,6.9-3.3,14.1-3.3,21.4,0,1.3-.8,2.6-1.2,3.9-1.2-.9-2.8-1.4-3.6-2.5a54.2,54.2,0,0,0-20.4-17.3c.8-6.2.8-12.7,2.6-18.6,2.3-7.7,8.7-9.9,15.3-5.5C-43-153-39.1-148.4-34.9-144.3Z" transform="translate(176.2 160.2)"/><path class="cls-11" d="M100-22.1l.9,1.2Z" transform="translate(176.2 160.2)"/></svg>