<svg id="Layer_1" data-name="Layer 1" xmlns="http://www.w3.org/2000/svg" width="383.3" height="365.2" viewBox="0 0 383.3 365.2"><defs><style>.cls-1{fill:#030303;}.cls-2{fill:#020202;}.cls-3{fill:#010101;}.cls-4{fill:#e2aa8a;}.cls-5{fill:#060505;}.cls-6{fill:#bcd8fc;}.cls-7{fill:#b76a56;}.cls-8{fill:#f4f0ee;}.cls-9{fill:#ece9e7;}.cls-10{fill:#ede9e7;}.cls-11{fill:#cdf0cf;}.cls-12{fill:#030202;}.cls-13{fill:#040302;}.cls-14{fill:#030304;}.cls-15{fill:#050607;}</style></defs><path class="cls-1" d="M-164-102.6a7.5,7.5,0,0,0,.9-1.5c3.7-9.7,10.7-14.6,21.1-14.6h80.5c0-4.7-.1-9.1,0-13.6.1-13,8.8-21.7,21.9-21.7H92.9c12.9,0,21.7,8.5,21.9,21.3s.2,26.5,0,39.7-8.7,21.3-21.5,21.3H-39.9c-13.2,0-21.6-8.7-21.6-21.9-.1-3.2,0-6.4,0-10.1h-79.2c-6.7,0-8.3,1.7-8.3,8.5V71.3c0,6.9,1.7,8.5,8.6,8.5,3,.1,6,0,9,.2a7.2,7.2,0,0,1,6.9,7c.2,3.7-2.4,7.4-6.3,7.5a82.3,82.3,0,0,1-17.9-.6c-6.6-1.2-11-5.9-13.8-12.1-.4-1.1-1-2.1-1.5-3.2ZM26.8-139.2H-39.1c-5.5.1-7.4,2-7.5,7.4V-94c.1,5.5,1.9,7.3,7.5,7.3H92.3c5.7,0,7.5-1.8,7.5-7.7q.2-18.3,0-36.6c0-6.5-1.7-8.2-8.2-8.2Z" transform="translate(164 154.2)"/><path class="cls-2" d="M40.4,65.8c.6-4.4,3.6-7.4,7.8-7.4H126c3.6,0,5.7,2.2,7.6,4.8l48.6,62.2,3.2,4.1a7.5,7.5,0,0,1,1.2,8.4c-1.4,3.2-4.1,4.4-7.6,4.4H141.9c.9,1.2,1.4,2.1,2,2.9L184.5,197c2.1,2.7,3.7,5.4,2.5,8.9a7.5,7.5,0,0,1-6.4,5,15.1,15.1,0,0,1-3,.1H-126.7a13,13,0,0,1-7.2-2.2c-3.4-2.4-3.3-6.8-.4-10.6l34.6-44.2,9-11.7h-37.2c-3.4,0-6.1-1.1-7.6-4.3s-.9-5.9,1.2-8.6c17.6-22.4,35-44.8,52.5-67.3,2.1-2.7,4.7-3.7,8.1-3.7h54.3c5.9,0,8,1.7,9.3,7.4-1.3,5.8-3.4,7.5-9.6,7.5H-68.4c-1.3,0-3,0-3.7.8-2.8,3.1-5.2,6.5-8.2,10.3h40.1a7,7,0,0,1,7.3,6.9,7.5,7.5,0,0,1-6.4,7.9,24.1,24.1,0,0,1-3.8.1c-15.3,0-30.7-.1-46,.1a6.7,6.7,0,0,0-4.6,2.2c-6,7.5-11.9,15.1-17.8,22.7a25,25,0,0,0-1.6,2.4H164.5c-3.8-4.8-7.2-9.3-10.7-13.6a4.9,4.9,0,0,0-3-.9H136.2c-12.6,0-25.2.1-37.8,0-5.3,0-8.8-4.2-7.8-9s3.9-5.9,8.5-5.9c12.7-.1,25.5,0,38.2,0h4.1c-6.1-7.8-11.6-14.7-16.9-21.7a5.6,5.6,0,0,0-5-2.4c-23,.1-45.9,0-68.9,0C44.2,73.3,42.3,72,40.4,65.8ZM-113.3,195.6l1.4.4c24.3,0,48.6.1,72.9-.1a6.2,6.2,0,0,0,4-2c3.5-4.1,6.7-8.4,10.1-12.5,4.8-5.9,10.8-9.6,18.5-10.1s13.2-.4,19.8-.3c9.4.2,16.6,4.6,22.2,12,2.8,3.8,5.8,7.5,8.9,11.1a5.8,5.8,0,0,0,3.7,1.9h69.9c2,0,2.8-.6,3.3-2.7,1.2-6,4.1-11.4,9.1-15s9.3-5.3,14.1-8c-4.7-6.1-10.3-12.4-14.8-19.3s-10-10.3-18.4-9c-3.6.6-7.3.1-11.5.1,3,3.2,5.6,5.6,7.7,8.4,9.1,11.2,3.1,28-11,30.6-10.8,1.9-21.3,1.3-29.3-7.9-.9-1.1-2.3-1.9-3.3-3-3-3.4-6.6-4.5-11.2-4.5-10.6,0-18.2-6.7-19.7-16.8a51.4,51.4,0,0,1,0-6.8H28.6c-14.4,0-28.7.1-43.1-.1-3.8-.1-6.5.8-8.9,4s-5.5,6.1-8.1,9.2A22,22,0,0,1-49,163.1c-11.4-.1-22.7.1-34.1-.1a8.3,8.3,0,0,0-7.8,3.7C-98.1,176.3-105.6,185.8-113.3,195.6ZM66.3,142.2H52.6c-2.9,0-4.6,1.5-4.6,4.3s1.7,4.2,4.5,4.4H57a19.3,19.3,0,0,1,13.8,5.5c1.8,1.7,3.9,3.1,5.6,5,4,4.6,8.9,6.5,14.9,5.3,1.8-.3,4.4-1.2,5-2.6s-.5-4-1.6-5.4-4.5-4.3-6.4-6.7C82.1,144.3,74.9,139.4,66.3,142.2Zm-40,53.7c-3.4-5.3-6.8-9.9-13.6-10S2,185.8-3.4,186a13.9,13.9,0,0,0-13,9.9Zm109.8-.2h28.1c-3.8-6.1-8.3-10.4-15.8-9.5C142.5,186.8,138.4,189.9,136.1,195.7ZM-75.8,148.1c8.8,0,17-.3,25.2.1,4.8.1,7.7-1.8,10.2-6-9,0-17.7.3-26.3-.2C-71.4,141.8-73.6,144-75.8,148.1Z" transform="translate(164 154.2)"/><path class="cls-3" d="M114.8-19.5h81.6c14.3,0,22.9,8.6,22.9,22.7v143c0,14.4-8.6,22.9-23.1,22.9h-7.1c-4.7-.2-8-3.5-7.9-7.7s3.3-7.1,7.9-7.3h8.2c4.9-.1,7-2.2,7-7.2.1-9.1,0-18.2,0-27.3V4c0-6.7-1.7-8.5-8.3-8.5H114.8V6.8c-.1,13.9-8.6,22.4-22.3,22.4H-39.3c-13.6,0-22.2-8.5-22.2-22.1s-.1-25.7,0-38.5,8.7-21.8,21.8-21.8H92.8c13.2,0,21.8,8.5,22,21.6C114.9-27.7,114.8-23.8,114.8-19.5ZM26.9-38.2H-39.3c-5.3,0-7.2,1.9-7.3,7.2V6.4c0,6.1,1.8,7.8,7.8,7.8h131c5.7,0,7.6-1.8,7.6-7.6.1-12.3.1-24.7,0-37,0-6-1.8-7.8-7.8-7.8Z" transform="translate(164 154.2)"/><path class="cls-4" d="M40.4,65.8c1.9,6.2,3.8,7.5,10.2,7.5,23,0,45.9.1,68.9,0a5.6,5.6,0,0,1,5,2.4c5.3,7,10.8,13.9,16.9,21.7h-4.1c-12.7,0-25.5-.1-38.2,0-4.6,0-7.6,2.2-8.5,5.9s2.5,9,7.8,9c12.6.1,25.2,0,37.8,0h14.6a4.9,4.9,0,0,1,3,.9c3.5,4.3,6.9,8.8,10.7,13.6H-113.1a25,25,0,0,1,1.6-2.4c5.9-7.6,11.8-15.2,17.8-22.7a6.7,6.7,0,0,1,4.6-2.2c15.3-.2,30.7-.1,46-.1a24.1,24.1,0,0,0,3.8-.1,7.5,7.5,0,0,0,6.4-7.9,7,7,0,0,0-7.3-6.9H-80.3c3-3.8,5.4-7.2,8.2-10.3.7-.8,2.4-.8,3.7-.8h48.7c6.2,0,8.3-1.7,9.6-7.5H7.8c1.1,4.9,3.7,7.5,7.7,7.5s6.3-2.5,7.4-7.3ZM6.9,112.3c2.9,0,5.9.1,8.9,0a7.2,7.2,0,0,0,7.4-6.9c.2-4-2.4-7.6-6.5-7.8a179.4,179.4,0,0,0-19.4-.1,7.3,7.3,0,0,0-6.7,7.7c.2,4.1,3.3,7,7.6,7.1S4,112.3,6.9,112.3ZM65.4,97.4h7.1a7,7,0,0,0,7-6.8c.3-4-2.2-7.6-6.3-7.9a101.6,101.6,0,0,0-15.6,0,7.2,7.2,0,0,0-6.5,7.5,7.5,7.5,0,0,0,7.2,7.2Z" transform="translate(164 154.2)"/><path class="cls-5" d="M22.9,66c-1.1,4.8-3.6,7.3-7.4,7.3s-6.6-2.6-7.7-7.5c1.1-4.9,3.4-7.3,7.4-7.4S21.7,60.6,22.9,66Z" transform="translate(164 154.2)"/><path class="cls-6" d="M26.8-139.2H91.6c6.5,0,8.2,1.7,8.2,8.2q.2,18.3,0,36.6c0,5.9-1.8,7.7-7.5,7.7H-39.1c-5.6,0-7.4-1.8-7.5-7.3v-37.8c.1-5.4,2-7.3,7.5-7.4Zm16.8,33H69c5.1-.1,8.2-2.8,8.3-7.2s-3-7.7-8.1-7.8H18.7c-5.1.1-8.4,3.2-8.3,7.7s3.2,7.2,8.5,7.3Zm-60.3-.1a7.5,7.5,0,0,0,7.5-7.5,7.7,7.7,0,0,0-7.4-7.4,7.6,7.6,0,0,0-7.5,7.6A7.4,7.4,0,0,0-16.7-106.3Z" transform="translate(164 154.2)"/><path class="cls-7" d="M-113.3,195.6c7.7-9.8,15.2-19.3,22.4-28.9a8.3,8.3,0,0,1,7.8-3.7c11.4.2,22.7,0,34.1.1a22,22,0,0,0,17.5-7.8c2.6-3.1,5.7-5.9,8.1-9.2s5.1-4.1,8.9-4c14.4.2,28.7.1,43.1.1h4.5a51.4,51.4,0,0,0,0,6.8c1.5,10.1,9.1,16.8,19.7,16.8,4.6,0,8.2,1.1,11.2,4.5,1,1.1,2.4,1.9,3.3,3,8,9.2,18.5,9.8,29.3,7.9,14.1-2.6,20.1-19.4,11-30.6-2.1-2.8-4.7-5.2-7.7-8.4,4.2,0,7.9.5,11.5-.1,8.4-1.3,13.9,1.9,18.4,9s10.1,13.2,14.8,19.3c-4.8,2.7-9.8,4.9-14.1,8s-7.9,9-9.1,15c-.5,2.1-1.3,2.7-3.3,2.7H48.2a5.8,5.8,0,0,1-3.7-1.9c-3.1-3.6-6.1-7.3-8.9-11.1-5.6-7.4-12.8-11.8-22.2-12-6.6-.1-13.2-.1-19.8.3s-13.7,4.2-18.5,10.1c-3.4,4.1-6.6,8.4-10.1,12.5a6.2,6.2,0,0,1-4,2c-24.3.2-48.6.1-72.9.1Z" transform="translate(164 154.2)"/><path class="cls-8" d="M66.3,142.2c8.6-2.8,15.8,2.1,22,9.8,1.9,2.4,4.6,4.2,6.4,6.7s2.2,4,1.6,5.4-3.2,2.3-5,2.6c-6,1.2-10.9-.7-14.9-5.3-1.7-1.9-3.8-3.3-5.6-5A19.3,19.3,0,0,0,57,150.9H52.5c-2.8-.2-4.6-1.6-4.5-4.4s1.7-4.3,4.6-4.3Z" transform="translate(164 154.2)"/><path class="cls-9" d="M26.3,195.9H-16.4a13.9,13.9,0,0,1,13-9.9c5.4-.2,10.7-.1,16.1-.1S22.9,190.6,26.3,195.9Z" transform="translate(164 154.2)"/><path class="cls-10" d="M136.1,195.7c2.3-5.8,6.4-8.9,12.3-9.5,7.5-.9,12,3.4,15.8,9.5Z" transform="translate(164 154.2)"/><path class="cls-9" d="M-75.8,148.1c2.2-4.1,4.4-6.3,9.1-6.1,8.6.5,17.3.2,26.3.2-2.5,4.2-5.4,6.1-10.2,6C-58.8,147.8-67,148.1-75.8,148.1Z" transform="translate(164 154.2)"/><path class="cls-11" d="M26.9-38.2H92c6,0,7.8,1.8,7.8,7.8.1,12.3.1,24.7,0,37,0,5.8-1.9,7.6-7.6,7.6h-131c-6,0-7.8-1.7-7.8-7.8V-31c.1-5.3,2-7.2,7.3-7.2Zm-.4,18H-15c-5.8,0-9.1,2.8-9.1,7.6s3.3,7.3,8.9,7.4H68.6c5.5,0,8.7-2.8,8.7-7.5s-3.3-7.4-8.9-7.4Z" transform="translate(164 154.2)"/><path class="cls-12" d="M6.9,112.3c-2.9,0-5.8.1-8.7,0s-7.4-3-7.6-7.1a7.3,7.3,0,0,1,6.7-7.7,179.4,179.4,0,0,1,19.4.1c4.1.2,6.7,3.8,6.5,7.8a7.2,7.2,0,0,1-7.4,6.9C12.8,112.4,9.8,112.3,6.9,112.3Z" transform="translate(164 154.2)"/><path class="cls-13" d="M65.4,97.4H58.3a7.5,7.5,0,0,1-7.2-7.2,7.2,7.2,0,0,1,6.5-7.5,101.6,101.6,0,0,1,15.6,0c4.1.3,6.6,3.9,6.3,7.9a7,7,0,0,1-7,6.8Z" transform="translate(164 154.2)"/><path class="cls-14" d="M43.6-106.2H18.9c-5.3-.1-8.5-2.8-8.5-7.3s3.2-7.6,8.3-7.7H69.2c5.1.1,8.3,3.3,8.1,7.8s-3.2,7.1-8.3,7.2Z" transform="translate(164 154.2)"/><path class="cls-15" d="M-16.7-106.3a7.4,7.4,0,0,1-7.4-7.3,7.6,7.6,0,0,1,7.5-7.6,7.7,7.7,0,0,1,7.4,7.4A7.5,7.5,0,0,1-16.7-106.3Z" transform="translate(164 154.2)"/><path class="cls-3" d="M26.5-20.2H68.4c5.6,0,8.9,2.7,8.9,7.4s-3.2,7.5-8.7,7.5H-15.2c-5.6-.1-8.8-2.8-8.9-7.4s3.3-7.6,9.1-7.6Z" transform="translate(164 154.2)"/></svg>