<svg id="Layer_1" data-name="Layer 1" xmlns="http://www.w3.org/2000/svg" width="367.3" height="351.2" viewBox="0 0 367.3 351.2"><defs><style>.cls-1{fill:#444;}.cls-2{fill:#f7f8f8;}.cls-3{fill:#f6f7f7;}.cls-4{fill:#bdc5c5;}.cls-5{fill:#bac2c2;}.cls-6{fill:#6457fe;}.cls-7{fill:#bec6c6;}</style></defs><path class="cls-1" d="M-92.8-51.6c-2.2-12.7-4.2-24.9-6.5-37-3.2-17.1,4.5-28.4,21.6-31.5Q-3-133.3,71.6-146.7c5.9-1.1,10.5-.2,15.1,3.7,17.5,14.7,35.3,29,52.8,43.7,2.1,1.8,3.4,5.2,4,8,2.5,13.1,4.7,26.2,7.1,39.7,6.5,0,12.8-.1,19.1,0s14.3-.3,21.3.5a22.9,22.9,0,0,1,20.1,22.5q.3,9,0,18c-.3,9.1-4.8,15.9-12.8,20.1-2.4,1.2-3.1,2.5-3.1,5q.2,81.4.1,162.8c0,17-9.7,26.8-26.6,26.8H-113.5c-16.9,0-26.6-9.8-26.6-26.7q0-81.3.1-162.5c0-2.8-.8-4.2-3.4-5.6-7.9-4.1-12.2-10.9-12.5-19.9-.2-5.5-.2-11-.1-16.4.2-14.4,10.2-24.4,24.6-24.6,11.5-.1,23,0,34.4,0Zm-31.4,64.2V176.9c0,8.7,2.4,11.1,11.1,11.1H168.3c8.7,0,11.1-2.4,11.1-11.1V12.6ZM71.7-130l-3.9.5-95.7,17L-76.4-104c-5.8,1-8.6,4.3-7.6,9.9C-81.6-80-78.9-66-76.3-51.8H134.3c-1.9-10.7-3.8-21.1-5.6-31.6l-23.4,4C91-77.1,79.4-85.6,77-99.9,75.3-109.9,73.5-119.8,71.7-130ZM27.6-3.7H185.9c6.5,0,9.3-2.9,9.4-9.4V-24c0-9.3-2.1-11.5-11.4-11.5H-131.7c-5.2.1-8.3,3.1-8.4,8.4s0,8.3,0,12.4c0,8.5,2.3,10.9,10.9,10.9ZM91-118.6l-1,.5c1.3,6.2,2.2,12.5,3.8,18.5a6.2,6.2,0,0,0,6.7,4.5c5.1-.5,10.2-1.4,16.3-2.3Z" transform="translate(156.1 147.1)"/><path class="cls-2" d="M-124.2,12.6H179.4V176.9c0,8.7-2.4,11.1-11.1,11.1H-113.1c-8.7,0-11.1-2.4-11.1-11.1V12.6ZM115.7,124.2c-13,0-26-.1-38.9,0-6.1,0-9.3,3.1-9.3,9.1-.1,9.9-.1,19.8,0,29.6,0,6.1,3.2,9.2,9.3,9.2h77.5c5.9,0,8.9-3,8.9-9,.1-9.9.1-19.7,0-29.6,0-6.5-2.8-9.3-9.3-9.3C141.1,124.1,128.4,124.2,115.7,124.2ZM27.2,68.1c13.5,0,27-.2,40.4,0A15.5,15.5,0,0,0,83.5,52.2,15.5,15.5,0,0,0,67.8,36.5q-40.2.2-80.4,0A15.5,15.5,0,0,0-28.3,52.2,15.5,15.5,0,0,0-12.5,68.1C.8,67.9,14,68.1,27.2,68.1Z" transform="translate(156.1 147.1)"/><path class="cls-3" d="M71.7-130c1.8,10.2,3.6,20.1,5.3,30.1,2.4,14.3,14,22.8,28.3,20.5l23.4-4c1.8,10.5,3.7,20.9,5.6,31.6H-76.3C-78.9-66-81.6-80-84-94.1c-1-5.6,1.8-8.9,7.6-9.9l48.5-8.5,95.7-17ZM-50.4-60.7l17.3-3.1c15.1-2.6,30.3-5.2,45.4-8,5.8-1.1,8.1-4.8,7-10.2-.7-3.9-5.1-6.4-10-5.6S0-85.9-4.6-85.1l-48.7,8.6c-4.9.8-7.8,4.1-7.5,8.9S-57.1-60.7-50.4-60.7Z" transform="translate(156.1 147.1)"/><path class="cls-4" d="M27.6-3.7H-129.2c-8.6,0-10.9-2.4-10.9-10.9,0-4.1-.1-8.3,0-12.4s3.2-8.3,8.4-8.4H183.9c9.3,0,11.4,2.2,11.4,11.5v10.9c-.1,6.5-2.9,9.4-9.4,9.4H27.6Z" transform="translate(156.1 147.1)"/><path class="cls-5" d="M91-118.6l25.8,21.2c-6.1.9-11.2,1.8-16.3,2.3a6.2,6.2,0,0,1-6.7-4.5c-1.6-6-2.5-12.3-3.8-18.5Z" transform="translate(156.1 147.1)"/><path class="cls-6" d="M115.7,124.2c12.7,0,25.4-.1,38.2,0,6.5,0,9.3,2.8,9.3,9.3.1,9.9.1,19.7,0,29.6,0,6-3,9-8.9,9H76.8c-6.1,0-9.3-3.1-9.3-9.2-.1-9.8-.1-19.7,0-29.6,0-6,3.2-9.1,9.3-9.1C89.7,124.1,102.7,124.2,115.7,124.2Z" transform="translate(156.1 147.1)"/><path class="cls-4" d="M27.2,68.1c-13.2,0-26.4-.2-39.7,0A15.5,15.5,0,0,1-28.3,52.2,15.5,15.5,0,0,1-12.6,36.5q40.2.2,80.4,0A15.5,15.5,0,0,1,83.5,52.2,15.5,15.5,0,0,1,67.6,68.1C54.2,67.9,40.7,68.1,27.2,68.1Z" transform="translate(156.1 147.1)"/><path class="cls-7" d="M-50.4-60.7c-6.7,0-10.1-2.7-10.4-6.9s2.6-8.1,7.5-8.9l48.7-8.6c4.6-.8,9.3-1.8,13.9-2.5s9.3,1.7,10,5.6c1.1,5.4-1.2,9.1-7,10.2C-2.8-69-18-66.4-33.1-63.8Z" transform="translate(156.1 147.1)"/></svg>