<svg id="Layer_1" data-name="Layer 1" xmlns="http://www.w3.org/2000/svg" width="383.3" height="307.8" viewBox="0 0 383.3 307.8"><defs><style>.cls-1{fill:#a5e2ef;}.cls-2{fill:#f4c79d;}.cls-3{fill:#7ad6ed;}.cls-4{fill:#e8b48a;}.cls-5{fill:#f4c79c;}.cls-6{fill:#52bc7e;}.cls-7{fill:#98da7d;}.cls-8{fill:#e8b389;}.cls-9{fill:#77cc7d;}.cls-10{fill:#fbdab1;}.cls-11{fill:#e19a6d;}.cls-12{fill:#c5805e;}.cls-13{fill:#78cc7e;}.cls-14{fill:#99da7d;}.cls-15{fill:#f6eacb;}.cls-16{fill:#fefefd;}.cls-17{fill:#c6815e;}.cls-18{fill:#81d0e2;}</style></defs><path class="cls-1" d="M219.3,157.4c-.5,4.5-.1,9.3-1.6,13.5-2.8,7.9-9.6,11.1-17.6,11.7H196q-167.5,0-335,.1c-11.9.1-20.7-3.3-25-15V83.1H26.8c.3,4.2.5,8.5.8,12.7H-39.7c-24.6,0-49.2-.1-73.7,0a39.6,39.6,0,0,0-8.5.7c-19.8,4.5-32.2,21.6-29.1,42s18.3,31.4,37.8,31.4H55.9c9.7,0,13.4-3.1,15.3-12.7H219.3Z" transform="translate(164 125.1)"/><path class="cls-2" d="M-164,16.4c2-4.3,4.4-8.2,9.9-9.1s7.5.8,10.4,3.6c8.5,8.4,17,16.9,25.3,25.4A32.8,32.8,0,0,0-93.9,46.4c6.1,0,12.3-.2,18.2,1,3.9.7,7.9,3.2,10.9,5.9C-58.6,58.8-53,65-47.1,71H-89.9c-1.1-2.6-1.8-5.5-3.4-7.9-2.7-4.1-7.2-4.6-11.6-4.6H-164Z" transform="translate(164 125.1)"/><path class="cls-3" d="M-89.9,70.9H25.6l1.2,12.1H-164v-12h10.1Z" transform="translate(164 125.1)"/><path class="cls-4" d="M-89.9,70.9l-64,.2H-164V58.4h59.1c4.4,0,8.9.5,11.6,4.6C-91.7,65.4-91,68.3-89.9,70.9Z" transform="translate(164 125.1)"/><path class="cls-5" d="M-39.7,95.9H64.4l13.1-.4a40.8,40.8,0,0,0,22.8-8.4,158,158,0,0,0,16.4-15.3c8.7-9,19.3-13.2,31.8-13.1,23.5.1,47.1-.1,70.7-.1V95.9c-18.1-.1-36.2-.2-54.3,0-6.1.1-12.5,1.2-17.1,5.4-11.1,10.1-21.8,20.8-32.6,31.2H-59.6c-5.2,0-8.6-2.4-10.9-7s-1.2-9.1,1.9-13.2c1-1.3,2.2-2.6,3.4-3.9A50.1,50.1,0,0,1-39.7,95.9Z" transform="translate(164 125.1)"/><path class="cls-6" d="M219.2,58.4c-23.6,0-47.2.2-70.7.1-12.5-.1-23.1,4.1-31.8,13.1a158,158,0,0,1-16.4,15.3,40.8,40.8,0,0,1-22.8,8.4,75.8,75.8,0,0,1,1.1-8.5c2.9-12.3,6-24.6,9-36.9,8.6-4.4,17.4-4.7,26.7-.9,2.9-13.8,10.3-23.5,24.2-26.6s24.6,2.3,32.4,12.9c3.5-4.3,6.5-9,10.5-12.7,5.4-5.2,12.4-7.3,19.9-7.1a18.2,18.2,0,0,1,18,17.5C219.5,41.4,219.2,49.9,219.2,58.4Z" transform="translate(164 125.1)"/><path class="cls-7" d="M-45-75.7c-4-4.2-8-8.5-12.1-12.6-2.5-2.5-3.9-5.2-2.2-8.6s4.8-3.5,8-3.3c11,1,21.5,3.4,30.3,10.5,3.2,2.6,5.8,5.9,8.9,9.1,0-4.3-.4-8.5.1-12.6,1.3-12.4,8.2-22,16.7-30.5,1.2-1.3,4.7-1.8,6.3-1a7.8,7.8,0,0,1,3.7,5.7c.5,6.1.1,12.2.1,18.3A45.1,45.1,0,0,0,1.2-79.3,82.6,82.6,0,0,0-1.5-54.6a1.3,1.3,0,0,1-.1.6l-5.9,7.5c-7.5,9.4-15,18.9-22.4,28.4C-34.8-11.9-39.8-5.6-44.6.7c-2,2.8-4.3,5-8.1,3.8s-4.2-4-4.4-7.3c-1.1-12.7.7-24.6,8.2-35.2,4.5-6.2,10.8-9.8,17.4-13h0l1.4-.7,26.9-4C-11.8-65.8-27.1-77.4-45-75.7Z" transform="translate(164 125.1)"/><path class="cls-8" d="M115.2,132.5c10.8-10.4,21.5-21.1,32.6-31.2,4.6-4.2,11-5.3,17.1-5.4,18.1-.2,36.2-.1,54.3,0,0,12.2,0,24.4.1,36.6Z" transform="translate(164 125.1)"/><path class="cls-9" d="M-1.5-54.6A82.6,82.6,0,0,1,1.2-79.3a45.1,45.1,0,0,1,13.6-21.4c11.2-7.8,23.8-9.3,37-7.8,3.5.3,6.7,1,7.6,5.2s-1.5,5.7-4.2,7.5L23-73.5l-1.1.4v.4l1.5-.4c10.5-3.5,20.9-3.7,31.1,1.4,7.1,3.5,12.8,8.6,18,14.3a39.7,39.7,0,0,0,3,2.8c1.7,6.2.9,8.4-4.1,10.7L45.8-47.6,10.5-52.5Z" transform="translate(164 125.1)"/><path class="cls-10" d="M115.2,132.5H219.3v24.9H90.5c6.8-6.9,13.6-13.8,20.2-20.7,1.1-1.1,1.5-2.7,2.3-4Z" transform="translate(164 125.1)"/><path class="cls-11" d="M-7.5-46.5-1.6-54c9.9,16,17,33.2,23.2,50.8C33.1,28.7,40,61.6,39.7,95.7H27.6c-.3-4.2-.5-8.5-.8-12.7L25.6,71A324,324,0,0,0,6.1-15.9C2.2-26.4-3-36.4-7.5-46.5Z" transform="translate(164 125.1)"/><path class="cls-12" d="M87.6,49.9c-3,12.3-6.1,24.6-9,36.9a75.8,75.8,0,0,0-1.1,8.5l-13.1.4c.7-4.5,1.5-9,2.2-13.5a224.6,224.6,0,0,1,18.7-61c9.5-20.4,21.8-39,38.2-54.7h.6c.8,3.2,1.6,6.4,2.5,9.5C108.3-2.1,95.8,22.8,87.6,49.9Z" transform="translate(164 125.1)"/><path class="cls-13" d="M126.6-24c-.9-3.1-1.7-6.3-2.5-9.5l.8-.6c9-4.3,18.2-7.1,28.2-4.8s17.7,10.2,21.8,20.3c.7,1.7-.5,5.2-2,6.5s-4.8,1.4-6.7.6c-5.5-2.3-10.7-5.4-16-8.1a14.2,14.2,0,0,0-3.8-1.4c8.2,9.9,8.3,20.7,4.4,32.1-1.1,3-2.9,5.1-6.2,5s-5.2-2-6.2-5.1C135,.5,131.5-10,128-20.6,127.6-21.7,127.1-22.8,126.6-24Z" transform="translate(164 125.1)"/><path class="cls-14" d="M124.9-34.1l-.8.6h-.6l-11.2-2.4-40.8-8c5-2.3,5.8-4.5,4.1-10.7,9.4-5.2,19-6.3,28.9-1.6,1.3.5,2.5,1.2,3.7,1.8l.9.8-.4-1.2c-3.9-5.7-7.7-11.4-11.6-17-1.9-2.9-3.1-5.7-.5-8.8s5.5-2.6,8.8-1.4c17.7,6.7,24.9,20.6,20.7,39.7C125.6-39.6,125.3-36.8,124.9-34.1Z" transform="translate(164 125.1)"/><path class="cls-9" d="M-45-75.7c17.9-1.7,33.2,9.9,41.8,20.1l-26.9,4-1.4.7h0l-23.1,3.4c-6.1.9-12,2.3-18.1,2.8a7.9,7.9,0,0,1-6.2-2.8c-1-1.4-1.1-5,0-6.3C-70.2-65.1-59.7-73.8-45-75.7Z" transform="translate(164 125.1)"/><path class="cls-15" d="M113,132.6c-.8,1.3-1.2,2.9-2.3,4-6.6,6.9-13.4,13.8-20.2,20.7H-102.3a28.8,28.8,0,0,1-5.9-.5c-10.7-2.4-19-13.2-18.5-24.8s10.7-23.3,23.4-23.4h38.1c-1.2,1.3-2.4,2.6-3.4,3.9-3.1,4.1-4.4,8.3-1.9,13.2s5.7,7,10.9,7Z" transform="translate(164 125.1)"/><path class="cls-16" d="M-65.2,108.5h-38.1c-12.7.1-22.8,10.7-23.4,23.4s7.8,22.4,18.5,24.8a28.8,28.8,0,0,0,5.9.5H71.2c-1.9,9.6-5.6,12.7-15.3,12.7H-113.2c-19.5,0-34.9-12.3-37.8-31.4s9.3-37.5,29.1-42a39.6,39.6,0,0,1,8.5-.7c24.5-.1,49.1,0,73.7,0A50.1,50.1,0,0,0-65.2,108.5Z" transform="translate(164 125.1)"/><path class="cls-17" d="M39.7,95.7c.3-34.1-6.6-67-18.1-98.9C15.4-20.8,8.3-38-1.6-54a1.3,1.3,0,0,0,.1-.6l12,2.1A320.9,320.9,0,0,1,39.3,12.6,307.4,307.4,0,0,1,51.3,71l.6,13.6c.1.4.7.8,1.1,1.2l-.7,9.9Z" transform="translate(164 125.1)"/><path class="cls-11" d="M52.3,95.7c.2-3.3.5-6.6.7-9.9l2.4-14.7c.1-.5.4-.9.5-1.4C60.7,46,70,24.2,82.4,3.6c8.5-14.2,18.9-27.1,29.9-39.5l11.2,2.4C107.1-17.8,94.8.8,85.3,21.2a224.6,224.6,0,0,0-18.7,61c-.7,4.5-1.5,9-2.2,13.5Z" transform="translate(164 125.1)"/><path class="cls-18" d="M51.3,71h4.1L53,85.8c-.4-.4-1-.8-1.1-1.2Z" transform="translate(164 125.1)"/></svg>