<svg id="Layer_1" data-name="Layer 1" xmlns="http://www.w3.org/2000/svg" width="322.5" height="383.3" viewBox="0 0 322.5 383.3"><defs><style>.cls-1{fill:#020303;}.cls-2{fill:#96d87b;}.cls-3{fill:#008bdd;}.cls-4{fill:#97d97b;}.cls-5{fill:#0068ce;}.cls-6{fill:#96d97b;}.cls-7{fill:#76ca7c;}.cls-8{fill:#0089db;}.cls-9{fill:#75c97b;}.cls-10{fill:#94d579;}.cls-11{fill:#74c67a;}.cls-12{fill:#94d679;}.cls-13{fill:#74c77a;}.cls-14{fill:#0086d5;}.cls-15{fill:#95d77a;}.cls-16{fill:#96d87a;}.cls-17{fill:#72c378;}.cls-18{fill:#0062c1;}</style></defs><path class="cls-1" d="M14.2,220,3.4,217.9c-60.3-10.5-107.6-57.3-117.2-117.8-8.5-53.9,9-98.8,50.2-134.6l2.9-2.4-9-12.3c-13.3,6.8-26.8,7.6-40.7,2.8a45.1,45.1,0,0,1-20.9-15.1c-3.5-4.4-3.1-7.4,1.6-10.5,13.9-9.2,28.7-10.2,44.3-4.8l2.7,1c1.1-7.3,1.6-14.6,3.4-21.6A41.5,41.5,0,0,1-64-119.8c4.7-3.7,7.5-3.2,10.9,1.6,12.1,17.6,9.9,43.8-5.1,59.8l-2.4,2.5,8.8,12.2c5.4-1.6,9.4-9.1,15.7-2.6,1.3,4.6.7,6.1-3.8,8.8A133.8,133.8,0,0,0-88.1,12a12.4,12.4,0,0,0-1.6,8.6c1.1,6.2,1.9,12.5,2.8,18.8s1.9,12.9,3,19.8c9.6-6,18.4-14.9,29.9-4.2.8-3.2,1.6-5.9,2.1-8.5,2-10.2,8-16.6,17.8-19.7,5.5-1.7,10.9-3.5,16.3-5.4,3.3-1.2,4-3,2.1-6.1l-7.6-12C-24.7,1-26.5.4-29,1.6s-3.8,1.9-5.7,2.7c-8,3.6-16,1.2-19.6-5.9s-1-15,6.6-19.3L-33-29c12-6.6,20.4-4.8,28.5,6.2a8.8,8.8,0,0,0,7.9,4.1h6.7a7.6,7.6,0,0,0,7.7-4.9c1.5-3.6,3-7.1,4.4-10.7s1.6-8.8-1.1-12.8c-1.3-2-2.7-4-3.8-6s-2.2-2.5-4.2-2.1C3.3-53-6.6-51.1-16.3-48.4c-3.9,1.1-6.7,1-9.3-2-.6-5.6.2-6.9,5.7-8.8A140.2,140.2,0,0,1,18-66.8l3.8-.4V-91.9c-3.3-.6-6.7-1.1-10.1-1.9-27.1-6.9-47.8-31.7-49.7-59.8-.6-7.8,1.4-10.1,9.2-9.6,24.2,1.7,41.8,14,54,34.4.8,1.3,1.4,2.6,2.4,4.4.9-1.6,1.5-2.9,2.3-4.1,12.6-21.2,30.7-33.6,55.7-34.7,5.8-.3,7.8,1.9,7.7,7.8-.4,29.7-25.2,58.1-54.6,62.6l-5.3.8v24.8a144.3,144.3,0,0,1,73.4,23.8l9.1-12.5a48.6,48.6,0,0,1-15.3-32.8,45.8,45.8,0,0,1,8.2-30c2.8-4.1,5.8-4.7,9.8-1.6,12.7,10,18.5,23.3,18.5,39.4v4.8c5.5-1.2,11-2.9,16.6-3.6a45.1,45.1,0,0,1,31.6,7.8c4.2,3,4.6,5.9,1.5,10.1-12.6,17.1-38.4,23.4-58.3,14.3l-3.6-1.7-8.7,12c5.4,5.2,11.1,10.1,16.1,15.6C160.5,9,173.9,45.1,170.7,86.7c-5,64.5-49.2,115.2-112.3,129.9-5.6,1.4-11.5,1.8-17.3,2.7a10.1,10.1,0,0,0-1.5.7Zm-66-38.1h0l9.8,6.6.2.3h.2l-.4-.3c-.7-1.8-1.5-3.5-2.2-5.3-4.5-10.1-9.3-20-13.6-30.3A42.3,42.3,0,0,0-72,134.8c-10.7-8-13-17.3-8.3-30l4.5-12.5-7.1-4.2A22.8,22.8,0,0,1-93.5,71.7c-1.2-7.4-2.1-14.8-3.2-22.2-.5-3.5-1.2-7.1-1.8-10.9-.6.5-.8.5-.8.6a22.5,22.5,0,0,0-.8,2.4c-9.1,35.5-5,69.2,13.2,101a120.5,120.5,0,0,0,34.2,38.6ZM68.1-148.2c-14.5,6-24.8,16.1-30.8,30.6a37.3,37.3,0,0,0-3.7,14.1c28.7-3.1,47.8-30.1,47.6-48.7ZM8.2-107.1l13,4.1c1.6-21.2-28-50.6-48.1-48l3.7,12.5C-17.2-123.6-6.8-113,8.2-107.1Zm92.2,73.3-.9-.7L76.1-46.7a3.9,3.9,0,0,0-3.3.5,57.4,57.4,0,0,0-7.9,6.9c-.9,1-.8,3-1.1,4.6,1.5.3,3.1,1,4.6.8s3.8-1.4,5.7-1.7c9.2-1.7,15.3,5,12.9,13.9A29,29,0,0,1,73.3-3.8C67.5-.4,61.8,3.2,56,6.4S48,14,48.3,20.2s2.7,8.3,7,8.7,7.4-2.6,8.2-7.5C65,11.6,71.4,5.8,81.2,5.5c5.7-.2,11.4-.1,17.2,0s11.1,2.7,14.4,8a16.5,16.5,0,0,1,.7,17.4c-3.2,6.1-8.7,9.2-15.5,9.3-9.7.1-19.5-.1-29.2.1A21,21,0,0,0,48.6,58.4c-1.4,11,5.1,21.2,15.5,23.7a51.1,51.1,0,0,0,9.6.8c9.5.3,16.9,6.6,18.5,15.9.9,5.3-.2,7.2-5.3,8.9-3.5-.7-5.3-2.7-5.7-6.4s-3.5-7-8.5-7.1H68.6c-13-1-22.8-7-28.3-18.9S36.2,52,44.1,41.4L46.7,38c-5.6-4.4-8.1-7.2-8.9-11.9C35.6,14.6,38,4.2,49-2.4L68.3-13.9A16.2,16.2,0,0,0,76-24.7c-9.1,4.2-17,3.9-21.9-4.6s-.5-16.3,7.3-22l-.3-1L28.9-56.7a13.8,13.8,0,0,0,1,2.4c5.9,8.5,6,17.4,1.7,26.6-1.4,3-2.5,6.2-3.9,9.2-2.4,5.2-6.3,9.1-11.8,10.1C3.4-6.3-8.2-6.3-15-18c-2.1-3.7-6-4.5-9.8-2.6-6,3.1-11.9,6.3-17.6,9.8-1.1.6-1.2,2.7-1.8,4.2,1.5.3,3.1,1.2,4.3.8s5-2.2,7.5-3.3c6.7-2.7,13.7-.8,17.8,5.2s6.2,9.4,9,14.2C-.7,18.5-4.1,28.1-13,31.5c-3.6,1.4-7.3,2.5-10.9,3.8C-39,40.4-39.5,40.3-42.4,56c-2.1,10.9-13.5,13.9-19.8,6.8-1.7-1.9-3.8-1.9-6-.4-3.8,2.5-7.7,5.1-11.6,7.4-2.1,1.3-2.6,2.7-1.1,4.5,4.3,5.5,9.7,9.5,16.7,9.9,9.7.5,19.5,0,29.2.1,7.3.1,13.4,4.4,14,11.5s3.4,7.7,8.1,8.9a40.4,40.4,0,0,1,4.5,1.6C3.9,111,8.4,122.5,2.4,134.2c-4,8-8.3,15.9-12.2,24a36.2,36.2,0,0,0-3.1,9.1c-1.3,7.2,1.5,13.8,3.2,20.5,1.1,5,2.1,10,3.5,14.8A4.3,4.3,0,0,0-3.1,205a125.7,125.7,0,0,0,41.9,3.2q56.1-5.2,91.7-48.8c18.5-22.5,27.9-48.6,29.4-77.5.3-4.6.1-9.1.1-13.4l-14,3.1c.5,2.1,1.2,4.5,1.8,6.9a26.3,26.3,0,0,1-2.3,20.2c-11.1,19.8-22.2,39.6-33.7,59.1a19,19,0,0,1-8.9,7.4c-8.5,3.5-18.9-1.3-21.5-12.6,0-8.5.1-17-.1-25.6-.1-4.1,1.4-6.6,5.6-7.4,4.5,1.3,5.6,2.7,5.7,7.3s.1,9.2.2,13.7c-.1,2.7-.1,5.3-.2,7.9s.5,5.3,3.5,6.2,5.4-.9,6.9-3.7l31.8-56.2a18.1,18.1,0,0,0,1.9-14.7c-1.4-4.6-2.8-9.3-4-14s1.8-7.7,6.3-7.4c2.4.2,5,.9,7.4.7a33.4,33.4,0,0,0,8.8-2.2c2.6-.9,3.1-3.1,2.5-5.8A131.6,131.6,0,0,0,130.9-6.2c-8.7-10.9-18.6-20.4-30.6-27.7ZM-30,186.3a85,85,0,0,1,3.6,8.2c1.1,3.8,4,4.8,7.9,5.5-1.2-4.6-2.3-8.8-3.3-12.9-.3-1.1-.4-2.3-.7-3.3-3.6-12-2-23.3,4.3-34.2,3.9-6.7,7.3-13.8,10.8-20.8,2.6-5.3,1-9.6-4.5-11.8l-9.4-3.5c-6.3-2.4-10-6.8-10.3-13.7-.1-2.9-1.3-4.3-4.3-4.3H-62.5c-.9.1-2.4.3-2.5.8-2.2,6.8-6.6,13-6.2,20.6.2,3.9,2.5,6.7,5.6,8.8,9,5.9,14.6,14.3,18.7,24.1C-41.7,162.1-35.6,174.1-30,186.3ZM-77.2-58.4c-10.3-10.7-31-13.8-41.8-6.5C-109.7-54.6-89.8-51.4-77.2-58.4ZM174.4-65c-12.7-7.1-33.9-3.6-41.7,6.7C143.8-51.5,164.7-54.2,174.4-65Zm-58.9-42.7c-7.1,12.6-3.3,35.1,6.9,41.7C129.1-79.3,125.8-99.1,115.5-107.7Zm-175.8-.1C-70.9-97.6-74.1-77.1-66.9-66-56.6-74.6-53.3-95.1-60.3-107.8ZM73.4,28.9c8.6,0,17,.2,25.4-.1a5.8,5.8,0,0,0,5.5-5.9,5.9,5.9,0,0,0-5.8-6.1c-6-.2-11.9-.2-17.9,0a5.9,5.9,0,0,0-5.8,4.9C74.3,24,73.9,26.3,73.4,28.9Z" transform="translate(133.6 163.3)"/><path class="cls-2" d="M-25.6-50.4c2.6,3,5.4,3.1,9.3,2,9.7-2.7,19.6-4.6,29.4-6.9,2-.4,3.2.2,4.2,2.1s2.5,4,3.8,6c2.7,4,2.9,8.3,1.1,12.8s-2.9,7.1-4.4,10.7a7.6,7.6,0,0,1-7.7,4.9H3.4a8.8,8.8,0,0,1-7.9-4.1C-12.6-33.8-21-35.6-33-29l-14.7,8.1C-55.3-16.6-58-8.7-54.3-1.6s11.6,9.5,19.6,5.9q2.9-1.2,5.7-2.7c2.5-1.2,4.3-.6,5.7,1.7l7.6,12c1.9,3.1,1.2,4.9-2.1,6.1-5.4,1.9-10.8,3.7-16.3,5.4-9.8,3.1-15.8,9.5-17.8,19.7-.5,2.6-1.3,5.3-2.1,8.5-11.5-10.7-20.3-1.8-29.9,4.2-1.1-6.9-2-13.3-3-19.8s-1.7-12.6-2.8-18.8A12.4,12.4,0,0,1-88.1,12,133.8,133.8,0,0,1-39.9-37.5c4.5-2.7,5.1-4.2,3.8-8.8Z" transform="translate(133.6 163.3)"/><path class="cls-3" d="M-9.7,187.8c-1.7-6.7-4.5-13.3-3.2-20.5a36.2,36.2,0,0,1,3.1-9.1c3.9-8.1,8.2-16,12.2-24,6-11.7,1.5-23.2-10.8-27.9a40.4,40.4,0,0,0-4.5-1.6c-4.7-1.2-7.6-3.2-8.1-8.9s-6.7-11.4-14-11.5c-9.7-.1-19.5.4-29.2-.1-7-.4-12.4-4.4-16.7-9.9-1.5-1.8-1-3.2,1.1-4.5,3.9-2.3,7.8-4.9,11.6-7.4,2.2-1.5,4.3-1.5,6,.4,6.3,7.1,17.7,4.1,19.8-6.8,2.9-15.7,3.4-15.6,18.5-20.7,3.6-1.3,7.3-2.4,10.9-3.8,8.9-3.4,12.3-13,7.4-21.2-2.8-4.8-5.9-9.5-9-14.2s-11.1-7.9-17.8-5.2c-2.5,1.1-4.9,2.6-7.5,3.3s-2.8-.5-4.3-.8c.6-1.5.7-3.6,1.8-4.2,5.7-3.5,11.6-6.7,17.6-9.8,3.8-1.9,7.7-1.1,9.8,2.6C-8.2-6.3,3.4-6.3,15.9-8.4c5.5-1,9.4-4.9,11.8-10.1,1.4-3,2.5-6.2,3.9-9.2,4.3-9.2,4.2-18.1-1.7-26.6a13.8,13.8,0,0,1-1-2.4l32.2,4.4.3,1c-7.8,5.7-12.7,12.8-7.3,22S66.9-20.5,76-24.7a16.2,16.2,0,0,1-7.7,10.8L49-2.4c-11,6.6-13.4,17-11.2,28.5.8,4.7,3.3,7.5,8.9,11.9l-2.6,3.4c-7.9,10.6-9.3,22-3.8,33.9S55.6,93.2,68.6,94.2h4.1c5,.1,7.9,2.2,8.5,7.1s2.2,5.7,5.7,6.4v11.9c-4.2.8-5.7,3.3-5.6,7.4.2,8.6.1,17.1.1,25.6a147.9,147.9,0,0,1-40,24.8C25,184.1,7.8,186.9-9.7,187.8Z" transform="translate(133.6 163.3)"/><path class="cls-4" d="M86.9,119.6V107.7c5.1-1.7,6.2-3.6,5.3-8.9-1.6-9.3-9-15.6-18.5-15.9a51.1,51.1,0,0,1-9.6-.8C53.7,79.6,47.2,69.4,48.6,58.4A21,21,0,0,1,68.8,40.3c9.7-.2,19.5,0,29.2-.1,6.8-.1,12.3-3.2,15.5-9.3a16.5,16.5,0,0,0-.7-17.4c-3.3-5.3-8.3-7.8-14.4-8s-11.5-.2-17.2,0c-9.8.3-16.2,6.1-17.7,15.9-.8,4.9-4.1,7.9-8.2,7.5s-6.7-3.6-7-8.7S50.4,9.5,56,6.4,67.5-.4,73.3-3.8A29,29,0,0,0,87-21.7c2.4-8.9-3.7-15.6-12.9-13.9-1.9.3-3.7,1.5-5.7,1.7s-3.1-.5-4.6-.8c.3-1.6.2-3.6,1.1-4.6a57.4,57.4,0,0,1,7.9-6.9,3.9,3.9,0,0,1,3.3-.5L99.5-34.5l.9.7h-.1c.7,1.3,1.2,2.7,2,3.9,2.8,4.7,6,9.2,8.6,13.9C119.4-.4,125.2,16.2,126.4,34c.7,11.5,1,23.2-.3,34.6a120.9,120.9,0,0,1-17.5,50.6c-4.7,7.5-10.5,14.3-15.8,21.4-.1-4.5-.1-9.1-.2-13.7S91.4,120.9,86.9,119.6Z" transform="translate(133.6 163.3)"/><path class="cls-5" d="M-9.7,187.8c17.5-.9,34.7-3.7,51.1-10.4a147.9,147.9,0,0,0,40-24.8c2.6,11.3,13,16.1,21.5,12.6a19,19,0,0,0,8.9-7.4c11.5-19.5,22.6-39.3,33.7-59.1a26.3,26.3,0,0,0,2.3-20.2c-.6-2.4-1.3-4.8-1.8-6.9l14-3.1c0,4.3.2,8.8-.1,13.4-1.5,28.9-10.9,55-29.4,77.5q-35.6,43.5-91.7,48.8A125.7,125.7,0,0,1-3.1,205a4.3,4.3,0,0,1-3.1-2.4C-7.6,197.8-8.6,192.8-9.7,187.8Z" transform="translate(133.6 163.3)"/><path class="cls-6" d="M-30,186.3c-5.6-12.2-11.7-24.2-16.9-36.5-4.1-9.8-9.7-18.2-18.7-24.1-3.1-2.1-5.4-4.9-5.6-8.8-.4-7.6,4-13.8,6.2-20.6.1-.5,1.6-.7,2.5-.8h26.6c3,0,4.2,1.4,4.3,4.3.3,6.9,4,11.3,10.3,13.7l9.4,3.5c5.5,2.2,7.1,6.5,4.5,11.8-3.5,7-6.9,14.1-10.8,20.8-6.3,10.9-7.9,22.2-4.3,34.2.3,1,.4,2.2.7,3.3Z" transform="translate(133.6 163.3)"/><path class="cls-7" d="M92.8,140.6c5.3-7.1,11.1-13.9,15.8-21.4a120.9,120.9,0,0,0,17.5-50.6c1.3-11.4,1-23.1.3-34.6-1.2-17.8-7-34.4-15.5-50.1-2.6-4.7-5.8-9.2-8.6-13.9-.8-1.2-1.3-2.6-2-3.9,12,7.3,21.9,16.8,30.6,27.7a131.6,131.6,0,0,1,26.8,57.6c.6,2.7.1,4.9-2.5,5.8a33.4,33.4,0,0,1-8.8,2.2c-2.4.2-5-.5-7.4-.7-4.5-.3-7.4,3-6.3,7.4s2.6,9.4,4,14a18.1,18.1,0,0,1-1.9,14.7L103,151c-1.5,2.8-3.5,4.7-6.9,3.7s-3.6-3.4-3.5-6.2S92.7,143.3,92.8,140.6Z" transform="translate(133.6 163.3)"/><path class="cls-8" d="M-52.7,181.2a120.5,120.5,0,0,1-34.2-38.6c-18.2-31.8-22.3-65.5-13.2-101a22.5,22.5,0,0,1,.8-2.4c0-.1.2-.1.8-.6.6,3.8,1.3,7.4,1.8,10.9,1.1,7.4,2,14.8,3.2,22.2A22.8,22.8,0,0,0-82.9,88.1l7.1,4.2-4.5,12.5c-4.7,12.7-2.4,22,8.3,30A42.3,42.3,0,0,1-57.8,153c4.3,10.3,9.1,20.2,13.6,30.3l-7.6-1.4h0Z" transform="translate(133.6 163.3)"/><path class="cls-9" d="M-23.2-138.5-26.9-151c20.1-2.6,49.7,26.8,48.1,48l-13-4.1c-.5-2-.6-4.2-1.6-6A92.3,92.3,0,0,0-2-125.9C-7.6-132.4-14.5-137-23.2-138.5Z" transform="translate(133.6 163.3)"/><path class="cls-9" d="M68.1-148.2l13.1-4c.2,18.6-18.9,45.6-47.6,48.7a37.3,37.3,0,0,1,3.7-14.1,12.1,12.1,0,0,0,3.3,0c7.5-2.8,14.1-7,19.1-13.2S67.7-141.2,68.1-148.2Z" transform="translate(133.6 163.3)"/><path class="cls-10" d="M-77.2-58.4c-12.6,7-32.5,3.8-41.8-6.5C-108.2-72.2-87.5-69.1-77.2-58.4Z" transform="translate(133.6 163.3)"/><path class="cls-11" d="M174.4-65c-9.7,10.8-30.6,13.5-41.7,6.7C140.5-68.6,161.7-72.1,174.4-65Z" transform="translate(133.6 163.3)"/><path class="cls-12" d="M115.5-107.7c10.3,8.6,13.6,28.4,6.9,41.7C112.2-72.6,108.4-95.1,115.5-107.7Z" transform="translate(133.6 163.3)"/><path class="cls-13" d="M-60.3-107.8c7,12.7,3.7,33.2-6.6,41.8C-74.1-77.1-70.9-97.6-60.3-107.8Z" transform="translate(133.6 163.3)"/><path class="cls-14" d="M73.4,28.9c.5-2.6.9-4.9,1.4-7.2a5.9,5.9,0,0,1,5.8-4.9c6-.2,11.9-.2,17.9,0a5.9,5.9,0,0,1,5.8,6.1,5.8,5.8,0,0,1-5.5,5.9C90.4,29.1,82,28.9,73.4,28.9Z" transform="translate(133.6 163.3)"/><path class="cls-15" d="M68.1-148.2c-.4,7-4.3,12.4-8.4,17.4s-11.6,10.4-19.1,13.2a12.1,12.1,0,0,1-3.3,0C43.3-132.1,53.6-142.2,68.1-148.2Z" transform="translate(133.6 163.3)"/><path class="cls-16" d="M-23.2-138.5c8.7,1.5,15.6,6.1,21.2,12.6a92.3,92.3,0,0,1,8.6,12.8c1,1.8,1.1,4,1.6,6C-6.8-113-17.2-123.6-23.2-138.5Z" transform="translate(133.6 163.3)"/><path class="cls-17" d="M-30,186.3l8.2.8c1,4.1,2.1,8.3,3.3,12.9-3.9-.7-6.8-1.7-7.9-5.5A85,85,0,0,0-30,186.3Z" transform="translate(133.6 163.3)"/><path class="cls-18" d="M-51.8,181.9l7.6,1.4c.7,1.8,1.5,3.5,2.2,5.3h0Z" transform="translate(133.6 163.3)"/><path class="cls-7" d="M100.4-33.8l-.9-.7Z" transform="translate(133.6 163.3)"/><path class="cls-18" d="M-52.7,181.2l.9.7Z" transform="translate(133.6 163.3)"/><path class="cls-18" d="M-42,188.6l.4.3h-.2l-.2-.3Z" transform="translate(133.6 163.3)"/></svg>