<svg id="Layer_1" data-name="Layer 1" xmlns="http://www.w3.org/2000/svg" width="380" height="380" viewBox="0 0 380 380"><defs><style>.cls-1{fill:#020202;}.cls-2{fill:#fbf1f2;}.cls-3{fill:#f0f9fd;}.cls-4{fill:#01bef8;}.cls-5{fill:#96d529;}.cls-6{fill:#08a7ee;}.cls-7{fill:#f1fafe;}.cls-8{fill:#fc4754;}.cls-9{fill:#fbdc2f;}.cls-10{fill:#fbd203;}.cls-11{fill:#fa5326;}.cls-12{fill:#dcf3f9;}.cls-13{fill:#8ac527;}.cls-14{fill:#f72b39;}.cls-15{fill:#fa6830;}.cls-16{fill:#000304;}.cls-17{fill:#010303;}.cls-18{fill:#020203;}.cls-19{fill:#000507;}.cls-20{fill:#000506;}.cls-21{fill:#000405;}.cls-22{fill:#000101;}.cls-23{fill:#000202;}.cls-24{fill:#07a3e8;}.cls-25{fill:#08a8f0;}.cls-26{fill:#f7d92f;}.cls-27{fill:#f6662f;}.cls-28{fill:#94d328;}.cls-29{fill:#f94654;}</style></defs><path class="cls-1" d="M-203-193l1.5-3.7c3-7.9,7.9-12.5,14.6-12.8s15.5-.1,23.3-.1c3.9,0,5.7,3,6.3,7.8s-3.3,7.1-7.2,7c-6.7-.2-13.4-.1-20.1-.1s-7.3,2.5-7.3,9.7v63.1c0,1.3.2,2.5.2,3.4h57.8c0-7.2.1-14-.1-20.8,0-4.8,1.5-7.6,4.8-9.4l54.6-28.6c6.2-3.3,9.5-.4,9.5,8.3.1,15.5,0,31,.1,46.5,0,1.4.1,2.9.1,4.4h48.5a6.7,6.7,0,0,0,4-2l26-22.7c1.7-1.5,2.4-3.1,2.4-5.9-.1-14,0-28-.1-42.1,0-1.2-.1-2.4-.2-3.8H-135.2c-4,0-6.6-1.7-7.6-7,1.4-6.5,2.7-7.8,7.9-7.8H158.9c11.1,0,18.1,9.2,18.1,23.9v332c0,14.9-7,24-18.4,24q-171.6,0-343.2,0c-9.3,0-14.8-6.2-18.4-16.6V99.8l5.6-5.2c4,.8,5.6,4,5.5,9.2,0,2.9.1,5.8.1,8.8v12.6c15.8,0,31.1,0,46.4-.2,1.1,0,2.6-1.5,3.2-2.9,2.7-6.6,5.3-13.2,7.6-20.1,1.8-5.3,4.4-7.5,8.9-7.4,11.2.4,22.4.2,33.6.2h4.3c0-5.4.1-10.1-.1-14.8-.1-1.2-1.1-3-1.9-3.3-7.8-2.6-15.6-5-23.4-7.4-5.1-1.8-10.1-3.8-15.3-5.4s-5.5-4.2-5.5-9.4c.1-12.9.1-25.7.1-38.6V4.3l-58,12.7V65c0,6.7-.7,8.1-5.5,10.4l-5.6-5ZM-55.4,16.5c-3.2,4.1-6.4,8.1-9.5,12.3s-4.7,4.6-8.1,4.5c-15.2-.2-30.4,0-45.6,0h-4V50.5l3.6,1.3,36.2,12c5.1,1.7,6.1,3.4,6.1,10.6,0,2.6.1,5.2.2,7.8V94.5h46.2V-15.3ZM-18.9-8.9v12H15.9c0-3.3,0-6.2.1-9.1,0-5.7,1.2-7.7,5.6-9.1,4.4,1.5,5.5,3.3,5.5,9.2V71.4c0,23.9.1,47.7.1,71.5v12.7H157.1c7.3,0,8.7-1.9,8.7-11.4V-183.4c0-1.1.1-2.2,0-3.4-.1-5.1-2.1-8-5.9-8-6-.1-11.9,0-17.8.1l-2.6-.2H30.1a17.7,17.7,0,0,0-3,.4V-44.7c0,6.9-.7,8.2-5.5,10.4C16.8-36.5,16-37.9,16-44.5q-.1-38.7-.1-77.4v-5.8L-4.9-108.9c-4.7,5.1-10.2,5.5-16,5.4-13.3-.3-26.7-.1-40-.1h-4.2c0,10,.2,19.5,0,28.9-.1,3.6.7,5.5,3.2,7.1,12.7,8.1,25.4,16.7,38.1,24.9,3.4,2.2,5,5.2,4.9,10.3C-19.1-24.6-18.9-16.7-18.9-8.9ZM-191.8,142.9c-.4,10.7,1,12.7,9,12.7H15.8V142.9a12.1,12.1,0,0,0,.1-1.9V21a21.1,21.1,0,0,0-.2-2.6H-19V98c0,9.5-1.4,11.4-8.6,11.4h-93.9c-2.6-.1-3.9,1-5,4.1-2.1,6.2-4.8,12.1-6.8,18.4s-4.8,8.7-9.7,8c-3.2-.4-6.4,0-9.7,0H-189C-190.6,139.8-192.5,139.3-191.8,142.9ZM-62-51.1c-2.8-1.9-5.6-4.2-8.5-5.8s-5.8-5.9-5.8-12c.2-28.7.1-57.4.1-86.2v-5.2h-1c-14.6,7.7-29.2,15.3-43.7,23.1-.9.5-1.8,2.6-1.8,3.9-.2,6.5-.1,13.1-.1,19.6,0,8-1.6,10-7.7,10-19,.1-38.1,0-57.1,0h-4V1.8h1.7l59.5-13.2c4.9-1.1,7.5,1.9,7.6,8.5.1,3.2.1,6.5.2,9.7V18.6c16.3,0,32.2,0,48.1-.2,1.2,0,2.7-1.4,3.7-2.6l34.3-45.3c.8-1,1.4-2.1,2.4-3.6Z" transform="translate(203 209.7)"/><path class="cls-2" d="M-203,70.4l5.6,5V94.6l-5.6,5.2Z" transform="translate(203 209.7)"/><path class="cls-3" d="M-142.8-201.8c1,5.3,3.6,7,7.6,7H15.7c.1,1.4.2,2.6.2,3.8.1,14.1,0,28.1.1,42.1,0,2.8-.7,4.4-2.4,5.9l-26,22.7a6.7,6.7,0,0,1-4,2H-64.9c0-1.5-.1-3-.1-4.4-.1-15.5,0-31-.1-46.5,0-8.7-3.3-11.6-9.5-8.3l-54.6,28.6c-3.3,1.8-4.8,4.6-4.8,9.4.2,6.8.1,13.6.1,20.8h-57.8c0-.9-.2-2.1-.2-3.4v-63.1c0-7.2,1.9-9.7,7.3-9.7s13.4-.1,20.1.1c3.9.1,6.3-2,7.2-7Z" transform="translate(203 209.7)"/><path class="cls-4" d="M21.6-34.3c4.8-2.2,5.5-3.5,5.5-10.4V-194.5a17.7,17.7,0,0,1,3-.4H139.5l2.6.2V-164l-27.4.2c-4.2,0-8.4-.1-12.6.1s-5.1,2.5-5.3,6.7,1.5,6.7,4.5,7.6a11.6,11.6,0,0,0,3.7.3l37.1.2v60.7l-37.1.3a15.3,15.3,0,0,0-3.7.2c-3.1.9-4.7,3.5-4.5,7.7s1.9,6.2,4.9,6.7a33.8,33.8,0,0,0,4.5.1l35.9.4V-12l-18.5.2c-7,0-13.9-.3-20.8.2-1.9.1-4.4,2.3-5.5,4.5s-.3,5.4.8,7a7.1,7.1,0,0,0,5.4,2.8c12.9.3,25.7.3,38.6.3l-.7,18.5c-2-1-4-2.8-6.1-2.8-10.6-.3-21.2-.2-31.8-.1-4.3,0-6.8,2.8-6.8,7.4s2.5,7.2,6.9,7.3c10.6,0,21.2.2,31.8-.2,2.1-.1,4.3-2.3,6.4-3.5l.3,34.5-30,.2c-3.4,0-6.7-.1-10,.1s-5,2.5-5.3,6.7,1.7,7.1,4.9,7.8a18.2,18.2,0,0,0,3.3.1l36.3.3a47,47,0,0,1-.2,5.3c-2.5,17.9-8.8,32.9-19.8,44.1-8.1,8.2-17.2,13.8-27.4,14.1-22.3.4-44.5.1-66.7.1,0-23.8-.1-47.6-.1-71.5V-5.9c0-5.9-1.1-7.7-5.5-9.2Zm23.2,159c.2,6.6.7,7.4,5.9,7.4H73.2c4.5,0,5.6-1.4,5.8-7.4,4.4-1.4,5.8-3.4,5.8-9,.1-14.1.1-28.3,0-42.5,0-6.3-2-8.8-6.8-8.9H45.7c-4.7.1-6.7,2.7-6.7,9v42C39,121.3,40.3,123.3,44.8,124.7Zm0-228.1c.2,6.4.8,7.3,5.6,7.3H73.2c4.5,0,5.6-1.4,5.8-7.3,4.5-1.5,5.8-3.5,5.8-9.5,0-14,.1-28,0-42.1,0-6.3-2-8.8-6.8-8.8H45.7c-4.7,0-6.7,2.6-6.7,8.9v42.1C39-106.9,40.3-104.9,44.8-103.4ZM79,48.8c4.8-2,5.8-3.7,5.8-10V-2.4c0-6.8-2-9.4-7.2-9.4H46.1c-5.2,0-7.1,2.6-7.1,9.5V38.4c0,6.9.9,8.4,5.9,10.5.1,6.2.5,6.8,5,6.8H74C78.4,55.7,78.9,55.1,79,48.8ZM44.8-27.3c.2,6,.6,6.7,5.3,6.7H73.8c4.6,0,5.1-.7,5.2-6.7,4.6-1.6,5.8-3.5,5.8-9.5,0-14,.1-28.1,0-42.1,0-6.2-2.1-9-6.8-9H45.7c-4.7.1-6.7,2.8-6.7,9.1v42.1C39-30.8,40.2-28.9,44.8-27.3Zm69.1-106.1H102.8c-3.8.1-6,2.9-6.1,7.3s2.2,7.2,5.7,7.3c7.6.2,15.3.2,22.9,0,3.4-.1,5.7-3.6,5.6-7.5s-2.5-7-5.9-7.1Zm-.1,242.8h10.3c4.2-.1,6.8-3.1,6.8-7.5s-2.6-7.1-6.6-7.1H103.2c-4.1,0-6.4,2.6-6.5,7.2s2.4,7.3,6.4,7.4ZM108.3-57.4h0a48.5,48.5,0,0,0-6.6,0c-3.1.5-5,3-4.9,7.3s1.8,6.8,4.9,7.1a88.3,88.3,0,0,0,12.6,0c3.2-.3,4.9-3,4.9-7.2s-1.9-6.7-4.9-7.2A40.1,40.1,0,0,0,108.3-57.4Z" transform="translate(203 209.7)"/><path class="cls-5" d="M-122.6,6.7c-.1-3.2-.1-6.5-.2-9.7-.1-6.6-2.7-9.6-7.6-8.5L-189.9,1.7h-1.7V-103.7h4c19,0,38.1.1,57.1,0,6.1,0,7.7-2,7.7-10,0-6.5-.1-13.1.1-19.6,0-1.3.9-3.4,1.8-3.9,14.5-7.8,29.1-15.4,43.7-23.1h1v5.2c0,28.8.1,57.5-.1,86.2,0,6.1,1.6,9.7,5.8,12s5.7,3.9,8.5,5.8c-1.1,3.7-1.6,8.1-3.5,10.8C-76-25.8-86.8-11.8-97.7,2.3c-1.3,1.7-3.3,3.2-5,3.4C-109.3,6.4-116,6.4-122.6,6.7Z" transform="translate(203 209.7)"/><path class="cls-6" d="M142.1-164v-30.7c5.9-.1,11.8-.2,17.8-.1,3.8,0,5.8,2.9,5.9,8,.1,1.2,0,2.3,0,3.4V144.2c0,9.5-1.4,11.4-8.7,11.4H27.2V142.9c22.2,0,44.4.3,66.7-.1,10.2-.3,19.3-5.9,27.4-14.1,11-11.2,17.3-26.2,19.8-44.1a47,47,0,0,0,.2-5.3,60.1,60.1,0,0,0,7.4-.4c3.2-.5,5.3-3.7,5.2-7.5s-2.3-6.7-5.6-7-4.1-.2-6.2-.3l-.3-34.5c-.1-2.7-.3-5.4-.4-8.1.2-6.2.4-12.3.7-18.5,2.1,0,4.2,0,6.2-.2s5.5-3.2,5.6-7-2.2-7.2-5.6-7.6-4.1-.1-6.2-.2V-72.8l6.3-.4c3.3-.3,5.2-2.7,5.5-7.1s-2.1-7.1-5.6-7.6c-2-.2-4.1-.2-6.2-.3v-60.7c2.1-.1,4.2,0,6.2-.3,3.5-.4,5.7-3.6,5.6-7.6s-2.4-6.8-5.9-7Z" transform="translate(203 209.7)"/><path class="cls-7" d="M-191.8,142.9c-.7-3.6,1.2-3.1,2.8-3.1h36.3c3.3,0,6.5-.4,9.7,0,4.9.7,7.8-2.2,9.7-8s4.7-12.2,6.8-18.4c1.1-3.1,2.4-4.2,5-4.1h93.9c7.2,0,8.6-1.9,8.6-11.4V18.4H15.7a21.1,21.1,0,0,1,.2,2.6V141a12.1,12.1,0,0,1-.1,1.9Z" transform="translate(203 209.7)"/><path class="cls-8" d="M-197.4,94.6V75.4c4.8-2.3,5.5-3.7,5.5-10.4V17l58-12.7V15.9c0,12.9,0,25.7-.1,38.6,0,5.2,1.6,8.2,5.5,9.4s10.2,3.6,15.3,5.4c-3,9-8.2,13.2-15.7,12.9s-12.1-.2-18.2.1a20.3,20.3,0,0,0-7.4,2.2c-4.8,2.2-7.1,7.6-9.2,13.3-3.7,9.8-9.1,15.9-18.1,14.8-3.3-.4-6.6,0-10,0,0-3-.1-5.9-.1-8.8C-191.8,98.6-193.4,95.4-197.4,94.6Z" transform="translate(203 209.7)"/><path class="cls-9" d="M-18.9-8.9c0-7.8-.2-15.7,0-23.5.1-5.1-1.5-8.1-4.9-10.3-12.7-8.2-25.4-16.8-38.1-24.9-2.5-1.6-3.3-3.5-3.2-7.1.2-9.4,0-18.9,0-28.9h4.2c13.3,0,26.7-.2,40,.1,5.8.1,11.3-.3,16-5.4,0,26.8-.2,53.7.2,80.6C-4.6-18.2-12-8.8-18.9-8.9Z" transform="translate(203 209.7)"/><path class="cls-10" d="M-18.9-8.9c6.9.1,14.3-9.3,14.2-19.4-.4-26.9-.2-53.8-.2-80.6l20.8-18.8v5.8q0,38.7.1,77.4c0,6.6.8,8,5.6,10.2v19.2C17.2-13.7,16-11.7,16-6c-.1,2.9-.1,5.8-.1,9.1H-18.9Z" transform="translate(203 209.7)"/><path class="cls-11" d="M-55.4,16.5l25.1-31.8V94.5H-76.5V82.2h8.1c7.4-.3,13.8-8.9,13.8-18.6v-42A30,30,0,0,0-55.4,16.5Z" transform="translate(203 209.7)"/><path class="cls-12" d="M-191.8,142.9H15.8v12.7H-182.8C-190.8,155.6-192.2,153.6-191.8,142.9Z" transform="translate(203 209.7)"/><path class="cls-13" d="M-122.6,6.7c6.6-.3,13.3-.3,19.9-1,1.7-.2,3.7-1.7,5-3.4C-86.8-11.8-76-25.8-65.5-40.3c1.9-2.7,2.4-7.1,3.5-10.8l27.9,18c-1,1.5-1.6,2.6-2.4,3.6L-70.8,15.8c-1,1.2-2.5,2.6-3.7,2.6-15.9.2-31.8.2-48.1.2Z" transform="translate(203 209.7)"/><path class="cls-14" d="M-191.8,112.6c3.4,0,6.7-.4,10,0,9,1.1,14.4-5,18.1-14.8,2.1-5.7,4.4-11.1,9.2-13.3a20.3,20.3,0,0,1,7.4-2.2c6.1-.3,12.1-.3,18.2-.1s12.7-3.9,15.7-12.9c7.8,2.4,15.6,4.8,23.4,7.4.8.3,1.8,2.1,1.9,3.3.2,4.7.1,9.4.1,14.8h-4.3c-11.2,0-22.4.2-33.6-.2-4.5-.1-7.1,2.1-8.9,7.4-2.3,6.9-4.9,13.5-7.6,20.1-.6,1.4-2.1,2.9-3.2,2.9-15.3.2-30.6.2-46.4.2Z" transform="translate(203 209.7)"/><path class="cls-15" d="M-55.4,16.5a30,30,0,0,1,.8,5.1v42c0,9.7-6.4,18.3-13.8,18.6h-8.1c-.1-2.6-.2-5.2-.2-7.8,0-7.2-1-8.9-6.1-10.6l-36.2-12-3.6-1.3V33.3h4c15.2,0,30.4-.2,45.6,0,3.4.1,5.9-1.3,8.1-4.5S-58.6,20.6-55.4,16.5Z" transform="translate(203 209.7)"/><path class="cls-16" d="M44.8-27.3c-4.6-1.6-5.8-3.5-5.8-9.4V-78.8c0-6.3,2-9,6.7-9.1H78c4.7,0,6.8,2.8,6.8,9,.1,14,0,28.1,0,42.1,0,6-1.2,7.9-5.8,9.5ZM73.5-72.9H50.3v30.3H73.5Z" transform="translate(203 209.7)"/><path class="cls-16" d="M44.9,48.9c-5-2.1-5.9-3.6-5.9-10.5V-2.3c0-6.9,1.9-9.5,7.1-9.5H77.6c5.2,0,7.2,2.6,7.2,9.4V38.8c0,6.3-1,8-5.8,10Zm5.4-15.3H73.5V3.1H50.3Z" transform="translate(203 209.7)"/><path class="cls-17" d="M44.8-103.4c-4.5-1.5-5.8-3.5-5.8-9.4v-42.1c0-6.3,2-8.9,6.7-8.9H78c4.8,0,6.8,2.5,6.8,8.8.1,14.1,0,28.1,0,42.1,0,6-1.3,8-5.8,9.5Zm28.6-15.2v-30.1H50.3v30.1Z" transform="translate(203 209.7)"/><path class="cls-18" d="M44.8,124.7c-4.5-1.4-5.8-3.4-5.8-9.4v-42c0-6.3,2-8.9,6.7-9H78c4.8.1,6.8,2.6,6.8,8.9.1,14.2.1,28.4,0,42.5,0,5.6-1.4,7.6-5.8,9Zm28.7-15.1V79.3H50.4v30.3Z" transform="translate(203 209.7)"/><path class="cls-19" d="M142.1-88.2c2.1.1,4.2.1,6.2.3,3.5.5,5.8,3.6,5.6,7.6s-2.2,6.8-5.5,7.1l-6.3.4-35.9-.4a33.8,33.8,0,0,1-4.5-.1c-3-.5-4.7-2.8-4.9-6.7s1.4-6.8,4.5-7.7a15.3,15.3,0,0,1,3.7-.2Z" transform="translate(203 209.7)"/><path class="cls-20" d="M142.1,64.1c2.1.1,4.2.1,6.2.3s5.5,3.1,5.6,7-2,7-5.2,7.5a60.1,60.1,0,0,1-7.4.4L105,79a18.2,18.2,0,0,1-3.3-.1c-3.2-.7-5.2-3.8-4.9-7.8s2.1-6.5,5.3-6.7,6.6-.1,10-.1Z" transform="translate(203 209.7)"/><path class="cls-21" d="M142.1-164l5.9.2c3.5.2,5.8,3,5.9,7s-2.1,7.2-5.6,7.6c-2,.3-4.1.2-6.2.3l-37.1-.2a11.6,11.6,0,0,1-3.7-.3c-3-.9-4.7-3.4-4.5-7.6s2.1-6.6,5.3-6.7,8.4-.1,12.6-.1Z" transform="translate(203 209.7)"/><path class="cls-22" d="M142.1-12c2.1.1,4.2,0,6.2.2s5.7,3.6,5.6,7.6-2.4,6.8-5.6,7-4.1.2-6.2.2c-12.9,0-25.7,0-38.6-.3A7.1,7.1,0,0,1,98.1-.1c-1.1-1.6-1.5-5.5-.8-7s3.6-4.4,5.5-4.5c6.9-.5,13.8-.2,20.8-.2Z" transform="translate(203 209.7)"/><path class="cls-23" d="M141.4,21.5c.1,2.7.3,5.4.4,8.1-2.1,1.2-4.3,3.4-6.4,3.5-10.6.4-21.2.2-31.8.2-4.4-.1-6.8-2.7-6.9-7.3s2.5-7.4,6.8-7.4c10.6-.1,21.2-.2,31.8.1C137.4,18.7,139.4,20.5,141.4,21.5Z" transform="translate(203 209.7)"/><path class="cls-21" d="M113.9-133.4H125c3.4.1,5.8,3,5.9,7.1s-2.2,7.4-5.6,7.5c-7.6.2-15.3.2-22.9,0-3.5-.1-5.7-3.2-5.7-7.3s2.3-7.2,6.1-7.3Z" transform="translate(203 209.7)"/><path class="cls-20" d="M113.8,109.4H103.1c-4-.1-6.4-3-6.4-7.4s2.4-7.2,6.5-7.2h21.1c4,0,6.5,2.8,6.6,7.1s-2.6,7.4-6.8,7.5Z" transform="translate(203 209.7)"/><path class="cls-19" d="M108.3-57.4a40.1,40.1,0,0,1,6,.1c3,.5,4.9,2.9,4.9,7.2s-1.7,6.9-4.9,7.2a88.3,88.3,0,0,1-12.6,0c-3.1-.3-4.9-2.9-4.9-7.1s1.8-6.8,4.9-7.3a48.5,48.5,0,0,1,6.6,0Z" transform="translate(203 209.7)"/><path class="cls-24" d="M44.8-103.4H79c-.2,5.9-1.3,7.3-5.8,7.3H50.4C45.6-96.1,45-97,44.8-103.4Z" transform="translate(203 209.7)"/><path class="cls-24" d="M44.8,124.7H79c-.2,6-1.3,7.4-5.8,7.4H50.7C45.5,132.1,45,131.3,44.8,124.7Z" transform="translate(203 209.7)"/><path class="cls-25" d="M44.8-27.3H79c-.1,6-.6,6.7-5.2,6.7H50.1C45.4-20.6,45-21.3,44.8-27.3Z" transform="translate(203 209.7)"/><path class="cls-25" d="M44.9,48.9H79c-.1,6.3-.6,6.9-5,6.9H49.9C45.4,55.7,45,55.1,44.9,48.9Z" transform="translate(203 209.7)"/><path class="cls-26" d="M73.5-72.9v30.3H50.3V-72.9Z" transform="translate(203 209.7)"/><path class="cls-27" d="M50.3,33.6V3.1H73.5V33.6Z" transform="translate(203 209.7)"/><path class="cls-28" d="M73.4-118.6H50.3v-30.1H73.4Z" transform="translate(203 209.7)"/><path class="cls-29" d="M73.5,109.6H50.4V79.3H73.5Z" transform="translate(203 209.7)"/></svg>