<svg id="Layer_1" data-name="Layer 1" xmlns="http://www.w3.org/2000/svg" width="335.5" height="335.3" viewBox="0 0 335.5 335.3"><defs><style>.cls-1{fill:#f9b300;}.cls-2{fill:#f96450;}.cls-3{fill:#efc7a0;}.cls-4{fill:#64c7ef;}.cls-5{fill:#eca702;}.cls-6{fill:#505050;}.cls-7{fill:#46aad1;}.cls-8{fill:#db4632;}.cls-9{fill:#db9600;}.cls-10{fill:#3cc7b3;}.cls-11{fill:#3c3c3c;}.cls-12{fill:#1faa96;}.cls-13{fill:#d2aa82;}.cls-14{fill:#efefed;}.cls-15{fill:#efeeee;}.cls-16{fill:#eeefef;}</style></defs><path class="cls-1" d="M-11.3-139.2c29.1-.1,58.1-.2,87.2-.1a11.6,11.6,0,0,1,11.6,11.8c.1,32,.1,64.1,0,96.1A11.6,11.6,0,0,1,75.9-19.6H-11.3c-6.4-2.5-9.1-7.2-9-14.2q.3-45.6,0-91.1C-20.4-132-17.7-136.7-11.3-139.2Zm39,13.6-.6-.2C19.3-106.5,11.6-87.2,3.7-67.3H27.8v34.1h.5C36-52.4,43.7-71.7,51.7-91.6h-24Z" transform="translate(140.1 139.3)"/><path class="cls-2" d="M-119.1-43.4h74.9v10c0,14.6,8.2,23.9,22.6,25.8l1.1.3a5.2,5.2,0,0,1,.2,1.1c0,23.6.1,47.1,0,70.7A11.6,11.6,0,0,1-32,76.2c-29,.1-58.1,0-87.1-.1-6.5-2.7-9.1-7.4-9.1-14.6.3-30.2.2-60.5.1-90.7C-128.2-36.2-125.6-40.8-119.1-43.4Zm29.3,56.8L-103-3.1l-1.1.6V27.6C-104,41.7-93.6,52.3-80,52.3s23.7-10.7,23.8-24.5c.1-9.3,0-18.5,0-27.7a24.8,24.8,0,0,0-.3-2.7l-.9-.4L-70.6,13.6c.9-11.7-1.3-22.9-9.6-32.5C-88.4-9.1-90.6,2.1-89.8,13.4Z" transform="translate(140.1 139.3)"/><path class="cls-3" d="M-80,124.1H63.1c1.2,6.8-1.9,12-8.5,13.6-9.3,2.3-18.7,4-28.1,5.9L6.8,147.5c-2.7.5-3.5,1.6-2.5,4.3,1.7,4.7,6,8.2,10.9,8.3,12.3.1,24.5.5,36.7-.2s21.7-2.5,32.5-3.9l32.9-4.1,22.2-2.9c4-.5,7.1,1.2,7.9,4.5s-.9,6.9-4.9,8.1L37.4,193c-9.2,2.8-18.4,1.2-27.6-.8l-88-19.6-1.8-.5Z" transform="translate(140.1 139.3)"/><path class="cls-4" d="M111.5-43.4h72.2a11.7,11.7,0,0,1,11.7,11.8V64.5a11.6,11.6,0,0,1-11.7,11.7c-29.1.1-58.1,0-87.2-.1-6.4-2.7-9.1-7.4-9-14.6.3-21.4.1-42.8.1-64.3V-7.2l1.8-.4c11.2-1.3,19.3-8,21.4-19.1C111.9-32.1,111.3-37.8,111.5-43.4Zm30.3,12.2-1.6,1.3c-4.7,6.3-9.6,12.4-14,18.9S123,5.8,129.8,11.9s16.1,6,22.3.9,9.8-15.5,5-22.9S147.1-24,141.8-31.2ZM117.6,16.3c-5.5,7.3-10.7,13.8-15.4,20.6S99,53.7,105.8,59.8s16.2,6,22.4.9,9.8-15.4,5-22.9S123.2,23.9,117.6,16.3Zm48.3.5c-.9.6-1.3.7-1.5,1-4.5,6-9.2,12.1-13.6,18.2s-4.3,16.7,2.2,23.1,16,7,22.5,2.1,10.5-15.5,5.8-23.1S171.1,24,165.9,16.8Z" transform="translate(140.1 139.3)"/><path class="cls-5" d="M-8.2,40.2C-8.7,20.9,7.4,4.9,27,4.3s37,15,36.5,36H15.7Z" transform="translate(140.1 139.3)"/><path class="cls-6" d="M-80,124.1v71.8h-24.1V112.3H-80Z" transform="translate(140.1 139.3)"/><path class="cls-7" d="M111.5-43.4c-.2,5.6.4,11.3-.7,16.7C108.7-15.6,100.6-8.9,89.4-7.6l-1.8.4v4.4c0,21.5.2,42.9-.1,64.3-.1,7.2,2.6,11.9,9,14.6-3.4.1-6.7.3-10.1.1C81,76,75.7,71,75.7,65.6c-.2-24.2-.1-48.4-.1-73,8.6-.9,15.7-4.3,20.4-11.9s3.3-15.6,3.6-24.1Z" transform="translate(140.1 139.3)"/><path class="cls-8" d="M-119.1-43.4c-6.5,2.6-9.1,7.2-9,14.2.1,30.2.2,60.5-.1,90.7,0,7.2,2.6,11.9,9.1,14.6-3.1.1-6.3.2-9.4.1A11.6,11.6,0,0,1-140,64.6q-.1-48.3,0-96.4a11.6,11.6,0,0,1,11.5-11.7C-125.4-43.6-122.2-43.4-119.1-43.4Z" transform="translate(140.1 139.3)"/><path class="cls-9" d="M-11.3-139.2c-6.4,2.5-9.1,7.2-9,14.2q.3,45.4,0,91.1c-.1,7,2.6,11.7,9,14.2-3.1.1-6.2.2-9.3.1A11.6,11.6,0,0,1-32.2-31.2v-96.5a11.5,11.5,0,0,1,11.6-11.6C-17.5-139.4-14.4-139.3-11.3-139.2Z" transform="translate(140.1 139.3)"/><path class="cls-10" d="M38.1,77.9c15.3,4.8,26.5,19.8,25.2,34.2H15.7c.4-11.9,5-21.7,14.8-28.7Z" transform="translate(140.1 139.3)"/><path class="cls-3" d="M15.7,40.4H63.5c.4,15-10.7,30.4-24.4,33.8C24.4,67.7,16.4,56.6,15.7,40.4Z" transform="translate(140.1 139.3)"/><path class="cls-11" d="M-104.1,112.3v83.6h-11.8V112.3Z" transform="translate(140.1 139.3)"/><path class="cls-12" d="M38.1,77.9l-7.6,5.5c-9.8,7-14.4,16.8-14.8,28.7H-8.2c-.3-8.2,2.4-15.2,7.1-21.5,5.8-7.9,13.9-12.2,23.3-14.2h11Z" transform="translate(140.1 139.3)"/><path class="cls-13" d="M33.2,76.4h-11c-4.7-2-9.8-3.2-13.9-5.9C-2.5,63.5-8.3,53.4-8.2,40.2l23.9.2c.7,16.2,8.7,27.3,23.4,33.7Z" transform="translate(140.1 139.3)"/><path class="cls-14" d="M27.7-125.6v34h24C43.7-71.7,36-52.4,28.3-33.1h-.5V-67.3H3.7c7.9-19.9,15.6-39.2,23.4-58.5Z" transform="translate(140.1 139.3)"/><path class="cls-15" d="M-89.8,13.4c-.8-11.3,1.4-22.5,9.6-32.3,8.3,9.6,10.5,20.8,9.6,32.5L-57.4-3l.9.4A24.8,24.8,0,0,1-56.2.1c0,9.2.1,18.4,0,27.7C-56.3,41.6-66.6,52.3-80,52.3s-24-10.6-24.1-24.7V-2.5l1.1-.6Z" transform="translate(140.1 139.3)"/><path class="cls-16" d="M141.8-31.2c5.3,7.2,10.7,13.9,15.3,21.1s2.4,16.9-5,22.9-16.2,4.7-22.3-.9S121.3-3.9,126.2-11s9.3-12.6,14-18.9Z" transform="translate(140.1 139.3)"/><path class="cls-16" d="M117.6,16.3c5.6,7.6,11,14.3,15.6,21.5s2.4,16.9-5,22.9-16.2,4.7-22.4-.9-8.5-15.7-3.6-22.9S112.1,23.6,117.6,16.3Z" transform="translate(140.1 139.3)"/><path class="cls-16" d="M165.9,16.8c5.2,7.2,10.8,14,15.4,21.3s1.9,17.5-5.8,23.1-16.4,3.9-22.5-2.1-7.4-16-2.2-23.1,9.1-12.2,13.6-18.2C164.6,17.5,165,17.4,165.9,16.8Z" transform="translate(140.1 139.3)"/></svg>