<svg id="Layer_1" data-name="Layer 1" xmlns="http://www.w3.org/2000/svg" width="383.2" height="378.4" viewBox="0 0 383.2 378.4"><defs><style>.cls-1{fill:#070707;}.cls-2{fill:#060706;}.cls-3{fill:#070706;}.cls-4{fill:#070808;}.cls-5{fill:#060606;}.cls-6{fill:#090909;}.cls-7{fill:#0b0b0b;}.cls-8{fill:#0a0a0a;}.cls-9{fill:#0e0e0e;}.cls-10{fill:#0d0d0d;}.cls-11{fill:#080808;}.cls-12{fill:#0c0c0c;}.cls-13{fill:#fcfcfc;}.cls-14{fill:#fdfdfd;}.cls-15{fill:#a9f2fc;}.cls-16{fill:#e4fd83;}.cls-17{fill:#e3fb82;}.cls-18{fill:#fdc76c;}.cls-19{fill:#c9cfd4;}</style></defs><path class="cls-1" d="M-130.8,118l-6.1-9.8c-1.2-1.9-1.8-3.7.5-5.1s3.4.3,4.5,1.9l6.6,10.1c.6-3.8,1.2-6.8,1.7-9.9s1.1-4.1,3.7-3.7,2.6,2.7,2.2,4.7c-.6,3.6-1.1,7.2-2,10.7s-.7,7.8,3,10.9a28.7,28.7,0,0,1,24-.8c2.5-2.7,3.5-5.5,2.3-9.4s-1.7-8-2.6-12c-.5-2.1-.2-3.9,2.1-4.4s3.2,1.3,3.7,3.3,1.3,6,2.1,9.8c1.7-2.8,2.9-5.2,4.5-7.3s2-7.4,6.2-5,0,5.3-1.1,7.7a77.2,77.2,0,0,1-4.2,7.5l9.7-1.9c2-.3,4.3-.9,4.9,1.9s-1.5,3.5-3.7,4-6.3,1.6-9.5,1.8-7.3,2.6-8.7,7.3A28.5,28.5,0,0,1-76.2,150c4.3,1.1,7.7.3,10.7-3.2a49.2,49.2,0,0,1,8-7.8c1-.8,3-.3,4.6-.5-.2,1.6.2,3.5-.6,4.6s-4.3,4.5-6.9,7.3h11.3c2.2,0,4.4.2,4.4,2.9s-2.2,3.1-4.5,3.1H-61.1l6.7,7.2c1.5,1.6,3.6,3.4,1.3,5.6s-4,.3-5.6-1.4-4.6-4.6-6.6-7.2-6-5.3-10.9-3.8a29.1,29.1,0,0,1-10.3,18c1.7,4.7,4.4,7.7,9.8,8,3.6.3,7.1,1.4,10.7,2.1,2,.5,3.6,1.3,3.1,3.8s-2.4,2.5-4.4,2.1l-9.5-1.9h-1l.6.4c1.9,3.1,3.7,6.2,5.6,9.2s1.7,3.6-.4,4.9-3.4.1-4.6-1.7-4-6.2-6.3-9.8c-.9,3.7-1.4,6.9-2.4,9.9-.5,1.3-2.3,2.9-3.4,2.9s-2.8-2.1-2.2-4.3.9-6.2,2-9.1c2-5.2.7-9.4-3.2-13.1a29.2,29.2,0,0,1-23,.2c-2.2,2.5-3.9,5-2.9,8.8s1.7,9.1,2.5,13.6c.4,2.1.4,4.3-2.2,4.7s-3.3-1.6-3.7-3.8-1.1-6.1-1.8-10.1c-2.3,4-4.4,7.3-6.3,10.7-1.1,1.9-2.4,3.9-4.9,2.4s-1.3-3.6-.2-5.5l6.5-11.1c-3.8.6-6.8.9-9.9,1.5s-4.1-.1-4.1-2.4,1.7-2.8,3-3.2a41.3,41.3,0,0,1,9.2-1.6c4.8-.2,7.8-2.5,9.1-7.4a28.4,28.4,0,0,1-10.6-18.4c-3.9-.9-7-.4-9.6,3s-5.4,5.9-8.1,8.8-3.1,2.4-4.9.8-.9-3.3.5-4.8l7.6-8.1c-4.8,0-8.9.1-12.9-.1-1.8-.1-3.5-.9-5.2-1.3v-3c1.6-.5,3.1-1.4,4.7-1.5,4.1-.2,8.2-.1,13-.1-2.8-2.7-5.2-4.6-7-7s-1.3-3.4-.7-4.4,3.1-1.3,4.7.2,5.4,4.9,7.7,7.6,5.6,4.5,10,3.3c1-7,3.8-13.5,9.4-18.3-1.4-4.6-4.3-6.7-9-6.9a47.7,47.7,0,0,1-9.9-1.7c-1.3-.4-3.1-2-3.2-3.2s1.9-2.9,4-2.5l8.9,1.3h.9Zm48.6,35.4c.1-12.5-9.4-22.3-21.6-22.4a22.1,22.1,0,0,0-21.9,21.6c-.1,12.4,9.4,22.4,21.6,22.5S-82.4,165.7-82.2,153.4Z" transform="translate(164 160.6)"/><path class="cls-2" d="M-73.1,26.5C-73.1-30.4-26.3-76.7,31-76.7S134.7-30,134.6,27.1s-46.8,104-104,103.8A103.8,103.8,0,0,1-73.1,26.5Zm136-91-1.5-.7c-8.9-3.5-18.3-4.8-27.8-5a97.2,97.2,0,0,0-94.7,66,93.4,93.4,0,0,0-4.8,37.8c4.6.8,7.9,0,11.1-3.4a28.7,28.7,0,0,1,16.4-8.9,71,71,0,0,0,7.9-2.2c2.7-.8,4-2.6,3.6-5.3Q-27.8,6.7-29-.3c-1.1-6.6-3.3-13.4-.7-19.9s2.8-11.2,2.6-17.1A8.4,8.4,0,0,1-21.4-46a40.7,40.7,0,0,1,6.8-2c8.8-1.8,17.4-.1,26,1.2,6.3.9,11.6.3,16.1-5.2s10.3-5.9,16.1-2.2a42.4,42.4,0,0,1,7.8,6.9A48.9,48.9,0,0,0,74.7-32.5c4.9,1.5,9.9,2.1,15.3.4a12.4,12.4,0,0,0-2.1-2A53.4,53.4,0,0,1,71.6-51.9c-.6-1.2-.4-2.9-.5-4.4,3.2-2.1,5,0,6.3,2.4,3.6,6.6,9.1,11.4,15,15.8a20.6,20.6,0,0,1,3,2.9c2.8,3.4,2.1,6.9-2.1,8.2A31.3,31.3,0,0,1,82-25.4c-13.2-.9-24.3-6.8-33.5-16.2a88.4,88.4,0,0,0-6.9-6.8c-4-3.1-7.3-2.8-10.4,1.1-4.5,5.5-10.2,7.4-16.9,6.7-3-.2-6-.7-8.9-1.1-7.4-1-14.8-1.8-22.3.3-3.3.9-4.4,2.6-4.4,6.1A43.5,43.5,0,0,1-23-21.8,26.7,26.7,0,0,0-24.4-9c.9,5.8,2.2,11.5,3.1,17.3,1.8,10.9-1,15.1-11.6,17.8-2.2.6-4.5.8-6.5,1.6s-6,1.9-8,3.9c-5,4.8-10.3,8.9-18.1,8.4.8,3.7,1.1,6.9,2.1,10a128.6,128.6,0,0,0,5.5,16.2C-40.2,106,.2,128.7,43.8,123.3a89.6,89.6,0,0,0,45.9-19.1c19.9-15,31.9-34.8,36.7-59.1a4.8,4.8,0,0,0-.2-2.9c-4.7-7.6-9.2-15.3-14.3-22.7A48.7,48.7,0,0,0,85.1-.4C76.3-3,68.3-1.6,60.9,4.2A22.9,22.9,0,0,1,49.8,8.9c-7.6.9-15.4.4-23.1.8s-12.3,4-15.1,10.9-.9,12.4,4,17.3c2.6,2.7,5.4,5.2,7.8,8.1,3.8,4.6,3.7,8.2-.2,12.7S16,66.3,12.9,70.5C7.5,77.7,2.2,84.9-2.4,92.5c-3.4,5.7-2,8.4,4.6,9.8,12.2,2.6,23.9,1.4,34.6-6,3.3-2.2,7.2-4.4,11.1-4.9,8.7-1.1,14.4-4.6,18.2-13s12.7-8.7,19.2-2.8,7,10.7,7.6,17.3c.2,2.5-.6,3.9-3,4.4-1-1.6-2.3-3-2.9-4.7s-1.1-5.1-2.1-7.5-3.8-7-8.2-7.2-5.9,3.5-7.4,6.8c-3,6.5-7.9,10.2-15.1,11.4-4.5.8-9.4,2.1-13.2,4.6a48.1,48.1,0,0,1-21.3,8.2c-8,.9-16,1.2-23.5-2.5-5.9-3-7.7-7.4-5.3-13.6,1.3-3.2,2.6-6.6,4.7-9.3C2.8,74.1,10.4,65,17.8,55.9c2.9-3.5,3-4.2-.1-7.5l-7.6-7.8C-2.4,27.4,7.6,6.3,22.6,4.4c7.2-.8,14.5-.6,21.7-.7,4.8-.2,9.3-.8,13.2-4.2,8.2-6.9,17.7-8.6,28-5.9,14,3.8,24.5,12.5,32.6,24.2,3.3,4.7,6.4,9.6,9.8,14.9.1-1.5.2-2.5.2-3.5.1-36-14.9-64.2-44.9-84C77-59,69.7-61.4,62.8-64.6Z" transform="translate(164 160.6)"/><path class="cls-3" d="M154.2-72.8l-21.1-8.7-7.4,7.8c-1.4,1.5-3,2.4-4.8.7s-.9-3.4.6-4.8,5.7-5.6,7.8-7.5l-9-21.1H109.9c-2.3,0-4.1-.5-4-3.2s1.8-2.9,3.9-2.8h10.5c2.8-7.1,5.5-13.8,8.6-21.3l-7.1-7c-1.6-1.5-2.8-3.1-.8-5s3.6-.6,5.1.9,5,5.2,6.8,7l21.3-9v-9.9c-.1-2.3.7-4.4,3.1-4s2.6,2.5,2.7,4a84.7,84.7,0,0,1,.1,10l21.4,8.9,6.5-6.6c1.6-1.6,3.2-3.7,5.6-1.3s.2,3.8-1.3,5.3l-6.8,6.7,8.7,21.3h10.4c2.1-.1,3.9.5,4,2.8s-1.8,3.2-4.1,3.2H193.3c-1.1,3.6-1.8,7.1-3.2,10.4s-3.4,6.3-5.8,10.6l8.3,7.3c1.7,1.5,2.8,3.2.9,5.1s-3.7.6-5.1-1l-7.1-7.6-21.2,8.7a102.5,102.5,0,0,1-.1,11c-.1,1.4-1.8,2.7-2.8,4-1-1.3-2.7-2.5-2.9-3.9A103.2,103.2,0,0,1,154.2-72.8Zm3-7.1A29.8,29.8,0,0,0,187-109.5a30.1,30.1,0,0,0-31-30c-15.5.5-28.8,14-28.7,30A29.9,29.9,0,0,0,157.2-79.9Z" transform="translate(164 160.6)"/><path class="cls-4" d="M173.4,141c2.1-3.4,4-6.5,6.2-9.6s4-2.8,5.5,0c6.3,11,13,21.9,18.2,33.4s.9,23.9-9.8,29.8-23,2.7-30.9-8l-.7-.8a31.3,31.3,0,0,1-20.9,2.1c-16.5-4.2-26.3-21.2-21.1-37.4s13-27.9,21.1-41.1c1.3-2.1,2.7-4.2,4.1-6.2,2.4-3.7,4.5-3.8,6.6-.1q10.1,17.1,19.8,34.2Zm-24.6-33c-9.1,14.9-17.7,28.4-23.1,43.6-3.3,9.3-.9,17.6,5.9,24.3s15.3,8.4,24.5,5.8c2.8-.8,3.9-2.1,3.1-5.1a7.3,7.3,0,0,1,0-4.4c2.8-7.4,5.7-14.7,8.9-21.9.9-2.1,1.4-3.8.3-5.9C162,132.6,155.6,120.8,148.8,108Zm33.5,29.9c-6.3,10.5-12.6,20.4-16.3,31.7a16.3,16.3,0,0,0,6,18.5,17.4,17.4,0,0,0,20.3.2,16.6,16.6,0,0,0,6.7-18.4C195.3,158.5,188.9,148.4,182.3,137.9Z" transform="translate(164 160.6)"/><path class="cls-5" d="M-122.1-120.6c3.3-8.3,8.2-14.9,16.2-18.7,16.6-7.8,36.1-.5,43.8,16.5,1,2.1,1.9,3.1,4.6,3.2a27.1,27.1,0,0,1,19.7,9.4c8.4,9.7,6.3,22.8-5.2,28.5a40.9,40.9,0,0,1-16.7,4.3c-25.1.5-50.1.1-75.2.3-8.9.1-15.6-3.5-19.3-11.4s-1.3-15.9,4.3-22.5,13.8-9,22.3-9.5A49.5,49.5,0,0,1-122.1-120.6Zm24.4,37.5c12.7,0,25.4.3,38.1-.2a35.3,35.3,0,0,0,13.9-3.6c8-3.8,9.3-12.6,3.5-19.4a20.8,20.8,0,0,0-17.3-7.3c-4.5.3-6-1.3-7.3-5.2-3.7-10.6-11.6-16.3-22.6-17.4s-20.3,2.6-24.5,12.7c-3.2,7.7-7.4,9.1-14.9,9.2-9.1.2-17.1,3.8-20.2,13.6s3,17.6,12.8,17.6Z" transform="translate(164 160.6)"/><path class="cls-6" d="M32.8-157.7c2.2.1,3.7-.2,4.9.3s2.4,1.8,2.4,2.8a3.8,3.8,0,0,1-2.4,2.7,41.3,41.3,0,0,1-8.6-.1,3.2,3.2,0,0,1-2-2.5,4,4,0,0,1,2.1-2.9A7.9,7.9,0,0,1,32.8-157.7Z" transform="translate(164 160.6)"/><path class="cls-7" d="M205.6,100.7a69.1,69.1,0,0,1-4.2,8.6c-.4.7-2.6,1.1-3.4.7a4.2,4.2,0,0,1-1.4-3.3,35.7,35.7,0,0,1,3.3-7.5,3.8,3.8,0,0,1,3.4-1.1C204.2,98.3,204.9,99.9,205.6,100.7Z" transform="translate(164 160.6)"/><path class="cls-7" d="M11.5,216.5c-2.1-.3-4.3-.2-6.2-1A4.2,4.2,0,0,1,3,212.3c-.1-.8,1.8-2.3,2.9-2.4s4.2.4,6.3.7,4,.9,3.3,3.3-2.1,2.2-3.3,3.3Z" transform="translate(164 160.6)"/><path class="cls-8" d="M47.2,217.6c-1.1-1.1-2.9-2.1-3.2-3.4s1.3-3.1,3.5-3.3,4.2-.7,6.2-.5,3.1,1.7,3,2.4a5,5,0,0,1-2.5,3.3c-1.9.7-4.2.5-6.3.7Z" transform="translate(164 160.6)"/><path class="cls-8" d="M212.5,46c.3-1.9.1-3.9.8-5.6s1.9-2.6,2.8-2.5,2.5,1.7,2.7,2.8-.2,3.7-.2,5.6-.4,5.1-3.5,4.5c-1.3-.3-2.2-2.7-3.3-4.2Z" transform="translate(164 160.6)"/><path class="cls-9" d="M29.8,217.7c-1.4-.1-3.1.1-4.3-.5a3.7,3.7,0,0,1-2.1-2.9,3.4,3.4,0,0,1,2.4-2.5,20.5,20.5,0,0,1,7.4,0,4.3,4.3,0,0,1,2.9,2.8c.2.8-1.5,2.3-2.6,2.9s-2.4.1-3.7.1Z" transform="translate(164 160.6)"/><path class="cls-7" d="M209.2,68.4c.7-3.2.9-5.6,1.8-7.7s2.2-1.6,3.4-2.4c.7,1.1,2,2.3,2,3.4a17.9,17.9,0,0,1-1.2,6.9,5,5,0,0,1-3.6,2.5C210.8,71.1,209.8,69.1,209.2,68.4Z" transform="translate(164 160.6)"/><path class="cls-9" d="M-3.4-154.5c.7.7,2.2,1.5,2.3,2.5a3.7,3.7,0,0,1-1.5,3.2,33.4,33.4,0,0,1-8.3,1.9c-.9.1-2.5-1.3-2.8-2.2s.7-2.9,1.5-3.2C-9.6-153.3-6.7-153.7-3.4-154.5Z" transform="translate(164 160.6)"/><path class="cls-1" d="M-127.3-57.8c-2.4,4.2-3.9,7.2-5.8,9.9-.4.6-2.5.6-3.2.1a3.6,3.6,0,0,1-1.1-3.2,32.7,32.7,0,0,1,3.7-7.2c.5-.8,2.1-1.2,3.1-1.1A8.9,8.9,0,0,1-127.3-57.8Z" transform="translate(164 160.6)"/><path class="cls-10" d="M116.9,195.2c-1.1,1.6-1.6,2.6-2.3,3a34.9,34.9,0,0,1-7.4,3.3,3.4,3.4,0,0,1-3.2-1.4c-.5-.8,0-3,.7-3.4a30.6,30.6,0,0,1,8-3.7C113.7,192.8,115.2,194.3,116.9,195.2Z" transform="translate(164 160.6)"/><path class="cls-7" d="M-34.3,199.2c2.9,1.2,5.8,2.1,8.6,3.5a3.4,3.4,0,0,1,.8,3.2c-.5.9-2.2,2-3.1,1.8a33.7,33.7,0,0,1-7.7-2.8c-.8-.5-1.3-2.2-1.3-3.4s.7-2.3,1.2-3.5Z" transform="translate(164 160.6)"/><path class="cls-8" d="M51.9-156.6c2.1.3,4.3.3,6.2,1s2.4,2.1,2.3,3a3.9,3.9,0,0,1-2.8,2.6,15,15,0,0,1-6.3-.7c-1.4-.5-2.5-2.1-3.8-3.1l3.7-3.5Z" transform="translate(164 160.6)"/><path class="cls-8" d="M-147.8,1.7c-.4,3.2-.4,5.5-1.2,7.5s-2.1,1.9-3.2,2.8c-.8-1.2-2.3-2.3-2.4-3.5s.6-4.4.8-6.6,1.5-3.4,3.5-2.7S-148.3,1.1-147.8,1.7Z" transform="translate(164 160.6)"/><path class="cls-8" d="M-153.1,62.8c.9-.7,1.8-2,2.8-2.1a4,4,0,0,1,3.1,1.9,26.4,26.4,0,0,1,1.6,7.9c.1.9-1.3,2.6-2.2,2.8s-2.9-.7-3.2-1.6C-152,69.1-152.3,66.2-153.1,62.8Z" transform="translate(164 160.6)"/><path class="cls-6" d="M101.2-141.8c-1.6.8-3,2.1-4.2,1.9a24.2,24.2,0,0,1-7.4-2.6,3.7,3.7,0,0,1-1.3-3.3c.1-.8,1.8-2.2,2.5-2a60.4,60.4,0,0,1,8.7,3.1C100.1-144.5,100.3-143.3,101.2-141.8Z" transform="translate(164 160.6)"/><path class="cls-8" d="M-139.6,90.7c-.7.9-1.5,2.4-2.4,2.5a3.7,3.7,0,0,1-3.3-1.5,29.8,29.8,0,0,1-2.6-7.8,3.8,3.8,0,0,1,1.9-3c.9-.3,3,.4,3.4,1.2C-141.4,84.7-140.7,87.5-139.6,90.7Z" transform="translate(164 160.6)"/><path class="cls-6" d="M217.9,7.3c-.5.5-1.5,2.3-2.3,2.2a4.4,4.4,0,0,1-3.5-2.3,17.8,17.8,0,0,1-1-6.9c.1-1.2,1.5-2.4,2.3-3.6,1.1.9,2.9,1.5,3.3,2.7S217.5,4,217.9,7.3Z" transform="translate(164 160.6)"/><path class="cls-7" d="M212.3,81.1a77.1,77.1,0,0,1-3,8.6A3.5,3.5,0,0,1,206,91a3.5,3.5,0,0,1-1.8-3.1,26.5,26.5,0,0,1,2.4-7.7,3.6,3.6,0,0,1,3.2-1.5C210.8,78.9,211.5,80.3,212.3,81.1Z" transform="translate(164 160.6)"/><path class="cls-6" d="M87,209.3c-.8-.6-2.3-1.2-2.4-2.1s.2-3,1-3.4a43,43,0,0,1,8.1-2.8,3.4,3.4,0,0,1,2.7,1.8c.3,1-.2,3-.9,3.4A75.9,75.9,0,0,1,87,209.3Z" transform="translate(164 160.6)"/><path class="cls-8" d="M-15.2,205.5c3.3.8,6.1,1.2,8.6,2.2.9.4,2,2.4,1.8,3.1s-2.1,2.4-3.1,2.3a28.3,28.3,0,0,1-8-1.9c-.8-.3-1.6-2.1-1.5-3.2S-15.9,206.2-15.2,205.5Z" transform="translate(164 160.6)"/><path class="cls-11" d="M-145.8-31c1.2-3.2,1.9-5.9,3.3-8.2s2.5-1.4,3.6-1.2a3.8,3.8,0,0,1,1.6,3.2,26.3,26.3,0,0,1-2.8,7.2,3.9,3.9,0,0,1-3.5,1.5C-144.5-28.6-145.2-30.2-145.8-31Z" transform="translate(164 160.6)"/><path class="cls-12" d="M66.7,214.4c-.7-.8-2.2-1.7-2.3-2.7a4.4,4.4,0,0,1,2.1-3.3,22.6,22.6,0,0,1,7.3-1.5,3.8,3.8,0,0,1,3.1,2.2,4,4,0,0,1-1.9,3.3C72.7,213.3,70,213.6,66.7,214.4Z" transform="translate(164 160.6)"/><path class="cls-7" d="M10.1-149.7c-1.2-1.1-3.1-2.1-3.4-3.3s1.6-3.3,3.8-3.5,3.8-.7,5.5-.4,2.4,1.6,3.5,2.5c-.9,1.1-1.6,2.7-2.8,3.1s-3.9.6-5.9.9Z" transform="translate(164 160.6)"/><path class="cls-1" d="M78.3-145.7c-3.4-.8-6-1.1-8.4-2.2s-2-2.4-1.7-3.4,2.1-2.1,3.2-2a21.7,21.7,0,0,1,7.2,1.7,4.2,4.2,0,0,1,2,3.3C80.5-147.3,78.9-146.4,78.3-145.7Z" transform="translate(164 160.6)"/><path class="cls-12" d="M-20.5-147c-1.3,4.7-5,4.3-7.7,5.3s-3.3-.2-5-.4c.4-1.5.4-3.7,1.3-4.2a20.8,20.8,0,0,1,7.6-2.6C-23.1-149.1-21.7-147.7-20.5-147Z" transform="translate(164 160.6)"/><path class="cls-11" d="M200.5-52.2c-.9,1.1-1.5,2.4-2.4,2.7a3.4,3.4,0,0,1-3.2-.9A34.1,34.1,0,0,1,191-58a3.3,3.3,0,0,1,1.2-3c.8-.5,2.9-.4,3.3.2C197.3-58.1,198.8-55.3,200.5-52.2Z" transform="translate(164 160.6)"/><path class="cls-8" d="M219.1,24.1c0,2.5,1.2,6.1-2.6,6.2s-3-3.7-3.2-6.2-.5-2.4,0-3.3a15.9,15.9,0,0,1,2.8-3.6c1,1.1,2.3,2,2.9,3.3S219.1,22.9,219.1,24.1Z" transform="translate(164 160.6)"/><path class="cls-6" d="M214.4-13c-.7.7-1.5,2.2-2.5,2.3a3.6,3.6,0,0,1-3.2-1.6,29,29,0,0,1-2.1-7.8c-.1-1,1.1-2.9,1.9-3s3,.7,3.4,1.7S213.5-16.3,214.4-13Z" transform="translate(164 160.6)"/><path class="cls-6" d="M208.6-32.9c-.9,1-1.6,2.2-2.5,2.5s-2.6-.2-2.9-.8a56.9,56.9,0,0,1-3.4-8.6c-.2-.7,1-2.4,1.8-2.7s2.9.1,3.2.8A80.2,80.2,0,0,1,208.6-32.9Z" transform="translate(164 160.6)"/><path class="cls-10" d="M-155.8,26.1c0-1.2-.3-2.5.1-3.3a18.1,18.1,0,0,1,2.9-3.3c1,1,2.6,1.9,2.9,3.1a16.3,16.3,0,0,1-.1,6.6c-.4,1.4-2,2.4-3,3.5a20,20,0,0,1-2.8-3.7c-.4-.8,0-2,0-2.9Z" transform="translate(164 160.6)"/><path class="cls-11" d="M-149,48c0,.9.3,1.7,0,2.3s-1.6,2.7-2.4,2.7-2.9-1.2-3.1-2.1a24.5,24.5,0,0,1-.7-8.1c0-.9,1.6-2.5,2.4-2.4a4.7,4.7,0,0,1,3.1,2.2C-149.1,44.3-149.2,46.3-149,48Z" transform="translate(164 160.6)"/><path class="cls-8" d="M-43.2-142.2c1,.9,2.3,1.5,2.6,2.4s-.2,2.8-.9,3.2a36.8,36.8,0,0,1-7.8,3.6c-.8.3-2.5-.7-2.9-1.5s-.2-2.8.5-3.2A95.6,95.6,0,0,1-43.2-142.2Z" transform="translate(164 160.6)"/><path class="cls-6" d="M-143.4-18.5a62.5,62.5,0,0,1-2.5,8.5c-.3.9-2.3,1.7-3.2,1.5a3.9,3.9,0,0,1-2-3,25,25,0,0,1,1.9-7.6,4.2,4.2,0,0,1,3.4-1.7C-144.9-20.8-144.1-19.2-143.4-18.5Z" transform="translate(164 160.6)"/><path class="cls-1" d="M-52,191.2c2.7,1.5,5.2,2.6,7.4,4.1a3,3,0,0,1,.5,2.9c-.5.9-2.1,2-2.8,1.7a29.9,29.9,0,0,1-7-3.3c-.6-.4-.8-2.3-.5-3.3S-52.9,192-52,191.2Z" transform="translate(164 160.6)"/><path class="cls-13" d="M-82.2,153.4c-.2,12.3-9.7,21.8-21.9,21.7s-21.7-10.1-21.6-22.5A22.1,22.1,0,0,1-103.8,131C-91.6,131.1-82.1,140.9-82.2,153.4Z" transform="translate(164 160.6)"/><path class="cls-14" d="M-130.8,118l.3.7h-.9Z" transform="translate(164 160.6)"/><path class="cls-14" d="M-77.2,189.3l-.6-.4h1A1,1,0,0,1-77.2,189.3Z" transform="translate(164 160.6)"/><path class="cls-15" d="M89.7,104.2a89.6,89.6,0,0,1-45.9,19.1C.2,128.7-40.2,106-57.9,66.2A128.6,128.6,0,0,1-63.4,50c-1-3.1-1.3-6.3-2.1-10,7.8.5,13.1-3.6,18.1-8.4,2-2,5.2-2.9,8-3.9s4.3-1,6.5-1.6c10.6-2.7,13.4-6.9,11.6-17.8C-22.2,2.5-23.5-3.2-24.4-9A26.7,26.7,0,0,1-23-21.8a43.5,43.5,0,0,0,1.7-13.5c0-3.5,1.1-5.2,4.4-6.1,7.5-2.1,14.9-1.3,22.3-.3,2.9.4,5.9.9,8.9,1.1,6.7.7,12.4-1.2,16.9-6.7,3.1-3.9,6.4-4.2,10.4-1.1a88.4,88.4,0,0,1,6.9,6.8C57.7-32.2,68.8-26.3,82-25.4A31.3,31.3,0,0,0,93.3-27c4.2-1.3,4.9-4.8,2.1-8.2a20.6,20.6,0,0,0-3-2.9c-5.9-4.4-11.4-9.2-15-15.8-1.3-2.4-3.1-4.5-6.3-2.4l-8.3-8.3C69.7-61.4,77-59,83.2-54.8c30,19.8,45,48,44.9,84,0,1-.1,2-.2,3.5-3.4-5.3-6.5-10.2-9.8-14.9C110,6.1,99.5-2.6,85.5-6.4c-10.3-2.7-19.8-1-28,5.9-3.9,3.4-8.4,4-13.2,4.2-7.2.1-14.5-.1-21.7.7-15,1.9-25,23-12.5,36.2l7.6,7.8c3.1,3.3,3,4,.1,7.5C10.4,65,2.8,74.1-4.4,83.5c-2.1,2.7-3.4,6.1-4.7,9.3-2.4,6.2-.6,10.6,5.3,13.6,7.5,3.7,15.5,3.4,23.5,2.5A48.1,48.1,0,0,0,41,100.7c3.8-2.5,8.7-3.8,13.2-4.6,7.2-1.2,12.1-4.9,15.1-11.4,1.5-3.3,2.9-7,7.4-6.8s6.6,3.6,8.2,7.2S86,90.2,87,92.6s1.9,3.1,2.9,4.7S89.8,101.9,89.7,104.2Z" transform="translate(164 160.6)"/><path class="cls-16" d="M89.7,104.2c.1-2.3.2-4.6.2-6.9,2.4-.5,3.2-1.9,3-4.4-.6-6.6-2.6-12.7-7.6-17.3s-15.6-5.1-19.2,2.8-9.5,11.9-18.2,13c-3.9.5-7.8,2.7-11.1,4.9-10.7,7.4-22.4,8.6-34.6,6-6.6-1.4-8-4.1-4.6-9.8,4.6-7.6,9.9-14.8,15.3-22,3.1-4.2,6.9-7.8,10.3-11.8s4-8.1.2-12.7c-2.4-2.9-5.2-5.4-7.8-8.1-4.9-4.9-6.7-10.5-4-17.3S19.5,10.1,26.7,9.7s15.5.1,23.1-.8A22.9,22.9,0,0,0,60.9,4.2C68.3-1.6,76.3-3,85.1-.4a48.7,48.7,0,0,1,26.8,19.9c5.1,7.4,9.6,15.1,14.3,22.7a4.8,4.8,0,0,1,.2,2.9C121.6,69.4,109.6,89.2,89.7,104.2Z" transform="translate(164 160.6)"/><path class="cls-17" d="M62.8-64.6l8.3,8.3c.1,1.5-.1,3.2.5,4.4A53.4,53.4,0,0,0,87.9-34.1a12.4,12.4,0,0,1,2.1,2c-5.4,1.7-10.4,1.1-15.3-.4A48.9,48.9,0,0,1,51.4-47.3a42.4,42.4,0,0,0-7.8-6.9c-5.8-3.7-11.8-3.1-16.1,2.2s-9.8,6.1-16.1,5.2c-8.6-1.3-17.2-3-26-1.2a40.7,40.7,0,0,0-6.8,2,8.4,8.4,0,0,0-5.7,8.7c.2,5.9-.3,11.5-2.6,17.1S-30.1-6.9-29-.3q1.2,7.1,2.1,14.1c.4,2.7-.9,4.5-3.6,5.3a71,71,0,0,1-7.9,2.2,28.7,28.7,0,0,0-16.4,8.9c-3.2,3.4-6.5,4.2-11.1,3.4A93.4,93.4,0,0,1-61.1-4.2a97.2,97.2,0,0,1,94.7-66c9.5.2,18.9,1.5,27.8,5l1.5.7Z" transform="translate(164 160.6)"/><path class="cls-15" d="M62.9-64.5l-1.5-.7Z" transform="translate(164 160.6)"/><path class="cls-18" d="M157.2-79.9a29.9,29.9,0,0,1-29.9-29.6c-.1-16,13.2-29.5,28.7-30a30.1,30.1,0,0,1,31,30A29.8,29.8,0,0,1,157.2-79.9Z" transform="translate(164 160.6)"/><path class="cls-15" d="M148.8,108c6.8,12.8,13.2,24.6,19.6,36.4,1.1,2.1.6,3.8-.3,5.9-3.2,7.2-6.1,14.5-8.9,21.9a7.3,7.3,0,0,0,0,4.4c.8,3-.3,4.3-3.1,5.1-9.2,2.6-17.6,1.1-24.5-5.8s-9.2-15-5.9-24.3C131.1,136.4,139.7,122.9,148.8,108Z" transform="translate(164 160.6)"/><path class="cls-15" d="M182.3,137.9c6.6,10.5,13,20.6,16.7,32a16.6,16.6,0,0,1-6.7,18.4,17.4,17.4,0,0,1-20.3-.2,16.3,16.3,0,0,1-6-18.5C169.7,158.3,176,148.4,182.3,137.9Z" transform="translate(164 160.6)"/><path class="cls-19" d="M-97.7-83.1h-38.5c-9.8,0-15.9-8.3-12.8-17.6s11.1-13.4,20.2-13.6c7.5-.1,11.7-1.5,14.9-9.2,4.2-10.1,13.7-13.7,24.5-12.7s18.9,6.8,22.6,17.4c1.3,3.9,2.8,5.5,7.3,5.2a20.8,20.8,0,0,1,17.3,7.3c5.8,6.8,4.5,15.6-3.5,19.4a35.3,35.3,0,0,1-13.9,3.6C-72.3-82.8-85-83.1-97.7-83.1Z" transform="translate(164 160.6)"/></svg>