<svg id="Layer_1" data-name="Layer 1" xmlns="http://www.w3.org/2000/svg" width="371.3" height="371.5" viewBox="0 0 371.3 371.5"><defs><style>.cls-1{fill:#fea933;}.cls-2{fill:#e4e4e4;}.cls-3{fill:#d8585e;}.cls-4{fill:#495765;}.cls-5{fill:#2a662e;}.cls-6{fill:#338038;}.cls-7{fill:#348038;}.cls-8{fill:#3d9943;}.cls-9{fill:#2a672e;}.cls-10{fill:#49b350;}.cls-11{fill:#3f9945;}</style></defs><path class="cls-1" d="M173.7,142.4c-12.6-15-24.9-29.7-37.3-44.3L26.7-32.1C18.5-41.8,10.3-51.6,2-61.2c-6-7.1-12.2-7.7-19.4-1.7L-38.9-44.8l-55.7-66.1c60.4-55.9,169-68.2,246.2,1.1S230,72.5,173.7,142.4ZM99.5-79.7l-2.9.7c-9.5,2.3-16.1,10.6-15,19s9.2,16.4,19.2,16.4c3.4.1,6.7-.1,10.1.1s6.6,3.2,6.5,6.1-3.1,5.6-6.4,5.8-5.2-.1-7.8.1c-4.8.3-8.4-1-9.9-5.8H81.7C82-28.2,87-23.1,99.3-19.2c.1,1.8.2,3.6.4,5.4h11.6c.1-2,.2-3.8.3-5.6l2.7-.7c9.5-2.3,16.1-10.6,15-19.1s-9.2-16.3-19.2-16.3c-3.4-.1-6.7.1-10.1-.1s-6.6-3.2-6.5-6.1,3.1-5.6,6.4-5.8,5.3.2,7.9,0c4.7-.4,8.4.9,9.8,5.7h11.6c-.5-9.4-5.2-14.2-17.6-18.1-.1-1.8-.2-3.6-.4-5.4H99.6c0,1-.1,1.8-.1,2.7A27.8,27.8,0,0,0,99.5-79.7Z" transform="translate(158.1 157.4)"/><path class="cls-2" d="M139.4,176.1c-64.8,51.5-175.6,56.7-248.7-22.5C-172.9,84.7-169.7-14-126.4-74.2l16.8,19.9q11.5,13.5,22.8,27L-60.6,3.8c3,3.6,5.9,7.4,9.1,10.8s11.7,4.3,17.6-.7L-12.6-4.3ZM-145.7,34.5a5.8,5.8,0,0,0-.2,1,173.3,173.3,0,0,0,29,89.1c1.3,2,2.5,1.9,4.6,1.3,11.2-3.4,22.4-6.7,33.6-9.8,5.2-1.4,10.4-2.2,15.7-3.3A320.4,320.4,0,0,1-74.2,34.5Zm167.2,70c-.1.1.1-.2.1-.6,0-15.7,0-31.4-.1-47.1a6.2,6.2,0,0,0-1.4-3.6c-4.5-5.5-9.2-10.8-13.6-16.4A6.7,6.7,0,0,0,.7,34.3c-19.7.1-39.4,0-59.1,0l-3.8.2a302.7,302.7,0,0,0,10.7,75.7Zm-.1,96.9V117.7c-12.5-1.2-62.7,2.8-68.9,5.5,5.4,16,12.3,31.2,22.1,45.1,7.7,11,16.8,20.7,28.8,27.2A44.5,44.5,0,0,0,21.4,201.4ZM33.8,117v84.4c8.7-.9,16.2-4.2,23.2-9,17.6-12.2,28.6-29.6,37.4-48.5a3.7,3.7,0,0,0-.6-3.2c-5.4-6.6-10.8-13.1-16.4-19.5a5.2,5.2,0,0,0-3.4-1.8C60.7,118.5,47.4,117.8,33.8,117ZM-74.3,22.2c.2-4.1.8-7.9.6-11.6a10.2,10.2,0,0,0-2-5.9c-9.9-12.1-20-23.9-30-35.8-6.3-7.6-12.7-15-19.4-23a171.3,171.3,0,0,0-20.8,76.3Zm14.7,102.3A289.4,289.4,0,0,0-107.8,137c24.4,29.6,54.5,49.2,91,58.9C-37.8,176.2-50.1,151.4-59.6,124.5Zm181.5,49.4L103.4,152A151.7,151.7,0,0,1,72,195.9,161.9,161.9,0,0,0,121.9,173.9ZM33.8,69.4v35.8l31.4,1.4Z" transform="translate(158.1 157.4)"/><path class="cls-3" d="M202.6,213.8l-49.8-12.7,13.6-11.6L-11.1-21.1-43.2,5.8-147.4-117.7l18.3-15.5L-40.3-27.9l32-27L184.7,174l13.8-11.4C199.9,179.9,201.2,196.4,202.6,213.8Z" transform="translate(158.1 157.4)"/><path class="cls-4" d="M99.5-79.7a27.8,27.8,0,0,1,0-2.9c0-.9.1-1.7.1-2.7h11.6c.2,1.8.3,3.6.4,5.4,12.4,3.9,17.1,8.7,17.6,18.1H117.6c-1.4-4.8-5.1-6.1-9.8-5.7-2.6.2-5.3-.1-7.9,0s-6.3,3-6.4,5.8,3,6,6.5,6.1,6.7,0,10.1.1c10,0,18,6.8,19.2,16.3s-5.5,16.8-15,19.1l-2.7.7c-.1,1.8-.2,3.6-.3,5.6H99.7c-.2-1.8-.3-3.6-.4-5.4C87-23.1,82-28.2,81.7-37.3H93.3c1.5,4.8,5.1,6.1,9.9,5.8,2.6-.2,5.2,0,7.8-.1s6.3-3,6.4-5.8-3-6-6.5-6.1-6.7,0-10.1-.1c-10,0-18-6.9-19.2-16.4s5.5-16.7,15-19Z" transform="translate(158.1 157.4)"/><path class="cls-5" d="M-145.7,34.5h71.5A320.4,320.4,0,0,0-63,112.8c-5.3,1.1-10.5,1.9-15.7,3.3-11.2,3.1-22.4,6.4-33.6,9.8-2.1.6-3.3.7-4.6-1.3a173.3,173.3,0,0,1-29-89.1A5.8,5.8,0,0,1-145.7,34.5Z" transform="translate(158.1 157.4)"/><path class="cls-6" d="M21.5,104.5l-73,5.7A302.7,302.7,0,0,1-62.2,34.5l3.8-.2c19.7,0,39.4.1,59.1,0a6.7,6.7,0,0,1,5.8,2.5c4.4,5.6,9.1,10.9,13.6,16.4a6.2,6.2,0,0,1,1.4,3.6c.1,15.7.1,31.4.1,47.1C21.6,104.3,21.4,104.6,21.5,104.5Z" transform="translate(158.1 157.4)"/><path class="cls-7" d="M21.4,201.4a44.5,44.5,0,0,1-18-5.9c-12-6.5-21.1-16.2-28.8-27.2-9.8-13.9-16.7-29.1-22.1-45.1,6.2-2.7,56.4-6.7,68.9-5.5Z" transform="translate(158.1 157.4)"/><path class="cls-8" d="M33.8,117c13.6.8,26.9,1.5,40.2,2.4a5.2,5.2,0,0,1,3.4,1.8c5.6,6.4,11,12.9,16.4,19.5a3.7,3.7,0,0,1,.6,3.2c-8.8,18.9-19.8,36.3-37.4,48.5-7,4.8-14.5,8.1-23.2,9Z" transform="translate(158.1 157.4)"/><path class="cls-5" d="M-74.3,22.2h-71.6a171.3,171.3,0,0,1,20.8-76.3c6.7,8,13.1,15.4,19.4,23,10,11.9,20.1,23.7,30,35.8a10.2,10.2,0,0,1,2,5.9C-73.5,14.3-74.1,18.1-74.3,22.2Z" transform="translate(158.1 157.4)"/><path class="cls-9" d="M-59.6,124.5c9.5,26.9,21.8,51.7,42.8,71.4-36.5-9.7-66.6-29.3-91-58.9A289.4,289.4,0,0,1-59.6,124.5Z" transform="translate(158.1 157.4)"/><path class="cls-10" d="M121.9,173.9a161.9,161.9,0,0,1-49.9,22A151.7,151.7,0,0,0,103.4,152Z" transform="translate(158.1 157.4)"/><path class="cls-11" d="M33.8,69.4l31.4,37.2-31.4-1.4Z" transform="translate(158.1 157.4)"/></svg>