<svg id="Layer_1" data-name="Layer 1" xmlns="http://www.w3.org/2000/svg" width="360.9" height="385.1" viewBox="0 0 360.9 385.1"><defs><style>.cls-1{fill:#00b1ac;}.cls-2{fill:#00dcc0;}.cls-3{fill:#fcbe01;}.cls-4{fill:#fed301;}.cls-5{fill:#ddebf0;}.cls-6{fill:#c5e1e6;}.cls-7{fill:#ddebee;}.cls-8{fill:#c5e1e5;}.cls-9{fill:#00edcf;}.cls-10{fill:#00fee6;}</style></defs><path class="cls-1" d="M208.5,17.1c.1,5.7.1,11.5.1,17.2.1,53,0,106.1,0,159.2,0,10.7-4.4,15.1-15.3,15.1H28.2V160c7-.6,14.1-.5,20.9-2,26.2-5.4,47.7-18.6,64.2-39.7,15-19.3,22.8-41.3,22.7-66-.1-4.7-.6-9.5-.9-14.2l.9-.4a86.6,86.6,0,0,0,33.3-9.8c7.8-4.1,15.4-8.9,24.6-9.7Z" transform="translate(152.2 176.3)"/><path class="cls-2" d="M28.2,160v48.5H-137.4c-10.4,0-14.8-4.3-14.8-14.7V21.9c0-1.4,0-2.7.1-4A143.4,143.4,0,0,1-106.4,31a74.6,74.6,0,0,0,26.8,6.8l1.7.2v.3c-2.9,12.1-1.6,24.2.9,36.2A103.8,103.8,0,0,0-54,121.9a107.1,107.1,0,0,0,37.6,28.2,108.9,108.9,0,0,0,44.6,9.8Z" transform="translate(152.2 176.3)"/><path class="cls-3" d="M28.2-55.5l23.9,2.3,24,8.6a121.4,121.4,0,0,1,35.9,29l2.4,3.6a106.7,106.7,0,0,1,20.1,49.8,6.4,6.4,0,0,1-1.8.6c-11.5.8-23,.8-34-2.7-8.2-2.6-16.1-6-24-9.4-14.9-6.4-30.5-8.8-46.5-9.5Z" transform="translate(152.2 176.3)"/><path class="cls-4" d="M28.2-55.5V17.1c-17.3.1-34.2,3-49.7,10.8A101.5,101.5,0,0,1-78,38.3V38c1.6-7.2,2.9-14.5,5.1-21.5,3.6-11.8,10.2-22,17.3-31.9s16-17,26-23.2l9.8-5.9,24-8.6Z" transform="translate(152.2 176.3)"/><path class="cls-5" d="M4.3-53.1l-24,8.6c0-18.4.1-36.7-.1-55,0-3.1.7-4.3,4-4.1,5.4.3,10.9.2,16.3,0,3.1-.1,3.8,1,3.8,3.9C4.2-84.2,4.3-68.6,4.3-53.1Z" transform="translate(152.2 176.3)"/><path class="cls-6" d="M76.1-44.6l-24-8.6v-50h24Z" transform="translate(152.2 176.3)"/><path class="cls-5" d="M-79.6-152c0-6.9.1-13.8,0-20.7-.1-2.6.6-3.6,3.3-3.6,5.8.2,11.7.2,17.5.1,2.5-.1,3.2.8,3.2,3.2q-.1,21.1,0,42.3c0,2.3-.6,3.3-3.1,3.2h-18c-2.2.1-3-.8-2.9-3C-79.5-137.7-79.6-144.9-79.6-152Z" transform="translate(152.2 176.3)"/><path class="cls-5" d="M4.2-151.7c0,6.9,0,13.8.1,20.7,0,2.6-.6,3.6-3.3,3.6-5.9-.2-11.7-.2-17.6-.1-2.5.1-3.2-.8-3.1-3.2v-42.2c-.1-2.4.6-3.4,3.1-3.3H1.3c2.3-.1,3,.8,3,3C4.2-166,4.2-158.8,4.2-151.7Z" transform="translate(152.2 176.3)"/><path class="cls-6" d="M52.5-176H75.8v48.2H52.5Z" transform="translate(152.2 176.3)"/><path class="cls-6" d="M135.8-175.9v48.1H112.3v-48.1Z" transform="translate(152.2 176.3)"/><path class="cls-5" d="M-55.6-79.2c0,6.8-.1,13.6,0,20.3,0,2.4-.7,3.4-3.2,3.3-5.8-.1-11.7-.1-17.5,0-2.3,0-3.4-.5-3.3-3.1.1-13.9,0-27.9,0-41.8,0-2.2.7-3.1,2.9-3.1,6,.1,12,.2,18,0,2.5,0,3.1,1,3.1,3.3C-55.7-93.3-55.6-86.2-55.6-79.2Z" transform="translate(152.2 176.3)"/><path class="cls-6" d="M135.8-103.5V-56H112.4a25.8,25.8,0,0,1-.3-2.9c-.1-13.7,0-27.4-.1-41.1,0-2.7.8-3.7,3.6-3.6C122.2-103.4,128.8-103.5,135.8-103.5Z" transform="translate(152.2 176.3)"/><path class="cls-7" d="M-55.5-15.4C-62.6-5.5-69.2,4.7-72.8,16.5c-2.2,7-3.5,14.3-5.1,21.5l-1.7-.2c0-21.8.1-43.6-.1-65.5,0-3,.8-4.2,4-4.1a142.3,142.3,0,0,0,16,0c3.5-.1,4.3,1.2,4.1,4.4S-55.6-19.4-55.5-15.4Z" transform="translate(152.2 176.3)"/><path class="cls-8" d="M134.5,37.8A106.7,106.7,0,0,0,114.4-12L112-15.6V-31.4h24V37.7l-.9.4Z" transform="translate(152.2 176.3)"/><path class="cls-9" d="M134.5,37.8l.6.3c.3,4.7.8,9.5.9,14.2.1,24.7-7.7,46.7-22.7,66-16.5,21.1-38,34.3-64.2,39.7-6.8,1.5-13.9,1.4-20.9,2h0V16.8c16,.7,31.6,3.1,46.5,9.5,7.9,3.4,15.8,6.8,24,9.4,11,3.5,22.5,3.5,34,2.7A6.4,6.4,0,0,0,134.5,37.8Z" transform="translate(152.2 176.3)"/><path class="cls-10" d="M28.2,17.1V159.9a108.9,108.9,0,0,1-44.6-9.8A107.1,107.1,0,0,1-54,121.9,103.8,103.8,0,0,1-77.1,74.5c-2.5-12-3.8-24.1-.9-36.2A101.5,101.5,0,0,0-21.5,27.9C-6,20.1,10.9,17.2,28.2,17.1Z" transform="translate(152.2 176.3)"/></svg>