<svg xmlns="http://www.w3.org/2000/svg" viewBox="0 0 408.7 408.7"><defs><style>.cls-1{fill:#f05641;}.cls-2{fill:#354a5f;}.cls-3{fill:#5e6d7e;}.cls-4{fill:#374b60;}.cls-5{fill:#fea083;}.cls-6{fill:#5d6d7e;}.cls-7{fill:#e5e9ed;}.cls-8{fill:#fefefe;}.cls-9{fill:#040403;}.cls-10{fill:#d3f381;}.cls-11{fill:#d2f381;}.cls-12{fill:#fcda63;}.cls-13{fill:#bce66d;}.cls-14{fill:#fcc64f;}.cls-15{fill:#bce56d;}.cls-16{fill:#bbe46c;}.cls-17{fill:#e1a848;}.cls-18{fill:#dfa647;}.cls-19{fill:#e1a748;}.cls-20{fill:#040302;}.cls-21{fill:#493d4b;}</style></defs><g id="Layer_1" data-name="Layer 1"><path class="cls-1" d="M141.7,94.6c1.1.9,2.2,1.8,3.2,2.8,23,23,45.8,46,68.9,68.8,8,7.9,16.1,15.7,18.8,27.3v12a35.4,35.4,0,0,0-1.6,3.4c-2.3,7.3-6.5,13.4-12.9,17.5-4.1,2.7-8.9,4.2-13.4,6.2h-12l-15.6-8.3a18.8,18.8,0,0,1-3-2.7L96.3,143.8a17.3,17.3,0,0,1-1.7-2.1L131,105.6c1,1.1,1.9,2.2,3,3.2l76.7,76.7c4.2,4.2,6.9,9.2,5.8,15-.8,3.9-3.1,7.7-5.1,11.3s-1.8,4.5.5,6.4,4.4,1.8,6.4-.4a28.4,28.4,0,0,0,3.7-4.7c6.7-12.2,5.1-24.1-4.9-34l-76.4-76.5c-1.1-1.1-2.1-2.3-3.1-3.5Z" transform="translate(176.1 176.1)"/><path class="cls-2" d="M71.3,94.4a33.7,33.7,0,0,0-3.8,1.9,145.1,145.1,0,0,1-61.4,28c-37.7,7.4-73.5,1.8-106.9-17.7-28.7-16.7-49.7-40.5-62.9-70.9a147.4,147.4,0,0,1-12.1-68.4,149.7,149.7,0,0,1,24.3-74.5,149.1,149.1,0,0,1,56.6-51.5,148.7,148.7,0,0,1,86-16.6,147.3,147.3,0,0,1,71.6,26.7,150,150,0,0,1,50.4,60.1C126.4-60,130.2-30.3,125.2.6A147.6,147.6,0,0,1,96.3,67.5a33.7,33.7,0,0,0-1.9,3.8L75.5,89.8ZM-24.1-159.5c-74.3-.8-135.2,60.7-135.5,134.3s59.5,136.3,135,136.1,135-58,135.5-135.2C111.4-98.7,51.2-159.6-24.1-159.5Z" transform="translate(176.1 176.1)"/><path class="cls-3" d="M71.3,94.4l4.2-4.6L94.4,71.3l23.2,23.2c0,.3,0,.9-.2,1.1L95.6,117.4c-.2.2-.7.1-1.1.2Z" transform="translate(176.1 176.1)"/><path class="cls-4" d="M94.5,117.6c.4-.1.9,0,1.1-.2l21.8-21.8c.2-.2.2-.8.2-1.1s1.9-1.5,2.7-2.3c6.7-6.5,13-6.4,19.6.2a19.2,19.2,0,0,1,1.8,2.2l-4.1,4.5-6.6,6.5L94.6,141.7c-9.3-7.5-9.7-13.8-1.6-22.2C93.6,118.9,94,118.2,94.5,117.6Z" transform="translate(176.1 176.1)"/><path class="cls-5" d="M131,105.6l6.6-6.5c1,1.2,2,2.4,3.1,3.5l76.4,76.5c10,9.9,11.6,21.8,4.9,34a28.4,28.4,0,0,1-3.7,4.7c-2,2.2-4.2,2.2-6.4.4s-1.7-4-.5-6.4,4.3-7.4,5.1-11.3c1.1-5.8-1.6-10.8-5.8-15L134,108.8C132.9,107.8,132,106.7,131,105.6Z" transform="translate(176.1 176.1)"/><path class="cls-6" d="M-24.1-159.5c75.3-.1,135.5,60.8,135,135.2-.5,77.2-60.6,135.1-135.5,135.2s-135.2-61.1-135-136.1S-98.4-160.3-24.1-159.5ZM100.1-24.4c-.2-67.8-54-124.3-124.3-124.4S-148.7-94-148.8-24.4s56,124.2,124.2,124.5S100.1,44.4,100.1-24.4Z" transform="translate(176.1 176.1)"/><path class="cls-7" d="M100.1-24.4c0,68.8-56,124.8-124.7,124.5S-148.8,45.5-148.8-24.4-93.4-148.9-24.2-148.8,99.9-92.2,100.1-24.4ZM-90-83.8c.1-7.5-2.5-11.3-7.3-13s-9.7.5-12.4,4.1c-8.8,11.5-16,23.9-19.4,38a236.2,236.2,0,0,0-4.6,31.3,49.3,49.3,0,0,0,1.5,15.7A253.7,253.7,0,0,0-124.4,18c1.9,5.2,8.6,6.8,13.6,4.3s7.7-8.1,5.5-14c-4.9-13.9-7.5-28-5.5-42.9A88.1,88.1,0,0,1-95.6-74.5,90.6,90.6,0,0,0-90-83.8Zm70.3-38.4c0-6.9-3.9-10.9-10.8-10.9-2.8.1-5.5.5-8.3.8a98.3,98.3,0,0,0-41,14.1A10.1,10.1,0,0,0-83.5-105c3,6.5,9.6,8.4,17.3,4.3a94.8,94.8,0,0,1,37-10.9C-23.4-112.1-19.7-116.4-19.7-122.2Z" transform="translate(176.1 176.1)"/><path class="cls-8" d="M-90-83.8a90.6,90.6,0,0,1-5.6,9.3,88.1,88.1,0,0,0-15.2,39.9c-2,14.9.6,29,5.5,42.9,2.2,5.9,0,11.2-5.5,14s-11.7.9-13.6-4.3a253.7,253.7,0,0,1-7.8-25.7,49.3,49.3,0,0,1-1.5-15.7,236.2,236.2,0,0,1,4.6-31.3c3.4-14.1,10.6-26.5,19.4-38,2.7-3.6,8.4-5.5,12.4-4.1S-89.9-91.3-90-83.8Z" transform="translate(176.1 176.1)"/><path class="cls-8" d="M-19.7-122.2c0,5.8-3.7,10.1-9.5,10.6a94.8,94.8,0,0,0-37,10.9c-7.7,4.1-14.3,2.2-17.3-4.3a10.1,10.1,0,0,1,3.7-13.2,98.3,98.3,0,0,1,41-14.1c2.8-.3,5.5-.7,8.3-.8C-23.6-133.1-19.7-129.1-19.7-122.2Z" transform="translate(176.1 176.1)"/></g><g id="Layer_2" data-name="Layer 2"><path class="cls-9" d="M66.4,22a47,47,0,0,1-2.2,6.3,55,55,0,0,1-3.4,5,3.7,3.7,0,0,0-.7,2c0,1.6.2,3.3.2,4.9a5.1,5.1,0,0,1-3.2,5.2,5.2,5.2,0,0,1-5.9-1.1l-.5-.5c-2.4-2.4-4.6-4.7-8.5-4.3a10.8,10.8,0,0,1-3.1-.7c-1.7,2.2-3.2,4.5-5,6.6a18.5,18.5,0,0,1-8,5,3.8,3.8,0,0,0-1.8,1.5c-.9,1.4-1.6,3-2.4,4.5s-3,3.5-5.6,3.2-4-1.8-4.8-4.5l-1.4-5.3a1.7,1.7,0,0,0-.6-1c-6-4.7-6-4.7-8.9-9.9a72.5,72.5,0,0,1-9.1.7c-2.3-.1-4.6-1-6.8-1.5a5.3,5.3,0,0,0-2.5-.2c-2.5.7-4.9,1.6-7.5,2.1A5.1,5.1,0,0,1-31,33.1a63.3,63.3,0,0,1,3.6-6.8,3.1,3.1,0,0,0,.4-1.8A20.5,20.5,0,0,1-22.4,5.2,50.9,50.9,0,0,0-25.5.7a2.2,2.2,0,0,0-1.3-.8l-6.6-2.2A5.3,5.3,0,0,1-35.7-11a9,9,0,0,1,2-1.4,7.2,7.2,0,0,1,2-.9c3-1.1,5.3-2.8,6.4-6.1.7-1.7,2.2-3.2,3.2-4.6L-27-32.3a20.1,20.1,0,0,1-18.6-4.1c-5.4,5.3-11.7,7.7-19.2,6.3A20,20,0,0,1-78.2-39c-6.5-9.5-4-24.9,10.2-31-2-1.4-3.7-2.7-5.6-3.9s-1.4-1.3-1.1-2.3a3.2,3.2,0,0,1,1.4-1.6,3.3,3.3,0,0,1,2.2.3,49.2,49.2,0,0,1,6.1,5c1.2,1.2,2.1,1.8,3.8,1.3a17,17,0,0,0-2.6-6.4L-65-79.4a2,2,0,0,1,.5-2.9,2,2,0,0,1,3,.5,62.7,62.7,0,0,1,3.6,6.2,26.2,26.2,0,0,1,1.1,4c.2.4.6,1,1,1.1a23.7,23.7,0,0,1,8.2,4.2c5.5-5.5,12.1-7.8,19.8-6.1s12.6,6.6,15.2,13.9c10.4-2.1,18.6,1,23.9,10.2,4.1,7,3.8,17-3.6,24.7A21.2,21.2,0,0,1,13.4-9.5,20.8,20.8,0,0,1,8.1,4.6l4.3,6.7a19.7,19.7,0,0,1,9.7-1.1,12.8,12.8,0,0,1,3.4.7c.9.3,1.2.1,1.6-.7A20.6,20.6,0,0,1,38.7-.3c11.8-4.6,25.6,3.5,27.4,16l.3.8ZM-44.4-52.2a2.6,2.6,0,0,1,1.6,2.8q-.5,3.9-.6,7.8a2.3,2.3,0,0,0,.5,1.7,16.1,16.1,0,0,0,13,3.8c4.2-.4,6.3-3.4,8.5-6.3l1.8-2.5a2.3,2.3,0,0,1,3.1-.9,2.2,2.2,0,0,1,.5,3.3l-2.1,3.1a22.8,22.8,0,0,1-3.3,3.6,2.5,2.5,0,0,0-.7,3.2c1.8,4.1,4.2,7.4,9,8l5,.7c2.2.2,2.9,1.3,2.2,3.4a6.1,6.1,0,0,1-2.6.8c-2.1-.1-4.3-.5-6.5-.8l-1.3-.5c-1.5-.8-2.5-.1-3.4,1A16.5,16.5,0,0,0-21.5-1.1c1.7,3,4.1,5.2,7.7,5.6l6.7.6c1.1.1,2.1.2,2.6,1.3a2.3,2.3,0,0,1-.8,2.8L-9,9.5c-2.8-.5-5.6-.8-8.4-1.5a1.7,1.7,0,0,0-2.2.7c-7.8,9.2-2.9,23.7,8.8,26.3,5.1,1.1,10.1.7,13.8-3.7a41.8,41.8,0,0,0,3.5-5.4c.6-1.1,1.3-1.9,2.7-1.8s2,1.6,1.3,3.7l-5.8,8a1.7,1.7,0,0,0,0,1.4,16.2,16.2,0,0,0,20.2,9c4.8-1.8,8.4-5,10-10a5.3,5.3,0,0,0,.5-2c-.1-2.7-.2-5.3-.5-7.9s.1-2.7,1.3-3.1a2.1,2.1,0,0,1,2.9,1.7c.4,2.3.6,4.7,1,7l-.3,2.7a53.9,53.9,0,0,0,5.6.8c6.2.5,13.3-4.1,15.3-9.9.4-1.8,1.2-3.7,1.3-5.5A16.2,16.2,0,0,0,43.1,3C37.1,4,33,7.5,30.5,13.1A17.3,17.3,0,0,1,33,15.2a1.9,1.9,0,0,1,.2,2.8,2,2,0,0,1-2.8.4,6,6,0,0,1-1.3-.9c-4.6-3.4-9.6-3.9-15-2.2A1.4,1.4,0,0,0,13,16.7c-.1,1.7-.8,2.5-2.1,2.5s-2.2-.9-2.2-2.7S7.4,11.1,5.6,8.8,4.3,6.9,2.8,7.7s-.9-.1-1.4-.2C-.2,5.8.1,4.3,2.2,3.4L3,3a3.9,3.9,0,0,0,1.1-.6,16.3,16.3,0,0,0,.5-22.8,2,2,0,0,0-1.7-.4,3,3,0,0,1-3-.8c-.5-1.9-.1-2.9,1.6-3.4a7.8,7.8,0,0,0,4.4-3.3,16.4,16.4,0,0,0,1-19.1c-3.9-6-11.6-8.9-18.1-6.8a3.2,3.2,0,0,0-1,1.3c-.3,1.8-1.1,2.6-2.5,2.4s-2-1.3-1.8-3a9.1,9.1,0,0,0,.1-2.3,16.3,16.3,0,0,0-27-8.5c-1,.9-1.5,1.7-.9,3.2s.5,2.5-1.2,3.5a2.5,2.5,0,0,1-2.8-2,8.2,8.2,0,0,0-1.2-2.5A16,16,0,0,0-71.2-63c-7.1,5.3-8.1,16.1-2.3,23a16.2,16.2,0,0,0,23.3,1.9A22.6,22.6,0,0,0-47.9-41c.2-2.8.5-5.7.7-8.5s.9-2.6,2.8-2.7Zm23.2,86.6-3.4-4.2a38.4,38.4,0,0,0-2.2,3.9,1.5,1.5,0,0,0,0,1.3,1.7,1.7,0,0,0,1.4.3Zm-6.9-44.7-4.2,2c-.7.5-.8,1.4,0,1.8s3,1,4.6,1.5Zm43,61.2a29.2,29.2,0,0,0,1,3.5c.1.4.5.8.8.8a1.2,1.2,0,0,0,1.1-.5,33,33,0,0,0,1.8-3.2ZM51.9,39l2.4,2.2a1,1,0,0,0,1.7-.8c0-1-.1-2-.2-3.1Z" transform="translate(176.1 176.1)"/><path class="cls-10" d="M10.5,27.8c.7-2.1.5-2.8-1.3-3.7s-1.6-2.6-3-2.7-2.6.9-3.1,2.3l-.6,1.5a4.5,4.5,0,0,1-5.3,2.6A18.2,18.2,0,0,1-16,15.5a4.1,4.1,0,0,1,4.1-5.6A15.5,15.5,0,0,0-9,9.5l3.7-.3a2.7,2.7,0,0,0,1.2.2L1.4,7.5c.5.1,1.1.4,1.4.2S5,7.9,5.6,8.8s3.2,4.7,3.1,7.7.8,2.7,2.2,2.7,2-.8,2.1-2.5a1.4,1.4,0,0,1,1.1-1.4c5.4-1.7,10.4-1.2,15,2.2a6,6,0,0,0,1.3.9,2,2,0,0,0,2.8-.4,1.9,1.9,0,0,0-.2-2.8,17.3,17.3,0,0,0-2.5-2.1C33,7.5,37.1,4,43.1,3A16.2,16.2,0,0,1,62,20c-.1,1.8-.9,3.7-1.3,5.5l-.7.2a20.9,20.9,0,0,1-12.4,2.7,7.3,7.3,0,0,0-6.2,2.5,6.4,6.4,0,0,1-1.3,1c-.4-2.3-.6-4.7-1-7a2.1,2.1,0,0,0-2.9-1.7c-1.2.4-1.5,1.4-1.3,3.1s.4,5.2.5,7.9a5.3,5.3,0,0,1-.5,2H34a18.8,18.8,0,0,1-9.7,1.1,17.8,17.8,0,0,1-11.1-6.2C12.2,30.1,11.4,28.9,10.5,27.8Z" transform="translate(176.1 176.1)"/><path class="cls-11" d="M-45.5-57.6c1.7-1,2-1.7,1.2-3.5s-.1-2.3.9-3.2a16.3,16.3,0,0,1,27,8.5,9.1,9.1,0,0,1-.1,2.3c-.2,1.7.5,2.9,1.8,3s2.2-.6,2.5-2.4a3.2,3.2,0,0,1,1-1.3c6.5-2.1,14.2.8,18.1,6.8a16.4,16.4,0,0,1-1,19.1l-1.3.2A17.9,17.9,0,0,1-8.8-29.2a19.7,19.7,0,0,1-9.3-10.2l2.1-3.1a2.2,2.2,0,0,0-.5-3.3,2.3,2.3,0,0,0-3.1.9l-1.8,2.5h-2.3a19.1,19.1,0,0,1-8.2-.7c-4.3-1.6-7.4-4.5-10.1-8.1a2.1,2.1,0,0,0-2.4-1.1h0C-44.8-54-45.1-55.8-45.5-57.6Z" transform="translate(176.1 176.1)"/><path class="cls-11" d="M-.1-21.6a3,3,0,0,0,3,.8,2,2,0,0,1,1.7.4A16.3,16.3,0,0,1,4.1,2.4,3.9,3.9,0,0,1,3,3L-.9,2.7A18.1,18.1,0,0,1-11.6-2.7,18,18,0,0,1-16.8-17c.1-1.3-.1-3.1,1.8-3.5s4.4.7,6.5.8a6.1,6.1,0,0,0,2.6-.8l2.1-.2Z" transform="translate(176.1 176.1)"/><path class="cls-12" d="M-45.5-57.6c.4,1.8.7,3.6,1.1,5.4-1.9.1-2.6.7-2.8,2.7s-.5,5.7-.7,8.5a55.6,55.6,0,0,1-7,.8c-6.1.2-12.6-4.5-15.2-10.5A20,20,0,0,1-71.2-63a16,16,0,0,1,21.7.9,8.2,8.2,0,0,1,1.2,2.5A2.5,2.5,0,0,0-45.5-57.6Zm-11,2.6a6.7,6.7,0,0,0-6.7-6.8A6.7,6.7,0,0,0-70-55.1a6.7,6.7,0,0,0,6.7,6.8A6.7,6.7,0,0,0-56.5-55Z" transform="translate(176.1 176.1)"/><path class="cls-13" d="M-9,9.5a15.5,15.5,0,0,1-2.9.4A4.1,4.1,0,0,0-16,15.5,18.2,18.2,0,0,0-2.8,27.8a4.5,4.5,0,0,0,5.3-2.6l.6-1.5c.5-1.4,1.3-2.4,3.1-2.3s2.4.9,3,2.7c-1.4-.1-2.1.7-2.7,1.8A41.8,41.8,0,0,1,3,31.3C-.7,35.7-5.7,36.1-10.8,35c-11.7-2.6-16.6-17.1-8.8-26.3A1.7,1.7,0,0,1-17.4,8C-14.6,8.7-11.8,9-9,9.5Z" transform="translate(176.1 176.1)"/><path class="cls-13" d="M10.5,27.8c.9,1.1,1.7,2.3,2.7,3.4a17.8,17.8,0,0,0,11.1,6.2A18.8,18.8,0,0,0,34,36.3h.9c-1.6,5-5.2,8.2-10,10a16.2,16.2,0,0,1-20.2-9,1.7,1.7,0,0,1,0-1.4Z" transform="translate(176.1 176.1)"/><path class="cls-14" d="M-71.2-63a20,20,0,0,0,1.1,12.3c2.6,6,9.1,10.7,15.2,10.5a55.6,55.6,0,0,0,7-.8,22.6,22.6,0,0,1-2.3,2.9A16.2,16.2,0,0,1-73.5-40C-79.3-46.9-78.3-57.7-71.2-63Z" transform="translate(176.1 176.1)"/><path class="cls-15" d="M-15-20.5c-1.9.4-1.7,2.2-1.8,3.5A18,18,0,0,0-11.6-2.7,18.1,18.1,0,0,0-.9,2.7L3,3l-.8.4C.1,4.3-.2,5.8,1.4,7.5L-4.1,9.4a2.7,2.7,0,0,1-1.2-.2,2.3,2.3,0,0,0,.8-2.8C-5,5.3-6,5.2-7.1,5.1l-6.7-.6c-3.6-.4-6-2.6-7.7-5.6A16.5,16.5,0,0,1-19.7-20c.9-1.1,1.9-1.8,3.4-1Z" transform="translate(176.1 176.1)"/><path class="cls-15" d="M-.1-21.6l-3.7.9-2.1.2c.7-2.1,0-3.2-2.2-3.4l-5-.7c-4.8-.6-7.2-3.9-9-8a2.5,2.5,0,0,1,.7-3.2,22.8,22.8,0,0,0,3.3-3.6A19.7,19.7,0,0,0-8.8-29.2,17.9,17.9,0,0,0,4.6-28.1l1.3-.2A7.8,7.8,0,0,1,1.5-25C-.2-24.5-.6-23.5-.1-21.6Z" transform="translate(176.1 176.1)"/><path class="cls-15" d="M-44.4-52.2A2.1,2.1,0,0,1-42-51.1c2.7,3.6,5.8,6.5,10.1,8.1a19.1,19.1,0,0,0,8.2.7h2.3c-2.2,2.9-4.3,5.9-8.5,6.3a16.1,16.1,0,0,1-13-3.8,2.3,2.3,0,0,1-.5-1.7q.1-3.9.6-7.8A2.6,2.6,0,0,0-44.4-52.2Z" transform="translate(176.1 176.1)"/><path class="cls-16" d="M40.1,31.9a6.4,6.4,0,0,0,1.3-1,7.3,7.3,0,0,1,6.2-2.5A20.9,20.9,0,0,0,60,25.7l.7-.2c-2,5.8-9.1,10.4-15.3,9.9a53.9,53.9,0,0,1-5.6-.8Z" transform="translate(176.1 176.1)"/><path class="cls-17" d="M-21.2,34.4l-4.2,1.3a1.7,1.7,0,0,1-1.4-.3,1.5,1.5,0,0,1,0-1.3,38.4,38.4,0,0,1,2.2-3.9Z" transform="translate(176.1 176.1)"/><path class="cls-17" d="M-28.1-10.3l.4,5.3c-1.6-.5-3.1-.9-4.6-1.5s-.7-1.3,0-1.8Z" transform="translate(176.1 176.1)"/><path class="cls-18" d="M14.9,50.9l4.7.6a33,33,0,0,1-1.8,3.2,1.2,1.2,0,0,1-1.1.5c-.3,0-.7-.4-.8-.8A29.2,29.2,0,0,1,14.9,50.9Z" transform="translate(176.1 176.1)"/><path class="cls-19" d="M51.9,39l3.9-1.7c.1,1.1.2,2.1.2,3.1a1,1,0,0,1-1.7.8Z" transform="translate(176.1 176.1)"/><path class="cls-20" d="M-56.5-55a6.7,6.7,0,0,1-6.8,6.7A6.7,6.7,0,0,1-70-55.1a6.7,6.7,0,0,1,6.8-6.7A6.7,6.7,0,0,1-56.5-55Zm-4.3,0a2.7,2.7,0,0,0-2.3-2.5,2.5,2.5,0,0,0-2.6,2.4,2.6,2.6,0,0,0,2.4,2.5A2.8,2.8,0,0,0-60.8-55Z" transform="translate(176.1 176.1)"/><path class="cls-21" d="M-60.8-55a2.8,2.8,0,0,1-2.5,2.4,2.6,2.6,0,0,1-2.4-2.5,2.5,2.5,0,0,1,2.6-2.4A2.7,2.7,0,0,1-60.8-55Z" transform="translate(176.1 176.1)"/></g></svg>