<svg id="Layer_1" data-name="Layer 1" xmlns="http://www.w3.org/2000/svg" width="368.4" height="368.4" viewBox="0 0 368.4 368.4"><defs><style>.cls-1{fill:#040505;}.cls-2{fill:#050504;}.cls-3{fill:#050404;}.cls-4{fill:#070707;}.cls-5{fill:#a4e4ed;}.cls-6{fill:#9bcdb5;}.cls-7{fill:#fbcc84;}.cls-8{fill:#f49393;}.cls-9{fill:#030404;}.cls-10{fill:#040403;}.cls-11{fill:#040404;}.cls-12{fill:#050707;}.cls-13{fill:#050607;}.cls-14{fill:#040606;}.cls-15{fill:#030505;}.cls-16{fill:#9dd0b7;}.cls-17{fill:#9ccfb6;}.cls-18{fill:#a3e3ec;}.cls-19{fill:#f9ca83;}</style></defs><path class="cls-1" d="M-85.6,70.5c39.2,0,71.3,32.2,71.1,71.2a71.2,71.2,0,0,1-71,70.8,71,71,0,0,1-71-71.1A71.1,71.1,0,0,1-85.6,70.5Zm23.3,13.6c-2.8,4.2-7.3,5.1-11.6,6.3s-7.3,3.3-8.4,8-3.7,6.4-7.7,7.2a55.4,55.4,0,0,1-8.1.7c-3.7,0-7.3-.3-10.9-.1s-5.4,2-5,6.1c.1,1.2.2,2.5.2,3.7-.1,7.5-6,11.3-12.9,8.3a19.8,19.8,0,0,1-8.7-8l-2.6-4.2c-2.5-.3-2.9,1.6-3.6,3a62.4,62.4,0,0,0-5.4,34.6c4.6,34.8,38,59.3,72.4,52.9,43.8-8.2,65.1-57.6,40.9-94.9A61.4,61.4,0,0,0-62.3,84.1Zm-60.5,32.1c-.1-1.6-.2-2.6-.3-3.6-.8-7.1,2.5-12.6,9.4-14.6a35.9,35.9,0,0,1,8.1-.9c3.6-.1,7.2,0,10.8.2s4.2-1,4.7-3.6c1.1-4.8,4.3-7.8,8.5-9.9,2.3-1.1,4.7-1.8,7.2-2.8-17.1-6.6-51,6.4-59.7,22.8C-129,106.5-128.6,113.2-122.8,116.2Z" transform="translate(156.5 155.8)"/><path class="cls-2" d="M-85.6-13.8a71.2,71.2,0,0,1-70.9-71.3,71,71,0,0,1,71-70.7c39.2,0,71.2,32.2,71,71.2S-46.7-13.8-85.6-13.8Zm62-71a61.9,61.9,0,0,0-61.7-62A62,62,0,0,0-147.5-85,62,62,0,0,0-85.8-22.9C-51.7-22.6-23.6-50.6-23.6-84.8Z" transform="translate(156.5 155.8)"/><path class="cls-2" d="M69.9,139.1a71,71,0,1,1,141.9,6.7c-2.1,38.8-35.8,68.9-75,66.6A71,71,0,0,1,69.9,139.1Zm71-59.6c-34.3.1-62.2,28.1-62,62.2a62.1,62.1,0,0,0,62.4,61.8c33.9-.1,61.6-28,61.6-62.2S174.8,79.4,140.9,79.5Z" transform="translate(156.5 155.8)"/><path class="cls-1" d="M140.5-13.8c-39.4-.5-71.2-32.8-70.6-71.6s32.7-70.9,72.5-70.4,70,33,69.5,72.3S178.9-13.4,140.5-13.8Zm0-9c33.1.6,61.7-27.1,62.4-60.4s-26.4-63-60.1-63.6S79.6-120.5,78.9-85.4,105.9-23.5,140.5-22.8Z" transform="translate(156.5 155.8)"/><path class="cls-3" d="M-10.4,28.2A38.3,38.3,0,0,1,27.9-9.7C48.8-9.6,66,7.9,65.7,28.6A38.4,38.4,0,0,1,27.6,66.4,38.3,38.3,0,0,1-10.4,28.2Zm67.1.3A29.2,29.2,0,0,0,27.8-.7,29.3,29.3,0,0,0-1.4,28.2,29.4,29.4,0,0,0,27.5,57.4,29.2,29.2,0,0,0,56.7,28.5Z" transform="translate(156.5 155.8)"/><path class="cls-4" d="M25.2-111.5A175,175,0,0,1,58-108.1c3.5.7,5.4,3.1,4.8,5.8s-3.1,3.9-6.6,3.1a127.9,127.9,0,0,0-39-2.6c-5.9.5-11.8,1.7-17.7,2.5a10.9,10.9,0,0,1-4,.2,4.2,4.2,0,0,1-3.1-4.2,4.4,4.4,0,0,1,3.8-4.5c3.9-.8,7.8-1.7,11.7-2.2C14.5-110.7,21.1-111.1,25.2-111.5Z" transform="translate(156.5 155.8)"/><path class="cls-4" d="M30.5,168.1C17.3,167.9,7,167-3.3,164.6c-2.9-.7-4.2-2.1-4.2-4.4a4,4,0,0,1,3.2-4.4,11.6,11.6,0,0,1,3.7.1c7.9,1,15.7,2.3,23.6,2.9,10.9.8,21.7-.5,32.3-2.7l1.8-.4c3-.4,5.2.9,5.7,3.4s-.9,4.8-3.9,5.4-7.8,1.7-11.7,2.2C40.8,167.4,34.3,167.8,30.5,168.1Z" transform="translate(156.5 155.8)"/><path class="cls-4" d="M-112.1,31c.2-13.3,1.1-23.5,3.5-33.6.8-3.2,2.9-4.8,5.5-4.2S-99.3-4-99.7-1A8.9,8.9,0,0,0-100,.4c-1,7.7-2.2,15.3-2.8,23-.8,11,.5,21.8,2.7,32.6a17.4,17.4,0,0,1,.5,2.2c.2,2.8-1.2,4.9-3.6,5.3a4.4,4.4,0,0,1-5.3-3.6,122.6,122.6,0,0,1-2.2-12.1C-111.4,41.3-111.8,34.7-112.1,31Z" transform="translate(156.5 155.8)"/><path class="cls-4" d="M167.5,25.4c-.2,13.3-1.2,23.7-3.6,33.9-.7,3.2-2.9,4.8-5.5,4.2s-3.8-2.8-3.4-5.8c.1-.3.1-.5.2-.8a124.7,124.7,0,0,0,2.7-38.5c-.5-6-1.6-11.9-2.5-17.8-.1-.7-.3-1.4-.4-2.2a4.4,4.4,0,0,1,3.6-5.2,4.3,4.3,0,0,1,5.2,3.6A99,99,0,0,1,166,8.9C166.8,15.3,167.2,21.8,167.5,25.4Z" transform="translate(156.5 155.8)"/><path class="cls-5" d="M-62.3,84.1a61.4,61.4,0,0,1,28.6,23.6c24.2,37.3,2.9,86.7-40.9,94.9-34.4,6.4-67.8-18.1-72.4-52.9a62.4,62.4,0,0,1,5.4-34.6c.7-1.4,1.1-3.3,3.6-3l2.6,4.2a19.8,19.8,0,0,0,8.7,8c6.9,3,12.8-.8,12.9-8.3,0-1.2-.1-2.5-.2-3.7-.4-4.1.9-5.9,5-6.1s7.2.1,10.9.1a55.4,55.4,0,0,0,8.1-.7c4-.8,6.9-3.2,7.7-7.2s4.2-6.8,8.4-8S-65.1,88.3-62.3,84.1Zm-26.4,79.4c-.6,2.9-1,5.5-1.7,8s-2.7,7.2-3.5,11A49.2,49.2,0,0,0-95,194.6c.3,4.9,4.3,7.6,8.9,6.6s6.3-2.7,7.2-6.3a6.3,6.3,0,0,1,3.1-3.8c6.6-4.1,12.7-8.8,17.5-15a21.1,21.1,0,0,1,4.5-3.9,15,15,0,0,0,5.8-8.4,21.3,21.3,0,0,1,5.8-9.5c6.1-6.1,4.1-15.5-4.2-17.9-4.7-1.5-8.1-3.5-10.3-8.2s-9.2-4.4-12.5-8.7c-.8-1.1-3-1.5-4.5-1.4-3.9.4-7.5-.6-11.3-1.5-7.4-1.9-13.2,2.3-14,9.8a14.4,14.4,0,0,1-.5,3.7,12.2,12.2,0,0,1-2.4,4.5c-3.8,4.1-4.3,8.3-1.2,13.1,1.1,1.7,2.3,3.3,3.2,5C-97.4,157.3-94.4,161.4-88.7,163.5Z" transform="translate(156.5 155.8)"/><path class="cls-6" d="M-122.8,116.2c-5.8-3-6.2-9.7-11.3-12.4,8.7-16.4,42.6-29.4,59.7-22.8-2.5,1-4.9,1.7-7.2,2.8-4.2,2.1-7.4,5.1-8.5,9.9-.5,2.6-2,3.7-4.7,3.6s-7.2-.3-10.8-.2a35.9,35.9,0,0,0-8.1.9c-6.9,2-10.2,7.5-9.4,14.6C-123,113.6-122.9,114.6-122.8,116.2Z" transform="translate(156.5 155.8)"/><path class="cls-7" d="M-23.6-84.8c0,34.2-28.1,62.2-62.2,61.9A62,62,0,0,1-147.5-85a62,62,0,0,1,62.2-61.8A61.9,61.9,0,0,1-23.6-84.8Zm-86.6-8.6c-.1,17.7,4.9,30.5,14.4,39.9,3.5,3.5,6.9,6.5,6,12.2-.4,2.1,1.5,3.6,3.8,3.8a3.9,3.9,0,0,0,4.6-2.9,9.1,9.1,0,0,0,.4-3.3c-.3-3,.7-5.1,3.1-7.3,23.9-21.3,22.5-59.2-2.8-78.9-4.3-3.3-5.5-3.4-9.8.1C-103.4-119.4-109.9-105.8-110.2-93.4Z" transform="translate(156.5 155.8)"/><path class="cls-7" d="M140.9,79.5c33.9-.1,61.9,27.9,62,61.8s-27.7,62.1-61.6,62.2a62.1,62.1,0,0,1-62.4-61.8C78.7,107.6,106.6,79.6,140.9,79.5ZM173.3,157c-.3-2.2-.5-4.4-.9-6.6-1.8-8.4-5.7-15.9-9.9-23.3L145,96.8c-2.1-3.8-6.1-3.7-8.2,0s-4,7.5-6.1,11.2c-5,8.7-10.3,17.3-15.1,26.1-3.7,6.8-6.7,14-7,21.9a32.4,32.4,0,0,0,31.9,33.1C158.2,189.4,173,174.9,173.3,157Z" transform="translate(156.5 155.8)"/><path class="cls-5" d="M140.5-22.8c-34.6-.7-62.3-28.8-61.6-62.6s28.8-62.1,63.9-61.4,60.7,29.3,60.1,63.6S173.6-22.2,140.5-22.8Zm.4-40.9a21.2,21.2,0,0,0,21.2-21.1,21.3,21.3,0,0,0-21-21.3,21.3,21.3,0,0,0-21.4,21.3A21.1,21.1,0,0,0,140.9-63.7ZM119.1-102c1.3-1.1,2.8-1.8,3.6-3s.6-3.7-.8-5.2-5.4-5.5-8.2-8.1-4.5-2-6.4-.2-1.8,4.5.3,6.7,5,5.2,7.7,7.6C116.2-103.3,117.5-102.9,119.1-102Zm52.5,52.6c1.4-1.2,2.9-2.1,3.8-3.4s.4-3.4-.9-4.7-5.2-5.4-7.9-8-4.7-2.3-6.6-.5-1.9,4.6.3,6.9,4.9,5,7.4,7.4A22.3,22.3,0,0,0,171.6-49.4Zm-26.3-72.4c0-2.2.1-4.3,0-6.4a4.4,4.4,0,0,0-4.4-4.2c-2.1,0-4.3,1.6-4.4,3.8a114.5,114.5,0,0,0,0,13.1c.1,2.5,2.4,4,4.8,3.8a4.4,4.4,0,0,0,4-4.2C145.4-117.8,145.3-119.8,145.3-121.8Zm17.4,19.6c1.3-.5,2.3-.6,2.9-1.2,3.2-3.1,6.4-6.2,9.4-9.5,1.5-1.7,1.1-3.8-.5-5.5a3.9,3.9,0,0,0-5.7-.5,106.5,106.5,0,0,0-9.4,9.6c-.8.9-.7,3.2-.1,4.4S161.6-103,162.7-102.2ZM178-80.3h0c2,0,4,.1,6-.1a4.7,4.7,0,0,0,4.5-4.6c-.1-2.4-2-4.2-4.8-4.3s-7.4-.1-11.2,0-4.7,1.7-4.8,4.2,1.7,4.5,4.7,4.8ZM110-49.6c1.4-.6,2.5-.7,3.1-1.3,3.2-3,6.4-6.1,9.3-9.3a4,4,0,0,0-.6-5.7,4,4,0,0,0-5.7-.3,89.8,89.8,0,0,0-9.2,9.3c-.8,1-.7,3.3-.1,4.8S108.9-50.4,110-49.6Zm35.3,1.8h0v-5.6c-.2-2.9-1.8-4.5-4.3-4.6a4.3,4.3,0,0,0-4.6,4.4q-.3,6,0,12a4.4,4.4,0,0,0,4.8,4.2c2.4-.2,3.9-1.8,4.1-4.4S145.3-45.8,145.3-47.8ZM103.5-80.3h5.6c3.1-.2,4.9-1.9,4.9-4.5s-1.7-4.4-4.9-4.5-7.2-.1-10.8,0-4.9,1.7-4.9,4.4,1.8,4.4,4.9,4.6Z" transform="translate(156.5 155.8)"/><path class="cls-8" d="M56.7,28.5A29.2,29.2,0,0,1,27.5,57.4,29.4,29.4,0,0,1-1.4,28.2,29.3,29.3,0,0,1,27.8-.7,29.2,29.2,0,0,1,56.7,28.5Z" transform="translate(156.5 155.8)"/><path class="cls-9" d="M-88.7,163.5c-5.7-2.1-8.7-6.2-11.2-10.8-.9-1.7-2.1-3.3-3.2-5-3.1-4.8-2.6-9,1.2-13.1a12.2,12.2,0,0,0,2.4-4.5,14.4,14.4,0,0,0,.5-3.7c.8-7.5,6.6-11.7,14-9.8,3.8.9,7.4,1.9,11.3,1.5,1.5-.1,3.7.3,4.5,1.4,3.3,4.3,10.2,3.6,12.5,8.7s5.6,6.7,10.3,8.2c8.3,2.4,10.3,11.8,4.2,17.9a21.3,21.3,0,0,0-5.8,9.5,15,15,0,0,1-5.8,8.4,21.1,21.1,0,0,0-4.5,3.9c-4.8,6.2-10.9,10.9-17.5,15a6.3,6.3,0,0,0-3.1,3.8c-.9,3.6-3.7,5.6-7.2,6.3s-8.6-1.7-8.9-6.6a49.2,49.2,0,0,1,1.1-12.1c.8-3.8,2.4-7.4,3.5-11S-89.3,166.4-88.7,163.5Zm2.8,23.3c7.7-4.9,14.8-9,20-15.6,1.9-2.3,4.4-4.1,6.5-6.2a9.3,9.3,0,0,0,2.5-3.1A30.5,30.5,0,0,1-48.6,148c1.4-1.3,1-2.4-.6-3.1l-2.2-.7c-5.3-1.6-9.6-4.6-12.1-9.8a8.4,8.4,0,0,0-2.6-2.3c-2.1-1.4-4.4-2.7-6.6-3.9a5.7,5.7,0,0,0-3-1,23.9,23.9,0,0,1-10.2-1.5c-3.1-1.3-3.9-.6-4.2,2.8-.5,5.1-1.6,9.8-6,13.1,1.9,3.2,3.6,6.3,5.5,9.1a11.1,11.1,0,0,0,4,3.8c5,2.2,6.9,6.2,6.3,11.1s-1.9,9-3.1,13.4C-84,181.3-84.9,183.6-85.9,186.8Z" transform="translate(156.5 155.8)"/><path class="cls-10" d="M-110.2-93.4c.3-12.4,6.8-26,19.7-36.4,4.3-3.5,5.5-3.4,9.8-.1C-55.4-110.2-54-72.3-77.9-51c-2.4,2.2-3.4,4.3-3.1,7.3a9.1,9.1,0,0,1-.4,3.3A3.9,3.9,0,0,1-86-37.5c-2.3-.2-4.2-1.7-3.8-3.8.9-5.7-2.5-8.7-6-12.2C-105.3-62.9-110.3-75.7-110.2-93.4ZM-85.6-122c-21.5,17-18.7,48-4.4,60.9V-86.6c0-1.2,0-2.3.1-3.4a4.2,4.2,0,0,1,3.8-3.6A3.8,3.8,0,0,1-81.6-91a10.5,10.5,0,0,1,.6,4v23.1c0,.9.2,1.8.3,3C-63.1-80.8-68.5-109.4-85.6-122Z" transform="translate(156.5 155.8)"/><path class="cls-11" d="M173.3,157c-.3,17.9-15.1,32.4-32.8,32.1A32.4,32.4,0,0,1,108.6,156c.3-7.9,3.3-15.1,7-21.9,4.8-8.8,10.1-17.4,15.1-26.1,2.1-3.7,4-7.5,6.1-11.2s6.1-3.8,8.2,0l17.5,30.3c4.2,7.4,8.1,14.9,9.9,23.3C172.8,152.6,173,154.8,173.3,157Zm-31.7-48h-1.3c-5.9,10.5-12,20.9-17.7,31.5a39.5,39.5,0,0,0-4,10c-2.7,9.7,0,18,7.7,24.5a22.6,22.6,0,0,0,25.9,2.2c8.6-5.1,12.9-12.8,11.6-22.8a35.9,35.9,0,0,0-3.9-12.4C154.1,130.8,147.8,120,141.6,109Z" transform="translate(156.5 155.8)"/><path class="cls-11" d="M140.9-63.7a21.1,21.1,0,0,1-21.2-21.1,21.3,21.3,0,0,1,21.4-21.3,21.3,21.3,0,0,1,21,21.3A21.2,21.2,0,0,1,140.9-63.7Zm0-9a12.1,12.1,0,0,0,12.2-12,12.2,12.2,0,0,0-12.2-12.4A12.2,12.2,0,0,0,128.7-85,12,12,0,0,0,140.9-72.7Z" transform="translate(156.5 155.8)"/><path class="cls-12" d="M119.1-102c-1.6-.9-2.9-1.3-3.8-2.2-2.7-2.4-5.3-5-7.7-7.6s-2.1-4.9-.3-6.7,4.2-1.9,6.4.2,5.5,5.4,8.2,8.1,2,3.4.8,5.2S120.4-103.1,119.1-102Z" transform="translate(156.5 155.8)"/><path class="cls-12" d="M171.6-49.4a22.3,22.3,0,0,1-3.9-2.3c-2.5-2.4-5-4.8-7.4-7.4S158-64.2,160-66s4.3-1.7,6.6.5,5.3,5.3,7.9,8,2,3.1.9,4.7S173-50.6,171.6-49.4Z" transform="translate(156.5 155.8)"/><path class="cls-13" d="M145.3-121.8c0,2,.1,4,0,5.9a4.4,4.4,0,0,1-4,4.2c-2.4.2-4.7-1.3-4.8-3.8a114.5,114.5,0,0,1,0-13.1c.1-2.2,2.3-3.8,4.4-3.8a4.4,4.4,0,0,1,4.4,4.2C145.4-126.1,145.3-124,145.3-121.8Z" transform="translate(156.5 155.8)"/><path class="cls-14" d="M162.7-102.2c-1.1-.8-2.9-1.5-3.4-2.7s-.7-3.5.1-4.4a106.5,106.5,0,0,1,9.4-9.6,3.9,3.9,0,0,1,5.7.5c1.6,1.7,2,3.8.5,5.5-3,3.3-6.2,6.4-9.4,9.5C165-102.8,164-102.7,162.7-102.2Z" transform="translate(156.5 155.8)"/><path class="cls-14" d="M178-80.3h-5.6c-3-.3-4.8-2.2-4.7-4.8s1.9-4.1,4.8-4.2,7.5-.1,11.2,0,4.7,1.9,4.8,4.3a4.7,4.7,0,0,1-4.5,4.6c-2,.2-4,.1-6,.1Z" transform="translate(156.5 155.8)"/><path class="cls-14" d="M110-49.6c-1.1-.8-2.8-1.4-3.2-2.5s-.7-3.8.1-4.8a89.8,89.8,0,0,1,9.2-9.3,4,4,0,0,1,5.7.3,4,4,0,0,1,.6,5.7c-2.9,3.2-6.1,6.3-9.3,9.3C112.5-50.3,111.4-50.2,110-49.6Z" transform="translate(156.5 155.8)"/><path class="cls-15" d="M145.3-47.8c0,2,.1,4,0,6s-1.7,4.2-4.1,4.4a4.4,4.4,0,0,1-4.8-4.2q-.3-6,0-12A4.3,4.3,0,0,1,141-58c2.5.1,4.1,1.7,4.3,4.6v5.6Z" transform="translate(156.5 155.8)"/><path class="cls-15" d="M103.5-80.3H98.3c-3.1-.2-4.9-1.9-4.9-4.6s1.8-4.3,4.9-4.4,7.2-.1,10.8,0,4.9,1.8,4.9,4.5-1.8,4.3-4.9,4.5h-5.6Z" transform="translate(156.5 155.8)"/><path class="cls-16" d="M-85.9,186.8c1-3.2,1.9-5.5,2.5-7.8,1.2-4.4,2.6-8.9,3.1-13.4s-1.3-8.9-6.3-11.1a11.1,11.1,0,0,1-4-3.8c-1.9-2.8-3.6-5.9-5.5-9.1,4.4-3.3,5.5-8,6-13.1.3-3.4,1.1-4.1,4.2-2.8a23.9,23.9,0,0,0,10.2,1.5,5.7,5.7,0,0,1,3,1c2.2,1.2,4.5,2.5,6.6,3.9a8.4,8.4,0,0,1,2.6,2.3c2.5,5.2,6.8,8.2,12.1,9.8l2.2.7c1.6.7,2,1.8.6,3.1a30.5,30.5,0,0,0-8.3,13.9,9.3,9.3,0,0,1-2.5,3.1c-2.1,2.1-4.6,3.9-6.5,6.2C-71.1,177.8-78.2,181.9-85.9,186.8Z" transform="translate(156.5 155.8)"/><path class="cls-17" d="M-85.6-122c17.1,12.6,22.5,41.2,4.9,61.1-.1-1.2-.3-2.1-.3-3V-87a10.5,10.5,0,0,0-.6-4,3.8,3.8,0,0,0-4.5-2.6A4.2,4.2,0,0,0-89.9-90c-.1,1.1-.1,2.2-.1,3.4v25.5C-104.3-74-107.1-105-85.6-122Z" transform="translate(156.5 155.8)"/><path class="cls-18" d="M141.6,109c6.2,11,12.5,21.8,18.3,32.9a35.9,35.9,0,0,1,3.9,12.4c1.3,10-3,17.7-11.6,22.8a22.6,22.6,0,0,1-25.9-2.2c-7.7-6.5-10.4-14.8-7.7-24.5a39.5,39.5,0,0,1,4-10c5.7-10.6,11.8-21,17.7-31.5Zm13.5,48.8c.1-3.2-1.2-5.1-3.8-5.4s-4.7,1.1-5.1,4.3-2.5,5-5.8,5.6a4.4,4.4,0,0,0-4,4.9,4.8,4.8,0,0,0,5.1,3.9C148.5,171,154.9,164.8,155.1,157.8Z" transform="translate(156.5 155.8)"/><path class="cls-19" d="M140.9-72.7A12,12,0,0,1,128.7-85a12.2,12.2,0,0,1,12.2-12.1,12.2,12.2,0,0,1,12.2,12.4A12.1,12.1,0,0,1,140.9-72.7Z" transform="translate(156.5 155.8)"/><path class="cls-13" d="M155.1,157.8c-.2,7-6.6,13.2-13.6,13.3a4.8,4.8,0,0,1-5.1-3.9,4.4,4.4,0,0,1,4-4.9c3.3-.6,5.4-2,5.8-5.6s2.4-4.6,5.1-4.3S155.2,154.6,155.1,157.8Z" transform="translate(156.5 155.8)"/></svg>