<svg id="Layer_1" data-name="Layer 1" xmlns="http://www.w3.org/2000/svg" viewBox="0 0 366.1 351.5"><defs><style>.cls-1{fill:#00151f;}.cls-2{fill:#dee9fb;}.cls-3{fill:#6adadc;}.cls-4{fill:#a2c7fd;}.cls-5{fill:#dee8fa;}.cls-6{fill:#f6a7a8;}.cls-7{fill:#dfeafb;}.cls-8{fill:#69d9dc;}.cls-9{fill:#4570c5;}.cls-10{fill:#4570c6;}.cls-11{fill:#eda3a8;}.cls-12{fill:#f0a4a8;}.cls-13{fill:#f8a7a7;}.cls-14{fill:#fde992;}.cls-15{fill:#4671c6;}.cls-16{fill:#ddc5ab;}.cls-17{fill:#dfeafa;}.cls-18{fill:#fee893;}.cls-19{fill:#fddb96;}.cls-20{fill:#a6c9fb;}.cls-21{fill:#eed2cb;}.cls-22{fill:#f8cecd;}.cls-23{fill:#a3c7fe;}.cls-24{fill:#f6a9aa;}.cls-25{fill:#dbe7fa;}</style></defs><path class="cls-1" d="M-54.3,11.2c3.8,9.3,1.5,14.8-7.8,19a34.4,34.4,0,0,1,1,6.3A11.3,11.3,0,0,1-72.5,47.9c-20.1.2-40.2.3-60.3,0-9-.1-13.2-7.7-10.4-17.6-9.3-4.3-11.7-9.9-7.7-19.3-5.6-3.1-4.7-8.8-4.7-14.1V-72c0-8.7,3.2-11.9,12-11.9h82c8.6,0,11.8,3.2,11.8,11.7v21.9H105.8c0-6.2-.1-12.2,0-18.3.1-4.5-.2-9.1.7-13.4a25.6,25.6,0,0,1,15.1-19.3c2.6-1.3,3.5-2.8,2.5-5.9H98.8c-.9,0-1.9,1-2.6,1.7-4.4,4.8-8.7,9.6-13,14.6a14.1,14.1,0,0,1-11.7,5.3c-7.4-.2-14.7,0-22.1,0-4.7-.1-6.5-1.9-6.7-6.6v-.4c-.1-9-2.1-18.8,10-23.3-2.9-2.6-5.3-4.3-7-6.5a12.2,12.2,0,0,1-2.8-6.1c-.5-4.2-.2-8.5-.2-12.7s1.9-6.2,6.3-6.2c8-.2,16-.1,23.9-.1a12.7,12.7,0,0,1,9.6,4.5c4.3,5,8.6,10,13.2,14.8a8,8,0,0,0,5,2.3c7.1.3,14.2.2,21.4,0a6.1,6.1,0,0,0,4.1-2.1c4.3-5,10.6-4.9,14.8.2a4.7,4.7,0,0,0,3.2,1.9c7.6.2,15.2.1,23.3.1.1-1.4.1-2.7.2-4,.4-4,3.4-6.4,7-4.9,11,4.3,22,8.8,32.8,13.6a5.9,5.9,0,0,1,3,4.6,6.2,6.2,0,0,1-3,4.6c-10.8,4.8-21.8,9.3-32.8,13.6-3.5,1.4-6.5-.7-7-4.5-.1-1.3,0-2.7,0-4.3H142.9c-.5,2.5-.5,4.2,2.3,5.5,10.5,5.1,16,13.8,16.1,25.4q.3,45.7,0,91.7c-.1,11.4-5.4,20.1-15.7,25.2-2.5,1.3-3.3,2.7-2.5,5.8,4.5,0,9.2-.3,13.9.1,7.1.7,12-.3,15.3-8.4s11.4-13.1,20.8-14.6c5.3-.8,9.1,1.2,11.1,5.6A68.8,68.8,0,0,1,209,44.5a69.3,69.3,0,0,1-1.8,32.3,30.6,30.6,0,0,1-3.7,8c-2.4,3.8-5.8,5.4-10.6,4.5C180.6,87.1,173,79.6,169,68.2c-.8-2.4-1.8-3.3-4.4-3.2-6.5.2-13,0-19.5.2a5.6,5.6,0,0,0-3.9,1.9c-4.4,5.4-10.8,5.4-15.2-.2a4.6,4.6,0,0,0-3.2-1.7c-7-.2-14,0-21-.2-2.4,0-2.7,1.3-3.4,3C94.3,79.2,87.1,87,74.9,89.1c-5.8,1.1-9.6-.2-11.9-5.7a65.3,65.3,0,0,1-4.9-16.7C56.6,56,57,45.3,60.5,34.9s9.7-14,20.7-9.3c8.1,3.5,13.5,9.7,16.6,17.8,1,2.6,2.2,3.3,4.8,3.3,7.3-.2,14.5-.1,21.7-.1.7-2.5.8-4.1-1.9-5.4-11.2-5.2-16.5-14.3-16.6-26.5-.1-7.8,0-15.5,0-23.2v-4.3H40.9V95.3h74.8c12.3,0,18.2,5.8,18.2,18.1,0,24.4,0,48.9-.1,73.3,0,11.2-6.1,17.3-17.4,17.3H-72.2c-11.1,0-17.1-6.1-17.1-17.2V112.7c0-11.6,5.9-17.4,17.6-17.4H3.5V-12.8H-49.3C-51.5-4.9-46.3,4.5-54.3,11.2ZM185.6,80v.3h.2l-.3-.2c-.2-1.1-.4-2.2-.5-3.3-.9-5.7-2-11.4-2.5-17.1-.8-8.9.6-17.5,3-26l.3-.2h-.2v.3c-2.2,1.6-4.8,2.9-6.5,5-6.2,7.2-6.5,16-5.3,24.7A22.1,22.1,0,0,0,185.6,80ZM112.3-46.7V-16c0,11-.3,21.9-.1,32.9s9.5,20.5,21.3,20.5S154.7,29,155,17.3s0-22.2,0-33.3V-46.7c0-10.9.4-21.7-.1-32.6s-10.2-18.6-21.2-18.8S112.8-90,112.3-79.6,112.2-57.7,112.3-46.7ZM-102.8,6h42.2c3.4,0,4.7-1.1,4.7-4.5q-.1-37.3,0-74.5c0-3.6-1.4-4.9-4.9-4.9-27.9.1-55.9.1-83.8,0-3.5,0-4.8,1.4-4.8,4.9.1,24.7,0,49.4,0,74.1,0,4.4.5,4.9,5,4.9ZM22,197.7h94.6c8.2,0,11.3-3.1,11.3-11.3V113c0-8.2-3.2-11.4-11.3-11.4H-72.3c-7.8,0-10.9,3.1-10.9,10.8v74.5c0,7.7,3.1,10.8,10.9,10.8ZM-49.4-19.7H105.2V-43.4H-49.4ZM34.1,94.9V-12.6H10.5V94.9ZM48.7-141a62.4,62.4,0,0,1-.1,7.6c-.5,4.3,1.1,7.1,4.5,9.8,6.2,4.8,8.1,7.5.5,14-1.7,1.5-4.4,3.1-4.7,5-.7,4.2-.2,8.5-.2,13.1,8.5,0,16.5.1,24.5-.1A7.4,7.4,0,0,0,77.6-94c5.1-5.3,10.6-10.3,14.5-16.5,1.9-2.9,1.9-9,0-12-3.8-6.1-9.4-11.2-14.4-16.5a5.4,5.4,0,0,0-3.5-1.9ZM-102.7,12.4c-12.5,0-24.9-.1-37.4.1a7.6,7.6,0,0,0-5.6,2.6,6.1,6.1,0,0,0-.2,5.7,8.3,8.3,0,0,0,5.8,3c24.8.2,49.7.2,74.5.2,4.6,0,7.1-2.2,7.1-5.9s-2.5-5.7-7.1-5.7Zm-.4,29.5c9.9,0,19.8.1,29.6,0,4.1,0,6.2-2.1,6.3-5.8s-2.1-5.7-6.3-5.7h-58.4c-3.3-.1-5.6,1.1-6.1,4.6s1.7,6.9,6.1,6.9C-122.3,42-112.7,41.9-103.1,41.9ZM203.7,56.5c.1-8-.6-15.9-4.2-23.3-.6-1.3-2.1-2.2-3.2-3.3-1,1.1-2.7,2-3.1,3.3a143.4,143.4,0,0,0-4.1,16.9A54,54,0,0,0,192.7,79c.6,1.6,2.3,2.7,3.5,4,1.2-1.3,2.9-2.4,3.6-3.9C203.1,72,203.9,64.3,203.7,56.5ZM79.5,56.2c-1.5-7-2.8-14.3-4.7-21.4-.4-1.8-2.4-3.3-3.7-4.9-1.3,1.7-3.4,3.1-4,5A84.9,84.9,0,0,0,63.8,49c-1,9.5-.5,19.1,2.9,28.3.9,2.1,2.8,3.8,4.2,5.7,1.5-1.9,3.8-3.7,4.4-5.9C77,70.4,78.1,63.6,79.5,56.2Zm94.3-184.8v24.4l29.4-12.2ZM81.7,33.8a78.6,78.6,0,0,1-.3,46.3c9.7-5.1,14.1-17,12-30.9C92.5,43.1,86.3,34.7,81.7,33.8ZM112.8,53c-3.2,0-6.3.2-9.4,0s-3.3.6-3.3,3.1,1,3,3.2,3q9.3-.1,18.6,0c2.2,0,3.1-.6,3.1-3s-.9-3.2-3.3-3.1S115.7,53,112.8,53Zm42.6-172.2c-3.1,0-6.2.1-9.3,0s-3.3.6-3.3,3.1.9,3,3.1,2.9h18.7c2.2.1,3-.6,3.1-2.9s-1-3.2-3.3-3.1S158.4-119.2,155.4-119.2Zm-43.8,6h10.1c2,.1,2.6-.9,2.5-2.7s.3-3.3-2.3-3.3q-10.1.2-20.1,0c-2.2,0-2.4,1.2-2.4,2.9s.1,3.2,2.5,3.1ZM154.7,59c3,0,5.9-.1,8.9.1s3.3-.6,3.3-3.2S166,53,163.8,53c-5.9.1-11.9.1-17.9,0-2.2,0-3.1.6-3.1,2.9s.9,3.3,3.3,3.2S151.8,59,154.7,59Zm-18-163.4c0-6.1.1-12-.2-18,0-1.1-1.9-2.1-2.9-3.2-1,1.1-2.9,2.1-2.9,3.2-.3,5.9-.2,11.9-.2,18ZM130.8,44.1c0,6.2-.2,11.9.1,17.6.1,1.1,1.7,2.2,2.6,3.3,1.1-1,3-1.9,3.1-2.9.3-6,.1-11.9.1-18Z" transform="translate(155.6 147.4)"/><path class="cls-2" d="M-102.8,6h-41.6c-4.5,0-5-.5-5-4.9,0-24.7.1-49.4,0-74.1,0-3.5,1.3-4.9,4.8-4.9,27.9.1,55.9.1,83.8,0,3.5,0,4.9,1.3,4.9,4.9q-.1,37.2,0,74.5c0,3.4-1.3,4.5-4.7,4.5Z" transform="translate(155.6 147.4)"/><path class="cls-3" d="M22,197.7H-72.3c-7.8,0-10.9-3.1-10.9-10.8V112.4c0-7.7,3.1-10.8,10.9-10.8H116.6c8.1,0,11.3,3.2,11.3,11.4v73.4c0,8.2-3.1,11.3-11.3,11.3Zm30.3-9.2h51.2c5.3,0,8.8-3.6,8.8-9.1V119.9c0-5.6-3.5-9.1-9.1-9.1H-57.3c-6.7,0-10.2,3.6-10.2,10.2v57.9c0,6,3.6,9.7,9.4,9.7H52.3Z" transform="translate(155.6 147.4)"/><path class="cls-4" d="M-49.4-19.7V-43.4H105.2v23.7Z" transform="translate(155.6 147.4)"/><path class="cls-4" d="M34.1,94.9H10.5V-12.6H34.1Z" transform="translate(155.6 147.4)"/><path class="cls-2" d="M155-16c0,11.1.3,22.2,0,33.3s-9.7,20.2-21.6,20.1-21.1-8.7-21.3-20.5.1-21.9.1-32.9Z" transform="translate(155.6 147.4)"/><path class="cls-5" d="M112.3-46.7c-.1-11-.6-22,0-32.9s10.8-18.7,21.4-18.5,20.7,8.3,21.2,18.8.1,21.7.1,32.6Z" transform="translate(155.6 147.4)"/><path class="cls-3" d="M48.7-141H74.2a5.4,5.4,0,0,1,3.5,1.9c5,5.3,10.6,10.4,14.4,16.5,1.9,3,1.9,9.1,0,12-3.9,6.2-9.4,11.2-14.5,16.5a7.4,7.4,0,0,1-4.4,2.4c-8,.2-16,.1-24.5.1,0-4.6-.5-8.9.2-13.1.3-1.9,3-3.5,4.7-5,7.6-6.5,5.7-9.2-.5-14-3.4-2.7-5-5.5-4.5-9.8A62.4,62.4,0,0,0,48.7-141Z" transform="translate(155.6 147.4)"/><path class="cls-6" d="M112.3-46.7H155V-16H112.2C112.2-26.2,112.3-36.5,112.3-46.7Z" transform="translate(155.6 147.4)"/><path class="cls-7" d="M-102.7,12.4h37.1c4.6,0,7.1,2,7.1,5.7S-61,24-65.6,24c-24.8,0-49.7,0-74.5-.2a8.3,8.3,0,0,1-5.8-3,6.1,6.1,0,0,1,.2-5.7,7.6,7.6,0,0,1,5.6-2.6C-127.6,12.3-115.2,12.4-102.7,12.4Z" transform="translate(155.6 147.4)"/><path class="cls-7" d="M-103.1,41.9c-9.6,0-19.2.1-28.8,0-4.4,0-6.8-2.8-6.1-6.9s2.8-4.7,6.1-4.6h58.4c4.2,0,6.3,2,6.3,5.7s-2.2,5.8-6.3,5.8C-83.3,42-93.2,41.9-103.1,41.9Z" transform="translate(155.6 147.4)"/><path class="cls-4" d="M203.7,56.5c.2,7.8-.6,15.5-3.9,22.6-.7,1.5-2.4,2.6-3.6,3.9-1.2-1.3-2.9-2.4-3.5-4a54,54,0,0,1-3.6-28.9,143.4,143.4,0,0,1,4.1-16.9c.4-1.3,2.1-2.2,3.1-3.3,1.1,1.1,2.6,2,3.2,3.3C203.1,40.6,203.8,48.5,203.7,56.5Z" transform="translate(155.6 147.4)"/><path class="cls-4" d="M79.5,56.2c-1.4,7.4-2.5,14.2-4.2,20.9-.6,2.2-2.9,4-4.4,5.9-1.4-1.9-3.3-3.6-4.2-5.7-3.4-9.2-3.9-18.8-2.9-28.3a84.9,84.9,0,0,1,3.3-14.1c.6-1.9,2.7-3.3,4-5,1.3,1.6,3.3,3.1,3.7,4.9C76.7,41.9,78,49.2,79.5,56.2Z" transform="translate(155.6 147.4)"/><path class="cls-8" d="M173.8-128.6l29.4,12.2-29.4,12.2Z" transform="translate(155.6 147.4)"/><path class="cls-9" d="M185.6,80a22.1,22.1,0,0,1-11.8-16.7c-1.2-8.7-.9-17.5,5.3-24.7,1.7-2.1,4.3-3.4,6.5-5-2.4,8.5-3.8,17.1-3,26,.5,5.7,1.6,11.4,2.5,17.1C185.2,77.8,185.4,78.9,185.6,80Z" transform="translate(155.6 147.4)"/><path class="cls-9" d="M81.7,33.8c4.6.9,10.8,9.3,11.7,15.4,2.1,13.9-2.3,25.8-12,30.9A78.6,78.6,0,0,0,81.7,33.8Z" transform="translate(155.6 147.4)"/><path class="cls-9" d="M112.8,53c2.9,0,5.9.2,8.9,0s3.3.6,3.3,3.1-.9,3-3.1,3q-9.3-.1-18.6,0c-2.2,0-3.1-.6-3.2-3s1-3.2,3.3-3.1S109.6,53,112.8,53Z" transform="translate(155.6 147.4)"/><path class="cls-10" d="M155.4-119.2c3,0,6,.1,9,0s3.3.6,3.3,3.1-.9,3-3.1,2.9H145.9c-2.2.1-3.1-.5-3.1-2.9s.9-3.2,3.3-3.1S152.3-119.2,155.4-119.2Z" transform="translate(155.6 147.4)"/><path class="cls-10" d="M111.6-113.2h-9.7c-2.4.1-2.5-1.3-2.5-3.1s.2-2.9,2.4-2.9q10,.2,20.1,0c2.6,0,2.2,1.7,2.3,3.3s-.5,2.8-2.5,2.7Z" transform="translate(155.6 147.4)"/><path class="cls-9" d="M154.7,59c-2.9,0-5.7-.1-8.6.1s-3.3-.6-3.3-3.2.9-2.9,3.1-2.9c6,.1,12,.1,17.9,0,2.2,0,3.1.6,3.1,2.9s-.9,3.3-3.3,3.2S157.7,59,154.7,59Z" transform="translate(155.6 147.4)"/><path class="cls-11" d="M136.7-104.4h-6.2c0-6.1-.1-12.1.2-18,0-1.1,1.9-2.1,2.9-3.2,1,1.1,2.9,2.1,2.9,3.2C136.8-116.4,136.7-110.5,136.7-104.4Z" transform="translate(155.6 147.4)"/><path class="cls-12" d="M130.8,44.1h5.9c0,6.1.2,12-.1,18-.1,1-2,1.9-3.1,2.9-.9-1.1-2.5-2.2-2.6-3.3C130.6,56,130.8,50.3,130.8,44.1Z" transform="translate(155.6 147.4)"/><polygon class="cls-9" points="341.2 227.4 341.5 227.6 341.4 227.7 341.2 227.4"/><polygon class="cls-9" points="341.2 181 341.4 180.7 341.5 180.8 341.2 181"/><path class="cls-13" d="M53.1,110.8h50.1c5.6,0,9.1,3.5,9.1,9.1v59.5c0,5.5-3.5,9.1-8.8,9.1H53.1Zm41,39.7c4.1-2.9,4.1-10,1-13.7s-8.9-4.1-12.8-1.3c-1.6,1.1-2.6,2.9-3.8,4.4-6.7-5.2-11.4-3.8-14.6,4.4a5.4,5.4,0,0,1-2.2,2.3c-4.4,2.4-6.5,6.6-5.4,10.7s4.4,6.6,9.5,6.6c7.7,0,15.4-.1,23.1.1,3.8,0,6.8-1.2,8-4.9S97.6,152.5,94.1,150.5Zm-5.7-24.7h-1v5.6h1Zm11.3,16.9v1.1h5.6v-1.1Z" transform="translate(155.6 147.4)"/><path class="cls-14" d="M-7.6,110.8H52.3v77.7H-7.6Zm36.7,35.8,2-1.6-2-1.4,1.2-8.5c-1.3-1.5-2.3-3.4.3-6.4s-.7-2.2-2.2-2.3c-.2-1.8-.1-3.9-.9-5.4a5.6,5.6,0,0,0-6.8-2.6c-2.9.9-4.4,3-4.4,6.2,0,9.4-.1,18.9,0,28.4.1,3.7-.6,6.4-3.6,9-5.6,5-5.3,14.4.1,19.4s14.9,4.9,19.9-.7,4.6-14.9-1.3-19.7a5.8,5.8,0,0,1-2.6-5.3l2.2-2.6C27.8,151.7,29.5,148.9,29.1,146.6Z" transform="translate(155.6 147.4)"/><path class="cls-15" d="M-7.6,110.8v77.7H-58.1c-5.8,0-9.4-3.7-9.4-9.7V120.9c0-6.6,3.5-10.2,10.2-10.2ZM-57,154.4c-.1,13.4,8.2,21.8,19.6,21.5s18.6-10,17.7-20.4a40.4,40.4,0,0,0-16.4-29.4,4.8,4.8,0,0,0-4.5,0C-50.7,133.5-56.2,143.6-57,154.4Z" transform="translate(155.6 147.4)"/><path class="cls-16" d="M52.3,188.5V110.8h.8v77.7Z" transform="translate(155.6 147.4)"/><path class="cls-17" d="M94.1,150.5c3.5,2,3.9,5.3,2.8,8.6s-4.2,4.9-8,4.9c-7.7-.2-15.4-.1-23.1-.1-5.1,0-8.4-2.3-9.5-6.6s1-8.3,5.4-10.7a5.4,5.4,0,0,0,2.2-2.3c3.2-8.2,7.9-9.6,14.6-4.4,1.1.8,2.1,2.1,3.3,2.2,3.2.5,6,1.6,7.1,4.6S91.7,150.2,94.1,150.5Z" transform="translate(155.6 147.4)"/><path class="cls-18" d="M94.1,150.5c-2.4-.3-4.2-1.2-5.2-3.8s-3.9-4.1-7.1-4.6c-1.2-.1-2.2-1.4-3.3-2.2,1.2-1.5,2.2-3.3,3.8-4.4,3.9-2.8,10.1-2,12.8,1.3S98.2,147.6,94.1,150.5Z" transform="translate(155.6 147.4)"/><path class="cls-19" d="M88.4,125.8v5.6h-1v-5.6Z" transform="translate(155.6 147.4)"/><path class="cls-19" d="M99.7,142.7h5.6v1.1H99.7Z" transform="translate(155.6 147.4)"/><path class="cls-20" d="M28.8,155.7a5.8,5.8,0,0,0,2.6,5.3c5.9,4.8,6.3,14,1.3,19.7s-14.3,5.9-19.9.7S7.1,167,12.7,162c3-2.6,3.7-5.3,3.6-9-.1-9.5,0-19,0-28.4,0-3.2,1.5-5.3,4.4-6.2a5.6,5.6,0,0,1,6.8,2.6c.8,1.5.7,3.6.9,5.4H26.2c-.2-2.7-.5-5.5-4.3-5.1s-3.2,3.1-3.2,5.6c-.1,4.7,0,9.4.1,14s-.2,11.2-.1,16.8c.1,3.1-.4,5.3-2.9,7.4s-3.5,9.2-.1,12.8a9.5,9.5,0,0,0,12.8.6c3.9-3.6,4.8-9.7.9-12.9s-3.5-6.1-3.3-9.8Z" transform="translate(155.6 147.4)"/><path class="cls-21" d="M26.2,126.3h2.2c1.5.1,4.2,0,2.2,2.3s-1.6,4.9-.3,6.4c-.4,3.3-.8,5.9-1.2,8.5l-2.3-1.4v-1.4a19.8,19.8,0,0,0-1.9-3.1,12.8,12.8,0,0,0-2.3-1.4c.8-.6,1.7-1.1,2.4-1.7s1.7-1.6,1.7-2.4-.8-1.9-1.4-2.6a16.5,16.5,0,0,0-2.7-1.9Z" transform="translate(155.6 147.4)"/><path class="cls-21" d="M28.8,155.7H26.1l-3.5-1.4c.4-.5.7-1.4,1-1.4,3.9-.3,3.2-3,3.2-5.5l2.3-.8c.4,2.3-1.3,5.1,1.9,6.5Z" transform="translate(155.6 147.4)"/><path class="cls-22" d="M29.1,146.6l-2.3.8-4.2-2.3,3.6-2.1a2.4,2.4,0,0,0,.6-.8l2.3,1.4,2,1.4Z" transform="translate(155.6 147.4)"/><path class="cls-23" d="M-57,154.4c.8-10.8,6.3-20.9,16.4-28.3a4.8,4.8,0,0,1,4.5,0,40.4,40.4,0,0,1,16.4,29.4c.9,10.4-7.8,20.1-17.7,20.4S-57.1,167.8-57,154.4Z" transform="translate(155.6 147.4)"/><path class="cls-24" d="M26.8,142.2a2.4,2.4,0,0,1-.6.8l-3.6,2.1,4.2,2.3c0,2.5.7,5.2-3.2,5.5-.3,0-.6.9-1,1.4l3.5,1.4c-.2,3.7-.3,6.9,3.3,9.8s3,9.3-.9,12.9a9.5,9.5,0,0,1-12.8-.6c-3.4-3.6-3.6-9.6.1-12.8s3-4.3,2.9-7.4c-.1-5.6,0-11.2.1-16.8h8Z" transform="translate(155.6 147.4)"/><path class="cls-25" d="M26.8,140.8h-8c-.1-4.6-.2-9.3-.1-14,0-2.5-.2-5.3,3.2-5.6s4.1,2.4,4.3,5.1l-3.6,1.4a16.5,16.5,0,0,1,2.7,1.9c.6.7,1.5,1.7,1.4,2.6s-1,1.7-1.7,2.4-1.6,1.1-2.4,1.7a12.8,12.8,0,0,1,2.3,1.4A19.8,19.8,0,0,1,26.8,140.8Z" transform="translate(155.6 147.4)"/></svg>