<svg id="Layer_1" data-name="Layer 1" xmlns="http://www.w3.org/2000/svg" width="383.1" height="383.2" viewBox="0 0 383.1 383.2"><defs><style>.cls-1{fill:#cbedfe;}.cls-2{fill:#e5fafe;}.cls-3{fill:#98dcfe;}.cls-4{fill:#80a9fe;}.cls-5{fill:#8080fe;}.cls-6{fill:#80aafe;}.cls-7{fill:#99dcfe;}</style></defs><path class="cls-1" d="M27.6-163.2c27.2.2,53.3,5.3,78.1,16.5A193.8,193.8,0,0,1,159-111a189.9,189.9,0,0,1,40.8,55.1c8.7,17.7,15,36.3,17.2,56,1.1,10.2,2.2,20.5,2.1,30.8C218.7,58.5,213,85,200.9,110a195,195,0,0,1-35.4,51.3,189.7,189.7,0,0,1-73.1,47.5,179.9,179.9,0,0,1-49.7,10.5c-.5,0-1.1.5-1.6.7H27.6V197.6c8.2-.6,16.4-.5,24.4-1.7a167.1,167.1,0,0,0,57.8-19.6c13.3-7.5,25.6-16.3,36.1-27.4,5.1-5.7,10.1-11.4,15.1-17.2a10,10,0,0,0,2.3-2.3c5.7-9.5,11.4-18.9,17-28.4l9.2-24c5.2-14.8,7-30.2,7.1-45.7a197.1,197.1,0,0,0-3.1-35.9c-5.8-30.7-19.7-57.7-40.7-80.9a163.7,163.7,0,0,0-51.7-38.6,166.9,166.9,0,0,0-73.5-16.7Z" transform="translate(164 163.2)"/><path class="cls-2" d="M27.6-163.2v22.4h0c-9.1.8-18.3,1-27.4,2.4-23.7,3.5-45.5,12.3-65.5,25.4a166.9,166.9,0,0,0-39.2,35.8c-14.5,18.1-25.1,38.3-30.9,60.7-2.8,10.8-3.8,22.1-5.4,33.3s-.6,24.8,1.2,37c1.2,7.6,3.2,15.1,4.8,22.6,3.5,8.4,6.9,16.9,10.4,25.4a127.8,127.8,0,0,0,19.5,31.4l15,16.4a24,24,0,0,0,4.1,4.3c8.4,6.4,16.5,13.3,25.4,18.8,27,16.5,56.3,25,88.1,24.8h-.1V220h-12a15.5,15.5,0,0,0-2.3-.7c-9.8-1.5-19.7-2.3-29.4-4.4a184.2,184.2,0,0,1-54.7-22,197.4,197.4,0,0,1-50-43.3,181.2,181.2,0,0,1-26.5-43,183.2,183.2,0,0,1-15.2-55.4c-.4-3.6-1-7.2-1.5-10.8v-24c.5-3.6,1.1-7.3,1.5-10.9,1.9-19.4,7.5-37.9,15.3-55.7a182.2,182.2,0,0,1,26.4-42.7,196.9,196.9,0,0,1,56-46.7,189.9,189.9,0,0,1,61-21.1C6.5-162.4,17.1-162.4,27.6-163.2Z" transform="translate(164 163.2)"/><path class="cls-3" d="M27.6-140.8a166.9,166.9,0,0,1,73.5,16.7,163.7,163.7,0,0,1,51.7,38.6c21,23.2,34.9,50.2,40.7,80.9a197.1,197.1,0,0,1,3.1,35.9c-.1,15.5-1.9,30.9-7.1,45.7-1.4.3-3,.4-4.3.8-9.2,3.1-17.1.8-24.1-5.4a49,49,0,0,0-29.2-12.6c-14.6-1.2-27,3.7-37.9,13.3a24.7,24.7,0,0,1-32.7-.2c-9.6-8.7-20.5-13.8-33.7-13.1V37.4c6-1,12.1-1.5,17.8-3.1C70.7,27.2,84.4,6.9,86-16.6,87-33.4,82.9-49.1,75.3-64c-9.9-19.5-23.6-36.2-39.6-50.9-2.1-1.9-5.4-2.4-8.1-3.5v-22.4Z" transform="translate(164 163.2)"/><path class="cls-4" d="M180.3,101c-5.6,9.5-11.3,18.9-17,28.4a10,10,0,0,1-2.3,2.3,16.7,16.7,0,0,1-2.3-1.2c-9.5-7.9-20.4-11.3-32.8-10.9s-20.9,4-29.1,11.5c-11.1,10-25.8,10.7-37.2.2C50.7,123,39.7,119.4,27.7,119c-.1-12.5-.1-25-.1-37.4,7.8.2,14.1,3.8,19.9,8.8a45.1,45.1,0,0,0,29.4,11.2A47.2,47.2,0,0,0,111,88.3c8.8-8.4,24.8-8.2,33.3-.5C154.5,97.1,166.3,101.9,180.3,101Z" transform="translate(164 163.2)"/><path class="cls-5" d="M180.3,101c-14,.9-25.8-3.9-36-13.2-8.5-7.7-24.5-7.9-33.3.5a47.2,47.2,0,0,1-34.1,13.3A45.1,45.1,0,0,1,47.5,90.4c-5.8-5-12.1-8.6-19.9-8.8h0c0-7.3,0-14.5.1-21.7h-.1c13.2-.7,24.1,4.4,33.7,13.1a24.7,24.7,0,0,0,32.7.2c10.9-9.6,23.3-14.5,37.9-13.3a49,49,0,0,1,29.2,12.6c7,6.2,14.9,8.5,24.1,5.4,1.3-.4,2.9-.5,4.3-.8Z" transform="translate(164 163.2)"/><path class="cls-4" d="M145.9,148.9c-10.5,11.1-22.8,19.9-36.1,27.4A167.1,167.1,0,0,1,52,195.9c-8,1.2-16.2,1.1-24.4,1.7h.1c-.1-18.7-.1-37.4-.1-56.1,7.5.3,13.7,3.6,19.4,8.4,16.8,14.4,39.5,15.6,57.9,3.2,2.7-1.9,5.2-4.2,7.9-6.3C121.9,139.8,135.8,139.8,145.9,148.9Z" transform="translate(164 163.2)"/><path class="cls-5" d="M145.9,148.9c-10.1-9.1-24-9.1-33.1-2.2-2.7,2.1-5.2,4.4-7.9,6.3-18.4,12.4-41.1,11.2-57.9-3.2-5.7-4.8-11.9-8.1-19.4-8.4h0V119h0c12,.4,23,4,31.9,12.3,11.4,10.5,26.1,9.8,37.2-.2,8.2-7.5,18-11.1,29.1-11.5s23.3,3,32.8,10.9a16.7,16.7,0,0,0,2.3,1.2C156,137.5,151,143.2,145.9,148.9Z" transform="translate(164 163.2)"/><path class="cls-1" d="M27.6,37.4V59.8h.1C14.6,58.8,4,64.2-5.5,72.5s-23.9,8.3-33.1,0c-7.2-6.4-15.3-10.7-25-12.1-15.3-2.2-28.9,1-40.4,11.6-5.6,5.1-12.2,7.8-19.7,7.2-3.8-.4-7.4-1.9-11.1-2.8-1.6-7.5-3.6-15-4.8-22.6-1.8-12.2-3.1-24.6-1.2-37s2.6-22.5,5.4-33.3c5.8-22.4,16.4-42.6,30.9-60.7A166.9,166.9,0,0,1-65.3-113c20-13.1,41.8-21.9,65.5-25.4,9.1-1.4,18.3-1.6,27.4-2.4v22.4h.1c-3,1.4-6.5,2.1-8.8,4.2A169.8,169.8,0,0,0,3.8-98.6C-10.4-82.5-21.8-64.8-28-43.9c-4.4,14.7-5,29.6.5,44,9.5,25,31.4,36.4,55.2,37.2Z" transform="translate(164 163.2)"/><path class="cls-3" d="M27.6,81.6c0,12.4,0,24.9.1,37.4h0c-4.7.7-9.4,1.1-13.9,2.3-7.7,2-14,6.6-20.1,11.6-9.9,8.1-23.6,7.3-33.1-1.1A65.5,65.5,0,0,0-50,124.3c-9.3-5.3-19.7-5.7-29.8-4.3s-18.6,5.3-25.1,13.2a127.8,127.8,0,0,1-19.5-31.4c3.4-.3,6.9-.4,10.4-.9,8.8-1.2,17.1-4.5,23.2-10.9,9.2-9.6,26.9-10.8,37.9-.4C-37.1,104.5-9,104.9,7.4,90.8c5.9-5,12.2-9,20.2-9.2Z" transform="translate(164 163.2)"/><path class="cls-6" d="M27.6,81.6c-8,.2-14.3,4.2-20.2,9.2C-9,104.9-37.1,104.5-52.9,89.6c-11-10.4-28.7-9.2-37.9.4-6.1,6.4-14.4,9.7-23.2,10.9-3.5.5-7,.6-10.4.9-3.5-8.5-6.9-17-10.4-25.4,3.7.9,7.3,2.4,11.1,2.8,7.5.6,14.1-2.1,19.7-7.2,11.5-10.6,25.1-13.8,40.4-11.6,9.7,1.4,17.8,5.7,25,12.1,9.2,8.3,23.7,8.2,33.1,0S14.6,58.8,27.7,59.9C27.6,67.1,27.6,74.3,27.6,81.6Z" transform="translate(164 163.2)"/><path class="cls-7" d="M27.6,141.4c0,18.7,0,37.4.1,56.1-31.8.2-61.1-8.3-88.1-24.8-8.9-5.5-17-12.4-25.4-18.8a24,24,0,0,1-4.1-4.3,26.5,26.5,0,0,1,2.9-2.9c9-6.6,24-6.8,34.2,2.8,15.7,14.9,43.8,15.3,60.2,1.2,5.9-5,12.2-9,20.2-9.3Z" transform="translate(164 163.2)"/><path class="cls-6" d="M27.6,141.4c-8,.3-14.3,4.3-20.2,9.3-16.4,14.1-44.5,13.7-60.2-1.2C-63,139.9-78,140.1-87,146.7a26.5,26.5,0,0,0-2.9,2.9l-15-16.4c6.5-7.9,15.5-11.9,25.1-13.2s20.5-1,29.8,4.3a65.5,65.5,0,0,1,10.6,7.5c9.5,8.4,23.2,9.2,33.1,1.1,6.1-5,12.4-9.6,20.1-11.6,4.5-1.2,9.2-1.6,13.9-2.3C27.6,126.5,27.6,134,27.6,141.4Z" transform="translate(164 163.2)"/><path class="cls-5" d="M27.6-118.4c2.7,1.1,6,1.6,8.1,3.5,16,14.7,29.7,31.4,39.6,50.9C82.9-49.1,87-33.4,86-16.6,84.4,6.9,70.7,27.2,45.4,34.3c-5.7,1.6-11.8,2.1-17.8,3.1h.1V-118.3Z" transform="translate(164 163.2)"/><path class="cls-4" d="M27.7-118.3V37.3C3.9,36.5-18,25.1-27.5.1c-5.5-14.4-4.9-29.3-.5-44,6.2-20.9,17.6-38.6,31.8-54.7a169.8,169.8,0,0,1,15.1-15.5C21.2-116.2,24.7-116.9,27.7-118.3Z" transform="translate(164 163.2)"/></svg>