<svg id="Layer_1" data-name="Layer 1" xmlns="http://www.w3.org/2000/svg" width="383.5" height="383.2" viewBox="0 0 383.5 383.2"><defs><style>.cls-1{fill:#c6e52f;}.cls-2{fill:#95cb2a;}.cls-3{fill:#f1f1e5;}.cls-4{fill:#8c624d;}.cls-5{fill:#d8d8b8;}.cls-6{fill:#733f33;}.cls-7{fill:#c6e52e;}.cls-8{fill:#94cb29;}.cls-9{fill:#6bb224;}.cls-10{fill:#95cb29;}</style></defs><path class="cls-1" d="M-164,13.4c.7-4.5,1.5-9,2.1-13.5q8.6-56.5,46.7-99.2c27-30.1,60.2-49.9,99.6-59.1a174.8,174.8,0,0,1,43.3-4.8v22.3c-9.2.8-18.4,1-27.5,2.4-32.9,5.2-61.9,19-86.2,41.6-40,37.2-58.4,83.4-54.9,138,1.7,26.8,9.8,51.5,23.6,74.4,3.3,5.6,7.6,10.7,11.5,16a16.1,16.1,0,0,0,1.7,2.8,167.5,167.5,0,0,0,75.4,53.6c18.2,6.5,37.1,9.4,56.4,9.8V220h-15a10.1,10.1,0,0,0-2.3-.7c-8.8-1.5-17.6-2.4-26.2-4.3-39.6-9.2-72.9-29.2-99.8-59.5a186.7,186.7,0,0,1-46.3-98.7c-.6-4.5-1.4-9-2.1-13.5Z" transform="translate(164 163.2)"/><path class="cls-2" d="M27.7,220V197.4c7.2-.4,14.4-.6,21.5-1.4a158.9,158.9,0,0,0,57.4-17.9,162.6,162.6,0,0,0,50.5-40.9c6.1-7.6,11.2-16.1,16.7-24.2a21.5,21.5,0,0,0,1.8-2.4,167.8,167.8,0,0,0,21.1-75.1A161.3,161.3,0,0,0,189-22.6c-11.9-37-33.9-66.7-65.8-88.7a164.6,164.6,0,0,0-95.6-29.4v-22.5c31.5-.2,61.4,6.9,89.1,21.9,51,27.7,84.7,69.6,97.4,126.5,14.5,64.8-.8,122.9-45.3,172.5C139.5,190.5,102.4,210,59,217.5c-4.5.7-9.1,1.1-13.7,1.7l-2.7.8Z" transform="translate(164 163.2)"/><path class="cls-3" d="M-105.8,131.5c-3.9-5.3-8.2-10.4-11.5-16-13.8-22.9-21.9-47.6-23.6-74.4C-144.4-13.5-126-59.7-86-96.9c24.3-22.6,53.3-36.4,86.2-41.6,9.1-1.4,18.3-1.6,27.5-2.4v.2c.1,7.4.1,14.8.1,22.2L16.4-113A209.1,209.1,0,0,0-26.9-75l-13,17.2c-3.3,6-7.1,11.9-9.9,18.3A75,75,0,0,0-56.6-3.9c.9,17,7.2,32.4,16.5,46.5C-25.3,65.1-5.6,82.8,16.4,98c0,9.4,0,18.8-.1,28.3a156,156,0,0,0-45.2-10.6A140.4,140.4,0,0,0-105.8,131.5Z" transform="translate(164 163.2)"/><path class="cls-4" d="M-105.8,131.5a140.4,140.4,0,0,1,76.9-15.8,156,156,0,0,1,45.2,10.6L27,131l.7.7v66c-19.3-.4-38.2-3.3-56.4-9.8a167.5,167.5,0,0,1-75.4-53.6A16.1,16.1,0,0,1-105.8,131.5Z" transform="translate(164 163.2)"/><path class="cls-5" d="M27.7-118.5c0-7.4,0-14.8-.1-22.2a164.6,164.6,0,0,1,95.6,29.4c31.9,22,53.9,51.7,65.8,88.7a161.3,161.3,0,0,1,7.7,58.1,167.8,167.8,0,0,1-21.1,75.1,21.5,21.5,0,0,1-1.8,2.4L144,123.7c-18.6,6.5-36.5,14.9-56.4,16.6-16.6,1.5-32.9.4-48.7-4.9V98A222.9,222.9,0,0,0,81.6,60.8c16-18.4,28.4-38.7,30.3-63.9a64.5,64.5,0,0,0-4.1-28.5c-3.4-7.5-6.9-15.1-10.4-22.6a26.4,26.4,0,0,0-1.5-2.9c-15-22.8-34.6-40.8-57-55.9-3.5-2.4-6.6-5.5-11.3-5.2Z" transform="translate(164 163.2)"/><path class="cls-6" d="M38.9,135.4c15.8,5.3,32.1,6.4,48.7,4.9,19.9-1.7,37.8-10.1,56.4-16.6L173.8,113c-5.5,8.1-10.6,16.6-16.7,24.2a162.6,162.6,0,0,1-50.5,40.9A158.9,158.9,0,0,1,49.2,196c-7.1.8-14.3,1-21.5,1.4V131.7Z" transform="translate(164 163.2)"/><path class="cls-7" d="M16.4,98c-22-15.2-41.7-32.9-56.5-55.4C-49.4,28.5-55.7,13.1-56.6-3.9a75,75,0,0,1,6.8-35.6c2.8-6.4,6.6-12.3,9.9-18.3l3,3.3c17,17,34,33.9,50.9,51a8,8,0,0,1,2.3,5.1C16.5,33.7,16.4,65.9,16.4,98Z" transform="translate(164 163.2)"/><path class="cls-8" d="M16.4,98c0-32.1.1-64.3-.1-96.4A8,8,0,0,0,14-3.5c-16.9-17.1-33.9-34-50.9-51l-3-3.3,13-17.2a31.8,31.8,0,0,1,3.5,2.6L13.1-36l3.3,3.1V-113l11.3-5.5v.3q.1,122.9,0,245.6A22.5,22.5,0,0,1,27,131l-10.7-4.7C16.4,116.8,16.4,107.4,16.4,98Z" transform="translate(164 163.2)"/><path class="cls-7" d="M16.4-113v80.1L13.1-36-23.4-72.4A31.8,31.8,0,0,0-26.9-75,209.1,209.1,0,0,1,16.4-113Z" transform="translate(164 163.2)"/><path class="cls-9" d="M27,131a22.5,22.5,0,0,0,.6-3.6q.1-122.8,0-245.6c4.7-.3,7.8,2.8,11.3,5.2V4.4l2.5-2.1L95.5-51.9a21.1,21.1,0,0,0,1.9-2.3c3.5,7.5,7,15.1,10.4,22.6a22.3,22.3,0,0,0-3,2q-32.1,32-63.9,64A7,7,0,0,0,39,38.9c-.1,19.7-.1,39.4-.1,59.1v37.4l-11.2-3.7Z" transform="translate(164 163.2)"/><path class="cls-10" d="M38.9,98c0-19.7,0-39.4.1-59.1a7,7,0,0,1,1.9-4.5q31.8-32.1,63.9-64a22.3,22.3,0,0,1,3-2,64.5,64.5,0,0,1,4.1,28.5C110,22.1,97.6,42.4,81.6,60.8A222.9,222.9,0,0,1,38.9,98Z" transform="translate(164 163.2)"/><path class="cls-8" d="M97.4-54.2a21.1,21.1,0,0,1-1.9,2.3L41.4,2.3,38.9,4.4V-113c22.4,15.1,42,33.1,57,55.9A26.4,26.4,0,0,1,97.4-54.2Z" transform="translate(164 163.2)"/></svg>