<svg id="Layer_1" data-name="Layer 1" xmlns="http://www.w3.org/2000/svg" width="371.3" height="371.3" viewBox="0 0 371.3 371.3"><defs><style>.cls-1{fill:#040505;}.cls-2{fill:#070605;}.cls-3{fill:#050505;}.cls-4{fill:#050403;}.cls-5{fill:#070707;}.cls-6{fill:#89c7fc;}.cls-7{fill:#89c8fc;}.cls-8{fill:#5eb3f9;}.cls-9{fill:#e7b475;}.cls-10{fill:#bde754;}.cls-11{fill:#bee854;}.cls-12{fill:#eab977;}.cls-13{fill:#dfa46d;}.cls-14{fill:#d6eafc;}.cls-15{fill:#bcd8f3;}.cls-16{fill:#5daff3;}.cls-17{fill:#fadd75;}.cls-18{fill:#040302;}.cls-19{fill:#030404;}.cls-20{fill:#020304;}.cls-21{fill:#7f737f;}.cls-22{fill:#c2e0fd;}</style></defs><path class="cls-1" d="M147.1,24.9H89.4c-6.4,0-7.4-1-8.9-7.1-5.4-23.1-19.8-37.3-43-42.5-5.1-1.2-6.5-2.6-6.5-7.8q-.2-58.6,0-117.2c0-5.8,2.3-7.9,8-7.6,78.9,4.2,148.5,61.1,168.1,137.9,3,11.7,4.3,23.8,6,35.7.9,6.4-1.5,8.6-8,8.6Zm48.2-12.2h5.6c-4.9-46.4-24.2-85.2-59.1-115.8-28.2-24.6-61.2-38.3-98.9-41.8.1,2.3.2,3.9.3,5.5a4.3,4.3,0,0,0-.2,1.1q0,50-.1,99.9c0,2,.7,2.7,2.7,3.3A66,66,0,0,1,76.3-16.2c.7.8,1.8,1.8,2.6,1.8,8.8.2,17.6.1,27.3.1-1.9-5.6-3.6-10.5-5.2-15.4-.7-2.1-2-2.8-4.3-2.5-10.9,1.3-20.1-2.5-27.4-10.6-3.7-4-6.6-8.8-10.3-12.8A113.5,113.5,0,0,0,47.6-66.1c-2.2-1.8-3.6-3.8-3.2-6.7a6.1,6.1,0,0,1,5.3-5.6c7.6-.9,15.3-2.6,22.9-2.2,19.4,1,31,11.1,34.8,29,.4,1.8.8,3.7,1.1,5.5,2.2-16.6,12.1-26.3,27.3-31,6.4-1.9,13.2-2.4,19.8-3.6,8.2.2,11,3.8,8.1,10.8-4.6,3.3-6.8,8.1-8.8,13.1s-4.6,11.5-7.5,17a30.8,30.8,0,0,1-20.8,15.7c-6,1.3-6.1,1.3-6.9,7.4a14.8,14.8,0,0,0-.1,2.1l.9.3c8.7,0,17.4.5,26.1-.1s12,1.7,15.2,8.4,6.5,11.1,10,16.6c.7,1,2.2,2.2,3.4,2.2C181.9,12.9,188.6,12.8,195.3,12.7Zm-36.3.2c-2.7-4.5-5.2-8.4-7.4-12.4a5,5,0,0,0-5-2.8H86.5C88,2,89.7,5.7,90.7,9.6s2,3.4,4.7,3.4H159ZM96.2-44.2c-1.4-17.9-15.1-28.3-32-24,5.5,6.7,10.6,13.4,16.3,19.5C84.6-44.4,90.2-43.3,96.2-44.2Zm25.6,8.7c6.7-.9,11.9-3.9,14.9-9.7s6.4-14.4,9.7-21.9C128-65.4,118-52.5,121.8-35.5Z" transform="translate(158 157.3)"/><path class="cls-2" d="M147.4,31.7H205c6.6,0,8.6,2.2,8.1,8.6A186.1,186.1,0,0,1,79.5,206.9a184.8,184.8,0,0,1-40.4,7c-5.8.4-8.1-1.8-8.1-7.5-.1-39.1-.1-78.1,0-117.2,0-5.2,1.3-6.8,6.5-7.8C59.8,76.9,76,60.8,80.6,38.5c1.2-5.7,2.5-6.8,8.4-6.8ZM195.3,44l-1.1-.2H94.3c-2.6,0-2.9,1.4-3.5,3.3-7.2,22.5-22,37.4-44.6,44.5-2.4.8-3.3,1.7-3.3,4.3.1,32.6.1,65.1.1,97.7a24.6,24.6,0,0,0,.2,2.6v5.5c45.7-4.8,84.1-23.6,114.5-57.7,25.4-28.4,39.5-61.9,43.1-100.2Z" transform="translate(158 157.3)"/><path class="cls-3" d="M-91.8,24.9h-58c-6.6,0-8.8-2.1-8.1-8.6q11.3-115,117.4-160.9c17.9-7.7,36.9-11.3,56.3-12.7,6.2-.4,8.4,1.7,8.4,7.9q.2,58.2,0,116.5c0,5.7-1.2,7-6.9,8.2C-4.7-20.2-21-3.9-25.4,18.1c-1.2,5.7-2.5,6.8-8.4,6.8ZM12-139.4l.3-5.1C-67.8-140-140.1-71.1-145.2,12.9l5.1-.2,1.1.2h99.9c2.3,0,2.8-1.1,3.4-3,7.1-22.7,22-37.7,44.6-44.8,2.8-.9,3.4-2.1,3.4-4.7q-.2-48.4-.1-96.9C12.2-137.4,12.1-138.4,12-139.4Z" transform="translate(158 157.3)"/><path class="cls-1" d="M-91.8,31.7h58.1c5.8,0,7,1.2,8.3,6.9C-20,61.7-5.8,76,17.4,81.3c5.6,1.3,6.8,2.6,6.8,8.4q.2,57.9,0,116c0,6.6-2.2,8.7-8.9,8.2C-63.3,208.1-128,156.2-150.8,80.6A187.8,187.8,0,0,1-158,39.9c-.4-6,1.8-8.2,7.9-8.2Zm-48.3,12.2-5.1-.2c1.3,31.4,16.6,75.2,50,108,29.8,29.3,65.5,45.7,107.5,49.9-.1-2.2-.2-3.9-.3-5.6a12.3,12.3,0,0,0,.2-1.9q0-49.3.1-98.7c0-2.4-.9-3.1-3-3.8-22.5-7-37.6-21.7-44.7-44.3-1-3-2.3-3.6-5.2-3.6h-91.3Z" transform="translate(158 157.3)"/><path class="cls-4" d="M48.6,28.4a21,21,0,1,1-20.7-21A21,21,0,0,1,48.6,28.4Zm-12,0a9.1,9.1,0,0,0-9.1-9.1,9,9,0,1,0,9.1,9.1Z" transform="translate(158 157.3)"/><path class="cls-5" d="M10.6,5.8c-1,1.3-2.1,3.7-3.8,4.4A7.6,7.6,0,0,1,.7,9.6,47,47,0,0,1-6.8,2.3,5.5,5.5,0,0,1-6.9-5C-5.1-7.3-2.3-8.5,0-6.8S6.6-.5,9.7,2.8C10.2,3.3,10.2,4.2,10.6,5.8Z" transform="translate(158 157.3)"/><path class="cls-5" d="M50.2,11.4c-1.3-1-3.6-1.9-4.3-3.5s-.8-4.7.2-6.1a42.2,42.2,0,0,1,7.8-8c2.3-1.9,5-1.6,7.2.3S64.4-1.4,62.7.7c-2.8,3.6-6.3,6.6-9.6,9.8C52.6,10.9,51.7,10.9,50.2,11.4Z" transform="translate(158 157.3)"/><path class="cls-5" d="M10.9,51.2c-1,2-1.4,3.5-2.3,4.5A68.5,68.5,0,0,1,2,62.3a5.9,5.9,0,0,1-8.4-.1,5.7,5.7,0,0,1-.1-8.1A34.1,34.1,0,0,1,.4,47.3a8,8,0,0,1,6.4-.8C8.5,47.1,9.6,49.6,10.9,51.2Z" transform="translate(158 157.3)"/><path class="cls-5" d="M50.5,45c1.9,1,3.4,1.4,4.5,2.3a82.2,82.2,0,0,1,6.6,6.6,5.8,5.8,0,0,1-.2,8.4,5.7,5.7,0,0,1-8.1.1c-2.4-2.1-5-4.2-6.7-6.9a8,8,0,0,1-.8-6.4C46.4,47.4,48.8,46.3,50.5,45Z" transform="translate(158 157.3)"/><path class="cls-3" d="M33.6-9.1a40.1,40.1,0,0,1-.1,4.9,5.8,5.8,0,0,1-5.9,5.5,5.7,5.7,0,0,1-5.9-5.5c-.2-3.2-.2-6.5-.1-9.7a5.8,5.8,0,0,1,5.8-5.7c3.3-.1,5.8,2.1,6.1,5.7A38.5,38.5,0,0,1,33.6-9.1Z" transform="translate(158 157.3)"/><path class="cls-3" d="M-9.9,34.3c-1.6,0-3.3.1-4.9,0a6,6,0,0,1-5.6-5.9,5.8,5.8,0,0,1,5.5-6,85.1,85.1,0,0,1,10.1,0,5.7,5.7,0,0,1,5.4,6,5.7,5.7,0,0,1-5.3,5.8,30.1,30.1,0,0,1-5.2.1Z" transform="translate(158 157.3)"/><path class="cls-3" d="M65.5,22.3a33.8,33.8,0,0,1,4.5.1,5.7,5.7,0,0,1,5.5,5.8,5.6,5.6,0,0,1-5.4,6,85.1,85.1,0,0,1-10.1,0,5.7,5.7,0,0,1-5.4-6,5.8,5.8,0,0,1,5.6-5.8A46.9,46.9,0,0,1,65.5,22.3Z" transform="translate(158 157.3)"/><path class="cls-3" d="M33.6,66.1a33.8,33.8,0,0,1-.1,4.5,6,6,0,0,1-11.9-.1q-.2-4.6,0-9.3a5.9,5.9,0,0,1,6-5.9c3.3,0,5.7,2.4,6,6,.1,1.6,0,3.2,0,4.8Z" transform="translate(158 157.3)"/><path class="cls-6" d="M155.6-80.7c-6.6,1.2-13.4,1.7-19.8,3.6-15.2,4.7-25.1,14.4-27.3,31-.3-1.8-.7-3.7-1.1-5.5-3.8-17.9-15.4-28-34.8-29C65-81,57.3-79.3,49.7-78.4a6.1,6.1,0,0,0-5.3,5.6c-.4,2.9,1,4.9,3.2,6.7A113.5,113.5,0,0,1,59-55.6c3.7,4,6.6,8.8,10.3,12.8,7.3,8.1,16.5,11.9,27.4,10.6,2.3-.3,3.6.4,4.3,2.5,1.6,4.9,3.3,9.8,5.2,15.4-9.7,0-18.5.1-27.3-.1-.8,0-1.9-1-2.6-1.8A66,66,0,0,0,45.6-35.1c-2-.6-2.7-1.3-2.7-3.3q.1-49.9.1-99.9a4.3,4.3,0,0,1,.2-1.1l5.5.7a163.7,163.7,0,0,1,51.2,14.8,171.6,171.6,0,0,1,44.6,30.8C148.5-89.3,151.9-84.8,155.6-80.7Z" transform="translate(158 157.3)"/><path class="cls-7" d="M195.3,12.7c-6.7.1-13.4.2-20.1.1-1.2,0-2.7-1.2-3.4-2.2-3.5-5.5-7.2-10.8-10-16.6s-7.9-8.9-15.2-8.4-17.4.1-26.1.1l-.9-.3a14.8,14.8,0,0,1,.1-2.1c.8-6.1.9-6.1,6.9-7.4a30.8,30.8,0,0,0,20.8-15.7c2.9-5.5,5.1-11.3,7.5-17s4.2-9.8,8.8-13.1c2.8,3.9,5.9,7.7,8.4,11.8A164.7,164.7,0,0,1,195.3,12.7Z" transform="translate(158 157.3)"/><path class="cls-8" d="M195.3,12.7a164.7,164.7,0,0,0-23.2-70.8c-2.5-4.1-5.6-7.9-8.4-11.8,2.9-7,.1-10.6-8.1-10.8-3.7-4.1-7.1-8.6-11.1-12.4a171.6,171.6,0,0,0-44.6-30.8,163.7,163.7,0,0,0-51.2-14.8l-5.5-.7c-.1-1.6-.2-3.2-.3-5.5,37.7,3.5,70.7,17.2,98.9,41.8C176.7-72.5,196-33.7,200.9,12.7Z" transform="translate(158 157.3)"/><path class="cls-9" d="M159,12.9H95.4c-2.7,0-4-.6-4.7-3.4S88,2,86.5-2.3h60.1a5,5,0,0,1,5,2.8C153.8,4.5,156.3,8.4,159,12.9Z" transform="translate(158 157.3)"/><path class="cls-10" d="M96.2-44.2c-6,.9-11.6-.2-15.7-4.5-5.7-6.1-10.8-12.8-16.3-19.5C81.1-72.5,94.8-62.1,96.2-44.2Z" transform="translate(158 157.3)"/><path class="cls-11" d="M121.8-35.5c-3.8-17,6.2-29.9,24.6-31.6-3.3,7.5-6.1,14.9-9.7,21.9S128.5-36.4,121.8-35.5Z" transform="translate(158 157.3)"/><path class="cls-12" d="M43.2,196.1a24.6,24.6,0,0,1-.2-2.6c0-32.6,0-65.1-.1-97.7,0-2.6.9-3.5,3.3-4.3,22.6-7.1,37.4-22,44.6-44.5.6-1.9.9-3.3,3.5-3.3h99.9l1.1.2c-.8,5.8-1.3,11.8-2.5,17.6a164.2,164.2,0,0,1-19.9,51.8c-3.1,5.1-6.7,9.8-10.1,14.6l-1.5-3.7c-8.9-18.9-17.7-37.9-26.6-56.8-3.2-6.9-8.1-7.2-12.5-.9l-15,21.9-9.5-19c-1.2-2.5-3-4.9-5.9-4.3a9.2,9.2,0,0,0-5.7,3.9q-16.3,27.8-32.2,56c-3.1,5.4-.6,9.6,5.6,10h97.6a19.9,19.9,0,0,1-1.6,2.9,178.2,178.2,0,0,1-27,25.1,168.8,168.8,0,0,1-43.4,23.5A166.4,166.4,0,0,1,43.2,196.1Z" transform="translate(158 157.3)"/><path class="cls-13" d="M43.2,196.1a166.4,166.4,0,0,0,41.9-9.4,168.8,168.8,0,0,0,43.4-23.5,178.2,178.2,0,0,0,27-25.1,19.9,19.9,0,0,0,1.6-2.9c3.7-1,6-3,5.7-7.2,3.4-4.8,7-9.5,10.1-14.6a164.2,164.2,0,0,0,19.9-51.8c1.2-5.8,1.7-11.8,2.5-17.6l5.5-.3c-3.6,38.3-17.7,71.8-43.1,100.2C127.3,178,88.9,196.8,43.2,201.6Z" transform="translate(158 157.3)"/><path class="cls-14" d="M12-139.4c.1,1,.2,2,.2,3q0,48.5.1,96.9c0,2.6-.6,3.8-3.4,4.7C-13.7-27.7-28.6-12.7-35.7,10c-.6,1.9-1.1,3-3.4,3H-139l-1.1-.2c.6-4.5.8-9.1,1.7-13.6a167.8,167.8,0,0,1,29.1-68.9c2.3-3.3,5.5-6,8.4-9-1.4,4.4-2.7,8.8-4.2,13.1a5.8,5.8,0,0,1-1.8,2.6c-7.9,6.9-10.7,16.4-7.5,25.6s11.7,15,22.3,15c21.8.1,43.7.1,65.5,0,10.9,0,19.6-6.4,22.5-16.3S-5.2-58.7-14.3-64.7a6.4,6.4,0,0,1-2.4-3C-22.3-82.6-34-90-49.8-88.6a7.2,7.2,0,0,1-3.9-.6C-67-97.6-80-96.9-92.8-88.1c.5-1.1.8-2.4,1.6-3.1,4.7-4.4,9.4-8.9,14.5-12.8,18.1-14.1,38-24.6,60.3-30.2C-7.1-136.5,2.5-137.7,12-139.4Z" transform="translate(158 157.3)"/><path class="cls-15" d="M-100.9-78.8c-2.9,3-6.1,5.7-8.4,9A167.8,167.8,0,0,0-138.4-.9c-.9,4.5-1.1,9.1-1.7,13.6l-5.1.2c5.1-84,77.4-152.9,157.5-157.4l-.3,5.1c-9.5,1.7-19.1,2.9-28.4,5.2-22.3,5.6-42.2,16.1-60.3,30.2-5.1,3.9-9.8,8.4-14.5,12.8-.8.7-1.1,2-1.6,3.1Z" transform="translate(158 157.3)"/><path class="cls-6" d="M-140.1,43.9l8.2-.2h91.3c2.9,0,4.2.6,5.2,3.6,7.1,22.6,22.2,37.3,44.7,44.3,2.1.7,3,1.4,3,3.8q-.2,49.3-.1,98.7A12.3,12.3,0,0,1,12,196c-5.9-.8-11.8-1.3-17.6-2.5a168.3,168.3,0,0,1-51.6-19.6A169.8,169.8,0,0,1-107.4,129a169.4,169.4,0,0,1-23.5-43.5A163.8,163.8,0,0,1-140.1,43.9Zm74.5,82.3c-5.1-.2-9.2,2.1-13.1,5.3a19.1,19.1,0,0,1-7,3.8c-3.6,1-6,3.2-5.7,6.6s2.9,5.5,6.8,5.4,8.8-2.2,12.4-5.3c5.8-5.3,7.8-5.3,13.6-.2,8.4,7.5,18.1,7.5,26.5.1,6.1-5.2,7.8-5.2,13.9.2,3.8,3.4,8.1,5.4,13.2,5.2,3.3-.2,5.4-2,5.7-5.3s-1.7-5.6-4.8-6.6a23.3,23.3,0,0,1-7.7-3.9c-8.6-7.2-18.3-7.4-26.6,0-6,5.3-7.8,5.4-13.7.1C-55.9,128.1-60.2,126-65.6,126.2ZM-95.3,60.3c-5.4-.2-9.7,2.2-13.7,5.6a20.5,20.5,0,0,1-7.1,3.5c-3.4,1-5.6,3.4-5.3,6.6a5.9,5.9,0,0,0,6.1,5.4c5.3.1,9.6-2.1,13.4-5.6,5.4-4.9,7.6-4.9,13.1-.1,8.7,7.7,18.2,7.8,26.8.3,5.9-5.2,7.8-5.2,13.6.1,3.9,3.4,8.3,5.6,13.5,5.3A5.6,5.6,0,0,0-29.2,76c.3-3.2-1.8-5.5-5-6.5a22.1,22.1,0,0,1-7.4-3.6c-8.9-7.6-18.5-7.7-27.2.1-5.4,4.9-7.6,4.9-13-.1S-89.9,60.1-95.3,60.3Zm14.8,33c-5.2-.2-9.3,2-13.2,5.3a20.5,20.5,0,0,1-7,3.7c-3.6,1-6,3.3-5.7,6.6s3,5.6,6.8,5.5A19,19,0,0,0-87.2,109c5.8-5.2,7.8-5.2,13.7-.1,8.3,7.4,17.9,7.4,26.3.2,6.3-5.4,7.7-5.5,14.2.2,3.7,3.2,7.9,5.2,12.9,5.1a5.9,5.9,0,0,0,5.9-5.6c.1-3.2-2-5.4-5.1-6.4a20.6,20.6,0,0,1-7.4-3.7c-8.8-7.5-18.3-7.5-27,.1-5.7,5.1-7.6,5.1-13.3-.1C-70.9,95.2-75.2,93.1-80.5,93.3Z" transform="translate(158 157.3)"/><path class="cls-16" d="M-140.1,43.9a163.8,163.8,0,0,0,9.2,41.6A169.4,169.4,0,0,0-107.4,129a169.8,169.8,0,0,0,50.2,44.9A168.3,168.3,0,0,0-5.6,193.5C.2,194.7,6.1,195.2,12,196c.1,1.7.2,3.4.3,5.6-42-4.2-77.7-20.6-107.5-49.9-33.4-32.8-48.7-76.6-50-108Z" transform="translate(158 157.3)"/><path class="cls-17" d="M36.6,28.4a9,9,0,1,1-9.1-9.1A9.1,9.1,0,0,1,36.6,28.4Z" transform="translate(158 157.3)"/><path class="cls-18" d="M162.8,128c.3,4.2-2,6.2-5.7,7.2H59.5c-6.2-.4-8.7-4.6-5.6-10q15.9-28.2,32.2-56a9.2,9.2,0,0,1,5.7-3.9c2.9-.6,4.7,1.8,5.9,4.3l9.5,19,15-21.9c4.4-6.3,9.3-6,12.5.9,8.9,18.9,17.7,37.9,26.6,56.8ZM69,122.8h78.4c-6.7-14.2-13.2-28.1-19.9-42.5l-2.8,4-19.5,28.3c-2.4,3.5-5.8,4.2-8.7,2.2s-3.3-5.5-1.1-8.9c.9-1.5,2.1-2.9,2.9-4.4s.9-2,.6-2.6c-2.2-4.9-4.7-9.7-7.5-15.3Z" transform="translate(158 157.3)"/><path class="cls-19" d="M-100.9-78.8l8.1-9.3C-80-96.9-67-97.6-53.7-89.2a7.2,7.2,0,0,0,3.9.6c15.8-1.4,27.5,6,33.1,20.9a6.4,6.4,0,0,0,2.4,3c9.1,6,13.1,16,10.2,25.9S-15.7-22.5-26.6-22.5c-21.8.1-43.7.1-65.5,0-10.6,0-18.9-5.7-22.3-15s-.4-18.7,7.5-25.6a5.8,5.8,0,0,0,1.8-2.6C-103.6-70-102.3-74.4-100.9-78.8Zm41.3,44.4h32.9c6.1,0,10.4-3.5,11.4-9.1s-2.1-9.8-7.3-11.7c-3.1-1.1-4.5-3.1-5.1-6.2-2.2-11.3-12.1-17.6-23.1-14.6A8.2,8.2,0,0,1-59-78a19.6,19.6,0,0,0-15.9-4.9c-10.8,1.5-17.9,9.5-18.2,20.4-.1,3.2-.8,5.7-3.9,7.4-5.6,3.1-7.7,7.7-6.2,12.9s5.5,7.7,11.8,7.7Z" transform="translate(158 157.3)"/><path class="cls-20" d="M-65.6,126.2c5.4-.2,9.7,1.9,13.5,5.4,5.9,5.3,7.7,5.2,13.7-.1,8.3-7.4,18-7.2,26.6,0a23.3,23.3,0,0,0,7.7,3.9c3.1,1,5.2,3.3,4.8,6.6s-2.4,5.1-5.7,5.3c-5.1.2-9.4-1.8-13.2-5.2-6.1-5.4-7.8-5.4-13.9-.2-8.4,7.4-18.1,7.4-26.5-.1-5.8-5.1-7.8-5.1-13.6.2-3.6,3.1-7.6,5.2-12.4,5.3s-6.5-2.1-6.8-5.4,2.1-5.6,5.7-6.6a19.1,19.1,0,0,0,7-3.8C-74.8,128.3-70.7,126-65.6,126.2Z" transform="translate(158 157.3)"/><path class="cls-20" d="M-95.3,60.3c5.4-.2,9.6,2.1,13.5,5.6,5.4,5,7.6,5,13,.1,8.7-7.8,18.3-7.7,27.2-.1a22.1,22.1,0,0,0,7.4,3.6c3.2,1,5.3,3.3,5,6.5a5.6,5.6,0,0,1-5.7,5.4c-5.2.3-9.6-1.9-13.5-5.3-5.8-5.3-7.7-5.3-13.6-.1-8.6,7.5-18.1,7.4-26.8-.3-5.5-4.8-7.7-4.8-13.1.1-3.8,3.5-8.1,5.7-13.4,5.6a5.9,5.9,0,0,1-6.1-5.4c-.3-3.2,1.9-5.6,5.3-6.6a20.5,20.5,0,0,0,7.1-3.5C-105,62.5-100.7,60.1-95.3,60.3Z" transform="translate(158 157.3)"/><path class="cls-20" d="M-80.5,93.3c5.3-.2,9.6,1.9,13.5,5.4,5.7,5.2,7.6,5.2,13.3.1,8.7-7.6,18.2-7.6,27-.1a20.6,20.6,0,0,0,7.4,3.7c3.1,1,5.2,3.2,5.1,6.4a5.9,5.9,0,0,1-5.9,5.6c-5,.1-9.2-1.9-12.9-5.1-6.5-5.7-7.9-5.6-14.2-.2-8.4,7.2-18,7.2-26.3-.2-5.9-5.1-7.9-5.1-13.7.1a19,19,0,0,1-12.4,5.4c-3.8.1-6.5-2.1-6.8-5.5s2.1-5.6,5.7-6.6a20.5,20.5,0,0,0,7-3.7C-89.8,95.3-85.7,93.1-80.5,93.3Z" transform="translate(158 157.3)"/><path class="cls-21" d="M69,122.8,91.4,83.6c2.8,5.6,5.3,10.4,7.5,15.3.3.6-.2,1.8-.6,2.6s-2,2.9-2.9,4.4c-2.2,3.4-1.7,6.9,1.1,8.9s6.3,1.3,8.7-2.2l19.5-28.3,2.8-4c6.7,14.4,13.2,28.3,19.9,42.5Z" transform="translate(158 157.3)"/><path class="cls-22" d="M-59.6-34.4H-91.4c-6.3,0-10.5-2.7-11.8-7.7s.6-9.8,6.2-12.9c3.1-1.7,3.8-4.2,3.9-7.4.3-10.9,7.4-18.9,18.2-20.4A19.6,19.6,0,0,1-59-78a8.2,8.2,0,0,0,8.2,1.9c11-3,20.9,3.3,23.1,14.6.6,3.1,2,5.1,5.1,6.2,5.2,1.9,8.2,7,7.3,11.7s-5.3,9.1-11.4,9.1Z" transform="translate(158 157.3)"/></svg>