<svg id="Layer_1" data-name="Layer 1" xmlns="http://www.w3.org/2000/svg" viewBox="0 0 375.9 374.1"><defs><style>.cls-1{fill:#c1ebea;}.cls-2{fill:#f9dcad;}.cls-3{fill:#f9ce8a;}.cls-4{fill:#f8d192;}.cls-5{fill:#f8d8a5;}.cls-6{fill:#f8d69e;}.cls-7{fill:#9edbee;}.cls-8{fill:#71ccec;}.cls-9{fill:#69caec;}.cls-10{fill:#97d8ee;}.cls-11{fill:#7dd0ed;}.cls-12{fill:#82d2ed;}.cls-13{fill:#8cd5ee;}.cls-14{fill:#79cfed;}.cls-15{fill:#89d4ed;}.cls-16{fill:#8fd6ee;}.cls-17{fill:#cbdfe7;}.cls-18{fill:#dbe8ef;}.cls-19{fill:#d5e5ec;}.cls-20{fill:#020202;}.cls-21{fill:#0b0906;}.cls-22{fill:#040302;}.cls-23{fill:#fdfefe;}.cls-24{fill:#030304;}.cls-25{fill:#fdfdfd;}.cls-26{fill:#faa491;}.cls-27{fill:#fbac92;}.cls-28{fill:#94d7ed;}</style></defs><path d="M-156.6-149.8a17.7,17.7,0,0,0,1.2-1.7c3.3-7.9,9.3-11.8,17.8-11.8H4.6c10.7,0,18.5,7.6,18.5,18.3q.1,71.4,0,142.9c0,10.7-7.8,18.4-18.5,18.4H-138c-8.3,0-14.1-4-17.4-11.7a18.8,18.8,0,0,0-1.2-1.8Zm12,76V-4.2c0,6.9,1.7,8.6,8.6,8.6H2.5c6.9,0,8.6-1.7,8.6-8.5V-142.9c0-6.6-1.7-8.4-8.4-8.4H-136.1c-6.8,0-8.5,1.8-8.5,8.7Z" transform="translate(156.6 163.3)"/><path d="M53.1,210.8a8.2,8.2,0,0,0-1.7-1.1c-7.8-3.4-11.8-9.3-11.7-17.8V74.7c0-8.2-.1-16.4,0-24.7,0-11.2,7.6-18.8,18.7-18.8H200.6c11.1,0,18.7,7.6,18.7,18.8q.1,70.9,0,141.8c0,9.7-4,14.7-14.9,19Zm-1.3-69.6v26.9c-.1,7.9-.2,15.7-.2,23.6.1,5,2.3,7.1,7.4,7.1H199.6c5.2,0,7.7-1.9,7.7-6.4.1-8.1,0-16.2-.1-24.3v-98c.1-6.5.2-13,.2-19.5s-2.1-7.5-7.5-7.5H59.8c-6.3,0-8.2,1.9-8.2,8.3s.1,12.4.2,18.7v71.1Z" transform="translate(156.6 163.3)"/><path d="M-156.6,44.6a17.7,17.7,0,0,0,1.2-1.7c3.3-7.9,9.3-11.8,17.8-11.8H4.5c10.9,0,18.6,7.6,18.6,18.5q.1,71.3,0,142.5c0,9.5-5.3,15.9-14.6,18l-.3.6H-143.1a24.8,24.8,0,0,1-13.5-13.5Zm12.2,79.4v43.4c-.1,8.1-.2,16.2-.2,24.3,0,5,2.3,7.1,7.4,7.1H3.4c5.2,0,7.7-1.9,7.7-6.4.1-7.6,0-15.2-.1-22.8V56.6c.1-1.4.2-2.7.2-4.1,0-7.9-1.5-9.4-9.3-9.4-44.6,0-89.2.2-133.8-.1-12.8,0-13.2,1.8-12.5,13.6V124Z" transform="translate(156.6 163.3)"/><path d="M129.9-163.3h70c11.9.1,19.4,7.4,19.4,19.3q.1,70.6,0,141.1c0,11.9-7.5,19.3-19.4,19.3H59.1C47.2,16.4,39.7,9,39.7-2.9q-.2-70.5,0-141.1c0-11.8,7.5-19.2,19.4-19.3ZM207.2-48v-56.1c.1-13.2.1-26.4.2-39.6,0-5.5-2.1-7.6-7.8-7.6H59.4c-5.2,0-7.7,2-7.7,6.5-.1,13.5,0,27.1.1,40.7V-48c-.1,15-.1,29.9-.2,44.9,0,5.5,2.1,7.5,7.8,7.5H199.6c5.2,0,7.7-1.9,7.7-6.4C207.4-17.3,207.3-32.7,207.2-48Z" transform="translate(156.6 163.3)"/><path class="cls-1" d="M-144.6-73.8v-68.8c0-6.9,1.7-8.7,8.5-8.7H2.7c6.7,0,8.4,1.8,8.4,8.4V-4.1c0,6.8-1.7,8.5-8.6,8.5H-136c-6.9,0-8.6-1.7-8.6-8.6Zm47.9-11.6H-104a30.1,30.1,0,0,0-28.6,29.5c-.2,16,12.3,30,28.1,30.2,27.1.4,54.1.4,81.2,0C-8.8-25.9,1.8-40.3-1.4-54.4c-2.1-9.5-8.2-15.4-17.5-18.5.6-11.3,0-22.4-7.1-32.1s-16.7-15.2-28.6-16.2C-73.9-122.9-93.9-109.4-96.7-85.4Z" transform="translate(156.6 163.3)"/><path class="cls-2" d="M207.2,168.1c.1,8.1.2,16.2.1,24.3,0,4.5-2.5,6.4-7.7,6.4H59c-5.1,0-7.3-2.1-7.4-7.1,0-7.9.1-15.7.2-23.6H77.7a38.1,38.1,0,0,0,4.7-.7l4.7,4.2,4-3.5h72.3a15.5,15.5,0,0,0,3.6-.8l4.8,4.3,4.8-4.3a24.6,24.6,0,0,0,4.6.8ZM135.3,175H123.7v11.7h11.6Z" transform="translate(156.6 163.3)"/><path class="cls-3" d="M51.8,70.1c-.1-6.3-.1-12.5-.2-18.7s1.9-8.3,8.2-8.3H199.9c5.4,0,7.4,2.1,7.5,7.5s-.1,13-.2,19.5H178.7c-1.7.1-3.4,1-5.1,1.6q-1.8-2-3.6,0c-1.6-.6-3.2-1.6-4.7-1.6H94.5c-1.8,0-3.7,1.1-5.5,1.6l-1.8-1.3-1.9,1.2c-1.7-.5-3.3-1.4-5-1.5Zm71.9-3.2h11.6V55.3H123.7Z" transform="translate(156.6 163.3)"/><path class="cls-4" d="M173.6,71.7c1.7-.6,3.4-1.5,5.1-1.6h28.5v32.2H171.5a18,18,0,0,0-3.9.8c-.7-1.3-1.5-2.5-2.3-3.8a41.9,41.9,0,0,0-53.5-16.4c-10.5,4.9-17.5,13.2-22,23.8h-38V70.1H80.3c1.7.1,3.3,1,5,1.5C83.2,74,81,76.3,79,78.4l8,8.4,8.4-8.2L89,71.7c1.8-.5,3.7-1.6,5.5-1.6h70.8c1.5,0,3.1,1,4.7,1.6l-6,6.4,7.6,8.5,8.5-8Z" transform="translate(156.6 163.3)"/><path class="cls-5" d="M207.2,168.1h-26a24.6,24.6,0,0,1-4.6-.8l2.9-3.4-7.6-8.5-8.3,8,3.4,3.9a15.5,15.5,0,0,1-3.6.8H91.1l4.7-5.3c-2.4-2.2-4.7-4.4-7.2-6.4a3.7,3.7,0,0,0-3.4-.2c-2.7,1.8-5,3.9-7.5,5.9l1,1.1,3.7,4.2a38.1,38.1,0,0,1-4.7.7H51.8V141.2H92.6c7.8,14,19.9,21.2,35.7,21.5,19.4.4,32.7-9.3,40.5-26.9h38.4Z" transform="translate(156.6 163.3)"/><path class="cls-6" d="M92.6,141.2H51.8V106.7h38A44.5,44.5,0,0,0,92.6,141.2ZM75.4,115.1H63.8v11.7H75.4Z" transform="translate(156.6 163.3)"/><path class="cls-6" d="M207.2,135.9H168.8c4-11,3-21.9-1.2-32.7a18,18,0,0,1,3.9-.8h35.7Zm-12-20.8H183.6v11.7h11.6Z" transform="translate(156.6 163.3)"/><path class="cls-7" d="M11,169.6c.1,7.6.2,15.2.1,22.8,0,4.5-2.5,6.4-7.7,6.4H-137.2c-5.1,0-7.4-2.1-7.4-7.1,0-8.1.1-16.2.2-24.3h31.9c1.8,0,3.7-.9,5.5-1.5,2.9,3.1,4-.7,5.8-1.5-.1,2.5,1.2,3.1,3.5,3.1h14.6c-2.9,2.3-6,4.5-8.7,6.9-.8.8-1.4,2.8-.9,3.6,1.5,2.6,3.6,4.9,5.6,7.6L-73,175.2c.3,2.3.4,3.8.6,5.3h11.5c.1-1.8.2-3.4.4-5.4l14.2,10.4c2-2.7,4-5,5.6-7.6.5-.7.1-2.6-.6-3.3s-4-3.3-6-5h16.1c-.1-1.9-.2-3.2-.3-4.6l3.7,2.2c-.2,2.7,1.8,2.4,3.5,2.4Z" transform="translate(156.6 163.3)"/><path class="cls-8" d="M-144.4,76.8V56.6H11V73.8H-23.7a18.7,18.7,0,0,0-4.1.9h-1.4l-4.5-.9-6.4-.9c-1.8-3.6-3.7-7.1-5.7-10.9l-15,11V61.3H-72.7V72.9L-87.1,62.4c-1.6,2.1-3,4.2-4.6,6s-2.3,4.7,1,6.3c-2.1.7-4.1,1.7-6.2,2s-3.9-.4-5.9-.6-2.8-1.6-4.2,0Z" transform="translate(156.6 163.3)"/><path class="cls-9" d="M11,56.6H-144.4c-.7-11.8-.3-13.6,12.5-13.6,44.6.3,89.2.1,133.8.1,7.8,0,9.3,1.5,9.3,9.4C11.2,53.9,11.1,55.2,11,56.6Z" transform="translate(156.6 163.3)"/><path class="cls-10" d="M11,169.6H-24.3c-1.7,0-3.7.3-3.5-2.4l7.8-8.3c-2-2-4-3.6-5.6-5.5s-3.2-1.9-5.1.1c-5.7,5.7-5.8,5.6-.8,11.5.1,1.4.2,2.7.3,4.6H-47.3c-3.9-2.8-7.9-5.6-11.7-8.5a4.1,4.1,0,0,1-1.6-2.7c-.2-7.3-.1-14.6-.1-21.9l1-.6c3.4,3.6,6.7,7.2,10.1,10.7s4.5,4.5,9.6,1.2c6.5.2,13,.6,19.6.7.5,0,1.1-1.4,1.6-2.2l4.7,5.3,8.7-8.2H11Z" transform="translate(156.6 163.3)"/><path class="cls-10" d="M-107,165.8c-1.8.6-3.7,1.5-5.5,1.5h-31.9V144.9H-128l9.1,6.3,6.5-7.9c.7.8,1.5,2.1,2.2,2.1,4.6,0,9.2-.4,13.8-.6a31.7,31.7,0,0,1,3.4,2.8c4.6,4.4,3.6,4.5,8.3-.1s7.6-7.6,12-12c0,8.3.1,15.4-.1,22.6a5.1,5.1,0,0,1-2,3.3c-2.6,2.1-5.5,4-8.3,6H-97.7c-2.3,0-3.6-.6-3.5-3.1a39.7,39.7,0,0,1,2.8-3c2.2-2.2.2-3.6-1.2-4.5s-3.1-6.6-7.2-4.1c-2.4,1.5-4.1,4.2-6.3,6.5Z" transform="translate(156.6 163.3)"/><path class="cls-11" d="M-144.4,76.8l37.4-.7-5.8,6.4c2.5,2.9,4.9,5.4,7.1,7.9l8.4-8.3-5.5-6c2,.2,4,.8,5.9.6s4.1-1.3,6.2-2c5.4,4,10.8,7.9,16.1,12a3.8,3.8,0,0,1,1.8,2.6c.2,5.4.1,10.8.1,16.2l-1.1.6L-88.6,90.3l-8.1,7.4h-20.9c-3.2-1.9-4.3,2.2-6.7,2.5-.3-.2-.6-.7-.8-.7l-19.3.5Z" transform="translate(156.6 163.3)"/><path class="cls-12" d="M11,89.5v27H-6.7l-6-2.4,7.6-10.6-9.5-7c-2.5,3.4-5.2,6.1-7,9.3-4,7.7-9.9,10.6-18.5,9.3-3.6-.6-7.4-.1-11.2-.1l-.5-1.3,15.2-14.8-9.2-9L-60.7,105c0-4.7-.1-9.7,0-14.7a9.6,9.6,0,0,1,1.4-3.1c1.2.7,2.3,2.2,3.5,2.2,6.7.2,13.4.2,20.1.1,1.4-.1,2.8-1.1,4.3-1.7l3.3,2.7,4.8-4.1c-.2,2.8,1.5,3.2,3.8,3.2Z" transform="translate(156.6 163.3)"/><path class="cls-13" d="M-6.7,116.5H11v26.9H-5.4l-12.7-16.5H-6.7Z" transform="translate(156.6 163.3)"/><path class="cls-14" d="M11,89.5H-19.5c-2.3,0-4-.4-3.8-3.2l3-3.7-7.5-7.9a18.7,18.7,0,0,1,4.1-.9H11Z" transform="translate(156.6 163.3)"/><path class="cls-15" d="M-144.4,100l19.3-.5c.2,0,.5.5.8.7l-3.8,3.5,7.8,11-6.4.6V124h-17.7Z" transform="translate(156.6 163.3)"/><path class="cls-16" d="M-144.4,124h17.7c-.1,2,.5,3.2,2.9,3s4.9,0,8.2,0l-3.2,4.5-9.2,13.4h-16.4Z" transform="translate(156.6 163.3)"/><path class="cls-17" d="M51.8-104.1c-.1-13.6-.2-27.2-.1-40.7,0-4.5,2.5-6.5,7.7-6.5H199.6c5.7,0,7.8,2.1,7.8,7.6-.1,13.2-.1,26.4-.2,39.6-10.1,0-20.3-.1-30.5.1-1.5,0-3.1,1.6-4.7,2.4l-24.4-28.9-19.5,22.2-25.3-31.4-3,3.5L73.5-102.4c-1.2-.6-2.3-1.6-3.5-1.6C63.9-104.2,57.8-104.1,51.8-104.1Z" transform="translate(156.6 163.3)"/><path class="cls-18" d="M207.2-48c.1,15.3.2,30.7.1,46,0,4.5-2.5,6.4-7.7,6.4H59.4c-5.7,0-7.8-2-7.8-7.5.1-15,.1-29.9.2-44.9l23-.7c7.2,6.4,15.4,10.5,25.1,11,2.2.2,3.1,1,4.1,2.9,11.5,24.2,41,34.2,65,22.2,14.7-7.3,23.2-19.3,26.2-35.4Z" transform="translate(156.6 163.3)"/><path class="cls-19" d="M207.2-48h-12a39.1,39.1,0,0,0-5.1-24.4c-5.7-9.9-12-19.5-18.1-29.2,1.6-.8,3.2-2.4,4.7-2.4,10.2-.2,20.4-.1,30.5-.1Z" transform="translate(156.6 163.3)"/><path class="cls-19" d="M74.8-48.7l-23,.7v-56.1c6,0,12.1-.1,18.2.1,1.2,0,2.3,1,3.5,1.6-1,1.9-2,3.7-3.1,5.5-3.1,5.4-5.9,10.9-6.6,17.3C62.7-67.6,67-57.5,74.8-48.7Z" transform="translate(156.6 163.3)"/><path class="cls-20" d="M-96.7-85.4c2.8-24,22.8-37.5,42.1-35.8,11.9,1,21.5,6.5,28.6,16.2s7.7,20.8,7.1,32.1c9.3,3.1,15.4,9,17.5,18.5C1.8-40.3-8.8-25.9-23.3-25.7c-27.1.4-54.1.4-81.2,0-15.8-.2-28.3-14.2-28.1-30.2A30.1,30.1,0,0,1-104-85.4Zm11.7,12h-18a17.9,17.9,0,0,0-17.6,17.7c-.1,9.7,7.5,18.1,17.2,18.1,26.3.2,52.7.1,79,0A11.8,11.8,0,0,0-12.8-49.4a12,12,0,0,0-11.8-12c-2-.1-3.9,0-6.2,0,0-7.5.1-14.7,0-21.9a27.1,27.1,0,0,0-24.4-26A26.8,26.8,0,0,0-84-88C-84.8-83.4-84.7-78.6-85-73.4Z" transform="translate(156.6 163.3)"/><path class="cls-21" d="M82.4,167.4l-3.7-4.2-1-1.1c2.5-2,4.8-4.1,7.5-5.9a3.7,3.7,0,0,1,3.4.2c2.5,2,4.8,4.2,7.2,6.4l-4.7,5.3-4,3.5Z" transform="translate(156.6 163.3)"/><path class="cls-21" d="M167,167.3l-3.4-3.9,8.3-8,7.6,8.5-2.9,3.4-4.8,4.3Z" transform="translate(156.6 163.3)"/><path d="M135.3,175v11.7H123.7V175Z" transform="translate(156.6 163.3)"/><path class="cls-21" d="M89,71.7l6.4,6.9L87,86.8l-8-8.4c2-2.1,4.2-4.4,6.3-6.8l1.9-1.2Z" transform="translate(156.6 163.3)"/><path class="cls-21" d="M173.6,71.7l6.5,6.9-8.5,8L164,78.1l6-6.4Q171.8,69.8,173.6,71.7Z" transform="translate(156.6 163.3)"/><path d="M123.7,66.9V55.3h11.6V66.9Z" transform="translate(156.6 163.3)"/><path class="cls-22" d="M167.6,103.1c4.2,10.8,5.2,21.7,1.2,32.7-7.8,17.6-21.1,27.3-40.5,26.9-15.8-.3-27.9-7.5-35.7-21.5a44.5,44.5,0,0,1-2.8-34.5c4.5-10.6,11.5-18.9,22-23.8a41.9,41.9,0,0,1,53.5,16.4C166.1,100.6,166.9,101.8,167.6,103.1ZM99.7,122.5a29.6,29.6,0,0,0,29.7,28.4c16.6-.1,28.7-12.6,29.9-28.4S146.8,91.2,129.9,91A29.9,29.9,0,0,0,99.7,122.5Z" transform="translate(156.6 163.3)"/><path d="M75.4,115.1v11.7H63.8V115.1Z" transform="translate(156.6 163.3)"/><path d="M195.2,115.1v11.7H183.6V115.1Z" transform="translate(156.6 163.3)"/><path class="cls-23" d="M-128,144.9l9.2-13.4,3.2-4.5c-3.3,0-5.7-.2-8.2,0s-3-1-2.9-3v-8.7l6.4-.6-7.8-11,3.8-3.5c2.4-.3,3.5-4.4,6.7-2.5l11.3,15.4a4.6,4.6,0,0,0,2.6,1.8H-81c-5.3-5.1-9.8-9.4-14.1-13.9a10.1,10.1,0,0,1-1.6-3.3l8.1-7.4,14.8,15.8,1.1-.6c0-5.4.1-10.8-.1-16.2a3.8,3.8,0,0,0-1.8-2.6c-5.3-4.1-10.7-8-16.1-12-3.3-1.6-3.6-3.6-1-6.3s3-3.9,4.6-6l14.4,10.5V61.3h11.9V73l15-11c2,3.8,3.9,7.3,5.7,10.9L-59.3,87.2a9.6,9.6,0,0,0-1.4,3.1c-.1,5,0,10,0,14.7l14.9-15.1,9.2,9-15.2,14.8.5,1.3c3.8,0,7.6-.5,11.2.1,8.6,1.3,14.5-1.6,18.5-9.3,1.8-3.2,4.5-5.9,7-9.3l9.5,7-7.6,10.6,6,2.4v10.4H-18.1l12.7,16.5-8.7,8.2-4.7-5.3c-4-5.5-8.1-11.2-12.2-16.7-.8-1-2-2.4-3-2.5-5.8-.2-11.5-.1-17.3-.1a85.3,85.3,0,0,0,9.9,10.7c4.8,4.8,4.8,4.8,1.4,10.1-5.1,3.3-5.1,3.4-9.6-1.2s-6.7-7.1-10.1-10.7l-1,.6c0,7.3-.1,14.6.1,21.9a4.1,4.1,0,0,0,1.6,2.7c3.8,2.9,7.8,5.7,11.7,8.5,2,1.7,4.2,3.2,6,5s1.1,2.6.6,3.3c-1.6,2.6-3.6,4.9-5.6,7.6l-14.2-10.4c-.2,2-.3,3.6-.4,5.4H-72.4c-.2-1.5-.3-3-.6-5.3l-14.1,10.3c-2-2.7-4.1-5-5.6-7.6-.5-.8.1-2.8.9-3.6,2.7-2.4,5.8-4.6,8.7-6.9s5.7-3.9,8.3-6a5.1,5.1,0,0,0,2-3.3c.2-7.2.1-14.3.1-22.6-4.4,4.4-8.2,8.3-12,12s-3.7,4.5-8.3.1a31.7,31.7,0,0,0-3.4-2.8c-1.2-1.8-.6-2.9,1-4.3,4.7-4.1,9.1-8.5,14.3-13.5H-98.6a4.2,4.2,0,0,0-2.8,1.4c-3.8,4.9-7.4,10-11,14.9l-6.5,7.9Z" transform="translate(156.6 163.3)"/><path class="cls-23" d="M-107,165.8l-6.1-6.6c2.2-2.3,3.9-5,6.3-6.5,4.1-2.5,4.8,2.6,7.2,4.1s3.4,2.3,1.2,4.5a39.7,39.7,0,0,0-2.8,3C-103,165.1-104.1,168.9-107,165.8Z" transform="translate(156.6 163.3)"/><path class="cls-23" d="M-31.5,165c-5-5.9-4.9-5.8.8-11.5,1.9-2,3.2-2.2,5.1-.1s3.6,3.5,5.6,5.5l-7.8,8.3Z" transform="translate(156.6 163.3)"/><path class="cls-14" d="M-59.3,87.2l19.2-14.3,6.4.9,4.5.9-7.3,7.7,5.1,5.4c-1.5.6-2.9,1.6-4.3,1.7-6.7.1-13.4.1-20.1-.1C-57,89.4-58.1,87.9-59.3,87.2Z" transform="translate(156.6 163.3)"/><path class="cls-23" d="M-31.4,87.8l-5.1-5.4,7.3-7.7h1.4l7.5,7.9-3,3.7-4.8,4.1Z" transform="translate(156.6 163.3)"/><path class="cls-23" d="M-102.8,76.1l5.5,6-8.4,8.3c-2.2-2.5-4.6-5-7.1-7.9l5.8-6.4Q-104.9,73.7-102.8,76.1Z" transform="translate(156.6 163.3)"/><path class="cls-16" d="M-40,147.8c3.4-5.3,3.4-5.3-1.4-10.1A85.3,85.3,0,0,1-51.3,127c5.8,0,11.5-.1,17.3.1,1,.1,2.2,1.5,3,2.5,4.1,5.5,8.2,11.2,12.2,16.7-.5.8-1.1,2.2-1.6,2.2C-27,148.4-33.5,148-40,147.8Z" transform="translate(156.6 163.3)"/><path class="cls-16" d="M-112.4,143.3c3.6-4.9,7.2-10,11-14.9a4.2,4.2,0,0,1,2.8-1.4h17.5c-5.2,5-9.6,9.4-14.3,13.5-1.6,1.4-2.2,2.5-1,4.3-4.6.2-9.2.6-13.8.6C-110.9,145.4-111.7,144.1-112.4,143.3Z" transform="translate(156.6 163.3)"/><path class="cls-12" d="M-96.7,97.7a10.1,10.1,0,0,0,1.6,3.3c4.3,4.5,8.8,8.8,14.1,13.9h-22.7a4.6,4.6,0,0,1-2.6-1.8l-11.3-15.4Z" transform="translate(156.6 163.3)"/><path class="cls-24" d="M74.8-48.7c-7.8-8.8-12.1-18.9-11-30.9.7-6.4,3.5-11.9,6.6-17.3,1.1-1.8,2.1-3.6,3.1-5.5l26.3-33.8,3-3.5,25.3,31.4,19.5-22.2L172-101.6c6.1,9.7,12.4,19.3,18.1,29.2A39.1,39.1,0,0,1,195.2-48c-3,16.1-11.5,28.1-26.2,35.4-24,12-53.5,2-65-22.2-1-1.9-1.9-2.7-4.1-2.9C90.2-38.2,82-42.3,74.8-48.7Zm28.7-21.7,8.1-14.9,5.4-7.8c3.3-4.8,3.3-4.8-.4-9.5-4.5-6.2-9-12.3-14.1-19.1l-14,19.1L78.7-86.2C75.6-80.7,74.6-75,76.8-69c2.4,10.2,11.4,17.8,21.6,19.1Zm29-23.2c-3.8,5.4-7.5,10.9-11.3,16.4s-6,13-8.9,19.5-.3,11.2,2.1,16.5c5.2,13,15.4,19.5,28.6,21.3,16.6,2.4,31.4-7.4,37.6-21.3,2.5-5.5,3.7-11.2,2-17.3s-5.9-12.5-8.9-18.7-7.5-11-11.3-16.4-9.7-12.5-15-19.3Z" transform="translate(156.6 163.3)"/><path class="cls-25" d="M-85-73.4c.3-5.2.2-10,1-14.6a26.8,26.8,0,0,1,28.8-21.3,27.1,27.1,0,0,1,24.4,26c.1,7.2,0,14.4,0,21.9,2.3,0,4.2-.1,6.2,0a12,12,0,0,1,11.8,12A11.8,11.8,0,0,1-24.4-37.6c-26.3.1-52.7.2-79,0-9.7,0-17.3-8.4-17.2-18.1A17.9,17.9,0,0,1-103-73.4Z" transform="translate(156.6 163.3)"/><path class="cls-26" d="M99.7,122.5A29.9,29.9,0,0,1,129.9,91c16.9.2,30.5,14.8,29.4,31.5-3.2-.3-6.4-.7-9.6-.8H109.3C106.1,121.8,102.9,122.2,99.7,122.5Z" transform="translate(156.6 163.3)"/><path class="cls-27" d="M99.7,122.5c3.2-.3,6.4-.7,9.6-.8h40.4c3.2.1,6.4.5,9.6.8-1.2,15.8-13.3,28.3-29.9,28.4A29.6,29.6,0,0,1,99.7,122.5Z" transform="translate(156.6 163.3)"/><path class="cls-15" d="M112.3-57.7c2.9-6.5,5.9-13,8.9-19.5a21.4,21.4,0,0,0,4.3.7h43.9a20.3,20.3,0,0,0,4.3-.7c3,6.2,5.9,12.5,8.9,18.7a39.8,39.8,0,0,1-5.9.8Z" transform="translate(156.6 163.3)"/><path class="cls-28" d="M112.3-57.7h64.4a39.8,39.8,0,0,0,5.9-.8c1.7,6.1.5,11.8-2,17.3-2.1-.3-4.2-.7-6.3-.8H120.6a61.7,61.7,0,0,0-6.2.8C112-46.5,110.6-51.9,112.3-57.7Z" transform="translate(156.6 163.3)"/><path class="cls-7" d="M114.4-41.2a61.7,61.7,0,0,1,6.2-.8h53.7c2.1.1,4.2.5,6.3.8-6.2,13.9-21,23.7-37.6,21.3C129.8-21.7,119.6-28.2,114.4-41.2Z" transform="translate(156.6 163.3)"/><path class="cls-11" d="M173.7-77.2a20.3,20.3,0,0,1-4.3.7H125.5a21.4,21.4,0,0,1-4.3-.7c3.8-5.5,7.5-11,11.3-16.4h29.9C166.2-88.2,170-82.7,173.7-77.2Z" transform="translate(156.6 163.3)"/><path class="cls-12" d="M78.7-86.2l9.8-16.4h28.1c3.7,4.7,3.7,4.7.4,9.5l-5.4,7.8a18.4,18.4,0,0,0-3.8-.8Z" transform="translate(156.6 163.3)"/><path class="cls-16" d="M78.7-86.2h29.1a18.4,18.4,0,0,1,3.8.8l-8.1,14.9c-7.6-.2-15.2-.6-22.8-.7-1.3,0-2.6,1.4-3.9,2.1C74.6-75,75.6-80.7,78.7-86.2Z" transform="translate(156.6 163.3)"/><path class="cls-10" d="M76.8-69c1.3-.7,2.6-2.1,3.9-2.1,7.6.1,15.2.5,22.8.7L98.4-49.9C88.2-51.2,79.2-58.8,76.8-69Z" transform="translate(156.6 163.3)"/><path class="cls-8" d="M162.4-93.6H132.5l14.9-19.3C152.7-106.1,157.6-99.9,162.4-93.6Z" transform="translate(156.6 163.3)"/><path class="cls-14" d="M116.6-102.6H88.5l14-19.1C107.6-114.9,112.1-108.8,116.6-102.6Z" transform="translate(156.6 163.3)"/></svg>