<svg id="Layer_1" data-name="Layer 1" xmlns="http://www.w3.org/2000/svg" width="352.5" height="383.3" viewBox="0 0 352.5 383.3"><defs><style>.cls-1{fill:#020202;}.cls-2{fill:#f4fbfe;}.cls-3{fill:#030303;}.cls-4{fill:#d0ecfa;}.cls-5{fill:#d1edfb;}.cls-6{fill:#e08424;}.cls-7{fill:#e6a560;}.cls-8{fill:#f6d97c;}.cls-9{fill:#f6e8a9;}.cls-10{fill:#000101;}.cls-11{fill:#040404;}.cls-12{fill:#010101;}.cls-13{fill:#b0e2f8;}</style></defs><path class="cls-1" d="M-83.9,220c-2-2.3-4.3-4.4-6-7-14.7-22.2-23.3-47-28.5-73-1.2-6.4-.8-7.3,3.8-9.8,4.9.5,5.8,1.5,6.9,6.2,1.6,7.2,3.1,14.4,5.2,21.4,4.3,14.7,9.5,29,17.7,42,1.3,2.2,2.6,4.3,3.7,6.5s2.6,2.5,4.8,2.5H136.2l2.8-.3c-15.1-25.8-23.6-53.5-27.6-81.8L59.1,169.1l-3.3,1.7a48.3,48.3,0,0,1-25.3,6.6c-30.6-.2-61.3-.1-92-.1a15.3,15.3,0,0,1-3.7-.1c-2.9-.6-4.6-2.4-4.6-5.5s1.7-4.9,4.6-5.5a23.8,23.8,0,0,1,3.8-.1H29.5l9.7-18.7H-69.9a19.3,19.3,0,0,1-3.4-.1c-3.1-.5-4.9-2.4-4.9-5.6s1.9-5,5-5.5H44.7c1.3,0,3.1,0,3.8-.7,4.9-5.7,9.6-11.6,14.8-17.9H-61.8a5.7,5.7,0,0,1-5.4-5.6,5.5,5.5,0,0,1,5.4-5.5H70.3c1.5,0,3.4-.3,4.3-1.2,9.5-9.6,18.7-19.4,28-29.1l17.9-17.4,39.7-35.8c3.8-3.4,7.9-6.4,12-9.5s8.3-3.1,12.6-.7,9.5,7.2,11.6,13.1a10.1,10.1,0,0,1,.2,6.2c-1,2.5-.3,3.7,1.4,5.4,7.5,7.6,8,16.5,1,24.7-10.3,11.8-20.8,23.5-31.3,35.2-3.2,3.6-6.3,3.9-9,1.4s-2.2-5.6.7-8.9c10.1-11.4,20.3-22.7,30.3-34.2,4.2-4.7,3.9-6.8-.9-11.4l-1.6,1.3q-31.3,33.6-62.9,67.1c-1.8,2-2.7,3.8-2.4,6.6,3.7,32.4,12.7,63.1,31.3,90.4,3.4,4.9,3.2,6.9-1.3,10.6ZM63.6,143.7,59.2,139,44,162.3l-.9,2-.3.8.7-.4c9.2-3.8,16.7-10.4,24.9-16.5Zm8.1-8.2L77,141c1.6-1.4,3.1-2.5,4.4-3.7,11.7-10.9,23.5-21.5,34.9-32.7,23.2-22.8,45.5-46.3,66.3-71.4,3.8-4.5,3.7-4.6.2-8.1s-4.6-3.4-7.3-.6a23.9,23.9,0,0,1-3.5,2.8c-27.6,23.4-53.7,48.5-78.8,74.5-9,9.4-17.6,19-26.6,28.8Z" transform="translate(148.5 163.3)"/><path class="cls-2" d="M102.6,75.9c-9.3,9.7-18.5,19.5-28,29.1-.9.9-2.8,1.2-4.3,1.2H-61.8a5.5,5.5,0,0,0-5.4,5.5,5.7,5.7,0,0,0,5.4,5.6H63.3c-5.2,6.3-9.9,12.2-14.8,17.9-.7.7-2.5.7-3.8.7H-73.2c-3.1.5-5,2.4-5,5.5s1.8,5.1,4.9,5.6a19.3,19.3,0,0,0,3.4.1H39.2l-9.7,18.7H-61.4a23.8,23.8,0,0,0-3.8.1c-2.9.6-4.6,2.4-4.6,5.5s1.7,4.9,4.6,5.5a15.3,15.3,0,0,0,3.7.1c30.7,0,61.4-.1,92,.1a48.3,48.3,0,0,0,25.3-6.6l3.3-1.7c1.5-.2,3.1-.1,4.4-.7,10.2-4.2,20.3-8.4,30.4-12.9,4-1.7,7.7-4,11-5.7,4.9,14.3,9.8,28.3,14.6,42.4,1.1,3.2-.7,6-4,6.8a36,36,0,0,1-6.6.7H-84.8c-8.2-13-13.4-27.3-17.7-42-2.1-7-3.6-14.2-5.2-21.4-1.1-4.7-2-5.7-6.9-6.2l-1.5-12.6c4.6-1.5,5.5-2.6,5.4-7.6a235.1,235.1,0,0,1,6.4-61.5C-98.2,24.1-91.4-.1-85-24.4c6.9-26.2,11.9-52.7,10.8-80-.6-14.2-3-28-9.9-40.7-1.2-2.3-2.8-4.4-4.3-6.9H-7.2c4.1.1,6.7-1.2,7.8-5.3h11c.8,3.8,3.1,5.3,6.9,5.3H119.7c3.7,5.4,8.1,10.5,11,16.3,5.5,11.4,6.5,23.9,6.8,36.3a119.5,119.5,0,0,1-1.4,21.5c-2.1,13.5-4,27.2-7.3,40.5-7,28.8-15,57.3-22.1,86.1C104.5,57.6,103.9,66.8,102.6,75.9ZM35.2-62.2H110a19,19,0,0,0,3.4-.1c3.1-.6,4.9-2.4,4.8-5.7s-1.8-4.7-4.7-5.3a15.1,15.1,0,0,0-3-.1H-40a13.8,13.8,0,0,0-2.9.1c-3,.6-4.7,2.5-4.7,5.4s1.6,5,4.6,5.6a22.9,22.9,0,0,0,3.7.1ZM13.5,16.4H-61.3a19.3,19.3,0,0,0-3.4.1c-3.1.5-5,2.4-4.9,5.5s1.9,5.1,5,5.6H88.3a19.3,19.3,0,0,0,3.4-.1A5.3,5.3,0,0,0,96.3,22c0-3-1.8-4.9-4.7-5.5a19,19,0,0,0-3.4-.1ZM5.9,46.3H-68.6a15.3,15.3,0,0,0-3.7.2c-2.7.6-4.4,2.4-4.4,5.2a5.3,5.3,0,0,0,4.4,5.7,12,12,0,0,0,3.3.2H81.5a11.5,11.5,0,0,0,2.6-.1c3.1-.5,4.9-2.3,5-5.5s-1.9-5.1-5-5.6a18.2,18.2,0,0,0-3.3-.1ZM45.2-103.5H-15c-3.5,0-6.9-.1-10.4.1a5.1,5.1,0,0,0-5.2,5,5.2,5.2,0,0,0,4.1,5.8,14.3,14.3,0,0,0,4.1.4H112.2a16.1,16.1,0,0,0,4.4-.5,5.1,5.1,0,0,0,3.7-5.8,5.2,5.2,0,0,0-4.8-4.9H45.2ZM29.1-2.3H96.7a19,19,0,0,0,3.4-.1c2.8-.7,4.6-2.5,4.6-5.6s-1.8-4.8-4.7-5.4a12,12,0,0,0-3.3-.1h-138c-3.1.5-5,2.5-4.9,5.6s1.8,5.1,5,5.5a18.2,18.2,0,0,0,3.3.1ZM-17.3,87.5h58c4.1,0,6.5-2.1,6.5-5.6a5.4,5.4,0,0,0-5.7-5.6H-75.6a5.4,5.4,0,0,0-5.6,5.8c.1,3.3,2.5,5.4,6.7,5.4Zm21-131H-46.9c-4,0-6.4,2.3-6.4,5.7s2.4,5.5,6.2,5.5H54a5.3,5.3,0,0,0,1.8-.1c2.8-.8,4.4-2.6,4.4-5.4s-1.6-4.9-4.5-5.6a19.3,19.3,0,0,0-3.4-.1Zm30.1-78.6H80.9c3.6-.1,6-2.5,5.9-5.8s-2.4-5.2-5.9-5.4H-.6c-4.3,0-8.7-.4-13,.2a7.4,7.4,0,0,0-5.1,3.9c-.6,1.4.3,4.1,1.4,5.5s3.4,1.5,5.1,1.6Z" transform="translate(148.5 163.3)"/><path class="cls-3" d="M.6-157.3c-1.1,4.1-3.7,5.4-7.8,5.3H-88.4c1.5,2.5,3.1,4.6,4.3,6.9,6.9,12.7,9.3,26.5,9.9,40.7,1.1,27.3-3.9,53.8-10.8,80C-91.4-.1-98.2,24.1-104.3,48.5a235.1,235.1,0,0,0-6.4,61.5c.1,5-.8,6.1-5.4,7.6-4.7-1.2-5.7-2.6-5.9-7.7-.6-26.6,3.3-52.6,10-78.3s13.5-50.2,20.1-75.3c1.1-4.2,1.8-8.5,2.8-13.1-10.8,0-21.2-.4-31.7.1s-17.3-4.7-21.6-13.9c-5-10.8-6-22.3-6.1-34-.2-13.7,2-27,8.5-39.3,5.1-9.5,12.1-16.8,23.2-18.9a29.3,29.3,0,0,1,5.9-.4H-7.6C-1.9-163.3-1.1-162.6.6-157.3Zm-91.2,26.2c-1.4-6.6-5.6-13.5-10.2-17-7.2-5.7-16.8-5.5-23,1.3a44.6,44.6,0,0,0-8.6,13.7c-6.4,16.3-6.3,33.2-2.4,50a33.8,33.8,0,0,0,5.2,11.8c3.2,4.8,8.2,4.3,11-.7a27,27,0,0,0,3.2-8.3,85.8,85.8,0,0,0-2-42.1c-1.8-5.6.5-8.7,6.3-8.7Zm3.2,62.9c2.2-17.4,3.3-34.4.1-51.5h-17.5c3.1,17.4,3.8,34.5-2.6,51.5Z" transform="translate(148.5 163.3)"/><path class="cls-3" d="M119.7-151.9H18.5c-3.8,0-6.1-1.5-6.9-5.3.9-4.6,2.4-5.9,7-5.9q50.8-.2,101.7,0c10.3,0,18.3,4.8,24.3,13,8.1,11,11.1,23.8,12.5,37.1,2.9,28.1-1.6,55.6-8.6,82.7-5.6,21.7-11.7,43.2-17.6,64.8-1.1,4-2.7,5.1-7.4,5.1-3.6-2-4.4-4.8-3.3-8.8,5.8-20.7,11.6-41.4,17-62.2,6.9-26.4,11.5-53.1,8.7-80.6-1.1-10.5-3.4-20.7-9.1-29.7C132.9-148.1,127.6-152.2,119.7-151.9Z" transform="translate(148.5 163.3)"/><path class="cls-4" d="M119.7-151.9c7.9-.3,13.2,3.8,17.1,10.1,5.7,9,8,19.2,9.1,29.7,2.8,27.5-1.8,54.2-8.7,80.6-5.4,20.8-11.2,41.5-17,62.2-1.1,4-.3,6.8,3.3,8.8-.9,4.6-1.7,9.2-2.5,13.9-.3,1.7-.3,3.4-.5,5.1L102.6,75.9c1.3-9.1,1.9-18.3,4.1-27.1,7.1-28.8,15.1-57.3,22.1-86.1,3.3-13.3,5.2-27,7.3-40.5a119.5,119.5,0,0,0,1.4-21.5c-.3-12.4-1.3-24.9-6.8-36.3C127.8-141.4,123.4-146.5,119.7-151.9Z" transform="translate(148.5 163.3)"/><path class="cls-5" d="M-84.8,199.8H108.9a36,36,0,0,0,6.6-.7c3.3-.8,5.1-3.6,4-6.8-4.8-14.1-9.7-28.1-14.6-42.4-3.3,1.7-7,4-11,5.7-10.1,4.5-20.2,8.7-30.4,12.9-1.3.6-2.9.5-4.4.7l52.3-42.4c4,28.3,12.5,56,27.6,81.8l-2.8.3H-76.3c-2.2,0-3.7-.5-4.8-2.5S-83.5,202-84.8,199.8Z" transform="translate(148.5 163.3)"/><path class="cls-6" d="M182.8,25.1c3.5,3.5,3.6,3.6-.2,8.1-20.8,25.1-43.1,48.6-66.3,71.4-11.4,11.2-23.2,21.8-34.9,32.7-1.3,1.2-2.8,2.3-4.4,3.7l-5.3-5.5c1.1-1,2.3-1.9,3.4-3L176.9,30.8C178.8,28.8,180.8,27,182.8,25.1Z" transform="translate(148.5 163.3)"/><path class="cls-7" d="M182.8,25.1c-2,1.9-4,3.7-5.9,5.7L75.1,132.5c-1.1,1.1-2.3,2-3.4,3l-5.1-4.9c9-9.8,17.6-19.4,26.6-28.8,25.1-26,51.2-51.1,78.8-74.5a23.9,23.9,0,0,0,3.5-2.8C178.2,21.7,180.6,21.9,182.8,25.1Z" transform="translate(148.5 163.3)"/><path class="cls-8" d="M43.1,164.3l.9-2c.5,0,1,.2,1.3,0l18.3-18.6,4.8,4.5c-8.2,6.1-15.7,12.7-24.9,16.5Z" transform="translate(148.5 163.3)"/><path class="cls-9" d="M63.6,143.7,45.3,162.3c-.3.2-.8,0-1.3,0L59.2,139Z" transform="translate(148.5 163.3)"/><path class="cls-8" d="M43.5,164.7l-.7.4.3-.8Z" transform="translate(148.5 163.3)"/><path class="cls-10" d="M35.2-62.2H-39.3a22.9,22.9,0,0,1-3.7-.1c-3-.6-4.7-2.6-4.6-5.6s1.7-4.8,4.7-5.4a13.8,13.8,0,0,1,2.9-.1H110.5a15.1,15.1,0,0,1,3,.1c2.9.6,4.7,2.3,4.7,5.3s-1.7,5.1-4.8,5.7a19,19,0,0,1-3.4.1Z" transform="translate(148.5 163.3)"/><path d="M13.5,16.4H88.2a19,19,0,0,1,3.4.1c2.9.6,4.7,2.5,4.7,5.5a5.3,5.3,0,0,1-4.6,5.5,19.3,19.3,0,0,1-3.4.1H-64.6c-3.1-.5-5-2.4-5-5.6s1.8-5,4.9-5.5a19.3,19.3,0,0,1,3.4-.1Z" transform="translate(148.5 163.3)"/><path d="M5.9,46.3H80.8a18.2,18.2,0,0,1,3.3.1c3.1.5,5,2.3,5,5.6s-1.9,5-5,5.5a11.5,11.5,0,0,1-2.6.1H-69a12,12,0,0,1-3.3-.2,5.3,5.3,0,0,1-4.4-5.7c0-2.8,1.7-4.6,4.4-5.2a15.3,15.3,0,0,1,3.7-.2Z" transform="translate(148.5 163.3)"/><path class="cls-11" d="M45.2-103.5h70.3a5.2,5.2,0,0,1,4.8,4.9,5.1,5.1,0,0,1-3.7,5.8,16.1,16.1,0,0,1-4.4.5H-22.4a14.3,14.3,0,0,1-4.1-.4,5.2,5.2,0,0,1-4.1-5.8,5.1,5.1,0,0,1,5.2-5c3.5-.2,6.9-.1,10.4-.1Z" transform="translate(148.5 163.3)"/><path class="cls-12" d="M29.1-2.3h-67a18.2,18.2,0,0,1-3.3-.1c-3.2-.4-5-2.4-5-5.5s1.8-5.1,4.9-5.6h138a12,12,0,0,1,3.3.1c2.9.6,4.7,2.4,4.7,5.4s-1.8,4.9-4.6,5.6a19,19,0,0,1-3.4.1Z" transform="translate(148.5 163.3)"/><path d="M-17.3,87.5H-74.5c-4.2,0-6.6-2.1-6.7-5.4a5.4,5.4,0,0,1,5.6-5.8H41.5a5.4,5.4,0,0,1,5.7,5.6c0,3.5-2.4,5.6-6.5,5.6Z" transform="translate(148.5 163.3)"/><path class="cls-12" d="M3.7-43.5H52.3a19.3,19.3,0,0,1,3.4.1c2.9.7,4.6,2.7,4.5,5.6s-1.6,4.6-4.4,5.4a5.3,5.3,0,0,1-1.8.1H-47.1c-3.8,0-6.1-2.2-6.2-5.5s2.4-5.7,6.4-5.7Z" transform="translate(148.5 163.3)"/><path class="cls-12" d="M33.8-122.1h-46c-1.7-.1-4.1-.5-5.1-1.6s-2-4.1-1.4-5.5a7.4,7.4,0,0,1,5.1-3.9c4.3-.6,8.7-.2,13-.2H80.9c3.5.2,5.8,2.3,5.9,5.4s-2.3,5.7-5.9,5.8H33.8Z" transform="translate(148.5 163.3)"/><path class="cls-13" d="M-90.6-131.1h-20.5c-5.8,0-8.1,3.1-6.3,8.7a85.8,85.8,0,0,1,2,42.1,27,27,0,0,1-3.2,8.3c-2.8,5-7.8,5.5-11,.7a33.8,33.8,0,0,1-5.2-11.8c-3.9-16.8-4-33.7,2.4-50a44.6,44.6,0,0,1,8.6-13.7c6.2-6.8,15.8-7,23-1.3C-96.2-144.6-92-137.7-90.6-131.1Z" transform="translate(148.5 163.3)"/><path class="cls-4" d="M-87.4-68.2h-20c6.4-17,5.7-34.1,2.6-51.5h17.5C-84.1-102.6-85.2-85.6-87.4-68.2Z" transform="translate(148.5 163.3)"/></svg>