<svg id="Layer_1" data-name="Layer 1" xmlns="http://www.w3.org/2000/svg" width="347.5" height="347.4" viewBox="0 0 347.5 347.4"><defs><style>.cls-1{fill:#020202;}.cls-2{fill:#996e41;}.cls-3{fill:#cbeaf7;}.cls-4{fill:#6ac5f5;}.cls-5{fill:#45bcef;}.cls-6{fill:#a47e55;}</style></defs><path class="cls-1" d="M2.3,99.4C.8,80.9-.6,63.1-1.8,45.3A25.3,25.3,0,0,1-.7,35.1C6.2,13.6,13.5-7.8,20.6-29.3a21.1,21.1,0,0,0,1-6.6c.1-11.9.2-23.9,0-35.9,0-4.1,1.6-6.4,5.4-7.9,11.6-4.8,23.1-9.8,34.6-14.9a7.1,7.1,0,0,0,3.5-4.1c3.6-13.6,6.9-27.2,10.4-40.9,1.1-4.4,2.8-5.7,7.4-5.7H194c5.4,0,7.4,2.1,7.4,7.9V193.8c0,6.4-1.9,8.2-8.3,8.2H-137.8c-6.3,0-8.2-1.8-8.2-7.8q-.1-100.8,0-201.7c.2-47.2,46.7-77,87.8-62.3A57.8,57.8,0,0,1-20.3-12.4a30.7,30.7,0,0,1-28,28.7c-11.4.8-19.5-6.5-19.9-17.9-.2-7.1-5.2-12.1-12-12A12.1,12.1,0,0,0-92.1-1.2a94.6,94.6,0,0,0,1,14.1q8.4,53,55.2,79.1a9.1,9.1,0,0,1,1.7.9c4.2,2.9,8.1,4.2,13.6,2.3C-12.8,92.5-5.1,94.6,2.3,99.4ZM150.9-133.3,152-130c4.1,9.5,8.1,19,12.3,28.5,1.5,3.3,1.1,6-.9,9L126.6-34.8a6.8,6.8,0,0,0-.6,7.5C134.5-9.2,142.8,8.9,151.2,27l7.6,16.6c1.5,3.5.2,6.8-3,8.2s-6,.1-7.8-3.1l-1.2-2.3c-11.3-24.6-22.5-49.2-33.9-73.7-1.6-3.3-1.5-6,.5-9C126-55.9,138.3-75.5,150.9-95c1.3-2.1,1.6-3.7.5-6.1-4.3-9.5-8.3-19.2-12.3-28.8-1-2.5-2.3-3.6-5.2-3.5-7.9.2-15.9,0-23.9,0H86.4l-1,3.5c-3.1,12.3-6.3,24.6-9.1,37a11.1,11.1,0,0,1-7.1,8.3c-11,4.4-21.8,9.3-32.7,13.8-2.2.9-2.9,2.1-2.9,4.4.1,9.4.2,18.7,0,28.1a5.5,5.5,0,0,0,3,5.3C50.1-24.7,63.5-16.2,76.9-7.9c2.9,1.8,4.5,3.8,4.9,7.4C83.3,15,85.1,30.4,87,45.9a20.1,20.1,0,0,0,2.7,7.9c8.8,14.2,17.8,28.3,26.7,42.5l9.3,14.4,3.4-4.2c8.1-10,18.4-14.1,31.1-11.5a29.2,29.2,0,0,1,17.9,12c2.9,4.1,6.2,7.7,11,9.6V-133.3ZM-36.8,105.6l-.8-.8-8.1-4.6C-83.3,76.8-102.9,43-104-1.3A23.6,23.6,0,0,1-80.7-25.6c13.6-.2,24,9.7,24.5,23.4.2,4.9,2.5,7,7.4,6.5A18.6,18.6,0,0,0-32.3-12.8c1.8-24.8-18.9-47.8-43.9-48.7-33.1-1.1-57.9,22.7-57.9,55.8V116.6c4.6-1.8,6.9-3.8,11.4-9.6,12.9-16.7,36.1-16.7,49.2-.1a53.1,53.1,0,0,0,7.7,8,15.3,15.3,0,0,0,18.8.4C-43.3,112.4-40.2,108.8-36.8,105.6ZM-134,189.8H189.3V171.5c-8.8-2.4-15.3-7.9-20.8-14.9a26.8,26.8,0,0,0-5.1-5,15.7,15.7,0,0,0-20,.1,54.6,54.6,0,0,0-7.4,7.8c-12.6,16.8-36.5,16.8-49.1,0a45.4,45.4,0,0,0-7.4-7.8,15.4,15.4,0,0,0-19.6-.3,49.8,49.8,0,0,0-7.8,8.1C38.9,176,16.4,176,3.2,159.4A59.7,59.7,0,0,0-3.6,152a15.8,15.8,0,0,0-20.9-.1,50.2,50.2,0,0,0-7.4,7.9c-12.8,16.1-35.6,16.1-48.5,0a49.2,49.2,0,0,0-7.7-8.1,15.7,15.7,0,0,0-19.7-.3,29.6,29.6,0,0,0-5.1,4.9c-5.6,7.1-12.1,12.9-21.1,15.2Zm323.3-60.2a36.6,36.6,0,0,1-19.7-13.8,52.9,52.9,0,0,0-5.2-5.4c-6.8-5.8-15.5-5.8-22.1.2a49.7,49.7,0,0,0-6.5,7.2,30.2,30.2,0,0,1-48.8-.1,51.9,51.9,0,0,0-7.1-7.7,15.5,15.5,0,0,0-20.3-.3,50.4,50.4,0,0,0-7.5,7.8c-13.2,16.6-35.7,16.6-48.9,0a52.8,52.8,0,0,0-6.8-7.4,15.7,15.7,0,0,0-20.9-.1,55.4,55.4,0,0,0-7.4,7.9c-11.3,14.1-29.8,16.2-43.7,4.7-3-2.5-5.4-5.8-8.1-8.8-9.4-10.3-19.7-10.5-28.7,0-6,7.1-12.3,13.4-21.5,15.7v28.9l1,.8c3.5-3.5,7.2-6.7,10.2-10.5,13-16.4,36.2-16.4,49.1,0a56.6,56.6,0,0,0,7.1,7.6,15.7,15.7,0,0,0,20.9-.1,57.9,57.9,0,0,0,7.1-7.7c12.9-16.2,35.9-16.1,48.7.1a49.4,49.4,0,0,0,7.7,8.1,15.3,15.3,0,0,0,19.7-.1,50.5,50.5,0,0,0,7.4-7.9c12.5-16.7,36.5-16.7,49.1,0a42.3,42.3,0,0,0,7.7,8.1,15.4,15.4,0,0,0,19.7-.2,59.1,59.1,0,0,0,7.6-8.2c6.5-8.1,14.8-12.5,25.2-12.2s18,4.7,23.8,12.8c3,4.1,6.3,7.6,11.2,9.8Zm-73.7-12.1-2.7-4.4L77.6,57.2a12.6,12.6,0,0,1-2-4.8c-1.8-15.8-3.5-31.6-5.4-47.5A6.7,6.7,0,0,0,67.6.6c-9.4-6.1-19-12-28.5-17.9l-7.9-4.9a15.2,15.2,0,0,0-.9,1.7q-10,30.2-20,60.3a10.5,10.5,0,0,0-.3,4c1.6,21.3,3.5,42.7,4.8,64.1.3,4.8,2.3,7.6,6.4,8.8a25.2,25.2,0,0,0,10.2.9c6.4-1,10.1-6.1,13.6-10.9a30.4,30.4,0,0,1,48.9-.2,51.5,51.5,0,0,0,8.2,8.6C105.8,118.2,110.3,118.9,115.6,117.5Z" transform="translate(146.1 145.4)"/><path class="cls-2" d="M150.9-133.3h38.2V116.6c-4.8-1.9-8.1-5.5-11-9.6a29.2,29.2,0,0,0-17.9-12c-12.7-2.6-23,1.5-31.1,11.5l-3.4,4.2-9.3-14.4C107.5,82.1,98.5,68,89.7,53.8A20.1,20.1,0,0,1,87,45.9C85.1,30.4,83.3,15,81.8-.5c-.4-3.6-2-5.6-4.9-7.4C63.5-16.2,50.1-24.7,36.6-33a5.5,5.5,0,0,1-3-5.3c.2-9.4.1-18.7,0-28.1,0-2.3.7-3.5,2.9-4.4,10.9-4.5,21.7-9.4,32.7-13.8a11.1,11.1,0,0,0,7.1-8.3c2.8-12.4,6-24.7,9.1-37l1-3.5H110c8,0,16,.2,23.9,0,2.9-.1,4.2,1,5.2,3.5,4,9.6,8,19.3,12.3,28.8,1.1,2.4.8,4-.5,6.1C138.3-75.5,126-55.9,113.4-36.3c-2,3-2.1,5.7-.5,9,11.4,24.5,22.6,49.1,33.9,73.7l1.2,2.3c1.8,3.2,4.8,4.4,7.8,3.1s4.5-4.7,3-8.2L151.2,27C142.8,8.9,134.5-9.2,126-27.3a6.8,6.8,0,0,1,.6-7.5l36.8-57.7c2-3,2.4-5.7.9-9-4.2-9.5-8.2-19-12.3-28.5Z" transform="translate(146.1 145.4)"/><path class="cls-3" d="M-36.8,105.6c-3.4,3.2-6.5,6.8-10.2,9.7a15.3,15.3,0,0,1-18.8-.4,53.1,53.1,0,0,1-7.7-8c-13.1-16.6-36.3-16.6-49.2.1-4.5,5.8-6.8,7.8-11.4,9.6V-5.7c0-33.1,24.8-56.9,57.9-55.8,25,.9,45.7,23.9,43.9,48.7A18.6,18.6,0,0,1-48.8,4.3c-4.9.5-7.2-1.6-7.4-6.5-.5-13.7-10.9-23.6-24.5-23.4A23.6,23.6,0,0,0-104-1.3c1.1,44.3,20.7,78.1,58.3,101.5l8.1,4.6Z" transform="translate(146.1 145.4)"/><path class="cls-4" d="M-134,189.8V171.5c9-2.3,15.5-8.1,21.1-15.2a29.6,29.6,0,0,1,5.1-4.9,15.7,15.7,0,0,1,19.7.3,49.2,49.2,0,0,1,7.7,8.1c12.9,16.1,35.7,16.1,48.5,0a50.2,50.2,0,0,1,7.4-7.9,15.8,15.8,0,0,1,20.9.1,59.7,59.7,0,0,1,6.8,7.4c13.2,16.6,35.7,16.6,48.9.1a49.8,49.8,0,0,1,7.8-8.1,15.4,15.4,0,0,1,19.6.3,45.4,45.4,0,0,1,7.4,7.8c12.6,16.8,36.5,16.8,49.1,0a54.6,54.6,0,0,1,7.4-7.8,15.7,15.7,0,0,1,20-.1,26.8,26.8,0,0,1,5.1,5c5.5,7,12,12.5,20.8,14.9v18.3Z" transform="translate(146.1 145.4)"/><path class="cls-5" d="M189.3,129.6v29.2c-4.9-2.2-8.2-5.7-11.2-9.8-5.8-8.1-13.8-12.5-23.8-12.8s-18.7,4.1-25.2,12.2a59.1,59.1,0,0,1-7.6,8.2,15.4,15.4,0,0,1-19.7.2,42.3,42.3,0,0,1-7.7-8.1C81.5,132,57.5,132,45,148.7a50.5,50.5,0,0,1-7.4,7.9,15.3,15.3,0,0,1-19.7.1,49.4,49.4,0,0,1-7.7-8.1c-12.8-16.2-35.8-16.3-48.7-.1a57.9,57.9,0,0,1-7.1,7.7,15.7,15.7,0,0,1-20.9.1,56.6,56.6,0,0,1-7.1-7.6c-12.9-16.4-36.1-16.4-49.1,0-3,3.8-6.7,7-10.2,10.5l-1-.8V129.5c9.2-2.3,15.5-8.6,21.5-15.7,9-10.5,19.3-10.3,28.7,0,2.7,3,5.1,6.3,8.1,8.8,13.9,11.5,32.4,9.4,43.7-4.7a55.4,55.4,0,0,1,7.4-7.9,15.7,15.7,0,0,1,20.9.1,52.8,52.8,0,0,1,6.8,7.4c13.2,16.6,35.7,16.6,48.9,0a50.4,50.4,0,0,1,7.5-7.8,15.5,15.5,0,0,1,20.3.3,51.9,51.9,0,0,1,7.1,7.7,30.2,30.2,0,0,0,48.8.1,49.7,49.7,0,0,1,6.5-7.2c6.6-6,15.3-6,22.1-.2a52.9,52.9,0,0,1,5.2,5.4A36.6,36.6,0,0,0,189.3,129.6Z" transform="translate(146.1 145.4)"/><path class="cls-6" d="M115.6,117.5c-5.3,1.4-9.8.7-13.5-2.4a51.5,51.5,0,0,1-8.2-8.6,30.4,30.4,0,0,0-48.9.2c-3.5,4.8-7.2,9.9-13.6,10.9a25.2,25.2,0,0,1-10.2-.9c-4.1-1.2-6.1-4-6.4-8.8C13.5,86.5,11.6,65.1,10,43.8a10.5,10.5,0,0,1,.3-4q9.9-30.1,20-60.3a15.2,15.2,0,0,1,.9-1.7l7.9,4.9C48.6-11.4,58.2-5.5,67.6.6a6.7,6.7,0,0,1,2.6,4.3c1.9,15.9,3.6,31.7,5.4,47.5a12.6,12.6,0,0,0,2,4.8l35.3,55.9Z" transform="translate(146.1 145.4)"/></svg>