<svg id="Layer_1" data-name="Layer 1" xmlns="http://www.w3.org/2000/svg" viewBox="0 0 324.2 382.9"><defs><style>.cls-1{fill:#030403;}.cls-2{fill:#6cd29f;}.cls-3{fill:#020402;}.cls-4{fill:#a0e22f;}.cls-5{fill:#cfee9c;}.cls-6{fill:#040403;}.cls-7{fill:#d6eafc;}.cls-8{fill:#040404;}.cls-9{fill:#040302;}.cls-10{fill:#030402;}.cls-11{fill:#040402;}.cls-12{fill:#050604;}.cls-13{fill:#040503;}.cls-14{fill:#060705;}.cls-15{fill:#060704;}.cls-16{fill:#c1dffb;}.cls-17{fill:#040505;}.cls-18{fill:#070708;}.cls-19{fill:#fa7b42;}.cls-20{fill:#fb9537;}.cls-21{fill:#f97b41;}.cls-22{fill:#f79337;}.cls-23{fill:#fd9638;}.cls-24{fill:#060301;}</style></defs><path class="cls-1" d="M181.8,161.5c4,2,4.8,3.7,3.8,8-6,24.9-32.5,42.3-57.9,38.1-8.9-1.5-17.9-3.1-26.9-4.5s-17.6.9-26.2,2.3L-6.8,219l-5.2,1H-42.7a23.7,23.7,0,0,0-3.4-.8c-14.2-.7-28.4-.9-42.6-2.2-20.4-1.8-35.5-21.1-32.9-41.5,1.1-8.7,3-17.3,3.1-26,.2-12.3-.8-24.6-1.7-36.9q-2.2-33.1-4.9-66.1c-1.7-21.1-3.7-42.2-5.6-63.3-1.3-14.4-3.6-28.8-3.6-43.2s1.7-30.6,3.2-45.8c1.7-18.1,10.8-31.5,26.4-40.6,10.9-6.4,22.8-7.2,35.1-6.1,15.5,1.4,31,3.6,46.6,1.8,17.4-1.9,34.7-4.3,52-6.2,21.2-2.3,42.4-5.5,63.6-5.9,17.4-.5,35.2,1.5,52.5,4.2,22.5,3.6,39.3,23.4,41.2,46.2,1.1,12.6,2.2,25.3,3.4,38,.9,9.5-1.8,18.5-3.7,27.6-3.5,16.6-7.3,33.1-10.7,49.7s-2,35.1,1.6,52.7c4.5,21.8,8.9,43.7,12.4,65.7,1.2,7.9-.3,16.3-.9,24.5-.3,3.1-2.7,4.6-5.8,4.8s-5.4-2.8-5.2-7.3c.3-7.1,1.8-14.4.7-21.2-3.6-22-8-43.8-12.5-65.7-3.7-18.1-5-36.3-1.5-54.6s7.8-35.5,11.3-53.3c1.5-7.4,3.1-15,2.9-22.5-.4-12.4-2.2-24.8-3.2-37.2-1.4-17.6-14.1-33.5-31.6-36.2a412.7,412.7,0,0,0-51-4.3c-11.3-.4-22.8,1.4-34.2,2.7-22,2.4-44,5.5-66.1,7.8a323.9,323.9,0,0,1-36.8,1.8c-11.1,0-22.2-1.8-33.2-2.2-20.9-.8-38.3,12.8-41.5,33.3-2.3,14.4-4.1,29-3.9,43.5.3,18.2,2.8,36.3,4.3,54.4,2.2,25.6,4.5,51.2,6.6,76.8q2.3,27.9,4.1,55.9a264.2,264.2,0,0,1,.8,29.5c-.3,8.2-1.9,16.3-3.1,24.4-1.9,14.4,8.2,28.2,22.7,29.6s26.3,1.7,39.6,2,26.8,1.5,39.9-.2c27.4-3.6,54.6-8.9,81.8-13.4,9.1-1.6,18.2-3.8,27.5-2.4s15.8,2.3,23.6,4c26.3,5.6,45.7-10.8,50.3-29.6C175.8,162.6,178.1,161.2,181.8,161.5Z" transform="translate(134.3 162.9)"/><path class="cls-2" d="M181.8,161.5c-3.7-.3-6,1.1-6.9,4.7-4.6,18.8-24,35.2-50.3,29.6-7.8-1.7-15.7-2.9-23.6-4s-18.4.8-27.5,2.4c-27.2,4.5-54.4,9.8-81.8,13.4-13.1,1.7-26.6.6-39.9.2s-26.5-.7-39.6-2-24.6-15.2-22.7-29.6c1.2-8.1,2.8-16.2,3.1-24.4a264.2,264.2,0,0,0-.8-29.5q-1.8-28-4.1-55.9c-2.1-25.6-4.4-51.2-6.6-76.8-1.5-18.1-4-36.2-4.3-54.4-.2-14.5,1.6-29.1,3.9-43.5,3.2-20.5,20.6-34.1,41.5-33.3,11,.4,22.1,2.2,33.2,2.2a323.9,323.9,0,0,0,36.8-1.8c22.1-2.3,44.1-5.4,66.1-7.8,11.4-1.3,22.9-3.1,34.2-2.7a412.7,412.7,0,0,1,51,4.3c17.5,2.7,30.2,18.6,31.6,36.2,1,12.4,2.8,24.8,3.2,37.2.2,7.5-1.4,15.1-2.9,22.5-3.5,17.8-7.8,35.5-11.3,53.3s-2.2,36.5,1.5,54.6c4.5,21.9,8.9,43.7,12.5,65.7,1.1,6.8-.4,14.1-.7,21.2-.2,4.5.9,6,5.2,7.3C182.3,154.2,182,157.8,181.8,161.5ZM-4.6-125.9l-10.3,1c-1.1-3.8-3.6-4.9-7.4-4.8-6.9.3-13.9.6-20.9.3-11.7-.6-23.4-2-35.1-2.5-15.4-.6-28.9,9.3-31.2,24.4a288,288,0,0,0-3.8,47.2c.1,16.7,2.8,33.3,4.2,49.9,2,21.9,3.9,43.7,5.7,65.6,1.5,18.4,2.7,36.8,4.1,55.2s3.9,38-.2,56.9c-.6,2.8-.7,5.7-1.1,8.6-1.6,12,5.1,20.1,17.2,20.7s25.4,1.4,38.1,1.6,24.6,1.2,36.6-.3c22.8-3,45.4-7.5,68.2-11.2,10.4-1.8,20.8-3.8,31.3-4.8,13.2-1.2,26,2.8,38.9,4.9,16.2,2.6,32-7.4,35.7-23.5a106.2,106.2,0,0,0,1.9-15.9c.6-8.3,2.3-16.8,1-24.9-3.4-21.8-8-43.3-12.3-64.9-3.7-17.9-5.2-35.9-1.9-53.9s7.3-35.1,10.9-52.6c1.5-7.7,3.8-15.5,3.6-23.2-.2-13.2-2-26.3-3.3-39.5s-12.6-25.5-26.4-27c-12.2-1.3-24.4-2.4-36.5-3a197.6,197.6,0,0,0-28.8.5c-23.7,2.5-47.5,5.7-71.2,8.5C-2.4-132-3.8-130.8-4.6-125.9Z" transform="translate(134.3 162.9)"/><path class="cls-3" d="M-4.6-125.9c.8-4.9,2.2-6.1,7-6.7,23.7-2.8,47.5-6,71.2-8.5a197.6,197.6,0,0,1,28.8-.5c12.1.6,24.3,1.7,36.5,3,13.8,1.5,25,13.2,26.4,27s3.1,26.3,3.3,39.5c.2,7.7-2.1,15.5-3.6,23.2-3.6,17.5-7.7,35-10.9,52.6s-1.8,36,1.9,53.9c4.3,21.6,8.9,43.1,12.3,64.9,1.3,8.1-.4,16.6-1,24.9a106.2,106.2,0,0,1-1.9,15.9c-3.7,16.1-19.5,26.1-35.7,23.5-12.9-2.1-25.7-6.1-38.9-4.9-10.5,1-20.9,3-31.3,4.8-22.8,3.7-45.4,8.2-68.2,11.2-12,1.5-24.4.5-36.6.3s-25.4-.9-38.1-1.6-18.8-8.7-17.2-20.7c.4-2.9.5-5.8,1.1-8.6,4.1-18.9,1.6-37.9.2-56.9s-2.6-36.8-4.1-55.2c-1.8-21.9-3.7-43.7-5.7-65.6-1.4-16.6-4.1-33.2-4.2-49.9a288,288,0,0,1,3.8-47.2c2.3-15.1,15.8-25,31.2-24.4,11.7.5,23.4,1.9,35.1,2.5,7,.3,14,0,20.9-.3,3.8-.1,6.3,1,7.4,4.8-.6,4.4-2.1,6.3-6.2,6.4-7.5.3-15,.7-22.4.3-11.6-.5-23.1-1.9-34.7-2.5s-19.2,6.5-20.8,17.3c-.4,2.8-.8,5.6-1,8.5-.9,11.3-2.6,22.6-2.2,33.9.6,16.7,2.9,33.3,4.3,49.9,2.2,25.3,4.4,50.7,6.5,76,1.5,18.8,3,37.5,4.2,56.3.6,10.3,1.2,20.7.9,31-.3,8.2-1.9,16.3-3,24.4s.8,8.6,7.5,8.9c10.6.4,21.2,1.1,31.8,1.3,13.5.2,27.3,1.5,40.6-.3,27.4-3.6,54.6-8.8,81.8-13.5,11.9-2,23.7-3.7,35.7-1.4,7.8,1.5,15.7,2.8,23.5,4.1A19.9,19.9,0,0,0,155,158c.4-3.8.9-7.7,1.1-11.5.5-7.8,2.1-15.9.9-23.4-3.4-21.7-7.9-43.1-12.3-64.6s-5-41.6-.8-62.4c3.3-16.6,7.1-33.1,10.6-49.7,1.3-6.1,3.1-12.5,2.9-18.7-.4-12.4-2.1-24.8-3.2-37.2-.9-9.4-7.4-16.6-16.7-17.9-6.2-.9-12.5-.9-18.6-1.7-21.2-2.9-42.3-1.8-63.4,1.3-17.2,2.5-34.6,4.3-51.9,6.5C-.4-120.8-3.3-121.9-4.6-125.9Z" transform="translate(134.3 162.9)"/><path class="cls-4" d="M-4.6-125.9c1.3,4,4.2,5.1,8.2,4.6,17.3-2.2,34.7-4,51.9-6.5,21.1-3.1,42.2-4.2,63.4-1.3,6.1.8,12.4.8,18.6,1.7,9.3,1.3,15.8,8.5,16.7,17.9,1.1,12.4,2.8,24.8,3.2,37.2.2,6.2-1.6,12.6-2.9,18.7C151-37,147.2-20.5,143.9-3.9c-4.2,20.8-3.4,41.6.8,62.4s8.9,42.9,12.3,64.6c1.2,7.5-.4,15.6-.9,23.4-.2,3.8-.7,7.7-1.1,11.5a19.9,19.9,0,0,1-23.4,17.7c-7.8-1.3-15.7-2.6-23.5-4.1-12-2.3-23.8-.6-35.7,1.4-27.2,4.7-54.4,9.9-81.8,13.5-13.3,1.8-27.1.5-40.6.3-10.6-.2-21.2-.9-31.8-1.3-6.7-.3-8.4-2.3-7.5-8.9s2.7-16.2,3-24.4c.3-10.3-.3-20.7-.9-31-1.2-18.8-2.7-37.5-4.2-56.3-2.1-25.3-4.3-50.7-6.5-76-1.4-16.6-3.7-33.2-4.3-49.9-.4-11.3,1.3-22.6,2.2-33.9.2-2.9.6-5.7,1-8.5,1.6-10.8,9.8-17.9,20.8-17.3s23.1,2,34.7,2.5c7.4.4,14.9,0,22.4-.3,4.1-.1,5.6-2,6.2-6.4Zm13.5,12-4.9.3c-9.7,1.2-19.5,3.3-29.2,3.2-17.1-.1-34.3-1.4-51.4-2.6-7.2-.5-13.9,3.5-14.7,10.2-1.2,11.6-2.6,23.3-3,34.9-.3,9.2.8,18.4,1.5,27.6s1.5,16.8,2.4,25.2C-89.3-3-88,9.1-86.9,21.3c.9,10.6,1.6,21.3,2.4,32l3.6,48.7c.7,8.2,1.6,16.3,2,24.5s.6,17.9.2,26.8S-80.4,169-81.4,177a4.8,4.8,0,0,0,1.5.4c13.6.7,27.1,1.6,40.6,2.1s25.9.4,38.8-2c21.6-4.1,43.3-7.5,65-11,9.9-1.6,19.9-4.1,29.8-3.7,12.7.4,25.5,2.7,38,5.1,7.9,1.5,15.3-5.4,15.2-12.4-.1-4.5.9-8.9,1.2-13.4.4-6.2,1.7-12.6.6-18.6-4.1-23.6-9.1-47-13.6-70.6A144.3,144.3,0,0,1,135,1.3c3.1-17.2,7.3-34.3,10.7-51.4,1.7-8.4,4.7-16.6,3.9-25.4-1.1-10.6-2-21.2-3-31.9-.7-7.8-4.9-11.9-12.6-12.5s-13.2-.7-19.7-1.6c-18.3-2.6-36.5-1.3-54.7,1.1-13.6,1.8-27.3,3.4-41,5.1C14.2-118,12.2-117.7,8.9-113.9Z" transform="translate(134.3 162.9)"/><path class="cls-5" d="M18.6-115.3c13.7-1.7,27.4-3.3,41-5.1,18.2-2.4,36.4-3.7,54.7-1.1,6.5.9,13.1,1.1,19.7,1.6s11.9,4.7,12.6,12.5c1,10.7,1.9,21.3,3,31.9.8,8.8-2.2,17-3.9,25.4C142.3-33,138.1-15.9,135,1.3a144.3,144.3,0,0,0,.7,51.6c4.5,23.6,9.5,47,13.6,70.6,1.1,6-.2,12.4-.6,18.6-.3,4.5-1.3,8.9-1.2,13.4.1,7-7.3,13.9-15.2,12.4-12.5-2.4-25.3-4.7-38-5.1-9.9-.4-19.9,2.1-29.8,3.7-21.7,3.5-43.4,6.9-65,11-12.9,2.4-25.8,2.4-38.8,2s-27-1.4-40.6-2.1a4.8,4.8,0,0,1-1.5-.4c1-8,2.3-15.8,2.7-23.7s.2-17.9-.2-26.8-1.3-16.3-2-24.5l-3.6-48.7c-.8-10.7-1.5-21.4-2.4-32C-88,9.1-89.3-3-90.4-15.1c-.9-8.4-1.8-16.8-2.4-25.2s-1.8-18.4-1.5-27.6c.4-11.6,1.8-23.3,3-34.9.8-6.7,7.5-10.7,14.7-10.2,17.1,1.2,34.3,2.5,51.4,2.6,9.7.1,19.5-2,29.2-3.2l4.9-.3c.3,2.3.2,4.7,1,6.8s3.7,4,6.7,3,4.3-3.2,3.7-6.3A28.4,28.4,0,0,0,18.6-115.3ZM34.4,76.2l-6.9,7.5c-3-1.9-5.9-2.1-8.3.8C9.9,96.2,5.5,109.4,8.5,124.3c6.4,31.1,38.2,47.2,67,33.1,32.7-16,49.9-43.5,53-79.4a454.8,454.8,0,0,0,.2-71c-1.1-15.5-11-27.6-25.8-30.7A31.6,31.6,0,0,0,67.5-5.4,216.9,216.9,0,0,0,56.3,25c-4.4,15.6-11,29.8-21.5,42.1C32.2,70.2,32,73.1,34.4,76.2ZM-39.1,28.5c24.6,0,44.8-20.1,44.7-44.6A44.9,44.9,0,0,0-38.9-60.7,45,45,0,0,0-83.7-16,44.7,44.7,0,0,0-39.1,28.5ZM133.4-95.3c-.3-8.2-3.9-14.8-11.4-19s-16.1-3.6-23.7,1.4C81.9-102.1,72.4-86.7,68.9-67.5,66.6-54.6,74.2-43.4,86.5-41a21.6,21.6,0,0,0,25.3-17.2,29.1,29.1,0,0,1,12.5-19.1C130.3-81.4,133.2-87.6,133.4-95.3ZM-60.9-77.7c-1.3.5-2.3.8-3.3,1.3-5.1,2.8-10.3,5.4-15.3,8.5a5.3,5.3,0,0,0-1.6,7.8c1.8,2.6,4.9,3.1,7.9,1.3l1.6-1a55.3,55.3,0,0,1,42.7-8.8c4.2.8,7.2-.8,7.8-4.2s-1.3-6.2-5.6-6.7c-7.7-.8-15.3-1.2-23.4-1.8l-1.8-6a72,72,0,0,1,24.5,0c4,.7,6.8-1,7.3-4.4s-1.3-5.9-5.4-6.6c-18.9-3.3-36.9-.3-54,8.4-3.6,1.9-4.9,4.9-3.6,7.8s4.8,4,8.6,2.2L-63-85ZM-17.8,57.2l-11.6,2.5c-3.4.8-5.1,3.4-4.5,6.6s3.3,4.9,6.7,4.3A84.8,84.8,0,0,0,15.4,51.3c1-.9,2.4-2.2,2.3-3.2s-.7-4.7-2-6.2-4.6-1.4-6.8.2L-6.9,53.3l-3.6-7,3.2-1.8A65.4,65.4,0,0,0,13.4,26.4c2.3-3,1.9-6.2-.7-8.3a5.5,5.5,0,0,0-7.9,1.3C-5.6,32.7-19.2,40-35.9,41.7c-3.7.4-5.8,3.1-5.3,6.3s3.2,5.2,6.9,4.7,5.4-.7,8.1-1.2c5.4-1,5.4-1,7.8,4A9.7,9.7,0,0,1-17.8,57.2ZM21-57.7c3,6.2,5.8,11.9,8.7,17.7.8,1.5,1.6,3.6,2.9,4.1s4.5.7,6.1-.2,2.9-4.1,1.9-6.9A83.3,83.3,0,0,0,13.5-80.7,137.7,137.7,0,0,0-3.2-91.2a5.2,5.2,0,0,0-7.5,2.6c-1.3,2.8-.4,5.5,2.5,7.3,1.1.7,2.4,1.2,3.6,1.9C1.9-75.7,8-71.5,13.1-65.8L7.6-61.4l-7.3-6c-3.1-2.3-6.3-2.2-8.4.3s-1.7,6,1.4,8.4A58.3,58.3,0,0,1,10.8-37.1c1.6,3.3,4.9,4.5,7.7,3s3.9-4.6,2.3-8-3.8-7-5.9-10.7ZM-23.8,140.1a19.2,19.2,0,0,0-19.1-19.4,19.4,19.4,0,0,0-19.2,19,19.4,19.4,0,0,0,19.2,19.4A19.2,19.2,0,0,0-23.8,140.1ZM-45.3,72.3c3.9-.6,6.6-2.6,6.9-5.8S-40.3,61-44,60.3C-51,59-58.1,57.6-65.1,56c-3.9-.9-6.8.1-8,3.2s.5,6.3,4.4,7.4C-61,68.7-53.1,70.4-45.3,72.3ZM41.2,12.9c-.2-3.5-1.7-5.4-4.4-6s-5.1.7-6.5,3.6L20.8,28.9c-1.6,3.1-1.1,6.2,1.4,7.9a5.5,5.5,0,0,0,8.1-2c3.3-5.7,6.3-11.7,9.4-17.6A24.9,24.9,0,0,0,41.2,12.9Zm-13.9-26h-.4v-4.1c-.2-4.1-2.3-6.6-5.6-6.6s-5.5,2.6-5.7,6.9S15-7.1,14.4-2.2,15.6,4.3,18.7,5,24.8,3.7,25.4.1,26.7-8.7,27.3-13.1Zm-42.5,102c0,1.3-.1,2.7,0,4.1a5.1,5.1,0,0,0,5,5c3.2.3,5.2-1.3,5.9-4.4A22.7,22.7,0,0,0-4,89.1c0-6-1.8-8.7-5.6-8.9S-15.3,82.9-15.2,88.9ZM43.3-100c0,1-.1,2,0,3,.2,3.5,2.3,5.7,5.5,5.7s5.4-2.1,5.7-5.6a48.5,48.5,0,0,0-.1-6.6,5.6,5.6,0,0,0-5.9-5.5c-3,.2-5,2.4-5.2,5.7C43.2-102.2,43.3-101.1,43.3-100ZM-64,83.8c-.8.6-2.9,1.5-3.6,3a6.6,6.6,0,0,0,.1,5.5,17.2,17.2,0,0,0,6,5.4,6.3,6.3,0,0,0,5.5-.6c1.4-.9,2.3-3.3,2.3-5S-59.7,83.9-64,83.8Zm206.4,40.6c.1-5.4-1.7-8.5-5.3-8.1-1.8.1-4.8,1.6-5,2.9a23.9,23.9,0,0,0,.5,10.3c.3,1.2,3.4,2.2,5.3,2.1S142.4,129.1,142.4,124.4Zm-14.8,34.7a5.6,5.6,0,0,0,5.7-5.7c0-3.2-5.4-7.9-9.1-7.9a5.5,5.5,0,0,0-5.5,5.4C118.6,154.1,123.9,159,127.6,159.1Zm-132.7-8a37.7,37.7,0,0,0-4.3,4.5c-1.6,2.4-3,5.1-1,8s4,3.2,6.8,2.2,5.8-6.9,5.2-10S-1.1,151.6-5.1,151.1Zm-36.2-45.9c0,5.5,2.1,8.2,6.1,7.9s5.1-2.6,5.2-7-1.5-7.8-5.1-8.2S-41.3,100.2-41.3,105.2ZM129.5-36c4.8,0,7.1-1.5,7.5-4.8s-2.2-6.4-7.4-6.4-7.6,2.2-7.4,5.8S124.9-36,129.5-36ZM52.2-32.1c-.1,6.2,3.7,9.5,8.1,7.1,2.8-1.5,3.2-4.2,3.1-7-.1-4.6-2.1-7.1-5.8-7.1S52.2-36.6,52.2-32.1Z" transform="translate(134.3 162.9)"/><path class="cls-6" d="M18.6-115.3a28.4,28.4,0,0,1,1.7,4.9c.6,3.1-.7,5.4-3.7,6.3s-5.6-.1-6.7-3-.7-4.5-1-6.8C12.2-117.7,14.2-118,18.6-115.3Z" transform="translate(134.3 162.9)"/><path class="cls-7" d="M27.5,83.7l6.9-7.5c4.5,2,6,1.7,9.1-1.9A117.9,117.9,0,0,0,65.9,32.6,352.6,352.6,0,0,1,77.9-1c3.4-8.1,10.2-12.2,19.3-11.8,4.7,4.9,8.3,10.4,8.9,17.2.9,9.6,1.4,19.3,1.5,29s-.3,19.3-.7,29c-.3,7.5-.5,14.9-1.5,22.3a86,86,0,0,1-24.7,50.2c-5.8,5.8-12.9,10.4-19.4,15.5-14.3,4-32-4.7-38.8-19.4s-4.6-25.7,3.9-37.3C28.8,90.5,30.6,87.4,27.5,83.7Zm15.1,28.7h0c-.1,1.3-.2,2.5-.2,3.7-.2,4.1,1.6,6.7,4.9,7.1s5.9-1.9,6.2-5.9q1.1-13.8,1.8-27.6c.2-3.5-1.9-5.8-5.1-6s-5.7,1.9-6,5.6C43.6,97,43.1,104.7,42.6,112.4Zm59.2-76.1c-1-7.5-2-15.7-3-23.8-.6-3.9-3.1-6.2-6.4-5.8s-5.3,3.2-4.8,7.2q1.4,12,3,24c.5,3.7,3.2,5.8,6.4,5.4S101.9,40.5,101.8,36.3ZM89.6,115.7c.1-3.7-3.9-8.7-7.1-8.8a5.6,5.6,0,0,0-5.9,5.4c-.1,3.8,3.9,8.8,7.1,8.9A5.8,5.8,0,0,0,89.6,115.7Z" transform="translate(134.3 162.9)"/><path class="cls-8" d="M97.2-12.8C88.1-13.2,81.3-9.1,77.9-1a352.6,352.6,0,0,0-12,33.6A117.9,117.9,0,0,1,43.5,74.3c-3.1,3.6-4.6,3.9-9.1,1.9-2.4-3.1-2.2-6,.4-9.1C45.3,54.8,51.9,40.6,56.3,25A216.9,216.9,0,0,1,67.5-5.4a31.6,31.6,0,0,1,35.4-18.3C117.7-20.6,127.6-8.5,128.7,7a454.8,454.8,0,0,1-.2,71c-3.1,35.9-20.3,63.4-53,79.4-28.8,14.1-60.6-2-67-33.1-3-14.9,1.4-28.1,10.7-39.8,2.4-2.9,5.3-2.7,8.3-.8,3.1,3.7,1.3,6.8-1.1,10-8.5,11.6-10,24.1-3.9,37.3,6.8,14.7,24.5,23.4,38.8,19.4,2.8-.8,5.9-1.2,8.5-2.6,26.5-13.4,42.8-34.8,46.7-64.2,3.3-25.6,2.8-51.5.8-77.3C116.5-4.8,107.7-12.9,97.2-12.8Z" transform="translate(134.3 162.9)"/><path class="cls-9" d="M-39.1,28.5A44.7,44.7,0,0,1-83.7-16,45,45,0,0,1-38.9-60.7,44.9,44.9,0,0,1,5.6-16.1C5.7,8.4-14.5,28.5-39.1,28.5Zm.2-11.3A33.4,33.4,0,0,0-5.6-16.1,33.5,33.5,0,0,0-38.9-49.4c-18.4-.1-33.8,15.3-33.5,33.6A33.3,33.3,0,0,0-38.9,17.2Z" transform="translate(134.3 162.9)"/><path class="cls-9" d="M133.4-95.3c-.2,7.7-3.1,13.9-9.1,18a29.1,29.1,0,0,0-12.5,19.1A21.6,21.6,0,0,1,86.5-41C74.2-43.4,66.6-54.6,68.9-67.5c3.5-19.2,13-34.6,29.4-45.4,7.6-5,15.7-5.8,23.7-1.4S133.1-103.5,133.4-95.3Zm-49,41.4c6.7,4.4,15,1.3,16.4-6.6a39.1,39.1,0,0,1,16.5-25.6c7.2-5,6.3-14.3-1.4-18.6a9.8,9.8,0,0,0-10.2.5C90.9-95,82.6-81.6,79.9-64.6,79.2-60.3,80.5-56.4,84.4-53.9Z" transform="translate(134.3 162.9)"/><path class="cls-10" d="M-60.9-77.7-63-85l-11.5,5.1c-3.8,1.8-7.1,1-8.6-2.2s0-5.9,3.6-7.8c17.1-8.7,35.1-11.7,54-8.4,4.1.7,6,3.1,5.4,6.6s-3.3,5.1-7.3,4.4a72,72,0,0,0-24.5,0l1.8,6c8.1.6,15.7,1,23.4,1.8,4.3.5,6.3,3.3,5.6,6.7s-3.6,5-7.8,4.2a55.3,55.3,0,0,0-42.7,8.8l-1.6,1c-3,1.8-6.1,1.3-7.9-1.3a5.3,5.3,0,0,1,1.6-7.8c5-3.1,10.2-5.7,15.3-8.5C-63.2-76.9-62.2-77.2-60.9-77.7Z" transform="translate(134.3 162.9)"/><path class="cls-1" d="M-17.8,57.2a9.7,9.7,0,0,0-.6-1.7c-2.4-5-2.4-5-7.8-4q-4.1.8-8.1,1.2c-3.7.5-6.5-1.5-6.9-4.7s1.6-5.9,5.3-6.3c16.7-1.7,30.3-9,40.7-22.3a5.5,5.5,0,0,1,7.9-1.3c2.6,2.1,3,5.3.7,8.3A65.4,65.4,0,0,1-7.3,44.5l-3.2,1.8,3.6,7L8.9,42.1c2.2-1.6,4.9-2.2,6.8-.2s1.8,4.1,2,6.2-1.3,2.3-2.3,3.2A84.8,84.8,0,0,1-27.2,70.6c-3.4.6-6.1-1.2-6.7-4.3s1.1-5.8,4.5-6.6Z" transform="translate(134.3 162.9)"/><path class="cls-10" d="M21-57.7l-6.1,4.9c2.1,3.7,4.1,7.2,5.9,10.7s.6,6.6-2.3,8-6.1.3-7.7-3A58.3,58.3,0,0,0-6.7-58.7c-3.1-2.4-3.5-5.9-1.4-8.4s5.3-2.6,8.4-.3l7.3,6,5.5-4.4C8-71.5,1.9-75.7-4.6-79.4c-1.2-.7-2.5-1.2-3.6-1.9-2.9-1.8-3.8-4.5-2.5-7.3a5.2,5.2,0,0,1,7.5-2.6A137.7,137.7,0,0,1,13.5-80.7,83.3,83.3,0,0,1,40.6-43c1,2.8.8,5.6-1.9,6.9s-4.3.8-6.1.2-2.1-2.6-2.9-4.1C26.8-45.8,24-51.5,21-57.7Z" transform="translate(134.3 162.9)"/><path class="cls-11" d="M-23.8,140.1a19.2,19.2,0,0,1-19.1,19,19.4,19.4,0,0,1-19.2-19.4,19.4,19.4,0,0,1,19.2-19A19.2,19.2,0,0,1-23.8,140.1Zm-11.3-.3a7.7,7.7,0,0,0-7.8-7.8,8,8,0,0,0-7.9,7.8,8,8,0,0,0,8.1,8A7.8,7.8,0,0,0-35.1,139.8Z" transform="translate(134.3 162.9)"/><path class="cls-12" d="M-45.3,72.3c-7.8-1.9-15.7-3.6-23.4-5.7-3.9-1.1-5.5-4.2-4.4-7.4s4.1-4.1,8-3.2c7,1.6,14.1,3,21.1,4.3,3.7.7,6,3.1,5.6,6.2S-41.4,71.7-45.3,72.3Z" transform="translate(134.3 162.9)"/><path class="cls-13" d="M41.2,12.9a24.9,24.9,0,0,1-1.5,4.3c-3.1,5.9-6.1,11.9-9.4,17.6a5.5,5.5,0,0,1-8.1,2c-2.5-1.7-3-4.8-1.4-7.9l9.5-18.4c1.4-2.9,3.5-4.3,6.5-3.6S41,9.4,41.2,12.9Z" transform="translate(134.3 162.9)"/><path class="cls-13" d="M27.3-13.1C26.7-8.7,26.2-4.3,25.4.1S21.8,5.7,18.7,5,14,1.5,14.4-2.2s1-9.9,1.2-14.8,2.2-6.9,5.7-6.9,5.4,2.5,5.6,6.6v4.1Z" transform="translate(134.3 162.9)"/><path class="cls-14" d="M-15.2,88.9c-.1-6,1.8-8.8,5.6-8.7S-4,83.1-4,89.1a22.7,22.7,0,0,1-.3,4.5C-5,96.7-7,98.3-10.2,98a5.1,5.1,0,0,1-5-5C-15.3,91.6-15.2,90.2-15.2,88.9Z" transform="translate(134.3 162.9)"/><path class="cls-13" d="M43.3-100c0-1.1-.1-2.2,0-3.3.2-3.3,2.2-5.5,5.2-5.7a5.6,5.6,0,0,1,5.9,5.5,48.5,48.5,0,0,1,.1,6.6c-.3,3.5-2.5,5.7-5.7,5.6s-5.3-2.2-5.5-5.7C43.2-98,43.3-99,43.3-100Z" transform="translate(134.3 162.9)"/><path class="cls-13" d="M-64,83.8c4.3.1,10.4,5.2,10.3,8.3s-.9,4.1-2.3,5a6.3,6.3,0,0,1-5.5.6,17.2,17.2,0,0,1-6-5.4,6.6,6.6,0,0,1-.1-5.5C-66.9,85.3-64.8,84.4-64,83.8Z" transform="translate(134.3 162.9)"/><path class="cls-15" d="M142.4,124.4c0,4.7-1.3,7.2-4.5,7.2s-5-.9-5.3-2.1a23.9,23.9,0,0,1-.5-10.3c.2-1.3,3.2-2.8,5-2.9C140.7,115.9,142.5,119,142.4,124.4Z" transform="translate(134.3 162.9)"/><path class="cls-12" d="M127.6,159.1c-3.7-.1-9-5-8.9-8.2a5.5,5.5,0,0,1,5.5-5.4c3.7,0,9.1,4.7,9.1,7.9A5.6,5.6,0,0,1,127.6,159.1Z" transform="translate(134.3 162.9)"/><path class="cls-6" d="M-5.1,151.1c4,.5,6.1,1.7,6.7,4.7s-2.4,8.9-5.2,10-5.2.3-6.8-2.2-.6-5.6,1-8A37.7,37.7,0,0,1-5.1,151.1Z" transform="translate(134.3 162.9)"/><path class="cls-6" d="M-41.3,105.2c0-5,2.3-7.7,6.2-7.3s5.1,2.9,5.1,8.2-1.8,6.7-5.2,7S-41.3,110.7-41.3,105.2Z" transform="translate(134.3 162.9)"/><path class="cls-12" d="M129.5-36c-4.6,0-7.2-1.9-7.3-5.4s2.6-5.8,7.4-5.8,7.9,2.3,7.4,6.4S134.3-36,129.5-36Z" transform="translate(134.3 162.9)"/><path class="cls-12" d="M52.2-32.1c0-4.5,1.9-6.9,5.4-7s5.7,2.5,5.8,7.1c.1,2.8-.3,5.5-3.1,7C55.9-22.6,52.1-25.9,52.2-32.1Z" transform="translate(134.3 162.9)"/><path class="cls-16" d="M97.2-12.8c10.5-.1,19.3,8,20.1,19.1,2,25.8,2.5,51.7-.8,77.3-3.9,29.4-20.2,50.8-46.7,64.2-2.6,1.4-5.7,1.8-8.5,2.6,6.5-5.1,13.6-9.7,19.4-15.5a86,86,0,0,0,24.7-50.2c1-7.4,1.2-14.8,1.5-22.3.4-9.7.9-19.3.7-29s-.6-19.4-1.5-29C105.5-2.4,101.9-7.9,97.2-12.8Z" transform="translate(134.3 162.9)"/><path class="cls-17" d="M42.6,112.4c.5-7.7,1-15.4,1.6-23.1.3-3.7,2.6-5.8,6-5.6s5.3,2.5,5.1,6q-.7,13.8-1.8,27.6c-.3,4-3,6.3-6.2,5.9s-5.1-3-4.9-7.1c0-1.2.1-2.4.2-3.7Z" transform="translate(134.3 162.9)"/><path class="cls-17" d="M101.8,36.3c.1,4.2-1.8,6.7-4.8,7s-5.9-1.7-6.4-5.4q-1.6-12-3-24c-.5-4,1.5-6.8,4.8-7.2s5.8,1.9,6.4,5.8C99.8,20.6,100.8,28.8,101.8,36.3Z" transform="translate(134.3 162.9)"/><path class="cls-18" d="M89.6,115.7a5.8,5.8,0,0,1-5.9,5.5c-3.2-.1-7.2-5.1-7.1-8.9a5.6,5.6,0,0,1,5.9-5.4C85.7,107,89.7,112,89.6,115.7Z" transform="translate(134.3 162.9)"/><path class="cls-19" d="M-38.9,17.2a33.3,33.3,0,0,1-33.5-33c-.3-18.3,15.1-33.7,33.5-33.6A33.5,33.5,0,0,1-5.6-16.1,33.4,33.4,0,0,1-38.9,17.2Zm25.4-33.4C-12.9-28-24-41.1-38.2-41.5S-64.6-29-64.6-16.3-53.4,9.5-39.1,9.5-13.2-2.4-13.5-16.2Z" transform="translate(134.3 162.9)"/><path class="cls-20" d="M84.4-53.9c-3.9-2.5-5.2-6.4-4.5-10.7,2.7-17,11-30.4,25.8-39.6a9.8,9.8,0,0,1,10.2-.5c1.7,7.6-1.3,13.5-7.3,17.6-7.8,5.4-12.1,12.8-13.6,22C94.1-59.9,89.2-54.8,84.4-53.9Z" transform="translate(134.3 162.9)"/><path class="cls-21" d="M84.4-53.9c4.8-.9,9.7-6,10.6-11.2,1.5-9.2,5.8-16.6,13.6-22,6-4.1,9-10,7.3-17.6,7.7,4.3,8.6,13.6,1.4,18.6a39.1,39.1,0,0,0-16.5,25.6C99.4-52.6,91.1-49.5,84.4-53.9Z" transform="translate(134.3 162.9)"/><path class="cls-22" d="M-35.1,139.8a7.8,7.8,0,0,1-7.6,8,8,8,0,0,1-8.1-8,8,8,0,0,1,7.9-7.8A7.7,7.7,0,0,1-35.1,139.8Z" transform="translate(134.3 162.9)"/><path class="cls-23" d="M-13.5-16.2C-13.2-2.4-24.8,9.6-39.1,9.5S-64.5-2.4-64.6-16.3s11.7-25.6,26.4-25.2S-12.9-28-13.5-16.2ZM-54-10.5c5.1,0,7.5-1.5,7.7-5.1s-2.2-6-6.7-6.1-8.6,1.9-8.5,5.9S-58.8-10.5-54-10.5Z" transform="translate(134.3 162.9)"/><path class="cls-24" d="M-54-10.5c-4.8,0-7.3-1.7-7.5-5.3s2.8-6.1,8.5-5.9,7,2.4,6.7,6.1S-48.9-10.5-54-10.5Z" transform="translate(134.3 162.9)"/></svg>