<svg id="Layer_1" data-name="Layer 1" xmlns="http://www.w3.org/2000/svg" width="367.2" height="368.4" viewBox="0 0 367.2 368.4"><defs><style>.cls-1{fill:#252527;}.cls-2{fill:#fcdd30;}.cls-3{fill:#fa5959;}.cls-4{fill:#2fb0d3;}.cls-5{fill:#fde076;}.cls-6{fill:#f7ceb2;}</style></defs><path class="cls-1" d="M-134.2,55.8c-3.4-1.2-6.7-1.9-9.7-3.3a21.9,21.9,0,0,1-11.7-23.4A21.9,21.9,0,0,1-136.3,11c4.6-.4,9.4-.1,15.1-.1-5.6-6.9-7.6-13.8-6.9-21.6C-125.8-34.1-107-55.5-84-60.8l3.5-.8c-13-8.4-20.3-19.8-20.2-35.1,0-11.2,4.4-20.8,12.7-28.5a39.4,39.4,0,0,1,56,3c13.4,15,15.4,44.1-9.7,60.3,4.7,1.8,9.5,3.7,14.4,5.4a3,3,0,0,0,2.6-.5A68.6,68.6,0,0,1,6.7-71.8a1.5,1.5,0,0,0,.7-.3C-14.1-88.6-21-105.7-14.2-125.8a44.4,44.4,0,0,1,42.6-30c18.7.1,35.3,12.6,41.3,30.6,5,15.1,2.2,38.9-21.6,52.9,4.9,1.6,10,2.7,14.7,4.9s10.8,6.5,16.3,9.7c1.1.6,2.5,1.5,3.5,1.2,4.9-1.6,9.7-3.6,14.4-5.4-25.9-16.4-23-47.7-7.6-62.4a39.4,39.4,0,0,1,57.3,2.5c13.9,16.2,13.9,44.4-10.2,59.8,4.9,1.9,10,3.3,14.6,5.7,18.5,9.3,29.1,24.5,32.2,44.9a25.7,25.7,0,0,1-4.8,19.8,18.4,18.4,0,0,0-1.5,2.3h12.4c11.4.6,20.3,8.5,21.7,19.1a22.2,22.2,0,0,1-15.6,24.3,52.9,52.9,0,0,1-6,1.3c0,4.5.1,8.8,0,13.2-.1,7.9-5.1,13.1-12.9,13.6s-13.2.7-19.8.8c-3.3,0-4.9,1.3-6.1,4.3-3.1,8.3-6.5,16.4-10.1,24.5-1.3,2.8-1,4.8,1.1,7,4.6,4.9,9.1,9.9,13.6,14.9s5.1,13.1-.5,18.8c-8.3,8.4-16.7,16.8-25.2,25.1-5.8,5.8-12.9,6-19,.5s-9.8-8.8-14.6-13.4c-2.3-2.2-4.3-2.5-7.4-1.1-7.9,3.6-15.9,6.9-24,10-3,1.1-4.5,2.7-4.6,5.9-.2,6.7-.5,13.3-.8,19.9s-5.7,13.1-13.8,13.1H9.9c-8.1,0-13.4-5.2-13.7-13.2s-.7-13.2-.9-19.8c-.1-3-1.3-4.7-4.2-5.8-8.2-3.2-16.4-6.5-24.4-10.1-3-1.4-5-1.1-7.3,1.1-4.7,4.5-9.6,8.8-14.4,13.2-6.4,5.7-13.4,5.6-19.6-.6l-24.6-24.6c-6-6-6.1-13-.5-19.2s8.6-9.7,13.1-14.4c2.4-2.4,2.6-4.6,1.2-7.7-3.5-7.8-6.8-15.7-9.8-23.7-1.3-3.3-3-4.7-6.6-4.8-6.3,0-12.7-.4-19.1-.7-8.2-.4-13.2-5.6-13.3-14Zm9-.5V67.8c.1,4,1.2,5.2,5.4,5.4l19.4.8c7,.3,10.9,3.5,13.4,10,3.1,8,6.3,15.9,9.8,23.7s2.7,11.4-2.2,16.8l-13.4,14.7c-2.5,2.9-2.5,4.6.2,7.4,8.1,8.1,16.3,16.2,24.3,24.4,2.6,2.6,4.9,2.4,7.5.1,4.7-4.5,9.5-8.8,14.3-13.2s10.2-5.6,17.4-2.3,15.1,6.6,22.8,9.5,10.2,6.2,10.6,14l.9,19.1c.1,4.1,1.3,5.3,5.4,5.3H44.7c4.3,0,5.3-1.1,5.5-5.6.3-6.5.5-12.9.9-19.4s3.5-10.7,10.5-13.3,15.5-6.2,23.1-9.6,11.3-2.9,16.8,2,10,9,14.9,13.6c2.5,2.3,4.7,2.3,7.1-.2l24.6-24.6c2.5-2.4,2.5-4.6.2-7.1-4.5-4.8-8.8-9.6-13.2-14.4s-5.7-10.4-2.4-17.4,6.6-15,9.4-22.7,6.5-10.5,14.7-10.8c6.2-.2,12.5-.3,18.7-.9,1.7-.2,4.6-1.8,4.7-3,.5-4.9.2-9.9.2-14.7H117.2c-2.7,46.5-40.1,81.7-83.3,84.5-21.7,1.3-41.6-4.2-59.1-17.2C-47.7,106-59.6,83.3-61.8,55.3ZM27.3,46.2H189.8c6.3-.6,11.5-5.3,12.3-11.2a12.9,12.9,0,0,0-8-14.2,24.4,24.4,0,0,0-8.1-1.1H-130.7a30.4,30.4,0,0,0-5.2.4,12.7,12.7,0,0,0-10.9,12,12.8,12.8,0,0,0,9.4,13.5,25.5,25.5,0,0,0,6.7.7Zm0-35.6h0c15.7,0,31.5.3,47.2-.1,11.3-.2,20.6-11,19.6-22.1C92-36.3,73.6-57.7,49.2-62.1,38.9-64,28.1-63.7,17.5-63.7A56.4,56.4,0,0,0-35-27.2,52.8,52.8,0,0,0-38.6-9.4c.1,11.3,9.3,19.8,20.7,19.9C-2.8,10.7,12.2,10.6,27.3,10.6ZM-28.5,55.4C-27.1,81.6-3,109.7,32.9,107,59.3,105,86,78,83.5,55.4ZM96.1,10.5h.8c19.9,0,39.9.1,59.8-.1,11.4-.1,19.1-9.4,17.7-20.8a49.2,49.2,0,0,0-37.3-41.6c-12.1-2.9-24.5-2-36.8-.8-4.1.4-8,2.1-12.3,3.2,2.8,4.4,5.4,7.9,7.4,11.7,5.2,10.3,9.2,21,7,32.6C101.3.3,98.3,5.3,96.1,10.5ZM-32.5-49.2c-3.1-1-5.5-2.4-8-2.5-10.4-.8-20.9-1.7-31.3-1.6-22.2.4-41.2,16.6-46.5,38.2-3.9,16.3,6.3,26.5,20.6,25.9,17.9-.8,35.9-.2,53.9-.2l4.5-.2c-10-11-9.7-22.9-6-35.4A70.8,70.8,0,0,1-32.5-49.2Zm95.3-62.5a35.2,35.2,0,0,0-35.2-35.1A35.2,35.2,0,0,0-7.5-111.9,35.3,35.3,0,0,0,27.6-76.6,35.2,35.2,0,0,0,62.8-111.7ZM93.1,55.4C90,87.7,65.6,112.8,34.6,115.8,19,117.3,4.4,114-8.7,105.1c-17.5-12-27-28.8-29.1-49.6H-52.5c1.7,40.4,37.2,77.9,84.4,75.4,45.6-2.3,75.2-40.9,75.8-75.5ZM86.7-96A30,30,0,0,0,117-66a30.2,30.2,0,0,0,30.1-30.3,30.4,30.4,0,0,0-30.6-30.3A30.2,30.2,0,0,0,86.7-96Zm-118-.3a30.3,30.3,0,0,0-30.2-30.3A30.5,30.5,0,0,0-91.8-96,30.3,30.3,0,0,0-61.3-66,30.1,30.1,0,0,0-31.3-96.3Z" transform="translate(156 155.8)"/><path class="cls-2" d="M-125.2,55.3h63.4c2.2,28,14.1,50.7,36.6,67.4,17.5,13,37.4,18.5,59.1,17.2,43.2-2.8,80.6-38,83.3-84.5h63.2c0,4.8.3,9.8-.2,14.7-.1,1.2-3,2.8-4.7,3-6.2.6-12.5.7-18.7.9-8.2.3-11.8,3.2-14.7,10.8s-6,15.3-9.4,22.7-2.8,11.6,2.4,17.4,8.7,9.6,13.2,14.4c2.3,2.5,2.3,4.7-.2,7.1L123.5,171c-2.4,2.5-4.6,2.5-7.1.2-4.9-4.6-9.9-9.1-14.9-13.6s-10-5.2-16.8-2-15.3,6.6-23.1,9.6-10,5.9-10.5,13.3-.6,12.9-.9,19.4c-.2,4.5-1.2,5.6-5.5,5.6H10.6c-4.1,0-5.3-1.2-5.4-5.3l-.9-19.1c-.4-7.8-3.3-11.2-10.6-14s-15.3-6.1-22.8-9.5-11.5-3-17.4,2.3-9.6,8.7-14.3,13.2c-2.6,2.3-4.9,2.5-7.5-.1-8-8.2-16.2-16.3-24.3-24.4-2.7-2.8-2.7-4.5-.2-7.4l13.4-14.7c4.9-5.4,5.3-10.1,2.2-16.8S-83.9,92-87,84c-2.5-6.5-6.4-9.7-13.4-10l-19.4-.8c-4.2-.2-5.3-1.4-5.4-5.4Z" transform="translate(156 155.8)"/><path class="cls-3" d="M27.3,46.2h-158a25.5,25.5,0,0,1-6.7-.7A12.8,12.8,0,0,1-146.8,32a12.7,12.7,0,0,1,10.9-12,30.4,30.4,0,0,1,5.2-.4H186a24.4,24.4,0,0,1,8.1,1.1,12.9,12.9,0,0,1,8,14.2c-.8,5.9-6,10.6-12.3,11.2H27.3Z" transform="translate(156 155.8)"/><path class="cls-4" d="M27.3,10.6c-15.1,0-30.1.1-45.2-.1-11.4-.1-20.6-8.6-20.7-19.9A52.8,52.8,0,0,1-35-27.2,56.4,56.4,0,0,1,17.5-63.7c10.6,0,21.4-.3,31.7,1.6C73.6-57.7,92-36.3,94.1-11.7c1,11.1-8.3,21.9-19.6,22.1-15.7.4-31.5.1-47.2.1Z" transform="translate(156 155.8)"/><path class="cls-5" d="M-28.5,55.4h112C86,78,59.3,105,32.9,107-3,109.7-27.1,81.6-28.5,55.4Z" transform="translate(156 155.8)"/><path class="cls-4" d="M96.1,10.5c2.2-5.2,5.2-10.2,6.3-15.7,2.2-11.6-1.8-22.3-7-32.6-2-3.8-4.6-7.3-7.4-11.7,4.3-1.1,8.2-2.8,12.3-3.2,12.3-1.2,24.7-2.1,36.8.8a49.2,49.2,0,0,1,37.3,41.6c1.4,11.4-6.3,20.7-17.7,20.8-19.9.2-39.9.1-59.8.1Z" transform="translate(156 155.8)"/><path class="cls-4" d="M-32.5-49.2A70.8,70.8,0,0,0-45.3-25c-3.7,12.5-4,24.4,6,35.4l-4.5.2c-18,0-36-.6-53.9.2-14.3.6-24.5-9.6-20.6-25.9C-113-36.7-94-52.9-71.8-53.3c10.4-.1,20.9.8,31.3,1.6C-38-51.6-35.6-50.2-32.5-49.2Z" transform="translate(156 155.8)"/><path class="cls-6" d="M62.8-111.7A35.2,35.2,0,0,1,27.6-76.6,35.3,35.3,0,0,1-7.5-111.9a35.2,35.2,0,0,1,35.1-34.9A35.2,35.2,0,0,1,62.8-111.7Z" transform="translate(156 155.8)"/><path class="cls-6" d="M86.7-96a30.2,30.2,0,0,1,29.8-30.6,30.4,30.4,0,0,1,30.6,30.3A30.2,30.2,0,0,1,117-66,30,30,0,0,1,86.7-96Z" transform="translate(156 155.8)"/><path class="cls-6" d="M-31.3-96.3A30.1,30.1,0,0,1-61.3-66,30.3,30.3,0,0,1-91.8-96a30.5,30.5,0,0,1,30.3-30.6A30.3,30.3,0,0,1-31.3-96.3Z" transform="translate(156 155.8)"/></svg>