<?xml version="1.0" encoding="iso-8859-1"?>
<!-- Generator: Adobe Illustrator 19.0.0, SVG Export Plug-In . SVG Version: 6.00 Build 0)  -->
<svg version="1.1" id="Layer_1" xmlns="http://www.w3.org/2000/svg" xmlns:xlink="http://www.w3.org/1999/xlink" x="0px" y="0px"
	 viewBox="0 0 512 512" style="enable-background:new 0 0 512 512;" xml:space="preserve">
<g>
	<polygon style="fill:#50A5DC;" points="256,359.896 10,218.711 256,77.526 502,218.711 	"/>
	<path d="M256.01,310.801c-3.466,0-6.834-1.804-8.683-5.024c-2.749-4.79-1.095-10.901,3.695-13.65l50.178-28.799
		c4.794-2.749,10.901-1.093,13.65,3.695c2.749,4.79,1.095,10.901-3.695,13.65l-50.178,28.799
		C259.408,310.372,257.697,310.801,256.01,310.801z"/>
	<path d="M221.419,290.959c-1.688,0-3.398-0.428-4.968-1.329L103.84,225c-4.79-2.749-6.444-8.86-3.695-13.65
		c2.748-4.789,8.859-6.447,13.65-3.695l112.611,64.63c4.79,2.749,6.444,8.86,3.695,13.65
		C228.254,289.155,224.884,290.959,221.419,290.959z"/>
	<polygon style="fill:#FCE600;" points="256,359.765 75.086,255.935 10,293.289 256,434.474 502,293.289 436.914,255.935 	"/>
	<path d="M506.978,284.616L457.117,256l49.861-28.616c3.106-1.782,5.022-5.091,5.022-8.673s-1.916-6.891-5.022-8.673l-246-141.185
		c-3.082-1.77-6.873-1.77-9.955,0l-246,141.185C1.916,211.82,0,215.129,0,218.711s1.916,6.891,5.022,8.673L54.883,256L5.022,284.616
		C1.916,286.398,0,289.707,0,293.289s1.916,6.89,5.022,8.673l246,141.185c1.541,0.885,3.26,1.327,4.978,1.327
		c1.718,0,3.437-0.442,4.978-1.327l246-141.185c3.106-1.783,5.022-5.091,5.022-8.673S510.084,286.398,506.978,284.616z M256,89.057
		l225.91,129.654l-48.661,27.928c-0.448,0.177-0.888,0.379-1.313,0.623L256,348.235L30.09,218.711L256,89.057z M256,422.943
		L30.09,293.289l44.883-25.759l176.05,101.039c1.541,0.885,3.26,1.327,4.978,1.327c1.718,0,3.437-0.442,4.978-1.327l176.05-101.039
		l44.883,25.759L256,422.943z"/>
</g>
<g>
</g>
<g>
</g>
<g>
</g>
<g>
</g>
<g>
</g>
<g>
</g>
<g>
</g>
<g>
</g>
<g>
</g>
<g>
</g>
<g>
</g>
<g>
</g>
<g>
</g>
<g>
</g>
<g>
</g>
</svg>
